<?xml version="1.0" encoding="utf-8"?>
<!-- Generator: Adobe Illustrator 15.1.0, SVG Export Plug-In . SVG Version: 6.00 Build 0)  -->
<!DOCTYPE svg PUBLIC "-//W3C//DTD SVG 1.1//EN" "http://www.w3.org/Graphics/SVG/1.1/DTD/svg11.dtd">
<svg version="1.1" id="레이어_1" xmlns="http://www.w3.org/2000/svg" xmlns:xlink="http://www.w3.org/1999/xlink" x="0px"
	 y="0px" width="28px" height="28px" viewBox="0 0 28 28" enable-background="new 0 0 28 28" xml:space="preserve">
<path fill="#FFFFFF" enable-background="new    " d="M22.738,7.78l-2.52-2.52C20.039,5.09,19.809,5,19.589,5
	c-0.23,0-0.46,0.09-0.63,0.26l-2.851,2.85h-9.58c-0.85,0-1.529,0.68-1.529,1.52v11.84c0,0.84,0.68,1.529,1.529,1.529h11.83
	c0.851,0,1.53-0.689,1.53-1.529V11.89l2.85-2.85C23.089,8.69,23.089,8.13,22.738,7.78z M18.889,21.471
	c0,0.289-0.24,0.529-0.53,0.529H6.528c-0.3,0-0.529-0.24-0.529-0.529V9.63c0-0.29,0.229-0.52,0.529-0.52h8.58L8.879,15.34
	c-0.13,0.131-0.21,0.301-0.21,0.49v2.801c0,0.379,0.31,0.689,0.699,0.689h2.801c0.189,0,0.359-0.07,0.489-0.2l6.23-6.23V21.471z
	 M19.889,10.47l-1,1l-6.85,6.85h-2.37v-2.36l6.85-6.85l1-1l2.07-2.07l2.359,2.37L19.889,10.47z"/>
</svg>
