<?xml version="1.0" encoding="utf-8"?>
<!-- Generator: Adobe Illustrator 15.1.0, SVG Export Plug-In  -->
<!DOCTYPE svg PUBLIC "-//W3C//DTD SVG 1.1//EN" "http://www.w3.org/Graphics/SVG/1.1/DTD/svg11.dtd" [
	<!ENTITY ns_flows "http://ns.adobe.com/Flows/1.0/">
]>
<svg version="1.1"
	 xmlns="http://www.w3.org/2000/svg" xmlns:xlink="http://www.w3.org/1999/xlink" xmlns:a="http://ns.adobe.com/AdobeSVGViewerExtensions/3.0/"
	 x="0px" y="0px" width="28px" height="28px" viewBox="-4.9990234 -5 28 28" style="enable-background:new -4.9990234 -5 28 28;"
	 xml:space="preserve">
<defs>
</defs>
<path style="fill:#FFFFFF;" d="M17.7998047,13.0800781l-0.8701172-0.7998047
	c0.0898438-0.4101563,0.140625-0.8398438,0.140625-1.2802734s-0.0507813-0.8701172-0.140625-1.2802734l0.8701172-0.7998047
	c0.1904297-0.1103516,0.2597656-0.3603516,0.1503906-0.5498047l-1.0097656-1.7402344
	C16.8701172,6.5,16.7304688,6.4296875,16.5898438,6.4296875c-0.0595703,0-0.1298828,0.0205078-0.2001953,0.0507813L16,6.5996094
	V1.5195313C16,0.6796875,15.3095703,0,14.4697266,0H1.5195313C0.6796875,0,0,0.6796875,0,1.5195313v9.9306641
	c0,0.8496094,0.6796875,1.5302734,1.5195313,1.5302734h3.5507813l-0.1103516,0.0996094
	c-0.1904297,0.1103516-0.25,0.3603516-0.1396484,0.5498047l1,1.7402344C5.9003906,15.5,6.0302734,15.5703125,6.1699219,15.5703125
	c0.0703125,0,0.1396484-0.0205078,0.2001953-0.0605469L7.5,15.1601563c0.6201172,0.5800781,1.3798828,1.0302734,2.2197266,1.2900391
	l0.2607422,1.1494141C9.9804688,17.8203125,10.1601563,18,10.3798828,18h2c0.2304688,0,0.4101563-0.1796875,0.4101563-0.4003906
	l0.25-1.1494141c0.8398438-0.2597656,1.5996094-0.7099609,2.2197266-1.2900391l1.1298828,0.3496094
	c0.0703125,0.0400391,0.140625,0.0605469,0.2099609,0.0605469c0.1308594,0,0.2705078-0.0703125,0.3408203-0.2001953
	l1.0097656-1.7402344C18.0595703,13.4404297,17.9902344,13.1904297,17.7998047,13.0800781z M1.5195313,11.9804688
	C1.2304688,11.9804688,1,11.7402344,1,11.4501953V1.5195313C1,1.2304688,1.2304688,1,1.5195313,1h12.9501953
	C14.7597656,1,15,1.2304688,15,1.5195313v5.1005859c-0.5703125-0.4794922-1.2304688-0.8505859-1.9599609-1.0703125l-0.25-1.1494141
	C12.7900391,4.1796875,12.6103516,4,12.3798828,4h-2c-0.2197266,0-0.3994141,0.1796875-0.3994141,0.4003906L9.7197266,5.5498047
	C8.8798828,5.8105469,8.1201172,6.2597656,7.5,6.8398438l-1.1298828-0.359375
	C6.3095703,6.4501953,6.2402344,6.4296875,6.1699219,6.4296875c-0.1396484,0-0.2695313,0.0703125-0.3496094,0.2001953l-1,1.7402344
	C4.7099609,8.5595703,4.7695313,8.8095703,4.9599609,8.9199219l0.8798828,0.7998047
	C5.7402344,10.1298828,5.6904297,10.5595703,5.6904297,11c0,0.3398438,0.0292969,0.6601563,0.0996094,0.9804688H1.5195313z
	 M15.9501953,9.9404297C15.9697266,10.0400391,15.9902344,10.1298828,16,10.2304688
	C16.0498047,10.4902344,16.0703125,10.75,16.0703125,11c0,0.3496094-0.0400391,0.7099609-0.1201172,1.0595703l-0.1298828,0.5703125
	L16.25,13.0195313l0.5800781,0.5400391l-0.5097656,0.8808594l-0.7607422-0.2304688l-0.5498047-0.1796875l-0.4296875,0.3994141
	c-0.5205078,0.4902344-1.1503906,0.8505859-1.8300781,1.0605469l-0.5595703,0.1699219l-0.1201172,0.5703125L11.9003906,17
	h-1.0302734l-0.1699219-0.7695313l-0.1298828-0.5703125l-0.5605469-0.1699219
	c-0.6699219-0.2099609-1.3095703-0.5703125-1.8300781-1.0605469l-0.4199219-0.3994141l-0.5595703,0.1796875l-0.7597656,0.2304688
	l-0.5107422-0.890625l0.5800781-0.5302734l0.0400391-0.0390625l0.390625-0.3505859l-0.1308594-0.5703125
	c-0.0097656-0.0292969-0.0097656-0.0498047-0.0097656-0.0791016C6.7197266,11.6601563,6.6904297,11.3203125,6.6904297,11
	c0-0.3496094,0.0400391-0.7099609,0.1191406-1.0595703l0.1308594-0.5605469L6.5097656,8.9804688L5.9296875,8.4501953
	l0.5107422-0.8896484l0.7597656,0.2294922L7.75,7.9707031l0.4296875-0.4003906
	c0.5205078-0.4902344,1.1601563-0.8496094,1.8300781-1.0605469l0.5605469-0.1699219l0.1298828-0.5703125L10.8701172,5h1.0302734
	l0.1699219,0.7695313l0.1201172,0.5703125L12.75,6.5097656c0.6796875,0.2109375,1.3095703,0.5703125,1.8300781,1.0605469
	L15,7.9599609l0.0097656,0.0107422l0.5498047-0.1806641L16,7.6503906l0.3203125-0.1005859l0.5097656,0.8896484L16.25,8.9804688
	L16,9.2099609l-0.1796875,0.1601563L15.9501953,9.9404297z"/>
<path style="fill:#FFFFFF;" d="M11.3798828,8.0292969c-1.6396484,0-2.9697266,1.3310547-2.9697266,2.9707031
	c0,0.3398438,0.0595703,0.6699219,0.1699219,0.9804688c0.1298828,0.3691406,0.3300781,0.7099609,0.5898438,1
	c0.5400391,0.609375,1.3300781,0.9892578,2.2099609,0.9892578s1.6699219-0.3798828,2.2099609-0.9892578
	c0.2597656-0.2900391,0.4599609-0.6308594,0.5898438-1C14.2900391,11.6699219,14.3496094,11.3398438,14.3496094,11
	C14.3496094,9.3603516,13.0195313,8.0292969,11.3798828,8.0292969z M11.3798828,12.9697266
	c-0.7294922,0-1.3701172-0.3994141-1.7001953-0.9892578C9.5,11.6904297,9.4101563,11.3496094,9.4101563,11
	c0-1.0898438,0.8896484-1.9697266,1.9697266-1.9697266c1.0898438,0,1.9697266,0.8798828,1.9697266,1.9697266
	c0,0.3496094-0.0898438,0.6904297-0.2597656,0.9804688C12.75,12.5703125,12.1103516,12.9697266,11.3798828,12.9697266z"/>
</svg>
