<?xml version="1.0" encoding="utf-8"?>
<!-- Generator: Adobe Illustrator 15.1.0, SVG Export Plug-In  -->
<!DOCTYPE svg PUBLIC "-//W3C//DTD SVG 1.1//EN" "http://www.w3.org/Graphics/SVG/1.1/DTD/svg11.dtd" [
	<!ENTITY ns_flows "http://ns.adobe.com/Flows/1.0/">
]>
<svg version="1.1"
	 xmlns="http://www.w3.org/2000/svg" xmlns:xlink="http://www.w3.org/1999/xlink" xmlns:a="http://ns.adobe.com/AdobeSVGViewerExtensions/3.0/"
	 x="0px" y="0px" width="28px" height="28px" viewBox="-5 -5 28 28" style="enable-background:new -5 -5 28 28;"
	 xml:space="preserve">
<defs>
</defs>
<path style="fill:#FFFFFF;" d="M16.4726563,0H1.5273438C0.6835938,0,0,0.6835938,0,1.5273438v14.9453125
	C0,17.3164063,0.6835938,18,1.5273438,18h1.109375h12.2490234h1.5869141C17.3164063,18,18,17.3164063,18,16.4726563V1.5273438
	C18,0.6835938,17.3164063,0,16.4726563,0z M3.6367188,17v-0.6972656c0-2.8261719,2.2988281-5.125,5.125-5.125
	c2.8251953,0,5.1240234,2.2988281,5.1240234,5.125V17H3.6367188z M17,16.4726563C17,16.7636719,16.7636719,17,16.4726563,17
	h-1.5869141v-0.6972656c0-3.3818359-2.7421875-6.125-6.1240234-6.125c-3.3828125,0-6.125,2.7431641-6.125,6.125V17h-1.109375
	C1.2363281,17,1,16.7636719,1,16.4726563V1.5273438C1,1.2363281,1.2363281,1,1.5273438,1h14.9453125
	C16.7636719,1,17,1.2363281,17,1.5273438V16.4726563z"/>
<path style="fill:#FFFFFF;" d="M8.7617188,2.4091797c-1.7568359,0-3.1806641,1.4238281-3.1806641,3.1796875
	c0,1.7568359,1.4238281,3.1806641,3.1806641,3.1806641c1.7558594,0,3.1796875-1.4238281,3.1796875-3.1806641
	C11.9414063,3.8330078,10.5175781,2.4091797,8.7617188,2.4091797z M8.7617188,7.7695313
	c-1.2021484,0-2.1806641-0.9785156-2.1806641-2.1806641s0.9785156-2.1796875,2.1806641-2.1796875
	s2.1796875,0.9775391,2.1796875,2.1796875S9.9638672,7.7695313,8.7617188,7.7695313z"/>
</svg>
