<?xml version="1.0" encoding="utf-8"?>
<!-- Generator: Adobe Illustrator 15.1.0, SVG Export Plug-In . SVG Version: 6.00 Build 0)  -->
<!DOCTYPE svg PUBLIC "-//W3C//DTD SVG 1.1//EN" "http://www.w3.org/Graphics/SVG/1.1/DTD/svg11.dtd">
<svg version="1.1" id="레이어_1" xmlns="http://www.w3.org/2000/svg" xmlns:xlink="http://www.w3.org/1999/xlink" x="0px"
	 y="0px" width="28px" height="28px" viewBox="0 0 28 28" enable-background="new 0 0 28 28" xml:space="preserve">
<g>
	<path fill="#FFFFFF" d="M22,15h-1V6c0-0.55-0.45-1-1-1H8C7.45,5,7,5.45,7,6v9H6c-0.55,0-1,0.45-1,1v6c0,0.55,0.45,1,1,1h16
		c0.55,0,1-0.45,1-1v-6C23,15.45,22.55,15,22,15z M8,6h12v9H8V6z M22,22H6v-6h16V22z"/>
	<path fill="#FFFFFF" d="M17.5,11h-7c-0.28,0-0.5,0.22-0.5,0.5s0.22,0.5,0.5,0.5h7c0.28,0,0.5-0.22,0.5-0.5S17.78,11,17.5,11z"/>
	<path fill="#FFFFFF" d="M15.5,18h-3c-0.28,0-0.5,0.22-0.5,0.5s0.22,0.5,0.5,0.5h3c0.28,0,0.5-0.22,0.5-0.5S15.78,18,15.5,18z"/>
	<path fill="#FFFFFF" d="M17.5,8h-7C10.22,8,10,8.22,10,8.5S10.22,9,10.5,9h7C17.78,9,18,8.78,18,8.5S17.78,8,17.5,8z"/>
</g>
</svg>
