<svg xmlns="http://www.w3.org/2000/svg" width="24" height="24" viewBox="0 0 24 24">
  <g transform="translate(-1798 -125)">
    <rect width="24" height="24" transform="translate(1798 125)" fill="none"/>
    <g transform="translate(1155 -1132)">
      <g>
        <path d="M652,1264h12a1,1,0,0,0,0-2H652a1,1,0,0,0,0,2Z" fill="#63686c"/>
        <path d="M664,1268H652a1,1,0,0,0,0,2h12a1,1,0,0,0,0-2Z" fill="#63686c"/>
        <path d="M664,1274H652a1,1,0,0,0,0,2h12a1,1,0,0,0,0-2Z" fill="#63686c"/>
        <circle cx="2" cy="2" r="2" transform="translate(645 1261)" fill="#63686c"/>
        <circle cx="2" cy="2" r="2" transform="translate(645 1267)" fill="#63686c"/>
        <circle cx="2" cy="2" r="2" transform="translate(645 1273)" fill="#63686c"/>
      </g>
    </g>
  </g>
</svg>
