<?xml version="1.0" encoding="utf-8"?>
<!-- Generator: Adobe Illustrator 15.1.0, SVG Export Plug-In . SVG Version: 6.00 Build 0)  -->
<!DOCTYPE svg PUBLIC "-//W3C//DTD SVG 1.1//EN" "http://www.w3.org/Graphics/SVG/1.1/DTD/svg11.dtd">
<svg version="1.1" id="레이어_1" xmlns="http://www.w3.org/2000/svg" xmlns:xlink="http://www.w3.org/1999/xlink" x="0px"
	 y="0px" width="28px" height="28px" viewBox="0 0 28 28" enable-background="new 0 0 28 28" xml:space="preserve">
<path fill="#FFFFFF" d="M22,11h-1V9c0-0.55-0.45-1-1-1h-8V6c0-0.55-0.45-1-1-1H6C5.45,5,5,5.45,5,6v5c0,0.55,0.45,1,1,1h2v3.13
	C6.27,15.57,5,17.14,5,19c0,2.21,1.79,4,4,4s4-1.79,4-4h7c0.55,0,1-0.45,1-1v-2h1c0.55,0,1-0.45,1-1v-3C23,11.45,22.55,11,22,11z
	 M6,11V6h5v2v1v2H9H8H6z M9,22c-1.65,0-3-1.35-3-3c0-1.3,0.84-2.41,2-2.82C8.31,16.06,8.65,16,9,16c1.3,0,2.41,0.84,2.82,2
	c0.12,0.31,0.18,0.65,0.18,1C12,20.65,10.65,22,9,22z M20,18h-7.13c-0.44-1.73-2.01-3-3.87-3v-3h2c0.55,0,1-0.45,1-1V9h8v2h-1
	c-0.55,0-1,0.45-1,1v3c0,0.55,0.45,1,1,1h1V18z M22,15h-1h-1h-1v-3h1h1h1V15z"/>
</svg>
