<?xml version="1.0" encoding="utf-8"?>
<!-- Generator: Adobe Illustrator 15.1.0, SVG Export Plug-In  -->
<!DOCTYPE svg PUBLIC "-//W3C//DTD SVG 1.1//EN" "http://www.w3.org/Graphics/SVG/1.1/DTD/svg11.dtd" [
	<!ENTITY ns_flows "http://ns.adobe.com/Flows/1.0/">
]>
<svg version="1.1"
	 xmlns="http://www.w3.org/2000/svg" xmlns:xlink="http://www.w3.org/1999/xlink" xmlns:a="http://ns.adobe.com/AdobeSVGViewerExtensions/3.0/"
	 x="0px" y="0px" width="28px" height="28px" viewBox="-5.5004883 -5.5 28 28"
	 style="enable-background:new -5.5004883 -5.5 28 28;" xml:space="preserve">
<defs>
</defs>
<path style="opacity:0.57;fill:#5C6776;" d="M16.3344727,6.1191406c-0.7880859-0.671875-6.6015625-5.6308594-6.6015625-5.6308594
	S9.2231445,0,8.5004883,0S7.2680664,0.4882813,7.2680664,0.4882813S1.4536133,5.4472656,0.6645508,6.1191406
	c-0.7871094,0.671875-0.65625,1.9179688-0.65625,1.9179688s0,6.1914063,0,7.5488281S1.2563477,17,1.2563477,17h3.9941406h6.5
	h3.9921875c0,0,1.2490234-0.0566406,1.2490234-1.4140625s0-7.5488281,0-7.5488281S17.1235352,6.7910156,16.3344727,6.1191406z
	 M6.2504883,16v-6h4.5v6H6.2504883z M15.996582,7.9316406L15.9916992,7.984375v0.0527344v7.5488281
	c0,0.1582031,0,0.3730469-0.296875,0.4140625h-3.9443359v-6c0-0.5527344-0.4482422-1-1-1h-4.5c-0.5527344,0-1,0.4472656-1,1v6
	l-3.9492188,0.0009766c-0.2929688-0.0126953-0.2929688-0.3056641-0.2929688-0.4150391V8.0371094L1.0073242,7.984375
	L1.003418,7.9414063C0.9868164,7.7480469,1.0083008,7.140625,1.3129883,6.8808594l6.6035156-5.6318359l0.0214844-0.0185547
	l0.0214844-0.0195313C7.9614258,1.2089844,8.2133789,1,8.5004883,1c0.2480469,0,0.4833984,0.1601563,0.5400391,0.2109375
	l0.0205078,0.0195313l0.0224609,0.0185547l6.6025391,5.6308594C15.9926758,7.140625,16.0131836,7.7480469,15.996582,7.9316406z"/>
</svg>
