<?xml version="1.0" encoding="utf-8"?>
<!-- Generator: Adobe Illustrator 15.1.0, SVG Export Plug-In  -->
<!DOCTYPE svg PUBLIC "-//W3C//DTD SVG 1.1//EN" "http://www.w3.org/Graphics/SVG/1.1/DTD/svg11.dtd" [
	<!ENTITY ns_flows "http://ns.adobe.com/Flows/1.0/">
]>
<svg version="1.1"
	 xmlns="http://www.w3.org/2000/svg" xmlns:xlink="http://www.w3.org/1999/xlink" xmlns:a="http://ns.adobe.com/AdobeSVGViewerExtensions/3.0/"
	 x="0px" y="0px" width="28px" height="28px" viewBox="-5 -5 28 28" style="enable-background:new -5 -5 28 28;"
	 xml:space="preserve">
<defs>
</defs>
<path style="fill:#FFFFFF;" d="M16.4697266,0L4.0703125,1.9003906c-0.6005859,0-1.1201172,0.3496094-1.3603516,0.859375H0.6396484
	C0.2900391,2.7597656,0,3.0498047,0,3.4003906v6.7402344c0,0.3496094,0.2900391,0.6289063,0.6396484,0.6289063h2.0703125
	c0.2402344,0.5097656,0.7597656,0.8603516,1.3603516,0.8603516L4.5,11.7001953v5.5693359C4.5,17.6699219,4.7900391,18,5.1396484,18
	h2.2900391c0.3505859,0,0.640625-0.3300781,0.640625-0.7304688V12.25l8.3994141,1.2900391
	C17.3203125,13.5400391,18,12.859375,18,12.0097656V1.5195313C18,0.6796875,17.3203125,0,16.4697266,0z M1,3.7597656h1.5498047
	v6.0097656H1V3.7597656z M7.0703125,17H5.5v-5.1503906l1.5703125,0.2402344V17z M17,12.0097656
	c0,0.2695313-0.2099609,0.5-0.4697266,0.5302734l-8.4599609-1.3095703l-1-0.1503906L5.5,10.8398438l-1-0.1601563
	L4.2304688,10.640625l-0.0800781-0.0107422H4.0703125c-0.25,0-0.4599609-0.1796875-0.5107422-0.4199219v-0.0302734V3.359375
	c0.0302734-0.2597656,0.2402344-0.4589844,0.5107422-0.4589844h0.0800781L4.2304688,2.890625L16.5302734,1
	C16.7900391,1.0292969,17,1.25,17,1.5195313V12.0097656z"/>
</svg>
