<?xml version="1.0" encoding="utf-8"?>
<!-- Generator: Adobe Illustrator 15.1.0, SVG Export Plug-In  -->
<!DOCTYPE svg PUBLIC "-//W3C//DTD SVG 1.1//EN" "http://www.w3.org/Graphics/SVG/1.1/DTD/svg11.dtd" [
	<!ENTITY ns_flows "http://ns.adobe.com/Flows/1.0/">
]>
<svg version="1.1"
	 xmlns="http://www.w3.org/2000/svg" xmlns:xlink="http://www.w3.org/1999/xlink" xmlns:a="http://ns.adobe.com/AdobeSVGViewerExtensions/3.0/"
	 x="0px" y="0px" width="28px" height="28px" viewBox="-4.9990234 -5 28 28" style="enable-background:new -4.9990234 -5 28 28;"
	 xml:space="preserve">
<defs>
</defs>
<path style="fill:#FFFFFF;" d="M17.7998047,13.0800781l-0.8701172-0.7998047
	C17.0195313,11.8701172,17.0800781,11.4404297,17.0800781,11s-0.0605469-0.8701172-0.1503906-1.2802734l0.8701172-0.7998047
	c0.1904297-0.1103516,0.2597656-0.3603516,0.1503906-0.5498047l-1.0097656-1.7402344
	C16.8701172,6.5,16.7304688,6.4296875,16.5996094,6.4296875c-0.0693359,0-0.1396484,0.0205078-0.1992188,0.0507813
	l-1.1308594,0.359375c-0.6298828-0.5800781-1.3896484-1.0302734-2.2294922-1.2900391l-0.25-1.1494141
	C12.7900391,4.1796875,12.6103516,4,12.3896484,4h-2.0097656c-0.2197266,0-0.3994141,0.1796875-0.3994141,0.4003906
	L9.7197266,5.5498047C8.8798828,5.8095703,8.1298828,6.2597656,7.5,6.8398438L6.8603516,6.6298828
	C6.1796875,6.2099609,5.3603516,5.9697266,4.5,5.9697266c-2.4804688,0-4.5,1.9902344-4.5,4.4306641
	c0,0.1591797,0,1.9599609,0,1.9599609C0,12.7099609,0.2900391,13,0.6601563,13h4.3994141l-0.0898438,0.0800781
	c-0.2001953,0.1103516-0.2597656,0.3603516-0.1494141,0.5498047l1,1.7402344
	C5.9003906,15.5,6.0302734,15.5703125,6.1699219,15.5703125c0.0703125,0,0.1396484-0.0205078,0.2001953-0.0507813L7.5,15.1601563
	C8.1298828,15.75,8.8798828,16.1904297,9.7197266,16.4501953l0.2607422,1.1494141C9.9804688,17.8203125,10.1601563,18,10.3798828,18
	h2.0097656c0.2207031,0,0.4003906-0.1796875,0.4003906-0.4003906l0.25-1.1494141
	c0.8398438-0.2597656,1.5996094-0.7001953,2.2294922-1.2900391l1.1308594,0.359375
	c0.0595703,0.0302734,0.1298828,0.0507813,0.1992188,0.0507813c0.1308594,0,0.2705078-0.0703125,0.3408203-0.2001953
	l1.0097656-1.7402344C18.0595703,13.4404297,17.9902344,13.1904297,17.7998047,13.0800781z M1,12v-1.5996094
	c0-1.890625,1.5703125-3.4306641,3.5-3.4306641c0.3603516,0,0.7001953,0.0498047,1.0302734,0.1601563L4.8203125,8.3701172
	C4.7099609,8.5595703,4.7695313,8.8095703,4.9697266,8.9199219l0.8701172,0.7998047
	C5.7402344,10.1298828,5.6904297,10.5595703,5.6904297,11c0,0.3398438,0.0292969,0.6796875,0.0996094,1H1z M15.9501953,9.9404297
	C16.0302734,10.2900391,16.0800781,10.6503906,16.0800781,11s-0.0400391,0.7099609-0.1298828,1.0595703l-0.1298828,0.5703125
	L16.25,13.0195313l0.5898438,0.5400391l-0.5195313,0.890625l-0.75-0.2402344l-0.5605469-0.1796875l-0.4296875,0.3994141
	c-0.5205078,0.4902344-1.1503906,0.8505859-1.8300781,1.0605469l-0.5595703,0.1699219l-0.1201172,0.5703125L11.9003906,17
	h-1.0302734l-0.1699219-0.7695313l-0.1298828-0.5703125l-0.5605469-0.1699219
	c-0.6699219-0.2099609-1.3095703-0.5703125-1.8300781-1.0605469l-0.4199219-0.3994141l-0.5595703,0.1796875l-0.7597656,0.2402344
	l-0.5107422-0.890625l0.5800781-0.5400391L6.5302734,13l0.4101563-0.3701172l-0.1308594-0.5703125
	c0-0.0195313-0.0097656-0.0400391-0.0097656-0.0595703c-0.0693359-0.3300781-0.109375-0.6699219-0.109375-1
	c0-0.3496094,0.0400391-0.7099609,0.1191406-1.0595703l0.1308594-0.5605469L6.5097656,8.9804688L5.9296875,8.4501953
	l0.5107422-0.890625c0,0,0.0195313,0,0.0195313,0.0107422l0.7402344,0.2197266l0.5595703,0.1796875l0.2900391-0.2792969
	l0.1298828-0.1201172c0.5302734-0.4902344,1.1601563-0.8505859,1.8300781-1.0605469l0.5605469-0.1699219l0.1298828-0.5703125
	L10.8701172,5h1.0302734l0.1699219,0.7695313l0.1201172,0.5703125L12.75,6.5097656
	c0.6796875,0.2099609,1.3095703,0.5703125,1.8300781,1.0605469l0.4296875,0.3994141l0.5605469-0.1796875l0.75-0.2304688
	l0.5195313,0.890625L16.25,8.9804688l-0.4296875,0.3896484L15.9501953,9.9404297z"/>
<path style="fill:#FFFFFF;" d="M11.3798828,8.0302734c-1.0498047,0-1.9697266,0.5400391-2.5,1.3701172
	C8.5800781,9.8603516,8.4101563,10.4101563,8.4101563,11c0,0.6201172,0.1894531,1.1796875,0.5097656,1.6601563
	c0.5302734,0.7900391,1.4404297,1.3095703,2.4599609,1.3095703c1.6396484,0,2.9697266-1.3300781,2.9697266-2.9697266
	S13.0195313,8.0302734,11.3798828,8.0302734z M11.3798828,12.9697266c-1.0800781,0-1.9697266-0.8798828-1.9697266-1.9697266
	s0.8896484-1.9697266,1.9697266-1.9697266c1.0898438,0,1.9697266,0.8798828,1.9697266,1.9697266
	S12.4697266,12.9697266,11.3798828,12.9697266z"/>
<path style="fill:#FFFFFF;" d="M4.5,4.5898438c1.2900391,0,2.3398438-1.0195313,2.3398438-2.2900391
	C6.8398438,1.0302734,5.7900391,0,4.5,0S2.1601563,1.0302734,2.1601563,2.2998047
	C2.1601563,3.5703125,3.2099609,4.5898438,4.5,4.5898438z M4.5,1c0.7402344,0,1.3398438,0.5800781,1.3398438,1.2998047
	c0,0.7099609-0.5996094,1.2900391-1.3398438,1.2900391S3.1601563,3.0097656,3.1601563,2.2998047
	C3.1601563,1.5800781,3.7597656,1,4.5,1z"/>
</svg>
