<?xml version="1.0" encoding="utf-8"?>
<!-- Generator: Adobe Illustrator 15.1.0, SVG Export Plug-In  -->
<!DOCTYPE svg PUBLIC "-//W3C//DTD SVG 1.1//EN" "http://www.w3.org/Graphics/SVG/1.1/DTD/svg11.dtd" [
	<!ENTITY ns_flows "http://ns.adobe.com/Flows/1.0/">
]>
<svg version="1.1"
	 xmlns="http://www.w3.org/2000/svg" xmlns:xlink="http://www.w3.org/1999/xlink" xmlns:a="http://ns.adobe.com/AdobeSVGViewerExtensions/3.0/"
	 x="0px" y="0px" width="28px" height="28px" viewBox="-5 -5 28 28" style="enable-background:new -5 -5 28 28;"
	 xml:space="preserve">
<defs>
</defs>
<path style="fill:#FFFFFF;" d="M17.8945313,8.75l-1.9384766-1.9404297v-2.609375
	c0-0.3505859-0.2910156-0.6298828-0.640625-0.6298828H6.7480469V0.6396484C6.7480469,0.2900391,6.46875,0,6.1191406,0H0.640625
	C0.2910156,0,0,0.2900391,0,0.6396484v5.4804688C0,6.4697266,0.2910156,6.75,0.640625,6.75h2.9189453v4.1201172
	C1.5991211,10.8701172,0,12.4697266,0,14.4296875C0,16.4003906,1.5991211,18,3.5595703,18
	c1.9697266,0,3.5688477-1.5996094,3.5688477-3.5703125h8.1870117c0.3496094,0,0.640625-0.2792969,0.640625-0.6298828v-2.609375
	l1.9384766-1.9306641C18.0351563,9.1201172,18.0351563,8.8896484,17.8945313,8.75z M0.9995117,5.75V1h4.7485352v2.5703125v1V5.75
	H4.559082H3.5595703H0.9995117z M3.5595703,17c-1.409668,0-2.5600586-1.1503906-2.5600586-2.5703125
	c0-1.4101563,1.1503906-2.5595703,2.5600586-2.5595703c0.3491211,0,0.6889648,0.0703125,0.9995117,0.2001953
	c0.6191406,0.2597656,1.1088867,0.75,1.3686523,1.359375c0.1308594,0.3105469,0.2011719,0.6503906,0.2011719,1
	C6.1289063,15.8496094,4.9790039,17,3.5595703,17z M14.9560547,13.4296875H6.987793
	c-0.3393555-1.1601563-1.2592773-2.0800781-2.4287109-2.4199219V6.75h1.5600586
	c0.3496094,0,0.6289063-0.2802734,0.6289063-0.6298828V4.5703125h8.2080078v2.2294922L13.0048828,8.75
	c-0.1386719,0.1396484-0.1386719,0.3701172,0,0.5097656l1.9511719,1.9404297V13.4296875z M15.9560547,9.7802734l-0.5,0.5l-0.5-0.5
	L14.1650391,9l0.7910156-0.7802734l0.5-0.5l0.5,0.5L16.7353516,9L15.9560547,9.7802734z"/>
</svg>
