<?xml version="1.0" encoding="utf-8"?>
<!-- Generator: Adobe Illustrator 15.1.0, SVG Export Plug-In . SVG Version: 6.00 Build 0)  -->
<!DOCTYPE svg PUBLIC "-//W3C//DTD SVG 1.1//EN" "http://www.w3.org/Graphics/SVG/1.1/DTD/svg11.dtd">
<svg version="1.1" id="레이어_1" xmlns="http://www.w3.org/2000/svg" xmlns:xlink="http://www.w3.org/1999/xlink" x="0px"
	 y="0px" width="28px" height="28px" viewBox="0 0 28 28" enable-background="new 0 0 28 28" xml:space="preserve">
<g>
	<path fill="#FFFFFF" d="M22,5H6C5.45,5,5,5.45,5,6v13.8v1.421V22c0,0.55,0.45,1,1,1h16c0.55,0,1-0.45,1-1v-2.8v-1.421V6
		C23,5.45,22.55,5,22,5z M22,22H6v-1.779l4.01-4.011l0.002-0.001l1.643,1.643c0.1,0.1,0.228,0.148,0.355,0.148
		s0.256-0.049,0.355-0.148l4.643-4.643l0.002,0.001L22,18.2V22z M17.37,12.15h-0.008c0-0.001-0.001-0.002-0.001-0.002
		c-0.098-0.098-0.222-0.146-0.347-0.147c-0.002,0-0.003-0.001-0.005-0.001c-0.128,0-0.256,0.049-0.355,0.148l-4.645,4.645
		l-1.645-1.645c-0.1-0.1-0.228-0.148-0.355-0.148c-0.002,0-0.003,0.001-0.005,0.001c-0.125,0.002-0.249,0.05-0.347,0.147
		c0,0-0.001,0.001-0.001,0.002H9.649L6,18.8V6h16v10.779L17.37,12.15z"/>
	<path fill="#FFFFFF" d="M10.5,8C9.12,8,8,9.12,8,10.5S9.12,13,10.5,13s2.5-1.12,2.5-2.5S11.88,8,10.5,8z M10.5,12
		C9.67,12,9,11.33,9,10.5S9.67,9,10.5,9S12,9.67,12,10.5S11.33,12,10.5,12z"/>
</g>
</svg>
