<?xml version="1.0" encoding="utf-8"?>
<!-- Generator: Adobe Illustrator 15.1.0, SVG Export Plug-In  -->
<!DOCTYPE svg PUBLIC "-//W3C//DTD SVG 1.1//EN" "http://www.w3.org/Graphics/SVG/1.1/DTD/svg11.dtd" [
	<!ENTITY ns_flows "http://ns.adobe.com/Flows/1.0/">
]>
<svg version="1.1"
	 xmlns="http://www.w3.org/2000/svg" xmlns:xlink="http://www.w3.org/1999/xlink" xmlns:a="http://ns.adobe.com/AdobeSVGViewerExtensions/3.0/"
	 x="0px" y="0px" width="28px" height="28px" viewBox="-1.5 -1.5 28 28" style="enable-background:new -1.5 -1.5 28 28;"
	 xml:space="preserve">
<defs>
</defs>
<path style="fill:#0050FF;" d="M21.4589844,16.5976563v-5.8037109c0-4.6762695-3.7402344-8.5097656-8.4589844-8.7641602V0.4902344
	C13,0.215332,12.7695313,0,12.5,0C12.21875,0,12,0.215332,12,0.4902344v1.5395508
	c-4.7304688,0.2543945-8.4707031,4.0878906-8.4707031,8.7641602v5.8037109L0,20.8242188
	c0,1.1464844,0.9492188,2.0771484,2.1191406,2.0771484h7.1796875C9.8203125,24.1367188,11.0585938,25,12.5,25
	c1.4394531,0,2.6699219-0.8632813,3.1894531-2.0986328h7.1796875C24.0488281,22.9013672,25,21.9707031,25,20.8242188
	L21.4589844,16.5976563z M12.5,24.0195313c-0.8808594,0-1.640625-0.4511719-2.0800781-1.1181641h4.1503906
	C14.1289063,23.5683594,13.3691406,24.0195313,12.5,24.0195313z M22.8691406,21.9208984h-6.9394531h-1h-4.8710938h-1H2.1191406
	c-0.5097656,0-0.9492188-0.3427734-1.0800781-0.7939453l3.2695313-3.9013672l0.2207031-0.2744141v-6.1572266
	c0-4.1274414,3.3105469-7.5292969,7.4707031-7.7744141c0.1699219-0.0092773,0.3300781-0.019043,0.5-0.019043
	s0.3300781,0.0097656,0.5,0.019043c4.1601563,0.2451172,7.4589844,3.6469727,7.4589844,7.7744141v6.1572266l0.2304688,0.2744141
	l3.2597656,3.9013672C23.8203125,21.578125,23.3886719,21.9208984,22.8691406,21.9208984z"/>
</svg>
