<?xml version="1.0" encoding="utf-8"?>
<!-- Generator: Adobe Illustrator 15.1.0, SVG Export Plug-In . SVG Version: 6.00 Build 0)  -->
<!DOCTYPE svg PUBLIC "-//W3C//DTD SVG 1.1//EN" "http://www.w3.org/Graphics/SVG/1.1/DTD/svg11.dtd">
<svg version="1.1" id="레이어_1" xmlns="http://www.w3.org/2000/svg" xmlns:xlink="http://www.w3.org/1999/xlink" x="0px"
	 y="0px" width="28px" height="28px" viewBox="0 0 28 28" enable-background="new 0 0 28 28" xml:space="preserve">
<path fill="#FFFFFF" d="M22,14h-3v-3v-1l-5-5h-1H6C5.45,5,5,5.45,5,6v16c0,0.55,0.45,1,1,1h12c0.55,0,1-0.45,1-1v-3h3
	c0.55,0,1-0.45,1-1v-3C23,14.45,22.55,14,22,14z M17.59,10H14V6.41L17.59,10z M18,22H6V6h7v4c0,0.55,0.45,1,1,1h4v3h-4
	c-0.55,0-1,0.45-1,1v3c0,0.55,0.45,1,1,1h4V22z M22,18h-3h-1h-4v-3h4h1h3V18z"/>
</svg>
