<?xml version="1.0" encoding="utf-8"?>
<!-- Generator: Adobe Illustrator 15.1.0, SVG Export Plug-In . SVG Version: 6.00 Build 0)  -->
<!DOCTYPE svg PUBLIC "-//W3C//DTD SVG 1.1//EN" "http://www.w3.org/Graphics/SVG/1.1/DTD/svg11.dtd">
<svg version="1.1" id="레이어_1" xmlns="http://www.w3.org/2000/svg" xmlns:xlink="http://www.w3.org/1999/xlink" x="0px"
	 y="0px" width="28px" height="28px" viewBox="0 0 28 28" enable-background="new 0 0 28 28" xml:space="preserve">
<path fill="#FFFFFF" d="M18.092,6.75C20.247,6.75,22,8.504,22,10.659c0,4.423-5.71,8.93-7.686,10.479l0,0l-0.026,0.02
	C14.228,21.202,14.131,21.25,14,21.25c-0.136,0-0.234-0.052-0.295-0.097l-0.014-0.011C11.789,19.651,6,15.112,6,10.659
	C6,8.504,7.753,6.75,9.908,6.75c2.006,0,3.25,1.791,3.26,1.805l0.826,1.229l0.835-1.225C14.842,8.541,16.086,6.75,18.092,6.75
	 M18.092,5.75C15.5,5.75,14,8,14,8s-1.5-2.25-4.092-2.25C7.198,5.75,5,7.947,5,10.659c0,4.741,5.532,9.277,8.074,11.271
	c0.007,0.006,0.016,0.012,0.022,0.018c0.251,0.19,0.564,0.303,0.903,0.303s0.652-0.112,0.903-0.303
	c0.007-0.006,0.016-0.012,0.022-0.018C17.468,19.937,23,15.4,23,10.659C23,7.947,20.802,5.75,18.092,5.75L18.092,5.75z"/>
</svg>
