<?xml version="1.0" encoding="utf-8"?>
<!-- Generator: Adobe Illustrator 15.1.0, SVG Export Plug-In  -->
<!DOCTYPE svg PUBLIC "-//W3C//DTD SVG 1.1//EN" "http://www.w3.org/Graphics/SVG/1.1/DTD/svg11.dtd" [
	<!ENTITY ns_flows "http://ns.adobe.com/Flows/1.0/">
]>
<svg version="1.1"
	 xmlns="http://www.w3.org/2000/svg" xmlns:xlink="http://www.w3.org/1999/xlink" xmlns:a="http://ns.adobe.com/AdobeSVGViewerExtensions/3.0/"
	 x="0px" y="0px" width="28px" height="28px" viewBox="-6 -5 28 28" style="enable-background:new -6 -5 28 28;"
	 xml:space="preserve">
<defs>
</defs>
<path style="fill:#5C6776;" d="M14.4189453,5.1577148h-1.7607422V4.7143555C12.6582031,2.1098633,10.5742188,0,8.0029297,0
	C5.4306641,0,3.3457031,2.1098633,3.3457031,4.7143555v0.4433594H1.5820313C0.7080078,5.1577148,0,5.8735352,0,6.7578125v9.6416016
	C0,17.2841797,0.7080078,18,1.5820313,18h12.8369141C15.2929688,18,16,17.2841797,16,16.3994141V6.7578125
	C16,5.8735352,15.2929688,5.1577148,14.4189453,5.1577148z M4.234375,4.7143555
	c0-2.1035156,1.6914063-3.8144531,3.7685547-3.8144531s3.7666016,1.7109375,3.7666016,3.8144531v0.4433594H4.234375V4.7143555z
	 M15.1113281,16.3994141c0,0.3857422-0.3105469,0.7001953-0.6923828,0.7001953H1.5820313
	c-0.3818359,0-0.6933594-0.3144531-0.6933594-0.7001953V6.7578125c0-0.3862305,0.3115234-0.7006836,0.6933594-0.7006836h1.7636719
	h9.3125h1.7607422c0.3818359,0,0.6923828,0.3144531,0.6923828,0.7006836V16.3994141z"/>
<path style="fill:#5C6776;" d="M8,8.6948242c-0.2451172,0-0.4443359,0.2011719-0.4443359,0.4501953v4.8676758
	c0,0.2490234,0.1992188,0.4501953,0.4443359,0.4501953c0.2460938,0,0.4443359-0.2011719,0.4443359-0.4501953V9.1450195
	C8.4443359,8.8959961,8.2460938,8.6948242,8,8.6948242z"/>
</svg>
