<?xml version="1.0" encoding="utf-8"?>
<!-- Generator: Adobe Illustrator 15.1.0, SVG Export Plug-In . SVG Version: 6.00 Build 0)  -->
<!DOCTYPE svg PUBLIC "-//W3C//DTD SVG 1.1//EN" "http://www.w3.org/Graphics/SVG/1.1/DTD/svg11.dtd">
<svg version="1.1" id="레이어_1" xmlns="http://www.w3.org/2000/svg" xmlns:xlink="http://www.w3.org/1999/xlink" x="0px"
	 y="0px" width="28px" height="28px" viewBox="0 0 28 28" enable-background="new 0 0 28 28" xml:space="preserve">
<path fill="#FFFFFF" d="M21.47,5H6.53C5.68,5,5,5.68,5,6.53v9.93c0,0.84,0.68,1.521,1.53,1.521h4.46
	c-0.311,0.699-0.49,1.51-0.49,2.379v1.637H7.637c-0.276,0-0.5,0.224-0.5,0.5s0.224,0.5,0.5,0.5H10.5V23h7v-0.004h2.864
	c0.276,0,0.5-0.224,0.5-0.5s-0.224-0.5-0.5-0.5H17.5v-1.637c0-0.869-0.18-1.68-0.49-2.379h4.46C22.32,17.98,23,17.3,23,16.46V6.53
	C23,5.68,22.32,5,21.47,5z M16.5,20.359v1.637h-5v-1.637c0-0.899,0.23-1.729,0.61-2.379h3.779C16.27,18.63,16.5,19.46,16.5,20.359z
	 M22,16.46c0,0.29-0.24,0.521-0.53,0.521h-5.05h-1.45H13.03h-1.44H6.53C6.24,16.98,6,16.75,6,16.46V6.53C6,6.24,6.24,6,6.53,6H21.47
	C21.76,6,22,6.24,22,6.53V16.46z"/>
<path fill="#FFFFFF" d="M17.123,11.289c-0.195-0.195-0.512-0.195-0.707,0l-2.921,2.922l-1.696-1.697
	c-0.094-0.094-0.221-0.146-0.354-0.146s-0.26,0.053-0.354,0.146l-3.49,3.49c-0.195,0.195-0.195,0.512,0,0.707
	c0.098,0.098,0.226,0.146,0.354,0.146s0.256-0.049,0.354-0.146l3.137-3.137l1.696,1.697c0.094,0.094,0.221,0.146,0.354,0.146
	s0.26-0.053,0.354-0.146l2.921-2.922l2.922,2.922c0.195,0.195,0.512,0.195,0.707,0s0.195-0.512,0-0.707L17.123,11.289z"/>
</svg>
