<svg width="14" height="18" viewBox="0 0 14 18" fill="none" xmlns="http://www.w3.org/2000/svg">
<path d="M0.875 16.2856C0.876385 16.7399 1.06121 17.1751 1.3891 17.4963C1.71699 17.8175 2.1613 17.9986 2.625 17.9999H11.375C11.8387 17.9986 12.283 17.8175 12.6109 17.4963C12.9388 17.1751 13.1236 16.7399 13.125 16.2856V4.28564H0.875V16.2856ZM2.625 5.99993H11.375V16.2856H2.625V5.99993Z" fill="#63686C"/>
<path d="M5.25 7.71436C5.01794 7.71436 4.79538 7.80467 4.63128 7.96542C4.46719 8.12616 4.375 8.34417 4.375 8.5715V13.7144C4.375 13.9417 4.46719 14.1597 4.63128 14.3204C4.79538 14.4812 5.01794 14.5715 5.25 14.5715C5.48206 14.5715 5.70462 14.4812 5.86872 14.3204C6.03281 14.1597 6.125 13.9417 6.125 13.7144V8.5715C6.125 8.34417 6.03281 8.12616 5.86872 7.96542C5.70462 7.80467 5.48206 7.71436 5.25 7.71436Z" fill="#63686C"/>
<path d="M8.75 7.71436C8.51794 7.71436 8.29538 7.80467 8.13128 7.96542C7.96719 8.12616 7.875 8.34417 7.875 8.5715V13.7144C7.875 13.9417 7.96719 14.1597 8.13128 14.3204C8.29538 14.4812 8.51794 14.5715 8.75 14.5715C8.98206 14.5715 9.20462 14.4812 9.36872 14.3204C9.53281 14.1597 9.625 13.9417 9.625 13.7144V8.5715C9.625 8.34417 9.53281 8.12616 9.36872 7.96542C9.20462 7.80467 8.98206 7.71436 8.75 7.71436Z" fill="#63686C"/>
<path d="M13.125 1.71429H7.875V0.857143C7.875 0.629814 7.78281 0.411809 7.61872 0.251064C7.45462 0.0903183 7.23206 0 7 0C6.76794 0 6.54538 0.0903183 6.38128 0.251064C6.21719 0.411809 6.125 0.629814 6.125 0.857143V1.71429H0.875C0.642936 1.71429 0.420375 1.8046 0.256281 1.96535C0.0921866 2.1261 0 2.3441 0 2.57143C0 2.79876 0.0921866 3.01676 0.256281 3.17751C0.420375 3.33825 0.642936 3.42857 0.875 3.42857H13.125C13.3571 3.42857 13.5796 3.33825 13.7437 3.17751C13.9078 3.01676 14 2.79876 14 2.57143C14 2.3441 13.9078 2.1261 13.7437 1.96535C13.5796 1.8046 13.3571 1.71429 13.125 1.71429Z" fill="#63686C"/>
</svg>
