<?xml version="1.0" encoding="utf-8"?>
<!-- Generator: Adobe Illustrator 15.1.0, SVG Export Plug-In  -->
<!DOCTYPE svg PUBLIC "-//W3C//DTD SVG 1.1//EN" "http://www.w3.org/Graphics/SVG/1.1/DTD/svg11.dtd" [
	<!ENTITY ns_flows "http://ns.adobe.com/Flows/1.0/">
]>
<svg version="1.1"
	 xmlns="http://www.w3.org/2000/svg" xmlns:xlink="http://www.w3.org/1999/xlink" xmlns:a="http://ns.adobe.com/AdobeSVGViewerExtensions/3.0/"
	 x="0px" y="0px" width="28px" height="28px" viewBox="0 0 28 28" style="enable-background:new 0 0 28 28;" xml:space="preserve">
<defs>
</defs>
<path style="fill:#FFFFFF;" d="M25.6,13.8c1.4-1,2.4-2.7,2.4-4.6v-5C28,1.9,26.1,0,23.9,0H4.2C1.9,0,0,1.9,0,4.1v19.7
	C0,26.1,1.9,28,4.2,28h19.7c2.3,0,4.2-1.9,4.2-4.1v-5c0-1.9-0.9-3.6-2.3-4.6c-0.1,0-0.1-0.1-0.1-0.2C25.5,13.9,25.6,13.8,25.6,13.8
	 M23.8,23.4c0,0.2-0.2,0.4-0.4,0.4H4.6c-0.2,0-0.4-0.2-0.4-0.4V4.6c0-0.2,0.2-0.4,0.4-0.4h18.9c0.2,0,0.4,0.2,0.4,0.4V23.4z"/>
</svg>
