<svg xmlns="http://www.w3.org/2000/svg" width="77" height="77" viewBox="0 0 77 77">
  <g transform="translate(-1541 -186)">
    <path fill="#222529" d="M1596,258h-53V188h70v32a1,1,0,0,0,2,0V187a1,1,0,0,0-1-1h-72a1,1,0,0,0-1,1v72a1,1,0,0,0,1,1h54a1,1,0,0,0,0-2Z"/>
    <circle fill="#222529" cx="9" cy="9" r="9" transform="translate(1553 198)"/>
    <path fill="#222529" d="M1599,241a5.006,5.006,0,0,1-3.54-8.54l7.54-7.54V220a.726.726,0,0,0-.04-.25.372.372,0,0,0-.04-.14.988.988,0,0,0-.21-.32l-10-10a1.008,1.008,0,0,0-1.42,0L1574,226.58l-5.29-5.29a1.008,1.008,0,0,0-1.42,0l-14,14a.988.988,0,0,0-.21.32.372.372,0,0,0-.04.14.726.726,0,0,0-.04.25v11a1,1,0,0,0,1,1h48a1,1,0,0,0,1-1v-7.93l-.46.46A4.962,4.962,0,0,1,1599,241Z"/>
    <path fill="#222529" d="M1617.707,235.292l-8.978-8.977-.019-.025h-.007s-.01-.006-.014-.01a.741.741,0,0,0-.129-.11h-.01v-.01a1.2,1.2,0,0,0-.16-.08h-.005a.4.4,0,0,0-.046-.013.834.834,0,0,0-.292-.057c-.016,0-.031-.009-.047-.009s-.053.014-.08.016a.726.726,0,0,0-.08,0,.371.371,0,0,0-.09.02.148.148,0,0,0-.09.02l-.031.012-.011,0-.009,0a.853.853,0,0,0-.319.21l-.009.015-8.988,8.987a1,1,0,1,0,1.414,1.414l7.293-7.293V262a1,1,0,0,0,2,0V229.413l7.293,7.293a1,1,0,1,0,1.414-1.414Z"/>
  </g>
</svg>
