<?xml version="1.0" encoding="utf-8"?>
<!-- Generator: Adobe Illustrator 15.1.0, SVG Export Plug-In . SVG Version: 6.00 Build 0)  -->
<!DOCTYPE svg PUBLIC "-//W3C//DTD SVG 1.1//EN" "http://www.w3.org/Graphics/SVG/1.1/DTD/svg11.dtd">
<svg version="1.1" id="레이어_1" xmlns="http://www.w3.org/2000/svg" xmlns:xlink="http://www.w3.org/1999/xlink" x="0px"
	 y="0px" width="28px" height="28px" viewBox="0 0 28 28" enable-background="new 0 0 28 28" xml:space="preserve">
<g>
	<g>
		<path fill="#FFFFFF" d="M22,10h-4.3l-2.74-3.74l-0.011-0.011C14.971,6.168,15,6.089,15,6c0-0.552-0.448-1-1-1s-1,0.448-1,1
			c0,0.089,0.029,0.168,0.051,0.249L13.04,6.26L10.3,10H6c-0.55,0-1,0.45-1,1v11c0,0.55,0.45,1,1,1h16c0.55,0,1-0.45,1-1V11
			C23,10.45,22.55,10,22,10z M13.751,6.949C13.832,6.971,13.911,7,14,7s0.168-0.029,0.249-0.051L16.3,10h-4.6L13.751,6.949z M22,22
			H6V11h3.3h1.4h6.6h1.4H22V22z"/>
	</g>
	<g>
		<path fill="#FFFFFF" d="M14.65,14.779c0-0.444-0.316-0.729-0.813-0.729c-0.421,0-0.755,0.203-1.062,0.496L12,13.89
			c0.498-0.524,1.178-0.89,2.01-0.89c1.147,0,1.99,0.552,1.99,1.69c0,1.263-1.666,1.69-1.521,2.943h-1.225
			C13.024,16.201,14.65,15.634,14.65,14.779z M12.995,19.146c0-0.48,0.374-0.854,0.87-0.854c0.508,0,0.881,0.373,0.881,0.854
			S14.373,20,13.865,20C13.369,20,12.995,19.627,12.995,19.146z"/>
	</g>
</g>
</svg>
