<svg width="20" height="20" viewBox="0 0 20 20" fill="none" xmlns="http://www.w3.org/2000/svg">
<path d="M17.804 16.8576L16.1179 15.1716C16.4734 14.6239 16.6632 13.9852 16.6644 13.3322C16.6644 12.6732 16.469 12.0289 16.1028 11.4809C15.7367 10.933 15.2163 10.5059 14.6074 10.2537C13.9985 10.0015 13.3285 9.93545 12.6821 10.064C12.0357 10.1926 11.442 10.51 10.976 10.976C10.51 11.442 10.1926 12.0357 10.064 12.6821C9.93545 13.3285 10.0014 13.9985 10.2537 14.6074C10.5059 15.2162 10.933 15.7367 11.4809 16.1028C12.0289 16.469 12.6732 16.6644 13.3322 16.6644C13.9851 16.6631 14.6238 16.4733 15.1716 16.1179L16.8577 17.804C16.9832 17.9295 17.1534 18 17.3308 18C17.5083 18 17.6785 17.9295 17.804 17.804C17.9295 17.6785 18 17.5083 18 17.3308C18 17.1534 17.9295 16.9831 17.804 16.8576ZM15.1316 14.1853C14.9396 14.6038 14.6038 14.9396 14.1852 15.1316C13.921 15.2657 13.6285 15.3342 13.3322 15.3315C12.9368 15.3315 12.5502 15.2142 12.2214 14.9946C11.8926 14.7749 11.6364 14.4626 11.4851 14.0973C11.3337 13.732 11.2942 13.33 11.3713 12.9422C11.4484 12.5543 11.6389 12.1981 11.9185 11.9185C12.1981 11.6388 12.5543 11.4484 12.9422 11.3713C13.33 11.2941 13.732 11.3337 14.0973 11.4851C14.4626 11.6364 14.7749 11.8927 14.9946 12.2215C15.2143 12.5502 15.3315 12.9368 15.3315 13.3322C15.3342 13.6285 15.2656 13.921 15.1316 14.1853Z" fill="#222529"/>
<path d="M16.3 3H3.7C3.51435 3 3.3363 3.08561 3.20502 3.23799C3.07375 3.39036 3 3.59701 3 3.8125V15.1875C3 15.403 3.07375 15.6096 3.20502 15.762C3.3363 15.9144 3.51435 16 3.7 16H7.2C7.38565 16 7.5637 15.9144 7.69498 15.762C7.82625 15.6096 7.9 15.403 7.9 15.1875C7.9 14.972 7.82625 14.7654 7.69498 14.613C7.5637 14.4606 7.38565 14.375 7.2 14.375H4.4V7.875H15.6V8.6875C15.6 8.90299 15.6737 9.10964 15.805 9.26201C15.9363 9.41439 16.1143 9.5 16.3 9.5C16.4857 9.5 16.6637 9.41439 16.795 9.26201C16.9263 9.10964 17 8.90299 17 8.6875V3.8125C17 3.59701 16.9263 3.39036 16.795 3.23799C16.6637 3.08561 16.4857 3 16.3 3ZM4.4 6.25V4.625H15.6V6.25H4.4Z" fill="#222529"/>
</svg>
