<?xml version="1.0" encoding="utf-8"?>
<!-- Generator: Adobe Illustrator 15.1.0, SVG Export Plug-In  -->
<!DOCTYPE svg PUBLIC "-//W3C//DTD SVG 1.1//EN" "http://www.w3.org/Graphics/SVG/1.1/DTD/svg11.dtd" [
	<!ENTITY ns_flows "http://ns.adobe.com/Flows/1.0/">
]>
<svg version="1.1"
	 xmlns="http://www.w3.org/2000/svg" xmlns:xlink="http://www.w3.org/1999/xlink" xmlns:a="http://ns.adobe.com/AdobeSVGViewerExtensions/3.0/"
	 x="0px" y="0px" width="28px" height="28px" viewBox="-5 -5 28 28" style="enable-background:new -5 -5 28 28;"
	 xml:space="preserve">
<defs>
</defs>
<path style="fill:#FFFFFF;" d="M16.4707031,5.0195313h-3.1699219l-3.0761719-3.0751953
	c0.0839844-0.1767578,0.1347656-0.3720703,0.1347656-0.5810547C10.359375,0.6103516,9.7490234,0,8.9960938,0
	S7.6328125,0.6103516,7.6328125,1.3632813c0,0.1787109,0.0371094,0.3486328,0.0996094,0.5048828L4.5800781,5.0195313H1.5205078
	C0.6806641,5.0195313,0,5.7001953,0,6.5400391v9.9306641C0,17.3203125,0.6806641,18,1.5205078,18h14.9501953
	C17.3105469,18,18,17.3203125,18,16.4707031V6.5400391C18,5.7001953,17.3105469,5.0195313,16.4707031,5.0195313z
	 M8.4160156,2.5927734c0.1767578,0.0830078,0.3710938,0.1337891,0.5800781,0.1337891
	c0.1777344,0,0.3466797-0.0361328,0.5029297-0.0986328l2.3916016,2.3916016H5.9804688L8.4160156,2.5927734z M17,16.4707031
	C17,16.7597656,16.7607422,17,16.4707031,17H1.5205078C1.2304688,17,1,16.7597656,1,16.4707031V6.5400391
	C1,6.25,1.2304688,6.0195313,1.5205078,6.0195313H4.640625h0.3398438h7.9101563h0.5800781h3
	C16.7607422,6.0195313,17,6.25,17,6.5400391V16.4707031z"/>
<path style="fill:#FFFFFF;" d="M9.6044922,9.7890625c0-0.4443359-0.2939453-0.7285156-0.7558594-0.7285156
	c-0.3916016,0-0.7021484,0.203125-0.9873047,0.4960938L7.140625,8.8994141C7.6035156,8.375,8.2353516,8.0097656,9.0087891,8.0097656
	c1.0673828,0,1.8505859,0.5517578,1.8505859,1.6904297c0,1.2626953-1.5488281,1.6904297-1.4140625,2.9433594H8.3066406
	C8.0927734,11.2109375,9.6044922,10.6435547,9.6044922,9.7890625z M8.0654297,14.15625
	c0-0.4804688,0.3476563-0.8535156,0.8095703-0.8535156c0.4716797,0,0.8183594,0.3730469,0.8183594,0.8535156
	S9.3466797,15.0097656,8.875,15.0097656C8.4130859,15.0097656,8.0654297,14.6367188,8.0654297,14.15625z"/>
</svg>
