<?xml version="1.0" encoding="utf-8"?>
<!-- Generator: Adobe Illustrator 15.1.0, SVG Export Plug-In . SVG Version: 6.00 Build 0)  -->
<!DOCTYPE svg PUBLIC "-//W3C//DTD SVG 1.1//EN" "http://www.w3.org/Graphics/SVG/1.1/DTD/svg11.dtd">
<svg version="1.1" id="레이어_1" xmlns="http://www.w3.org/2000/svg" xmlns:xlink="http://www.w3.org/1999/xlink" x="0px"
	 y="0px" width="28px" height="28px" viewBox="0 0 28 28" enable-background="new 0 0 28 28" xml:space="preserve">
<path fill="#FFFFFF" d="M22,5L9,7C8.45,7,8,7.45,8,8H6C5.45,8,5,8.45,5,9v5c0,0.55,0.45,1,1,1h2c0,0.55,0.45,1,1,1l1,0.15V22
	c0,0.55,0.45,1,1,1h2c0.55,0,1-0.45,1-1v-5.23L22,18c0.55,0,1-0.45,1-1V6C23,5.45,22.55,5,22,5z M6,14V9h2v5H6z M13,22h-2v-5.69
	l2,0.311V22z M22,16.99l-8-1.23l-1-0.16l-2-0.3l-1-0.16l-0.85-0.13L9.08,15H9v-1V9V8h0.08l0.07-0.01L22,6.01V16.99z"/>
</svg>
