<svg width="24" height="24" viewBox="0 0 24 24" fill="none" xmlns="http://www.w3.org/2000/svg">
<path d="M8.70996 7.28799L12.71 11.288C12.8973 11.4768 13.0024 11.732 13.0024 11.998C13.0024 12.264 12.8973 12.5192 12.71 12.708L8.70996 16.708C8.52166 16.8963 8.2663 17.0021 8 17.0021C7.7337 17.0021 7.47834 16.8963 7.29004 16.708C7.10174 16.5197 6.99585 16.2643 6.99585 15.998C6.99585 15.7317 7.10174 15.4763 7.29004 15.288L10.58 11.998L7.29004 8.70798C7.1968 8.61475 7.12285 8.50405 7.07239 8.38223C7.02193 8.26041 6.99585 8.12985 6.99585 7.99799C6.99585 7.86613 7.02193 7.73556 7.07239 7.61374C7.12285 7.49192 7.1968 7.38123 7.29004 7.28799C7.38328 7.19475 7.4939 7.12079 7.61572 7.07033C7.73754 7.01987 7.86814 6.9939 8 6.9939C8.13186 6.9939 8.26246 7.01987 8.38428 7.07033C8.5061 7.12079 8.61672 7.19475 8.70996 7.28799V7.28799Z" fill="#EBEFF2"/>
<path d="M13.71 7.28799L17.71 11.288C17.8973 11.4768 18.0024 11.732 18.0024 11.998C18.0024 12.264 17.8973 12.5192 17.71 12.708L13.71 16.708C13.5217 16.8963 13.2663 17.0021 13 17.0021C12.7337 17.0021 12.4783 16.8963 12.29 16.708C12.1017 16.5197 11.9958 16.2643 11.9958 15.998C11.9958 15.7317 12.1017 15.4763 12.29 15.288L15.58 11.998L12.29 8.70798C12.1968 8.61475 12.1228 8.50405 12.0724 8.38223C12.0219 8.26041 11.9958 8.12985 11.9958 7.99799C11.9958 7.86613 12.0219 7.73556 12.0724 7.61374C12.1228 7.49192 12.1968 7.38123 12.29 7.28799C12.3833 7.19475 12.4939 7.12079 12.6157 7.07033C12.7375 7.01987 12.8681 6.9939 13 6.9939C13.1319 6.9939 13.2625 7.01987 13.3843 7.07033C13.5061 7.12079 13.6167 7.19475 13.71 7.28799V7.28799Z" fill="#EBEFF2"/>
</svg>
