<?xml version="1.0" encoding="utf-8"?>
<!-- Generator: Adobe Illustrator 15.1.0, SVG Export Plug-In  -->
<!DOCTYPE svg PUBLIC "-//W3C//DTD SVG 1.1//EN" "http://www.w3.org/Graphics/SVG/1.1/DTD/svg11.dtd" [
	<!ENTITY ns_flows "http://ns.adobe.com/Flows/1.0/">
]>
<svg version="1.1"
	 xmlns="http://www.w3.org/2000/svg" xmlns:xlink="http://www.w3.org/1999/xlink" xmlns:a="http://ns.adobe.com/AdobeSVGViewerExtensions/3.0/"
	 x="0px" y="0px" width="28px" height="28px" viewBox="-5 -4.9902344 28 28" style="enable-background:new -5 -4.9902344 28 28;"
	 xml:space="preserve">
<defs>
</defs>
<path style="fill:#FFFFFF;" d="M16.4697266,10.109375h-0.3798828V1.5297852C16.0898438,0.6899414,15.4101563,0,14.5595703,0
	H3.4404297C2.5898438,0,1.9101563,0.6899414,1.9101563,1.5297852v8.5795898H1.5302734
	C0.6796875,10.109375,0,10.7998047,0,11.6396484v4.8408203C0,17.3203125,0.6796875,18,1.5302734,18h1.7001953
	c0.0693359,0.0195313,0.1396484,0.0195313,0.2099609,0.0195313h11.1191406c0.0703125,0,0.140625,0,0.2099609-0.0195313h1.7001953
	C17.3203125,18,18,17.3203125,18,16.4804688v-4.8408203C18,10.7998047,17.3203125,10.109375,16.4697266,10.109375z
	 M2.9101563,1.5297852C2.9101563,1.2397461,3.1503906,1,3.4404297,1h11.1191406
	c0.2900391,0,0.5302734,0.2397461,0.5302734,0.5297852v8.5795898H2.9101563V1.5297852z M17,16.4804688
	C17,16.7695313,16.7597656,17,16.4697266,17H16h-1.2998047H3.2998047H2H1.5302734C1.2402344,17,1,16.7695313,1,16.4804688
	v-4.8408203c0-0.2900391,0.2402344-0.5302734,0.5302734-0.5302734h0.3798828h1h12.1796875h1h0.3798828
	C16.7597656,11.109375,17,11.3496094,17,11.6396484V16.4804688z"/>
<path style="fill:#FFFFFF;" d="M12.2519531,3.3710938h-6.5c-0.2763672,0-0.5,0.2236328-0.5,0.5s0.2236328,0.5,0.5,0.5h6.5
	c0.2763672,0,0.5-0.2236328,0.5-0.5S12.5283203,3.3710938,12.2519531,3.3710938z"/>
<path style="fill:#FFFFFF;" d="M12.2519531,6.2563477h-6.5c-0.2763672,0-0.5,0.2236328-0.5,0.5s0.2236328,0.5,0.5,0.5h6.5
	c0.2763672,0,0.5-0.2236328,0.5-0.5S12.5283203,6.2563477,12.2519531,6.2563477z"/>
<path style="fill:#FFFFFF;" d="M10.25,13.5546875h-2.5c-0.2763672,0-0.5,0.2236328-0.5,0.5s0.2236328,0.5,0.5,0.5h2.5
	c0.2763672,0,0.5-0.2236328,0.5-0.5S10.5263672,13.5546875,10.25,13.5546875z"/>
</svg>
