<?xml version="1.0" encoding="utf-8"?>
<!-- Generator: Adobe Illustrator 15.1.0, SVG Export Plug-In . SVG Version: 6.00 Build 0)  -->
<!DOCTYPE svg PUBLIC "-//W3C//DTD SVG 1.1//EN" "http://www.w3.org/Graphics/SVG/1.1/DTD/svg11.dtd">
<svg version="1.1" id="레이어_1" xmlns="http://www.w3.org/2000/svg" xmlns:xlink="http://www.w3.org/1999/xlink" x="0px"
	 y="0px" width="28px" height="28px" viewBox="0 0 28 28" enable-background="new 0 0 28 28" xml:space="preserve">
<path opacity="0.4" fill="#7A8594" enable-background="new    " d="M22.85,22.14L16.44,15.73C17.41,14.59,18,13.12,18,11.5
	C18,7.91,15.09,5,11.5,5S5,7.91,5,11.5S7.91,18,11.5,18c1.62,0,3.09-0.59,4.23-1.56l6.409,6.409c0.2,0.2,0.511,0.2,0.71,0
	C23.05,22.65,23.05,22.34,22.85,22.14z M15.02,15.73C14.06,16.52,12.84,17,11.5,17C8.47,17,6,14.53,6,11.5S8.47,6,11.5,6
	S17,8.47,17,11.5c0,1.34-0.48,2.56-1.27,3.52C15.51,15.27,15.27,15.51,15.02,15.73z"/>
</svg>
