<?xml version="1.0" encoding="utf-8"?>
<!-- Generator: Adobe Illustrator 15.1.0, SVG Export Plug-In  -->
<!DOCTYPE svg PUBLIC "-//W3C//DTD SVG 1.1//EN" "http://www.w3.org/Graphics/SVG/1.1/DTD/svg11.dtd" [
	<!ENTITY ns_flows "http://ns.adobe.com/Flows/1.0/">
]>
<svg version="1.1"
	 xmlns="http://www.w3.org/2000/svg" xmlns:xlink="http://www.w3.org/1999/xlink" xmlns:a="http://ns.adobe.com/AdobeSVGViewerExtensions/3.0/"
	 x="0px" y="0px" width="28px" height="28px" viewBox="-5 -5 28 28" style="enable-background:new -5 -5 28 28;"
	 xml:space="preserve">
<defs>
</defs>
<path style="fill:#FFFFFF;" d="M17.3603516,8.4404297h-2.5400391V5.8496094v-0.5c0-0.1796875-0.0302734-0.3496094-0.0898438-0.5
	c-0.0800781-0.25-0.2304688-0.4697266-0.4208984-0.6396484l-3.859375-3.8496094
	c-0.140625-0.1201172-0.2998047-0.2207031-0.4804688-0.2802734C9.8095703,0.0302734,9.6503906,0,9.4697266,0h-0.5H1.5302734
	C0.6796875,0,0,0.6796875,0,1.5302734v14.9394531C0,17.3203125,0.6796875,18,1.5302734,18h11.7597656
	c0.8496094,0,1.5302734-0.6796875,1.5302734-1.5302734v-2.0595703h2.5400391c0.359375,0,0.6396484-0.2900391,0.6396484-0.640625
	V9.0800781C18,8.7402344,17.7197266,8.4404297,17.3603516,8.4404297z M13.4902344,4.7998047L13.5,4.8300781l0.0205078,0.0195313
	H9.9697266V1.2900391L13.4902344,4.7998047z M13.8203125,16.4697266C13.8203125,16.7597656,13.5800781,17,13.2900391,17H1.5302734
	C1.2402344,17,1,16.7597656,1,16.4697266V1.5302734C1,1.2402344,1.2402344,1,1.5302734,1h7.4394531v4.3496094
	c0,0.2705078,0.2304688,0.5,0.5,0.5h4.3505859v2.5908203H5.1904297c-0.3603516,0-0.640625,0.2998047-0.640625,0.6396484v4.6894531
	c0,0.3505859,0.2802734,0.640625,0.640625,0.640625h8.6298828V16.4697266z M17,13.4101563h-2.1796875h-1H5.5498047V9.4404297H17
	V13.4101563z"/>
</svg>
