<?xml version="1.0" encoding="utf-8"?>
<!-- Generator: Adobe Illustrator 15.1.0, SVG Export Plug-In  -->
<!DOCTYPE svg PUBLIC "-//W3C//DTD SVG 1.1//EN" "http://www.w3.org/Graphics/SVG/1.1/DTD/svg11.dtd" [
	<!ENTITY ns_flows "http://ns.adobe.com/Flows/1.0/">
]>
<svg version="1.1"
	 xmlns="http://www.w3.org/2000/svg" xmlns:xlink="http://www.w3.org/1999/xlink" xmlns:a="http://ns.adobe.com/AdobeSVGViewerExtensions/3.0/"
	 x="0px" y="0px" width="28px" height="28px" viewBox="25.5 -4.5 28 28" style="enable-background:new 25.5 -4.5 28 28;"
	 xml:space="preserve">
<defs>
</defs>
<path style="fill:#FFFFFF;" d="M17,0H1C0.4501953,0,0,0.4501953,0,1v13.7998047v1.4208984V17c0,0.5498047,0.4501953,1,1,1h16
	c0.5498047,0,1-0.4501953,1-1v-2.7998047v-1.4208984V1C18,0.4501953,17.5498047,0,17,0z M17,17H1v-1.7792969l4.0097656-4.0107422
	l0.0019531-0.0009766l1.6425781,1.6425781C6.7539063,12.9511719,6.8818359,13,7.0097656,13s0.2558594-0.0488281,0.3554688-0.1484375
	l4.6425781-4.6430664l0.0019531,0.0014648L17,13.2001953V17z M12.3701172,7.1499023h-0.0078125
	c0-0.0004883-0.0009766-0.0009766-0.0009766-0.0014648c-0.0976563-0.097168-0.2216797-0.1455078-0.3466797-0.1474609
	C12.0126953,7.0009766,12.0117188,7,12.0097656,7c-0.1279297-0.0004883-0.2558594,0.0488281-0.3554688,0.1484375
	l-4.6445313,4.6445313l-1.6445313-1.6445313C5.265625,10.0488281,5.1376953,10,5.0097656,10
	c-0.0019531,0-0.0029297,0.0009766-0.0048828,0.0009766c-0.125,0.0019531-0.2490234,0.0498047-0.3466797,0.1474609
	c0,0-0.0009766,0.0009766-0.0009766,0.0019531H4.6494141L1,13.7998047V1h16v10.7792969L12.3701172,7.1499023z"/>
<path style="fill:#FFFFFF;" d="M5.5,3C4.1201172,3,3,4.1201172,3,5.5S4.1201172,8,5.5,8S8,6.8798828,8,5.5S6.8798828,3,5.5,3z
	 M5.5,7C4.6699219,7,4,6.3300781,4,5.5S4.6699219,4,5.5,4S7,4.6699219,7,5.5S6.3300781,7,5.5,7z"/>
</svg>
