<?xml version="1.0" encoding="utf-8"?>
<!-- Generator: Adobe Illustrator 15.1.0, SVG Export Plug-In  -->
<!DOCTYPE svg PUBLIC "-//W3C//DTD SVG 1.1//EN" "http://www.w3.org/Graphics/SVG/1.1/DTD/svg11.dtd" [
	<!ENTITY ns_flows "http://ns.adobe.com/Flows/1.0/">
]>
<svg version="1.1"
	 xmlns="http://www.w3.org/2000/svg" xmlns:xlink="http://www.w3.org/1999/xlink" xmlns:a="http://ns.adobe.com/AdobeSVGViewerExtensions/3.0/"
	 x="0px" y="0px" width="28px" height="28px" viewBox="-6.5 -6.5 28 28" style="enable-background:new -6.5 -6.5 28 28;"
	 xml:space="preserve">
<defs>
</defs>
<path style="opacity:0.4;fill:#7A8594;" d="M10.5585938,9.6513672c0.8134766-1.0175781,1.3095703-2.3095703,1.3095703-3.7216797
	C11.8681641,2.6523438,9.2070313,0,5.9296875,0S0,2.6523438,0,5.9296875s2.6523438,5.9394531,5.9296875,5.9394531
	c1.4121094,0,2.7041016-0.4960938,3.7226563-1.3105469L14.09375,15L15,14.09375L10.5585938,9.6513672z M5.9296875,10.4570313
	c-2.4902344,0-4.5175781-2.0292969-4.5175781-4.5273438c0-2.4902344,2.0273438-4.5263672,4.5175781-4.5263672
	c2.4980469,0,4.5273438,2.0361328,4.5273438,4.5263672c0,1.0195313-0.3339844,1.9599609-0.9082031,2.7119141
	C9.2929688,8.984375,8.984375,9.2919922,8.6425781,9.5498047C7.8896484,10.1230469,6.9482422,10.4570313,5.9296875,10.4570313z"/>
</svg>
