<?xml version="1.0" encoding="utf-8"?>
<!-- Generator: Adobe Illustrator 15.1.0, SVG Export Plug-In . SVG Version: 6.00 Build 0)  -->
<!DOCTYPE svg PUBLIC "-//W3C//DTD SVG 1.1//EN" "http://www.w3.org/Graphics/SVG/1.1/DTD/svg11.dtd">
<svg version="1.1" id="레이어_1" xmlns="http://www.w3.org/2000/svg" xmlns:xlink="http://www.w3.org/1999/xlink" x="0px"
	 y="0px" width="28px" height="28px" viewBox="0 0 28 28" enable-background="new 0 0 28 28" xml:space="preserve">
<g>
	<path fill="#C8C8C8" d="M22,5H6C5.447,5,5,5.447,5,6v16c0,0.55,0.45,1,1,1h16c0.55,0,1-0.45,1-1V6C23,5.45,22.55,5,22,5z M22,22H6
		V6h16V22z"/>
	<path fill="#C8C8C8" d="M8.038,14.693c0.025,0.063,0.063,0.118,0.11,0.164c0.001,0.001,0.001,0.002,0.002,0.003L13.29,20l0.32,0.32
		l0.069,0.069c0.09,0.07,0.2,0.11,0.32,0.11s0.23-0.04,0.32-0.11l0.069-0.069L14.71,20l5.14-5.14
		c0.001-0.001,0.001-0.002,0.002-0.003c0.047-0.046,0.085-0.102,0.11-0.164c0.025-0.061,0.038-0.126,0.037-0.19
		c0-0.001,0.001-0.002,0.001-0.003c0-0.28-0.22-0.5-0.5-0.5H17V8.5C17,8.22,16.78,8,16.5,8h-5C11.22,8,11,8.22,11,8.5V14H8.5
		C8.22,14,8,14.22,8,14.5c0,0.001,0.001,0.002,0.001,0.003C8,14.567,8.013,14.633,8.038,14.693z M11.5,15c0.28,0,0.5-0.22,0.5-0.5V9
		h4v5.5c0,0.28,0.22,0.5,0.5,0.5h1.79L14,19.29L9.71,15H11.5z"/>
</g>
</svg>
