<?xml version="1.0" encoding="utf-8"?>
<!-- Generator: Adobe Illustrator 15.1.0, SVG Export Plug-In  -->
<!DOCTYPE svg PUBLIC "-//W3C//DTD SVG 1.1//EN" "http://www.w3.org/Graphics/SVG/1.1/DTD/svg11.dtd" [
	<!ENTITY ns_flows "http://ns.adobe.com/Flows/1.0/">
]>
<svg version="1.1"
	 xmlns="http://www.w3.org/2000/svg" xmlns:xlink="http://www.w3.org/1999/xlink" xmlns:a="http://ns.adobe.com/AdobeSVGViewerExtensions/3.0/"
	 x="0px" y="0px" width="28px" height="28px" viewBox="-5 -4.5 28 28" style="enable-background:new -5 -4.5 28 28;"
	 xml:space="preserve">
<defs>
</defs>
<path style="fill:#FFFFFF;" d="M17.7265625,12.3261719l-1.1855469-1.0849609
	C16.6708984,10.6816406,16.7412109,10.0996094,16.7412109,9.5s-0.0703125-1.1816406-0.2001953-1.7421875l1.1855469-1.0849609
	c0.2617188-0.1494141,0.3505859-0.4833984,0.2001953-0.7441406L16.5625,3.5712891
	c-0.1015625-0.1748047-0.2851563-0.2724609-0.4736328-0.2724609c-0.0927734,0-0.1865234,0.0234375-0.2724609,0.0722656
	L14.28125,3.8535156c-0.8515625-0.7929688-1.8808594-1.3964844-3.0224609-1.7441406l-0.3486328-1.5644531
	C10.9101563,0.2441406,10.6660156,0,10.3642578,0H7.6357422C7.3339844,0,7.0898438,0.2441406,7.0898438,0.5449219
	L6.7412109,2.109375C5.5986328,2.4570313,4.5703125,3.0615234,3.71875,3.8535156L2.1835938,3.3710938
	C2.0976563,3.3222656,2.0039063,3.2988281,1.9111328,3.2988281c-0.1884766,0-0.3720703,0.0976563-0.4736328,0.2724609
	L0.0732422,5.9296875c-0.1503906,0.2597656-0.0615234,0.59375,0.2001953,0.7441406l1.1855469,1.0839844
	C1.3291016,8.3183594,1.2587891,8.9003906,1.2587891,9.5s0.0703125,1.1816406,0.2001953,1.7412109l-1.1855469,1.0849609
	c-0.2617188,0.1503906-0.3505859,0.484375-0.2001953,0.7441406L1.4375,15.4287109
	c0.1015625,0.1748047,0.2851563,0.2724609,0.4736328,0.2724609c0.0927734,0,0.1865234-0.0234375,0.2724609-0.0722656
	l1.5361328-0.4824219c0.8505859,0.7929688,1.8798828,1.3964844,3.0214844,1.7431641l0.3486328,1.5654297
	C7.0898438,18.7558594,7.3339844,19,7.6357422,19h2.7285156c0.3017578,0,0.5458984-0.2441406,0.5458984-0.5449219
	l0.3486328-1.5654297c1.1425781-0.3466797,2.171875-0.9511719,3.0224609-1.7431641l1.5351563,0.4824219
	c0.0859375,0.0488281,0.1796875,0.0722656,0.2724609,0.0722656c0.1894531,0,0.3730469-0.0976563,0.4736328-0.2724609
	l1.3642578-2.3583984C18.0771484,12.8105469,17.9882813,12.4765625,17.7265625,12.3261719z M15.8857422,14.6015625
	l-1.3046875-0.4101563l-0.5556641-0.1738281l-0.4257813,0.3964844c-0.75,0.6992188-1.6601563,1.2246094-2.6308594,1.5185547
	l-0.5585938,0.1689453l-0.1269531,0.5703125L9.9873047,18H8.0126953l-0.2958984-1.328125l-0.1269531-0.5693359L7.03125,15.9326172
	c-0.9707031-0.2949219-1.8808594-0.8193359-2.6298828-1.5185547l-0.4257813-0.3964844l-0.5556641,0.1748047l-1.3056641,0.4091797
	l-0.9853516-1.703125l1.0058594-0.9199219l0.4306641-0.3945313L2.4335938,11.015625
	C2.3173828,10.5175781,2.2587891,10.0078125,2.2587891,9.5c0-0.5068359,0.0585938-1.0175781,0.1748047-1.515625l0.1318359-0.5693359
	L2.1337891,7.0205078L1.1289063,6.1015625l0.9863281-1.703125l1.3037109,0.4091797l0.5546875,0.1748047l0.4267578-0.3964844
	c0.7509766-0.6992188,1.6611328-1.2246094,2.6318359-1.5195313l0.5576172-0.1699219l0.1269531-0.5693359L8.0126953,1h1.9746094
	l0.2958984,1.3271484l0.1269531,0.5693359l0.5576172,0.1699219c0.9716797,0.2949219,1.8818359,0.8203125,2.6318359,1.5195313
	l0.4257813,0.3964844l0.5556641-0.1748047l1.3037109-0.4101563l0.9863281,1.703125l-1.0058594,0.9208984l-0.4306641,0.3935547
	l0.1318359,0.5693359C15.6826172,8.4824219,15.7412109,8.9931641,15.7412109,9.5
	c0,0.5078125-0.0585938,1.0175781-0.1748047,1.515625l-0.1318359,0.5683594l0.4306641,0.3945313l1.0058594,0.9199219
	L15.8857422,14.6015625z"/>
<path style="fill:#FFFFFF;" d="M9,5.4609375c-2.2304688,0-4.0390625,1.8085938-4.0390625,4.0390625
	S6.7695313,13.5390625,9,13.5390625S13.0390625,11.7304688,13.0390625,9.5S11.2304688,5.4609375,9,5.4609375z M9,12.5390625
	c-1.6757813,0-3.0390625-1.3632813-3.0390625-3.0390625S7.3242188,6.4609375,9,6.4609375S12.0390625,7.8242188,12.0390625,9.5
	S10.6757813,12.5390625,9,12.5390625z"/>
</svg>
