<?xml version="1.0" encoding="utf-8"?>
<!-- Generator: Adobe Illustrator 15.1.0, SVG Export Plug-In . SVG Version: 6.00 Build 0)  -->
<!DOCTYPE svg PUBLIC "-//W3C//DTD SVG 1.1//EN" "http://www.w3.org/Graphics/SVG/1.1/DTD/svg11.dtd">
<svg version="1.1" id="레이어_1" xmlns="http://www.w3.org/2000/svg" xmlns:xlink="http://www.w3.org/1999/xlink" x="0px"
	 y="0px" width="28px" height="28px" viewBox="0 0 28 28" enable-background="new 0 0 28 28" xml:space="preserve">
<path opacity="0.57" fill="#5C6776" enable-background="new    " d="M14.36,5.141C14.26,5.061,14.14,5,14,5s-0.26,0.061-0.36,0.141
	L5,12v10c0,0.55,0.45,1,1,1h6h4h6c0.55,0,1-0.45,1-1V12L14.36,5.141z M12,22v-7h4v7H12z M22,22h-5v-7c0-0.55-0.45-1-1-1h-4
	c-0.55,0-1,0.45-1,1v7H6v-9.579l8-6.241l8,6.241V22z"/>
</svg>
