<svg width="24" height="24" viewBox="0 0 24 24" fill="none" xmlns="http://www.w3.org/2000/svg">
<path d="M8.0414 0.71811C5.52377 2.26772 4.43405 4.87559 5.22315 7.52126C5.44861 8.31496 5.97469 9.25984 6.38803 9.6378C7.36502 10.5449 7.32745 10.7339 6.12499 11.3008C2.8934 12.7748 0 17.0079 0 20.2961V21.9213H6.23772C12.4379 21.9213 12.4379 21.9213 13.7906 22.9417C14.9555 23.8488 15.5192 24 17.661 24C19.8029 24 20.3665 23.8488 21.4938 22.9795C23.3351 21.5433 24.1618 19.6535 23.9739 17.1969C23.6733 13.6819 21.0429 11.3386 17.398 11.3386C14.73 11.3386 14.3167 10.9228 15.5192 9.48661C18.6756 5.70709 15.8573 8.9407e-08 10.8221 8.9407e-08C9.92024 8.9407e-08 8.71778 0.302362 8.0414 0.71811ZM12.513 2.04094C16.1204 3.55276 15.7822 8.8063 12.0245 9.82677C10.8972 10.1291 10.2584 10.0913 9.28143 9.71339C5.97469 8.31496 5.89953 3.47717 9.20628 2.04094C10.6342 1.39843 11.0475 1.39843 12.513 2.04094ZM13.227 12.0945C13.9034 12.0945 13.8658 12.2457 12.8136 13.4173C11.4233 15.0047 11.1603 15.9874 11.3481 18.5197L11.4609 20.4094H6.68864H1.87883V19.4646C1.87883 17.4614 4.24616 14.1732 6.57591 12.926C8.0414 12.1701 10.0705 11.7543 11.4233 11.9433C12.0245 12.0189 12.8136 12.0945 13.227 12.0945ZM20.2914 13.9087C20.8175 14.2866 21.5314 15.2315 21.9448 16.0252C22.809 17.8394 22.3581 19.7291 20.6672 21.3543C19.6902 22.2992 19.1641 22.4882 17.661 22.4882C12.5506 22.4882 11.2354 15.5339 15.9701 13.3795C17.2853 12.7748 18.9762 12.9638 20.2914 13.9087Z" fill="#8B9094"/>
<path d="M16.9095 15.685C16.9095 16.9323 16.8343 17.0079 15.5943 17.0079C14.5422 17.0079 14.2791 17.1591 14.2791 17.7638C14.2791 18.3685 14.5422 18.5197 15.5943 18.5197C16.8343 18.5197 16.9095 18.5953 16.9095 19.8425C16.9095 20.9008 17.0598 21.1654 17.661 21.1654C18.2622 21.1654 18.4125 20.9008 18.4125 19.8425C18.4125 18.5953 18.4877 18.5197 19.7277 18.5197C20.7799 18.5197 21.0429 18.3685 21.0429 17.7638C21.0429 17.1591 20.7799 17.0079 19.7277 17.0079C18.4877 17.0079 18.4125 16.9323 18.4125 15.685C18.4125 14.6268 18.2622 14.3622 17.661 14.3622C17.0598 14.3622 16.9095 14.6268 16.9095 15.685Z" fill="#8B9094"/>
</svg>
