<svg xmlns="http://www.w3.org/2000/svg" width="24" height="24" viewBox="0 0 24 24">
    <g transform="translate(-1163 -897)">
        <rect width="24" height="24" transform="translate(1163 921) rotate(-90)" fill="none"/>
        <path d="M198.708,1234.29l4,4a1.008,1.008,0,0,1,0,1.42l-4,4a1,1,0,0,1-1.42-1.42l3.29-3.29-3.29-3.29a1,1,0,0,1,1.42-1.42Z" transform="translate(973 -330)" fill="#8b9094"/>
        <path d="M207,1243v-8a1,1,0,0,0-2,0v8a1,1,0,0,0,2,0Z" transform="translate(973 -330)" fill="#8b9094"/>
    </g>
</svg>
