<?xml version="1.0" encoding="utf-8"?>
<!-- Generator: Adobe Illustrator 15.1.0, SVG Export Plug-In  -->
<!DOCTYPE svg PUBLIC "-//W3C//DTD SVG 1.1//EN" "http://www.w3.org/Graphics/SVG/1.1/DTD/svg11.dtd" [
	<!ENTITY ns_flows "http://ns.adobe.com/Flows/1.0/">
]>
<svg version="1.1"
	 xmlns="http://www.w3.org/2000/svg" xmlns:xlink="http://www.w3.org/1999/xlink" xmlns:a="http://ns.adobe.com/AdobeSVGViewerExtensions/3.0/"
	 x="0px" y="0px" width="28px" height="28px" viewBox="-5 -5 28 28" style="enable-background:new -5 -5 28 28;"
	 xml:space="preserve">
<defs>
</defs>
<path style="fill:#FFFFFF;" d="M17.3603516,5.4804688C17.7099609,5.4804688,18,5.1904297,18,4.8408203V0.6308594
	C18,0.2802734,17.7099609,0,17.3603516,0h-4.2099609c-0.3496094,0-0.6298828,0.2802734-0.6298828,0.6308594v2H5.4804688v-2
	C5.4804688,0.2802734,5.2001953,0,4.8505859,0H0.640625C0.2900391,0,0,0.2802734,0,0.6308594v4.2099609
	c0,0.3496094,0.2900391,0.6396484,0.640625,0.6396484h2v7.0400391h-2C0.2900391,12.5205078,0,12.8007813,0,13.1503906v4.2099609
	C0,17.7109375,0.2900391,18,0.640625,18h4.2099609c0.3496094,0,0.6298828-0.2890625,0.6298828-0.6396484v-2h7.0400391v2
	C12.5205078,17.7109375,12.8007813,18,13.1503906,18h4.2099609C17.7099609,18,18,17.7109375,18,17.3603516v-4.2099609
	c0-0.3496094-0.2900391-0.6298828-0.6396484-0.6298828h-2V5.4804688H17.3603516z M13.5205078,1H17v3.4804688h-1.6396484h-1
	h-0.8398438V3.6308594v-1V1z M1,4.4804688V1h3.4804688v1.6308594v1v0.8496094H3.640625h-1H1z M4.4804688,17H1v-3.4794922h1.640625h1
	h0.8398438v0.8398438v1V17z M17,13.5205078V17h-3.4794922v-1.6396484v-1v-0.8398438h0.8398438h1H17z M14.3603516,12.5205078
	h-1.2099609c-0.3496094,0-0.6298828,0.2802734-0.6298828,0.6298828v1.2099609H5.4804688v-1.2099609
	c0-0.3496094-0.2802734-0.6298828-0.6298828-0.6298828H3.640625V5.4804688h1.2099609
	c0.3496094,0,0.6298828-0.2900391,0.6298828-0.6396484V3.6308594h7.0400391v1.2099609
	c0,0.3496094,0.2802734,0.6396484,0.6298828,0.6396484h1.2099609V12.5205078z"/>
</svg>
