<svg width="18" height="18" viewBox="0 0 18 18" fill="none" xmlns="http://www.w3.org/2000/svg">
<path d="M17.5 2H9.5V16H17.5C17.7765 16 18 15.7765 18 15.5V2.5C18 2.2235 17.7765 2 17.5 2Z" fill="#4CAF50"/>
<path d="M13 4.5H16.5V6H13V4.5ZM13 9.5H16.5V11H13V9.5ZM13 12H16.5V13.5H13V12ZM13 7H16.5V8.5H13V7ZM9.5 4.5H12V6H9.5V4.5ZM9.5 9.5H12V11H9.5V9.5ZM9.5 12H12V13.5H9.5V12ZM9.5 7H12V8.5H9.5V7Z" fill="white"/>
<path d="M10.5 18L0 16V2L10.5 0V18Z" fill="#2E7D32"/>
<path d="M6.56451 12.5L5.35901 10.2195C5.31301 10.134 5.26601 9.978 5.21701 9.7505H5.19851C5.17551 9.858 5.12151 10.021 5.03651 10.24L3.82601 12.5H1.94751L4.17851 8.9995L2.13701 5.5H4.05551L5.05601 7.598C5.13401 7.7635 5.20401 7.9605 5.26601 8.1875H5.28601C5.32501 8.052 5.39801 7.8475 5.50551 7.5775L6.61851 5.5H8.37601L6.27651 8.9695L8.43451 12.499H6.56451V12.5Z" fill="white"/>
</svg>
