<?xml version="1.0" encoding="utf-8"?>
<!-- Generator: Adobe Illustrator 15.1.0, SVG Export Plug-In . SVG Version: 6.00 Build 0)  -->
<!DOCTYPE svg PUBLIC "-//W3C//DTD SVG 1.1//EN" "http://www.w3.org/Graphics/SVG/1.1/DTD/svg11.dtd">
<svg version="1.1" id="레이어_1" xmlns="http://www.w3.org/2000/svg" xmlns:xlink="http://www.w3.org/1999/xlink" x="0px"
	 y="0px" width="28px" height="28px" viewBox="0 0 28 28" enable-background="new 0 0 28 28" xml:space="preserve">
<g>
	<path fill="#FFFFFF" d="M20.852,13.145l-3.996-3.996C16.756,9.049,16.628,9,16.5,9s-0.256,0.049-0.355,0.148L12.5,12.793
		l-1.645-1.645C10.756,11.049,10.628,11,10.5,11s-0.256,0.049-0.355,0.148l-2.996,2.996c-0.198,0.198-0.198,0.509,0,0.707
		s0.509,0.198,0.707,0l2.645-2.645l1.572,1.572c0.015,0.015,0.034,0.021,0.051,0.034c0.01,0.012,0.014,0.026,0.025,0.038
		c0.198,0.198,0.509,0.198,0.707,0l3.645-3.645l3.645,3.645c0.198,0.198,0.509,0.198,0.707,0S21.05,13.343,20.852,13.145z"/>
	<g>
		<path fill="#FFFFFF" d="M22,5H6C5.447,5,5,5.447,5,6v11c0,0.55,0.45,1,1,1h5v4H8.5C8.22,22,8,22.22,8,22.5S8.22,23,8.5,23H11h1h4
			h1h2.5c0.28,0,0.5-0.22,0.5-0.5S19.78,22,19.5,22H17v-4h5c0.55,0,1-0.45,1-1V6C23,5.45,22.55,5,22,5z M16,22h-4v-4h4V22z M22,17
			h-5h-1h-4h-1H6V6h16V17z"/>
	</g>
</g>
</svg>
