<svg xmlns="http://www.w3.org/2000/svg" width="24" height="24" viewBox="0 0 24 24">
  <g transform="translate(-235 -111)">
    <g transform="translate(113 -1375)">
      <circle fill="#8b9094" cx="1.5" cy="1.5" r="1.5" transform="translate(127 1496)"/>
      <circle fill="#8b9094" cx="1.5" cy="1.5" r="1.5" transform="translate(130 1492)"/>
      <circle fill="#8b9094" cx="1.5" cy="1.5" r="1.5" transform="translate(135 1492)"/>
      <circle fill="#8b9094" cx="1.5" cy="1.5" r="1.5" transform="translate(138 1496)"/>
      <path fill="#8b9094" d="M134,1488a10,10,0,0,0,0,20,2.5,2.5,0,0,0,2.5-2.5,2.549,2.549,0,0,0-.64-1.67.528.528,0,0,1-.13-.33.5.5,0,0,1,.5-.5H138a6,6,0,0,0,6-6C144,1492.04,139.51,1488,134,1488Zm4,13h-1.77a2.494,2.494,0,0,0-1.928,4.083l.024.031.026.03a.555.555,0,0,1,.148.356.5.5,0,0,1-.5.5,8,8,0,0,1,0-16c4.411,0,8,3.141,8,7A4,4,0,0,1,138,1501Z"/>
    </g>
    <rect fill="none" width="24" height="24" transform="translate(235 111)"/>
  </g>
</svg>
