<?xml version="1.0" encoding="utf-8"?>
<!-- Generator: Adobe Illustrator 15.1.0, SVG Export Plug-In . SVG Version: 6.00 Build 0)  -->
<!DOCTYPE svg PUBLIC "-//W3C//DTD SVG 1.1//EN" "http://www.w3.org/Graphics/SVG/1.1/DTD/svg11.dtd">
<svg version="1.1" id="레이어_1" xmlns="http://www.w3.org/2000/svg" xmlns:xlink="http://www.w3.org/1999/xlink" x="0px"
	 y="0px" width="28px" height="28px" viewBox="0 0 28 28" enable-background="new 0 0 28 28" xml:space="preserve">
<g>
	<g>
		<path fill="#FFFFFF" d="M22,10h-3c0-2.76-2.24-5-5-5s-5,2.24-5,5H6c-0.55,0-1,0.45-1,1v11c0,0.55,0.45,1,1,1h16c0.55,0,1-0.45,1-1
			V11C23,10.45,22.55,10,22,10z M14,6c2.21,0,4,1.79,4,4h-8C10,7.79,11.79,6,14,6z M22,22H6V11h3.1h1.03h7.74h1.03H22V22z"/>
	</g>
	<path fill="#FFFFFF" d="M14,19c-0.28,0-0.5-0.22-0.5-0.5v-3c0-0.28,0.22-0.5,0.5-0.5s0.5,0.22,0.5,0.5v3C14.5,18.78,14.28,19,14,19
		z"/>
</g>
</svg>
