<?xml version="1.0" encoding="utf-8"?>
<!-- Generator: Adobe Illustrator 15.1.0, SVG Export Plug-In . SVG Version: 6.00 Build 0)  -->
<!DOCTYPE svg PUBLIC "-//W3C//DTD SVG 1.1//EN" "http://www.w3.org/Graphics/SVG/1.1/DTD/svg11.dtd">
<svg version="1.1" id="레이어_1" xmlns="http://www.w3.org/2000/svg" xmlns:xlink="http://www.w3.org/1999/xlink" x="0px"
	 y="0px" width="28px" height="28px" viewBox="0 0 28 28" enable-background="new 0 0 28 28" xml:space="preserve">
<path fill="#FFFFFF" d="M17,6v16h-6V6H17 M17,5h-6c-0.553,0-1,0.447-1,1v16c0,0.55,0.45,1,1,1h6c0.55,0,1-0.45,1-1V6
	C18,5.45,17.55,5,17,5L17,5z"/>
<path fill="#FFFFFF" d="M17,11v6h-6v-6H17 M17,10h-6c-0.553,0-1,0.447-1,1v6c0,0.55,0.45,1,1,1h6c0.55,0,1-0.45,1-1v-6
	C18,10.45,17.55,10,17,10L17,10z"/>
<path fill="#FFFFFF" d="M17,11v6h-6v-6H17 M17,10h-6c-0.553,0-1,0.447-1,1v6c0,0.55,0.45,1,1,1h6c0.55,0,1-0.45,1-1v-6
	C18,10.45,17.55,10,17,10L17,10z"/>
</svg>
