<svg xmlns="http://www.w3.org/2000/svg" width="28" height="28" viewBox="0 0 28 28">
  <g transform="translate(-37 -386)">
    <g >
      <rect fill="none" width="28" height="28" rx="2" transform="translate(37 386)"/>
      <path fill="#8b9094" d="M150.36,1568.54,144,1561l-6.36,7.54a9.153,9.153,0,0,0-1.93,2.89,9.011,9.011,0,1,0,17.29,3.52A9.09,9.09,0,0,0,150.36,1568.54ZM144,1582a7.031,7.031,0,0,1-7-7.05,6.878,6.878,0,0,1,.55-2.74,7.225,7.225,0,0,1,1.51-2.26l.06-.06.05-.06,4.83-5.73Z" transform="translate(-93 -1173)"/>
    </g>
  </g>
</svg>
