<?xml version="1.0" encoding="utf-8"?>
<!-- Generator: Adobe Illustrator 15.1.0, SVG Export Plug-In  -->
<!DOCTYPE svg PUBLIC "-//W3C//DTD SVG 1.1//EN" "http://www.w3.org/Graphics/SVG/1.1/DTD/svg11.dtd" [
	<!ENTITY ns_flows "http://ns.adobe.com/Flows/1.0/">
]>
<svg version="1.1"
	 xmlns="http://www.w3.org/2000/svg" xmlns:xlink="http://www.w3.org/1999/xlink" xmlns:a="http://ns.adobe.com/AdobeSVGViewerExtensions/3.0/"
	 x="0px" y="0px" width="28px" height="28px" viewBox="-5 -5 28 28" style="enable-background:new -5 -5 28 28;"
	 xml:space="preserve">
<defs>
</defs>
<path style="fill:#FFFFFF;" d="M16.4726563,0H1.5273438C0.6835938,0,0,0.6835938,0,1.5273438v14.9453125
	C0,17.3164063,0.6835938,18,1.5273438,18h14.9453125C17.3164063,18,18,17.3164063,18,16.4726563V1.5273438
	C18,0.6835938,17.3164063,0,16.4726563,0z M17,16.4726563C17,16.7636719,16.7636719,17,16.4726563,17H1.5273438
	C1.2363281,17,1,16.7636719,1,16.4726563V1.5273438C1,1.2363281,1.2363281,1,1.5273438,1h14.9453125
	C16.7636719,1,17,1.2363281,17,1.5273438V16.4726563z"/>
<path style="fill:#FFFFFF;" d="M12.7128906,9.9443359L9.5019531,13.15625V3.640625c0-0.2753906-0.2236328-0.5-0.5-0.5
	s-0.5,0.2246094-0.5,0.5v9.515625L5.3125,9.9658203c-0.1953125-0.1953125-0.5117188-0.1953125-0.7070313,0
	s-0.1953125,0.5117188,0,0.7070313l4.0419922,4.0429688c0.046875,0.0458984,0.1015625,0.0830078,0.1621094,0.1083984
	s0.125,0.0390625,0.1923828,0.0390625s0.1318359-0.0136719,0.1923828-0.0390625s0.1152344-0.0625,0.1621094-0.1083984
	l4.0634766-4.0644531c0.1953125-0.1953125,0.1953125-0.5117188,0-0.7070313S12.9082031,9.7490234,12.7128906,9.9443359z"/>
</svg>
