<svg xmlns="http://www.w3.org/2000/svg" width="24" height="24" viewBox="0 0 24 24">
  <g transform="translate(-4270 -892)">
    <g>
      <rect fill="none" width="24" height="24" transform="translate(4270 892)"/>
      <g transform="translate(4115 -711)">
        <path fill="#222529" d="M176,1608H163a1,1,0,0,0-1,1v16a1,1,0,0,0,1,1h13a1,1,0,0,0,1-1v-16A1,1,0,0,0,176,1608Zm-1,16H164v-14h11Z"/>
        <path fill="#222529" d="M172,1605a1,1,0,0,0-1-1H159a1,1,0,0,0-1,1v14a1,1,0,0,0,2,0v-13h11A1,1,0,0,0,172,1605Z"/>
      </g>
    </g>
  </g>
</svg>
