<?xml version="1.0" encoding="utf-8"?>
<!-- Generator: Adobe Illustrator 15.1.0, SVG Export Plug-In . SVG Version: 6.00 Build 0)  -->
<!DOCTYPE svg PUBLIC "-//W3C//DTD SVG 1.1//EN" "http://www.w3.org/Graphics/SVG/1.1/DTD/svg11.dtd">
<svg version="1.1" id="레이어_1" xmlns="http://www.w3.org/2000/svg" xmlns:xlink="http://www.w3.org/1999/xlink" x="0px"
	 y="0px" width="28px" height="28px" viewBox="0 0 28 28" enable-background="new 0 0 28 28" xml:space="preserve">
<g>
	<path fill="#FFFFFF" d="M22,5H6C5.447,5,5,5.447,5,6v16c0,0.55,0.45,1,1,1h16c0.55,0,1-0.45,1-1V6C23,5.45,22.55,5,22,5z M22,22H6
		V6h16V22z"/>
	<path fill="#FFFFFF" d="M8.038,14.693c0.025,0.063,0.063,0.117,0.11,0.164c0.001,0,0.001,0.002,0.002,0.002L13.29,20l0.32,0.32
		l0.069,0.068c0.09,0.069,0.2,0.109,0.32,0.109s0.23-0.04,0.32-0.109l0.069-0.068L14.71,20l5.14-5.141
		c0.002,0,0.002-0.002,0.002-0.002c0.047-0.047,0.086-0.104,0.11-0.164c0.024-0.062,0.038-0.127,0.037-0.19
		c0-0.001,0.001-0.002,0.001-0.003c0-0.28-0.221-0.5-0.5-0.5H17V8.5C17,8.22,16.779,8,16.5,8h-5C11.22,8,11,8.22,11,8.5V14H8.5
		C8.22,14,8,14.22,8,14.5c0,0.001,0.001,0.002,0.001,0.003C8,14.566,8.013,14.633,8.038,14.693z M11.5,15c0.28,0,0.5-0.221,0.5-0.5
		V9h4v5.5c0,0.279,0.221,0.5,0.5,0.5h1.79L14,19.29L9.71,15H11.5z"/>
</g>
</svg>
