<svg xmlns="http://www.w3.org/2000/svg" width="40" height="40" viewBox="0 0 40 40">
	<rect width="40" height="40" fill="none" />
	<g transform="translate(-1480 -650)">
		<path d="M1516,662.58V686.5a1.5,1.5,0,0,1-1.5,1.5h-29a1.5,1.5,0,0,1-1.5-1.5v-33a1.5,1.5,0,0,1,1.5-1.5h19.92Z" fill="#76bd26" />
		<path d="M1516,662.58V663h-9.5a1.5,1.5,0,0,1-1.5-1.5V652h.42Z" fill="#c0eb7a" />
		<path d="M1502.474,666l-2.36,4.06L1497.9,666h-4.77l4.73,7.465L1492,682h4.723l3.371-5.254,3.2,5.254h4.7l-5.633-8.535,4.961-7.465Z" fill="#fff" />
	</g>
</svg>
