<svg xmlns="http://www.w3.org/2000/svg" width="40" height="40" viewBox="0 0 40 40">
  <g transform="translate(-7649 -1878)">
    <rect fill="none" width="40" height="40" transform="translate(7649 1878)"/>
    <g transform="translate(6861 1420)">
      <path fill="#ff850a" d="M813,460H793a1,1,0,0,0-1,1v34a1,1,0,0,0,1,1h30a1,1,0,0,0,1-1V471Zm9,34H794V462h18v9a1,1,0,0,0,1,1h9Z"/>
      <path fill="#ff850a" d="M808,475h-4a1,1,0,0,0-1,1v14a1,1,0,0,0,2,0v-5h3a5,5,0,0,0,0-10Zm0,8h-3v-6h3a3,3,0,0,1,0,6Z"/>
    </g>
  </g>
</svg>
