<svg width="18" height="16" viewBox="0 0 18 16" fill="none" xmlns="http://www.w3.org/2000/svg">
<path d="M17.3077 6.99707C17.1241 6.99707 16.948 7.07002 16.8182 7.19985C16.6883 7.32969 16.6154 7.50577 16.6154 7.68938V14.6125H1.38462V7.68938C1.38462 7.50577 1.31167 7.32969 1.18183 7.19985C1.052 7.07002 0.875919 6.99707 0.692308 6.99707C0.508696 6.99707 0.332615 7.07002 0.202782 7.19985C0.0729494 7.32969 0 7.50577 0 7.68938V14.6125C0.00109573 14.9793 0.147319 15.3309 0.406748 15.5903C0.666176 15.8498 1.01773 15.996 1.38462 15.9971H16.6154C16.9823 15.996 17.3338 15.8498 17.5933 15.5903C17.8527 15.3309 17.9989 14.9793 18 14.6125V7.68938C18 7.50577 17.9271 7.32969 17.7972 7.19985C17.6674 7.07002 17.4913 6.99707 17.3077 6.99707Z" fill="#222529"/>
<path d="M8.54041 12.8209L8.54554 12.828C8.66659 12.9382 8.82986 13 9 13C9.17014 13 9.33341 12.9382 9.45446 12.828L9.45959 12.8209L12.8121 9.73088C12.8716 9.67602 12.9189 9.6109 12.9511 9.53921C12.9834 9.46753 13 9.39071 13 9.31311C13 9.23551 12.9835 9.15864 12.9513 9.08694C12.9191 9.01523 12.8719 8.95006 12.8124 8.89516C12.7529 8.84027 12.6822 8.79672 12.6045 8.767C12.5267 8.73728 12.4433 8.72195 12.3591 8.72192C12.2749 8.7219 12.1915 8.73718 12.1137 8.76686C12.0359 8.79653 11.9653 8.84002 11.9057 8.89487L9.64101 10.9811L9.64101 0.590825C9.64101 0.434129 9.57346 0.283858 9.45325 0.173058C9.33304 0.0622559 9.17001 0 9 0C8.82999 0 8.66696 0.0622559 8.54675 0.173058C8.42654 0.283858 8.35899 0.434129 8.35899 0.590825L8.35899 10.9811L6.0943 8.89311C6.03474 8.83825 5.96407 8.79476 5.88628 8.76509C5.80848 8.73542 5.72509 8.72013 5.64089 8.72016C5.55669 8.72018 5.47332 8.73551 5.39554 8.76523C5.31777 8.79496 5.24711 8.8385 5.1876 8.89339C5.12809 8.94829 5.0809 9.01346 5.04871 9.08517C5.01652 9.15688 4.99997 9.2337 5 9.31131C5.00003 9.38891 5.01662 9.46576 5.04887 9.53745C5.08111 9.60913 5.12836 9.67426 5.18791 9.72911L8.54041 12.8209Z" fill="#222529"/>
</svg>
