<svg xmlns="http://www.w3.org/2000/svg" width="40" height="40" viewBox="0 0 40 40">
	<g transform="translate(-300 -231)">
		<rect width="40" height="40" transform="translate(300 231)" fill="none" />
		<g transform="translate(-990 131)">
			<path d="M1326,112.58V136.5a1.5,1.5,0,0,1-1.5,1.5h-29a1.5,1.5,0,0,1-1.5-1.5v-33a1.5,1.5,0,0,1,1.5-1.5h19.92Z" fill="#3373c4" />
			<path d="M1326,112.58V113h-9.5a1.5,1.5,0,0,1-1.5-1.5V102h.42Z" fill="#83bbed" />
			<path d="M1311.354,119h-2.712l-2.785,9.049L1303.572,119H1300l3.923,14h3.478l2.513-8.112,2.4,8.112h3.486l4.2-14h-3.564l-2.486,9.049Z" fill="#fff" fill-rule="evenodd" />
		</g>
	</g>
</svg>
