<svg xmlns="http://www.w3.org/2000/svg" width="40" height="40" viewBox="0 0 40 40">
	<rect width="40" height="40" fill="none" />
	<g transform="translate(-1480 -750)">
		<path d="M1516,762.58V786.5a1.5,1.5,0,0,1-1.5,1.5h-29a1.5,1.5,0,0,1-1.5-1.5v-33a1.5,1.5,0,0,1,1.5-1.5h19.92Z" fill="#eee" />
		<path d="M1510,767a1,1,0,0,1-1,1h-18a1,1,0,0,1,0-2h18A1,1,0,0,1,1510,767Z" fill="#9e9e9e" />
		<path d="M1510,772a1,1,0,0,1-1,1h-18a1,1,0,0,1,0-2h18A1,1,0,0,1,1510,772Z" fill="#9e9e9e" />
		<path d="M1510,777a1,1,0,0,1-1,1h-18a1,1,0,0,1,0-2h18A1,1,0,0,1,1510,777Z" fill="#9e9e9e" />
		<path d="M1510,782a1,1,0,0,1-1,1h-18a1,1,0,0,1,0-2h18A1,1,0,0,1,1510,782Z" fill="#9e9e9e" />
		<path d="M1516,762.58V763h-9.5a1.5,1.5,0,0,1-1.5-1.5V752h.42Z" fill="#bdbdbd" />
	</g>
</svg>
