<svg xmlns="http://www.w3.org/2000/svg" width="40" height="40" viewBox="0 0 40 40">
	<g transform="translate(-300 -231)">
		<rect width="40" height="40" transform="translate(300 231)" fill="none" />
		<g transform="translate(-1180 81)">
			<path d="M1516,162.58V186.5a1.5,1.5,0,0,1-1.5,1.5h-29a1.5,1.5,0,0,1-1.5-1.5v-33a1.5,1.5,0,0,1,1.5-1.5h19.92Z" fill="#ff850a" />
			<path d="M1516,162.58V163h-9.5a1.5,1.5,0,0,1-1.5-1.5V152h.42Z" fill="#ffc46c" />
			<path d="M1501,166h-4.5a1.5,1.5,0,0,0-1.5,1.5v14a1.5,1.5,0,0,0,3,0V176h3a5,5,0,0,0,0-10Zm0,7h-3v-4h3a2,2,0,0,1,0,4Z" fill="#fff" />
		</g>
	</g>
</svg>
