<svg xmlns="http://www.w3.org/2000/svg" width="40" height="40" viewBox="0 0 40 40">
  <g transform="translate(-7649 -1998)">
    <rect fill="none" width="40" height="40" transform="translate(7649 1998)"/>
    <g transform="translate(6861 1430)">
      <path fill="#63686c" d="M813,570H793a1,1,0,0,0-1,1v34a1,1,0,0,0,1,1h30a1,1,0,0,0,1-1V581Zm9,34H794V572h18v9a1,1,0,0,0,1,1h9Z"/>
      <path fill="#63686c" d="M812.293,588.709,816.585,593l-4.292,4.292a1,1,0,0,0,1.415,1.414l5-5a1,1,0,0,0,0-1.416l-5-5a1,1,0,0,0-1.414,1.416Z"/>
      <path fill="#63686c" d="M803.707,587.293a1,1,0,0,0-1.414,0l-5,5a1,1,0,0,0,0,1.416l5,5a1,1,0,1,0,1.415-1.414L799.415,593l4.292-4.292A1,1,0,0,0,803.707,587.293Z"/>
      <path fill="#63686c" d="M809.258,585.034a1,1,0,0,0-1.225.707l-1.966,14a1,1,0,0,0,1.933.518l1.966-14A1,1,0,0,0,809.258,585.034Z"/>
    </g>
  </g>
</svg>
