<svg xmlns="http://www.w3.org/2000/svg" width="40" height="40" viewBox="0 0 40 40">
  <g transform="translate(-7649 -1698)">
    <rect fill="none" width="40" height="40" transform="translate(7649 1698)"/>
    <g transform="translate(6861 1405)">
      <path fill="#339af0" fill-rule="evenodd" d="M813,295H793a1,1,0,0,0-1,1v34a1,1,0,0,0,1,1h30a1,1,0,0,0,1-1V306Zm9,34H794V297h18v9a1,1,0,0,0,1,1h9Z"/>
      <path fill="#339af0" fill-rule="evenodd" d="M809.356,311h-2.714l-2.784,8.4-2.285-8.4H798l3.922,13H805.4l2.512-7.534,2.4,7.534H813.8l4.2-13h-3.565l-2.486,8.4Z"/>
    </g>
  </g>
</svg>
