<svg xmlns="http://www.w3.org/2000/svg" width="40" height="40" viewBox="0 0 40 40">
  <g transform="translate(-7649 -1758)">
    <rect fill="none" width="40" height="40" transform="translate(7649 1758)"/>
    <g transform="translate(6861 1410)">
      <path fill="#8b9094" d="M813,350H793a1,1,0,0,0-1,1v34a1,1,0,0,0,1,1h30a1,1,0,0,0,1-1V361Zm9,34H794V352h18v9a1,1,0,0,0,1,1h9Z"/>
      <path fill="#76bd26" d="M812.86,368.51a.121.121,0,0,0-.06-.09.861.861,0,0,0-.22-.22.244.244,0,0,0-.09-.06.153.153,0,0,0-.07-.05.06.06,0,0,0-.04-.01.355.355,0,0,0-.111-.04.736.736,0,0,0-.259-.04h-.02a.746.746,0,0,0-.26.04.879.879,0,0,0-.15.05.153.153,0,0,0-.07.05l-.09.06a.861.861,0,0,0-.22.22l-.06.09a.152.152,0,0,0-.05.07l-4.13,6.88-3.05-4.88a.208.208,0,0,0-.04-.06l-.01-.01a.121.121,0,0,0-.06-.09.354.354,0,0,0-.1-.12l-.06-.06a.21.21,0,0,0-.06-.04.244.244,0,0,0-.09-.06.153.153,0,0,0-.07-.05.06.06,0,0,0-.04-.01.355.355,0,0,0-.111-.04c-.029-.01-.069-.02-.109-.03a.756.756,0,0,0-.15-.01h-.02a.746.746,0,0,0-.26.04.879.879,0,0,0-.15.05.227.227,0,0,0-.061.04l-.009.01-.09.06a.355.355,0,0,0-.12.1l-.06.06a.209.209,0,0,0-.04.06l-.06.09a.152.152,0,0,0-.05.07l-4.88,7.81-.12.19a1.013,1.013,0,0,0-.09.41V379a.673.673,0,0,0,.04.24l.01.06a.874.874,0,0,0,.1.22.961.961,0,0,0,.18.22.817.817,0,0,0,.189.13l.061.04a1.059,1.059,0,0,0,.42.09h20a1.059,1.059,0,0,0,.42-.09c.01-.01.03-.01.04-.03a.6.6,0,0,0,.21-.14.961.961,0,0,0,.18-.22.942.942,0,0,0,.1-.23l.01-.03A.747.747,0,0,0,819,379v-.01a1.013,1.013,0,0,0-.09-.41l-.1-.16-5.9-9.84A.152.152,0,0,0,812.86,368.51Z"/>
      <circle fill="#ff850a" cx="3.5" cy="3.5" r="3.5" transform="translate(799 360)"/>
    </g>
  </g>
</svg>
