<svg xmlns="http://www.w3.org/2000/svg" width="40" height="40" viewBox="0 0 40 40">
  <g transform="translate(-7649 -1578)">
    <g transform="translate(219 352)">
      <rect fill="none" width="40" height="40" transform="translate(7430 1226)"/>
      <g transform="translate(6642 1043)">
        <path fill="#f52525" d="M808.156,204.93a15.378,15.378,0,0,0,.918-4.688,3.5,3.5,0,0,0-.722-2.637,1.849,1.849,0,0,0-1.329-.6c-.644,0-1.718.332-1.718,2.559a12.183,12.183,0,0,0,1.113,4.492,44.946,44.946,0,0,1-2.91,6.953C798.391,213,798,214.91,798,215.438c0,.976.684,1.562,1.8,1.562,2.754,0,5.254-4.746,5.664-5.566a29.031,29.031,0,0,1,5.234-1.407,7.975,7.975,0,0,0,5,2.364c.7,0,2.3,0,2.3-1.7,0-1.6-1.992-2.168-3.672-2.168a24.512,24.512,0,0,0-3.32.313A14.26,14.26,0,0,1,808.156,204.93Zm-7.441,10.136c-.547.508-.957.782-1.231.782-.1,0-.234-.039-.429-.254a.494.494,0,0,1-.02-.254c.059-.235.488-1.367,3.574-2.774A15.243,15.243,0,0,1,800.715,215.066Zm5.9-16.8a.344.344,0,0,1,.332-.2.3.3,0,0,1,.293.156c.43.606.078,2.6-.332,4.141C806.5,201.043,806.2,198.992,806.613,198.27Zm-.39,11.718c.527-1.113,1.132-2.734,1.464-3.652a16.751,16.751,0,0,0,2.032,2.734C808.137,209.422,806.945,209.773,806.223,209.988Zm7.988-.332c1.465,0,1.855.489,1.855.762,0,.156-.058.7-.859.7a5.927,5.927,0,0,1-3.145-1.328A14.8,14.8,0,0,1,814.211,209.656Z"/>
        <path fill="#f52525" d="M813,185H793a1,1,0,0,0-1,1v34a1,1,0,0,0,1,1h30a1,1,0,0,0,1-1V196Zm9,34H794V187h18v9a1,1,0,0,0,1,1h9Z"/>
      </g>
    </g>
  </g>
</svg>
