<svg xmlns="http://www.w3.org/2000/svg" width="40" height="40" viewBox="0 0 40 40">
	<g transform="translate(-300 -231)">
		<rect width="40" height="40" transform="translate(300 231)" fill="none" />
		<g transform="translate(-990 -119)">
			<path d="M1328,358.5v26a1.5,1.5,0,0,1-1.5,1.5h-33a1.5,1.5,0,0,1-1.5-1.5v-29a1.5,1.5,0,0,1,1.5-1.5h15a1.5,1.5,0,0,1,1.5,1.5,1.5,1.5,0,0,0,1.5,1.5h15A1.5,1.5,0,0,1,1328,358.5Z" fill="#d7bc20" />
			<path d="M1325,361.5V386h-30V361.5a1.5,1.5,0,0,1,1.5-1.5h27A1.5,1.5,0,0,1,1325,361.5Z" fill="#fff" />
			<path d="M1292,367.5v17a1.5,1.5,0,0,0,1.5,1.5h33a1.5,1.5,0,0,0,1.5-1.5v-20a1.5,1.5,0,0,0-1.5-1.5h-15a1.5,1.5,0,0,0-1.5,1.5,1.5,1.5,0,0,1-1.5,1.5h-15A1.5,1.5,0,0,0,1292,367.5Z" fill="#fbe961" />
			<rect width="3" height="3" rx="0.5" transform="translate(1316 363)" fill="#616161" />
			<rect width="3" height="3" rx="0.5" transform="translate(1319 366)" fill="#616161" />
			<rect width="3" height="3" rx="0.5" transform="translate(1316 369)" fill="#616161" />
			<rect width="3" height="3" rx="0.5" transform="translate(1319 372)" fill="#616161" />
			<rect width="3" height="3" rx="0.5" transform="translate(1316 375)" fill="#616161" />
			<path d="M1320.5,378a4.055,4.055,0,0,0-2.5,3.5,2.5,2.5,0,0,0,5,0A4.055,4.055,0,0,0,1320.5,378Zm0,5a1.5,1.5,0,1,1,1.5-1.5A1.5,1.5,0,0,1,1320.5,383Z" fill="#616161" />
		</g>
	</g>
</svg>
