<svg xmlns="http://www.w3.org/2000/svg" width="40" height="40" viewBox="0 0 40 40">
	<rect width="40" height="40" fill="none" />
	<g transform="translate(-1480 -700)">
		<path d="M1516,712.58V736.5a1.5,1.5,0,0,1-1.5,1.5h-29a1.5,1.5,0,0,1-1.5-1.5v-33a1.5,1.5,0,0,1,1.5-1.5h19.92Z" fill="#6885f7" />
		<path d="M1516,712.58V713h-9.5a1.5,1.5,0,0,1-1.5-1.5V702h.42Z" fill="#a4bafc" />
		<g>
			<path d="M1498.66,713.276a8.793,8.793,0,0,1,5.036,2.356s-1.209-3.5-4.064-3.632c-1.261,0-1.86.561-1.835.85C1497.817,713.083,1497.928,713.27,1498.66,713.276Z" fill="#fff" />
			<path d="M1500.354,716.894s-5.781.834-5.8,4.408,5.28,4.232,7.914,2.608a4.867,4.867,0,0,0,2.528-5.126,2.62,2.62,0,0,1,1.955.645s.675-2.723-2.962-2.629a9.576,9.576,0,0,0-6.948-2.684c-1.9,0-3.289.678-3.074,2.531C1493.966,716.647,1498.517,715.97,1500.354,716.894Zm2.221,4.423c-.82,1.835-4.879,2.763-4.778,0s4.2-2.759,4.2-2.759C1502.815,718.938,1502.91,720.525,1502.575,721.317Z" fill="#fff" />
			<path d="M1497.065,730.111c-1.876-.417-1.174-3.157-1.174-3.157H1493c.164,2.137.148,4.255,2.729,4.8s10.487,0,10.487,0l.783-2.061S1498.94,730.529,1497.065,730.111Z" fill="#fff" />
			<path d="M1498.543,727.576a1.491,1.491,0,1,0,1.46-1.169A1.34,1.34,0,0,0,1498.543,727.576Z" fill="#fff" />
		</g>
	</g>
</svg>
