<svg xmlns="http://www.w3.org/2000/svg" width="40" height="40" viewBox="0 0 40 40">
	<g transform="translate(-300 -231)">
		<rect width="40" height="40" transform="translate(300 231)" fill="none" />
		<g transform="translate(-990 -169)">
			<path d="M1325,408.5v26a1.5,1.5,0,0,1-1.5,1.5h-30a1.5,1.5,0,0,1-1.5-1.5v-29a1.5,1.5,0,0,1,1.5-1.5h15a1.5,1.5,0,0,1,1.5,1.5,1.5,1.5,0,0,0,1.5,1.5h12A1.5,1.5,0,0,1,1325,408.5Z" fill="#d7bc20" />
			<path d="M1322,411.5V436h-27V411.5a1.5,1.5,0,0,1,1.5-1.5h24A1.5,1.5,0,0,1,1322,411.5Z" fill="#fff" />
			<path d="M1330,414.5l-2,20a1.5,1.5,0,0,1-1.5,1.5h-33a1.5,1.5,0,0,1-1.5-1.5l2-20a1.5,1.5,0,0,1,1.5-1.5h33A1.5,1.5,0,0,1,1330,414.5Z" fill="#fbe961" />
		</g>
	</g>
</svg>
