<svg xmlns="http://www.w3.org/2000/svg" width="40" height="40" viewBox="0 0 40 40">
	<rect width="40" height="40" fill="none" />
	<g transform="translate(-1480 -800)">
		<path d="M1516,812.58V836.5a1.5,1.5,0,0,1-1.5,1.5h-29a1.5,1.5,0,0,1-1.5-1.5v-33a1.5,1.5,0,0,1,1.5-1.5h19.92Z" fill="#eee" />
		<path d="M1516,812.58V813h-9.5a1.5,1.5,0,0,1-1.5-1.5V802h.42Z" fill="#bdbdbd" />
		<g>
			<path d="M1494.709,818.291a1,1,0,0,0-1.415,0l-6,6-.006,0a1.007,1.007,0,0,0,0,1.416l.006,0,6,6a1,1,0,0,0,1.415-1.414l-5.3-5.295,5.3-5.295A1,1,0,0,0,1494.709,818.291Z" fill="#9e9e9e" />
			<path d="M1501.342,817.06a1,1,0,0,0-1.282.6l-2,14a1,1,0,0,0,1.88.684l2-14A1,1,0,0,0,1501.342,817.06Z" fill="#9e9e9e" />
			<path d="M1512.708,824.291l-.006,0-6-6a1,1,0,0,0-1.415,1.414l5.3,5.3-5.3,5.295a1,1,0,0,0,1.415,1.414l6-6,.006,0a1.007,1.007,0,0,0,0-1.416Z" fill="#9e9e9e" />
		</g>
	</g>
</svg>
