<svg xmlns="http://www.w3.org/2000/svg" width="60" height="60" viewBox="0 0 60 60">
  <g transform="translate(-4888 -429)">
    <rect fill="none" width="60" height="60" transform="translate(4888 429)"/>
    <g transform="translate(3810 246)">
      <path fill="#222529" d="M1134,186h-52a1,1,0,0,0-1,1v52a1,1,0,0,0,1,1h52a1,1,0,0,0,1-1V187A1,1,0,0,0,1134,186Zm-1,52h-50V188h50Z"/>
      <circle fill="#222529" cx="6" cy="6" r="6" transform="translate(1089 194)"/>
      <path fill="#222529" d="M1090,230h36a1,1,0,0,0,1-1V210a.726.726,0,0,0-.04-.25.372.372,0,0,0-.04-.14.988.988,0,0,0-.21-.32l-6-6a1.008,1.008,0,0,0-1.42,0L1106,216.58l-6.29-6.29a1.008,1.008,0,0,0-1.42,0l-9,9a.988.988,0,0,0-.21.32.372.372,0,0,0-.04.14.726.726,0,0,0-.04.25v9A1,1,0,0,0,1090,230Z"/>
    </g>
  </g>
</svg>
