<svg xmlns="http://www.w3.org/2000/svg" width="40" height="40" viewBox="0 0 40 40">
  <defs>
    <style>
      .cls-1 {
        fill: none;
      }

      .cls-2 {
        fill: #06f;
      }
    </style>
  </defs>
  <g transform="translate(-7649 -1938)">
    <rect fill="none" width="40" height="40" transform="translate(7649 1938)"/>
    <g transform="translate(6861 1425)">
      <path fill="#0066ff" d="M813,515H793a1,1,0,0,0-1,1v34a1,1,0,0,0,1,1h30a1,1,0,0,0,1-1V526Zm9,34H794V517h18v9a1,1,0,0,0,1,1h9Z"/>
      <path fill="#0066ff" d="M805.852,527.277a7.054,7.054,0,0,1,4.316,2.355s-1.036-3.5-3.483-3.632c-1.082,0-1.594.56-1.573.85C805.131,527.083,805.225,527.27,805.852,527.277Z"/>
      <path fill="#0066ff" d="M807.3,530.894s-4.955.833-4.973,4.407,4.527,4.232,6.784,2.609a5.2,5.2,0,0,0,2.168-5.125,2.025,2.025,0,0,1,1.675.644s.579-2.724-2.539-2.63a7.751,7.751,0,0,0-5.956-2.683c-1.628,0-2.819.679-2.633,2.531C801.83,530.647,805.728,529.969,807.3,530.894Zm1.9,4.424c-.7,1.834-4.181,2.762-4.095,0s3.6-2.761,3.6-2.761C809.412,532.936,809.493,534.525,809.207,535.318Z"/>
      <path fill="#0066ff" d="M804.485,544.111c-1.609-.417-1.008-3.157-1.008-3.157H801c.141,2.138.127,4.255,2.339,4.8s8.989,0,8.989,0l.672-2.061S806.093,544.528,804.485,544.111Z"/>
      <path fill="#0066ff" d="M805.752,541.576A1.251,1.251,0,1,0,807,540.407,1.212,1.212,0,0,0,805.752,541.576Z"/>
    </g>
  </g>
</svg>
