<svg xmlns="http://www.w3.org/2000/svg" width="40" height="40" viewBox="0 0 40 40">
  <rect width="40" height="40" fill="none"/>
  <g transform="translate(-1480 -200)">
    <path d="M1505.42,202H1485.5a1.5,1.5,0,0,0-1.5,1.5v23.08l5.28-5.28a.01.01,0,0,0,.01-.01,1.014,1.014,0,0,1,1.42,0,.01.01,0,0,0,.01.01l6.28,6.29,10.28-10.29a.01.01,0,0,0,.01-.01,1.014,1.014,0,0,1,1.42,0,.01.01,0,0,0,.01.01l7.28,7.28v-12Z" fill="#eee"/>
    <path d="M1516,212.58V213h-9.5a1.5,1.5,0,0,1-1.5-1.5V202h.42Z" fill="#bdbdbd"/>
    <circle cx="4" cy="4" r="4" transform="translate(1490 208)" fill="#ff850a"/>
    <path d="M1508.71,217.29a1.014,1.014,0,0,0-1.42,0,.01.01,0,0,1-.01.01L1497,227.59l-6.28-6.29a.01.01,0,0,1-.01-.01,1.014,1.014,0,0,0-1.42,0,.01.01,0,0,1-.01.01l-5.28,5.28v9.92a1.5,1.5,0,0,0,1.5,1.5h29a1.5,1.5,0,0,0,1.5-1.5V224.58l-7.28-7.28A.01.01,0,0,1,1508.71,217.29Z" fill="#76bd26"/>
  </g>
</svg>
