<svg xmlns="http://www.w3.org/2000/svg" width="40" height="40" viewBox="0 0 40 40">
	<g transform="translate(-300 -231)">
		<rect width="40" height="40" transform="translate(300 231)" fill="none" />
		<g transform="translate(-990 181)">
			<path d="M1326,62.58V86.5a1.5,1.5,0,0,1-1.5,1.5h-29a1.5,1.5,0,0,1-1.5-1.5v-33a1.5,1.5,0,0,1,1.5-1.5h19.92Z" fill="#f52525" />
			<path d="M1326,62.58V63h-9.5a1.5,1.5,0,0,1-1.5-1.5V52h.42Z" fill="#fc917b" />
			<path d="M1316.328,74.523a24.512,24.512,0,0,0-3.32.313,14.257,14.257,0,0,1-2.852-3.906,15.374,15.374,0,0,0,.918-4.688,3.5,3.5,0,0,0-.722-2.637,1.85,1.85,0,0,0-1.329-.6c-.644,0-1.718.332-1.718,2.559a12.183,12.183,0,0,0,1.113,4.492,44.959,44.959,0,0,1-2.91,6.953C1300.391,79,1300,80.91,1300,81.438c0,.976.684,1.562,1.8,1.562,2.754,0,5.254-4.746,5.664-5.566a29.029,29.029,0,0,1,5.234-1.407,7.975,7.975,0,0,0,5,2.364c.7,0,2.305,0,2.305-1.7C1320,75.09,1318.008,74.523,1316.328,74.523Zm-13.613,6.543c-.547.508-.957.782-1.231.782-.1,0-.234-.039-.429-.254a.493.493,0,0,1-.02-.254c.059-.235.488-1.367,3.574-2.774A15.234,15.234,0,0,1,1302.715,81.066Zm5.9-16.8a.344.344,0,0,1,.332-.2.3.3,0,0,1,.293.156c.43.606.078,2.6-.332,4.141C1308.5,67.043,1308.2,64.992,1308.613,64.27Zm-.39,11.718c.527-1.113,1.132-2.734,1.465-3.652a16.7,16.7,0,0,0,2.031,2.734C1310.137,75.422,1308.945,75.773,1308.223,75.988Zm8.984,1.133a5.922,5.922,0,0,1-3.144-1.328,14.781,14.781,0,0,1,2.148-.137c1.465,0,1.855.489,1.855.762C1318.066,76.574,1318.008,77.121,1317.207,77.121Z" fill="#fff" />
		</g>
	</g>
</svg>
