<svg xmlns="http://www.w3.org/2000/svg" width="169" height="25" viewBox="0 0 169 25">
  <g transform="translate(-45 -467.783)">
    <path fill="#ffffff" d="M74.869,472.389H85.3v3.432H79.316V479.1h4.771v3.259H79.316v5.463H74.869Z"/>
    <path fill="#ffffff" d="M85.081,482.321v-.173c0-3.627,2.7-5.916,6.2-5.916,3.476,0,6.153,2.223,6.153,5.808v.172c0,3.669-2.7,5.874-6.175,5.874S85.081,485.969,85.081,482.321Zm8.42-.067v-.172c0-1.9-.755-2.958-2.223-2.958-1.447,0-2.245,1.015-2.245,2.916v.172c0,1.945.755,3,2.245,3C92.725,485.213,93.5,484.133,93.5,482.254Z"/>
    <path fill="#ffffff" d="M98.316,476.534h3.865v2.246a3.557,3.557,0,0,1,3.649-2.4v3.606c-2.354-.066-3.649.668-3.649,2.482v5.355H98.316Z"/>
    <path fill="#ffffff" d="M106.758,476.534h3.865v1.727a3.949,3.949,0,0,1,3.541-2.029,3.073,3.073,0,0,1,3.066,1.878,4.476,4.476,0,0,1,3.735-1.878c2.138,0,3.693,1.382,3.693,4.21v7.384h-3.866v-6.737c0-1.143-.561-1.7-1.446-1.7a1.673,1.673,0,0,0-1.727,1.9v6.541H113.8v-6.737c0-1.143-.561-1.7-1.447-1.7a1.673,1.673,0,0,0-1.727,1.9v6.541h-3.865Z"/>
    <path fill="#ffffff" d="M130.854,472.389h4.685c5.376,0,7.989,3.066,7.989,7.557v.193c0,4.492-2.613,7.687-8.032,7.687h-4.642Zm4.556,13.17c3.454,0,5.117-1.986,5.117-5.4v-.172c0-3.325-1.511-5.334-5.139-5.334h-1.662v10.9Z"/>
    <path fill="#ffffff" d="M144.327,482.3v-.173a5.491,5.491,0,0,1,5.613-5.831c2.807,0,5.333,1.664,5.333,5.7v.755H147c.086,2.138,1.166,3.347,3.109,3.347,1.576,0,2.4-.626,2.591-1.727h2.526c-.367,2.374-2.289,3.67-5.182,3.67A5.411,5.411,0,0,1,144.327,482.3Zm8.356-1.3c-.13-1.944-1.124-2.806-2.743-2.806A2.9,2.9,0,0,0,147.047,481Z"/>
    <path fill="#ffffff" d="M155.877,484.307h2.462c.129,1.144.712,1.813,2.245,1.813,1.4,0,2.03-.5,2.03-1.447,0-.927-.756-1.273-2.418-1.554-2.98-.476-4.081-1.318-4.081-3.433,0-2.268,2.116-3.391,4.232-3.391,2.31,0,4.146.865,4.426,3.413h-2.419a1.74,1.74,0,0,0-2.007-1.511c-1.123,0-1.792.539-1.792,1.339,0,.819.54,1.144,2.332,1.446,2.655.411,4.231,1.058,4.231,3.454,0,2.289-1.619,3.606-4.512,3.606C157.691,488.042,155.985,486.7,155.877,484.307Z"/>
    <path fill="#ffffff" d="M166.219,473.187a1.556,1.556,0,1,1,1.555,1.489A1.512,1.512,0,0,1,166.219,473.187Zm.281,3.347h2.612v11.292H166.5Z"/>
    <path fill="#ffffff" d="M170.689,488.214h2.634c.216,1.123,1.08,1.772,2.785,1.772,2.03,0,3.153-1.015,3.153-3.045v-1.663a4.4,4.4,0,0,1-3.692,2.1c-2.829,0-5.01-2.118-5.01-5.377v-.151c0-3.175,2.159-5.551,5.074-5.551a3.9,3.9,0,0,1,3.628,1.966v-1.727h2.612v10.45c-.022,3.325-2.246,4.986-5.743,4.986C172.589,491.97,170.991,490.374,170.689,488.214Zm8.658-6.3v-.151c0-2.137-1.166-3.411-3.044-3.411-1.944,0-3.066,1.4-3.066,3.453v.174c0,2.094,1.295,3.39,2.979,3.39C178.03,485.365,179.347,484.069,179.347,481.91Z"/>
    <path fill="#ffffff" d="M184.01,476.534h2.613v1.792a3.89,3.89,0,0,1,3.649-2.031c2.266,0,3.864,1.319,3.864,4.428v7.1h-2.612v-6.865c0-1.707-.691-2.485-2.245-2.485a2.5,2.5,0,0,0-2.656,2.7v6.651H184.01Z"/>
    <path fill="#ffffff" d="M195.41,482.3v-.173a5.492,5.492,0,0,1,5.614-5.831c2.807,0,5.333,1.664,5.333,5.7v.755h-8.269c.085,2.138,1.166,3.347,3.109,3.347,1.576,0,2.4-.626,2.59-1.727h2.527c-.366,2.374-2.289,3.67-5.183,3.67A5.411,5.411,0,0,1,195.41,482.3Zm8.357-1.3c-.13-1.944-1.124-2.806-2.743-2.806A2.9,2.9,0,0,0,198.13,481Z"/>
    <path fill="#ffffff" d="M207.718,476.534h2.612v2.116a3.764,3.764,0,0,1,3.67-2.289v2.44c-2.288.022-3.67.756-3.67,3.152v5.873h-2.612Z"/>
    <path fill="#ffffff" d="M57.5,485.075a4.79,4.79,0,1,0,0-9.579v4.79H52.713A4.787,4.787,0,0,0,57.5,485.075Z"/>
    <path fill="#ffffff" d="M57.5,467.783h0v3.039h0a9.464,9.464,0,1,1-9.462,9.464H45a12.5,12.5,0,1,0,12.5-12.5Z"/>
    <path fill="#ffffff" d="M48.038,480.286h4.675A4.785,4.785,0,0,1,57.5,475.5v-4.674A9.463,9.463,0,0,0,48.038,480.286Z"/>
  </g>
</svg>
