<svg xmlns="http://www.w3.org/2000/svg" width="18" height="18" viewBox="0 0 18 18">
  <path fill="#ffffff" d="M3458.11,160a6.934,6.934,0,0,1,4.89-2h7.585l-2.292-2.292a1,1,0,0,1,1.415-1.415l4,4a.961.961,0,0,1,.1.147.941.941,0,0,1,.117.177l0,.008a.4.4,0,0,1,.008.047.98.98,0,0,1,.06.3c0,.009,0,.016,0,.025s0,.016,0,.025a.98.98,0,0,1-.06.3.4.4,0,0,1-.008.047l0,.008a.941.941,0,0,1-.117.177.961.961,0,0,1-.1.147l-4,4a1,1,0,0,1-1.415-1.415l2.292-2.292H3463a5,5,0,0,0,0,10h7a1,1,0,0,1,0,2h-7a6.994,6.994,0,0,1-4.89-12Z" transform="translate(-3456 -154)" />
</svg>
