<svg xmlns="http://www.w3.org/2000/svg" width="24" height="24" viewBox="0 0 24 24">
  <path fill="#ffffff" d="M110.74,237a5.471,5.471,0,0,0-4.24-2H96a1,1,0,0,0,0,2h10.5a3.5,3.5,0,0,1,0,7H95.413l1.293-1.293a1,1,0,0,0-1.414-1.414l-2.987,2.988-.015.009a.988.988,0,0,0-.21.32v0c-.006.014-.007.028-.012.04a.27.27,0,0,0-.027.1c-.01.03-.02.07-.03.11a.871.871,0,0,0,0,.1c0,.013-.008.024-.008.037s.006.021.006.031a.871.871,0,0,0,.062.32c0,.007,0,.017,0,.026l.005.007,0,.007a.988.988,0,0,0,.21.32.228.228,0,0,0,.02.013l2.983,2.984a1,1,0,1,0,1.414-1.415L95.415,246H106.5a5.5,5.5,0,0,0,4.24-9Z" transform="translate(-90 -229)"/>
</svg>