<svg xmlns="http://www.w3.org/2000/svg" width="16.001" height="18" viewBox="0 0 16.001 18">
  <g transform="translate(-3760 -154)">
    <path d="M3775.964,159.815a1.065,1.065,0,0,0-.039-.194,1,1,0,0,0-.224-.333l-4.993-4.994a1.007,1.007,0,0,0-.327-.217,1,1,0,0,0-.31-.063c-.024,0-.046-.014-.071-.014h-9a1,1,0,0,0-.707.293c-.015.015-.021.038-.036.054A.984.984,0,0,0,3760,155h0v16a1,1,0,0,0,1,1h14a.986.986,0,0,0,.664-.264c.013-.011.03-.016.042-.028A1,1,0,0,0,3776,171V160A.95.95,0,0,0,3775.964,159.815ZM3762,156h7.585l4.414,4.415V170h-12Z" fill="#acb4bf"/>
    <path d="M3772.96,162.75a.371.371,0,0,0-.04-.14.983.983,0,0,0-.21-.32l-1-1a1.008,1.008,0,0,0-1.42,0l-2.29,2.29-1.29-1.29a1.008,1.008,0,0,0-1.42,0l-2,2a.983.983,0,0,0-.21.32.371.371,0,0,0-.04.14l-.04.25v3a1,1,0,0,0,1,1h8a1,1,0,0,0,1-1v-5A.69.69,0,0,0,3772.96,162.75Z" fill="#5ec900"/>
    <circle cx="2" cy="2" r="2" transform="translate(3763 157)" fill="#ff7821"/>
  </g>
</svg>
