<svg xmlns="http://www.w3.org/2000/svg" width="14" height="14" viewBox="0 0 14 14">
  <g id="그룹_2773" data-name="그룹 2773" transform="translate(-484 -250)">
    <rect id="사각형_1992" data-name="사각형 1992" width="14" height="14" rx="0.5" transform="translate(484 250)" fill="#e1e3e6"/>
    <path id="패스_4788" data-name="패스 4788" d="M1808,707a1,1,0,0,1-1,1h-6a1,1,0,0,1,0-2h6A1,1,0,0,1,1808,707Z" transform="translate(-1313 -450)" fill="#929aa6"/>
    <path id="패스_4792" data-name="패스 4792" d="M1808,707a1,1,0,0,1-1,1h-6a1,1,0,0,1,0-2h6A1,1,0,0,1,1808,707Z" transform="translate(1198 -1547) rotate(90)" fill="#929aa6"/>
  </g>
</svg>
