<svg xmlns="http://www.w3.org/2000/svg" width="24" height="24" viewBox="0 0 24 24">
  <g id="Icon_Form_부서_검색" data-name="Icon_Form_부서 검색" transform="translate(-6052 -2608.925)">
    <rect id="사각형_7909" data-name="사각형 7909" width="24" height="24" transform="translate(6052 2608.925)" fill="none"/>
    <g id="그룹_4938" data-name="그룹 4938" transform="translate(6052 2611.99)">
      <path id="패스_9267" data-name="패스 9267" d="M572.45,2172.232a5.588,5.588,0,0,0-1.6-.232h-2.243a5.6,5.6,0,0,0-5.607,5.607v2.617a.744.744,0,0,0,.65.74.421.421,0,0,0,.1.008H575.71a.421.421,0,0,0,.1-.008.744.744,0,0,0,.651-.74v-2.617A5.6,5.6,0,0,0,572.45,2172.232Zm2.512,7.244H564.5v-1.869a4.116,4.116,0,0,1,4.112-4.112h2.243a4.106,4.106,0,0,1,4.112,4.112Z" transform="translate(-557.766 -2163.028)" fill="#929aa6"/>
      <path id="패스_9268" data-name="패스 9268" d="M570.738,2167.477a3.738,3.738,0,1,0-3.738-3.738A3.736,3.736,0,0,0,570.738,2167.477Zm0-5.981a2.243,2.243,0,1,1-2.243,2.243A2.246,2.246,0,0,1,570.738,2161.5Z" transform="translate(-558.776 -2160)" fill="#929aa6"/>
      <path id="패스_9269" data-name="패스 9269" d="M581.813,2174h-.553a7.061,7.061,0,0,1,1.3,4.112v2.617a2.245,2.245,0,0,1-.127.748h3.118a.75.75,0,0,0,.748-.748v-2.243A4.48,4.48,0,0,0,581.813,2174Z" transform="translate(-562.375 -2163.533)" fill="#929aa6"/>
      <path id="패스_9270" data-name="패스 9270" d="M582.486,2168.243a2.244,2.244,0,0,0-3.992-1.405,2.193,2.193,0,0,0-.456,1.031,1.548,1.548,0,0,0-.037.374,2.243,2.243,0,0,0,4.486,0Z" transform="translate(-561.552 -2161.514)" fill="#929aa6"/>
      <path id="패스_9271" data-name="패스 9271" d="M561.054,2174h-.568a4.48,4.48,0,0,0-4.486,4.486v2.243a.75.75,0,0,0,.748.748h3.118a2.243,2.243,0,0,1-.127-.748v-2.617A7.039,7.039,0,0,1,561.054,2174Z" transform="translate(-556 -2163.533)" fill="#929aa6"/>
      <path id="패스_9272" data-name="패스 9272" d="M562.243,2170.486a2.24,2.24,0,0,0,2.243-2.243,1.548,1.548,0,0,0-.037-.374,2.193,2.193,0,0,0-.456-1.031,2.243,2.243,0,1,0-1.749,3.648Z" transform="translate(-557.009 -2161.514)" fill="#929aa6"/>
    </g>
  </g>
</svg>
