<svg xmlns="http://www.w3.org/2000/svg" width="18" height="20" viewBox="0 0 18 20">
  <g id="그룹_2806" data-name="그룹 2806" transform="translate(-464 -488)">
    <g id="패스_4796" data-name="패스 4796" transform="translate(-1465 180)" fill="#fff">
      <path d="M 1946.5 327.5 L 1929.5 327.5 L 1929.5 308.5 L 1941 308.5 C 1941.13525390625 308.5 1941.26513671875 308.5523071289062 1941.356323242188 308.6435241699219 L 1946.3564453125 313.6435546875 C 1946.447631835938 313.7348022460938 1946.5 313.8647155761719 1946.5 314 L 1946.5 327.5 Z" stroke="none"/>
      <path d="M 1930 309 L 1930 327 L 1946 327 L 1946 314 C 1946 313.9975280761719 1945.99951171875 313.9949645996094 1945.998901367188 313.9931945800781 L 1941.0068359375 309.0010681152344 C 1941.005004882812 309.0005493164062 1941.00244140625 309 1941 309 L 1930 309 M 1929.5 308 L 1941 308 C 1941.260009765625 308 1941.52001953125 308.1000061035156 1941.7099609375 308.2900085449219 L 1946.7099609375 313.2900085449219 C 1946.900024414062 313.4800109863281 1947 313.739990234375 1947 314 L 1947 327.5 C 1947 327.7799987792969 1946.780029296875 328 1946.5 328 L 1929.5 328 C 1929.219970703125 328 1929 327.7799987792969 1929 327.5 L 1929 308.5 C 1929 308.2200012207031 1929.219970703125 308 1929.5 308 Z" stroke="none" fill="#ebebeb"/>
    </g>
    <path id="패스_4797" data-name="패스 4797" d="M1934.5,323a.5.5,0,0,1-.5-.5h0a.5.5,0,0,1,.5-.5h7a.5.5,0,0,1,.5.5h0a.5.5,0,0,1-.5.5Z" transform="translate(-1465 180)" fill="#929aa6"/>
    <path id="패스_4798" data-name="패스 4798" d="M1934.5,320a.5.5,0,0,1-.5-.5h0a.5.5,0,0,1,.5-.5h7a.5.5,0,0,1,.5.5h0a.5.5,0,0,1-.5.5Z" transform="translate(-1465 180)" fill="#929aa6"/>
    <path id="패스_4799" data-name="패스 4799" d="M1934.5,317a.5.5,0,0,1-.5-.5h0a.5.5,0,0,1,.5-.5h7a.5.5,0,0,1,.5.5h0a.5.5,0,0,1-.5.5Z" transform="translate(-1465 180)" fill="#929aa6"/>
  </g>
</svg>
