<svg xmlns="http://www.w3.org/2000/svg" width="23" height="18" viewBox="0 0 23 18">
  <g id="그룹_2802" data-name="그룹 2802" transform="translate(-448 -265)">
    <path id="패스_4795" data-name="패스 4795" d="M1754,639h-7a2.006,2.006,0,0,0-2,2v2h-7.5a.5.5,0,0,0-.5.5v13a.5.5,0,0,0,.5.5h18a.5.5,0,0,0,.5-.5V641A2.006,2.006,0,0,0,1754,639Z" transform="translate(-1285 -374)" fill="#eda924"/>
    <path id="패스_4794" data-name="패스 4794" d="M1756,656.5a.5.5,0,0,1-.5.5h-18a.5.5,0,0,1-.5-.5l-4-9a.5.5,0,0,1,.5-.5h18a.5.5,0,0,1,.5.5Z" transform="translate(-1285 -374)" fill="#ffc34d"/>
  </g>
</svg>
