<svg xmlns="http://www.w3.org/2000/svg" width="20" height="16" viewBox="0 0 20 16">
  <g id="그룹_2986" data-name="그룹 2986" transform="translate(-1796 -670)">
    <circle id="타원_120" data-name="타원 120" cx="3" cy="3" r="3" transform="translate(1800 670)" fill="#929aa6"/>
    <path id="패스_5324" data-name="패스 5324" d="M1810,685.2v.8h-14v-.8a7,7,0,1,1,14,0Z" fill="#929aa6"/>
    <path id="패스_5325" data-name="패스 5325" d="M1812,673a3,3,0,0,1-4.67,2.49,4.98,4.98,0,0,0,0-4.99,3.067,3.067,0,0,1,1.67-.5A3,3,0,0,1,1812,673Z" fill="#929aa6"/>
    <path id="패스_5326" data-name="패스 5326" d="M1816,685.2v.8h-4v-.8a9.289,9.289,0,0,0-3.37-7.18,2.293,2.293,0,0,1,.37-.02A7.1,7.1,0,0,1,1816,685.2Z" fill="#929aa6"/>
  </g>
</svg>
