<svg xmlns="http://www.w3.org/2000/svg" width="32" height="32" viewBox="0 0 32 32">
  <g transform="translate(-6008 -2066)">
    <rect fill="none" width="32" height="32" transform="translate(6008 2066)"/>
    <g transform="translate(5452 521)">
      <path fill="#222529" d="M587,1550v-2a2.006,2.006,0,0,0-2-2h-2a2.006,2.006,0,0,0-2,2H563a2.006,2.006,0,0,0-2-2h-2a2.006,2.006,0,0,0-2,2v2a2.006,2.006,0,0,0,2,2v18a2.006,2.006,0,0,0-2,2v2a2.006,2.006,0,0,0,2,2h2a2.006,2.006,0,0,0,2-2h18a2.006,2.006,0,0,0,2,2h2a2.006,2.006,0,0,0,2-2v-2a2.006,2.006,0,0,0-2-2v-18A2.006,2.006,0,0,0,587,1550Zm-28-2h2v2h-2Zm0,26v-2h2v2Zm26,0h-2v-2h2Zm-2-4a2.006,2.006,0,0,0-2,2H563a2.006,2.006,0,0,0-2-2v-18a2.006,2.006,0,0,0,2-2h18a2.006,2.006,0,0,0,2,2Zm0-20v-2h2v2Z"/>
      <path fill="#222529" d="M576.705,1553.291a1.041,1.041,0,0,0-.149-.1.938.938,0,0,0-.173-.114,1,1,0,0,0-.388-.078h-7.99a1,1,0,0,0-.388.078.938.938,0,0,0-.173.114.987.987,0,0,0-.149.1l-2,2a1,1,0,0,0,1.414,1.414l1.709-1.709H571v12h-3a1,1,0,0,0,0,2h8a1,1,0,0,0,0-2h-3v-12h2.586l1.709,1.709a1,1,0,0,0,1.414-1.414Z"/>
    </g>
  </g>
</svg>
