<svg xmlns="http://www.w3.org/2000/svg" width="20" height="20" viewBox="0 0 20 20">
    <g transform="translate(-1596 -209)">
        <g transform="translate(1496 -31)">
            <path fill="#8b9094"
                  d="M116,243H104a1,1,0,0,0-1,1v12a1,1,0,0,0,1,1h12a1,1,0,0,0,1-1V244A1,1,0,0,0,116,243Zm-1,12H105v-8h10Z"/>
            <path fill="#8b9094"
                  d="M107.134,250.69l1.086.97a.411.411,0,0,1,.123.4l-.332,1.45a.386.386,0,0,0,.572.433l1.217-.778a.375.375,0,0,1,.4,0l1.218.778a.386.386,0,0,0,.572-.433l-.333-1.45a.415.415,0,0,1,.123-.4l1.086-.97a.4.4,0,0,0-.219-.7l-1.423-.119a.385.385,0,0,1-.323-.245l-.548-1.378a.376.376,0,0,0-.706,0l-.547,1.378a.387.387,0,0,1-.324.245l-1.423.119A.4.4,0,0,0,107.134,250.69Z"/>
        </g>
    </g>
</svg>
