<svg xmlns="http://www.w3.org/2000/svg" width="32" height="32" viewBox="0 0 32 32">
  <g transform="translate(-4685 -972)">
    <rect fill="none" width="32" height="32" transform="translate(4685 972)"/>
    <g transform="translate(4129 460)">
      <path fill="#222529" d="M584,516H560a2.006,2.006,0,0,0-2,2v4a2.006,2.006,0,0,0,2,2h24a2.006,2.006,0,0,0,2-2v-4A2.006,2.006,0,0,0,584,516Zm0,6H560v-4h24Z"/>
      <path fill="#222529" d="M584,532H560a2.006,2.006,0,0,0-2,2v4a2.006,2.006,0,0,0,2,2h24a2.006,2.006,0,0,0,2-2v-4A2.006,2.006,0,0,0,584,532Zm0,6H560v-4h24Z"/>
      <path fill="#222529" d="M561,529a1,1,0,0,0,0-2h-2a1,1,0,0,0,0,2Z"/>
      <path fill="#222529" d="M569,529a1,1,0,0,0,0-2h-2a1,1,0,0,0,0,2Z"/>
      <path fill="#222529" class="cls-2" d="M577,529a1,1,0,0,0,0-2h-2a1,1,0,0,0,0,2Z"/>
      <path fill="#222529" class="cls-2" d="M585,527h-2a1,1,0,0,0,0,2h2a1,1,0,0,0,0-2Z"/>
    </g>
  </g>
</svg>
