<svg xmlns="http://www.w3.org/2000/svg" width="32" height="32" viewBox="0 0 32 32">
  <g transform="translate(-4685 -504)">
    <rect fill="none" width="32" height="32" transform="translate(4685 504)"/>
    <g transform="translate(4129 274)">
      <path fill="#222529" d="M583,233H561a2.006,2.006,0,0,0-2,2v22a2.006,2.006,0,0,0,2,2h22a2.006,2.006,0,0,0,2-2V235A2.006,2.006,0,0,0,583,233Zm0,24H561V235h22Z"/>
      <path fill="#222529" d="M564.705,239.709l.709-.709H566v5h-1a1,1,0,0,0,0,2h4a1,1,0,0,0,0-2h-1v-5h.586l.709.709a1,1,0,0,0,1.414-1.414l-1-1a1.044,1.044,0,0,0-.149-.1.94.94,0,0,0-.173-.114,1,1,0,0,0-.388-.078h-3.99a1,1,0,0,0-.388.078.94.94,0,0,0-.173.114.989.989,0,0,0-.149.1l-1,1a1,1,0,0,0,1.414,1.414Z"/>
      <path fill="#222529" d="M580,253H564a1,1,0,0,0,0,2h16a1,1,0,0,0,0-2Z"/>
      <path fill="#222529" d="M563,250a1,1,0,0,0,1,1h16a1,1,0,0,0,0-2H564A1,1,0,0,0,563,250Z"/>
    </g>
  </g>
</svg>
