<svg xmlns="http://www.w3.org/2000/svg" width="32" height="32" viewBox="0 0 32 32">
  <g transform="translate(-4685 -1180)">
    <rect fill="none" width="32" height="32" transform="translate(4685 1180)"/>
    <path fill="#222529" d="M583,889H561a1,1,0,0,0-1,1v8a1,1,0,0,0,1,1h1.03a1,1,0,0,0,.97-.74l1-5.26h6v20l-5.17,1.02h-.03l-.06.01a.5.5,0,0,0-.13.05.984.984,0,0,0-.3.2c-.03.03-.06.07-.09.1a.868.868,0,0,0-.17.33.268.268,0,0,0-.031.12A.973.973,0,0,0,564,915v1a1,1,0,0,0,1,1h14a1,1,0,0,0,1-1v-1a.553.553,0,0,0-.02-.18.267.267,0,0,0-.03-.12.092.092,0,0,0-.01-.05l-.06-.12a.551.551,0,0,0-.1-.16c-.03-.03-.06-.07-.09-.1a1.032,1.032,0,0,0-.3-.2.469.469,0,0,0-.13-.049l-.06-.011h-.03l-.05-.01L574,913V893h6l1,5.26a1,1,0,0,0,.97.74H583a1,1,0,0,0,1-1v-8A1,1,0,0,0,583,889Z" transform="translate(4129 293)"/>
  </g>
</svg>
