<svg xmlns="http://www.w3.org/2000/svg" width="32" height="32" viewBox="0 0 32 32">
  <g transform="translate(-6052 -2557)">
    <rect width="32" height="32" transform="translate(6052 2557)" fill="none"/>
    <g transform="translate(5496 542)">
      <path d="M586.708,2041.29l-3.53-3.53A5.087,5.087,0,0,0,584,2035a5,5,0,1,0-5,5,5.087,5.087,0,0,0,2.76-.82l3.53,3.53a1,1,0,1,0,1.42-1.42Zm-5.01-5A3.024,3.024,0,0,1,579,2038a3,3,0,1,1,3-3A2.948,2.948,0,0,1,581.7,2036.29Z" fill="#222529"/>
      <path d="M570,2029a5,5,0,1,0-5-5A5,5,0,0,0,570,2029Zm0-8a3,3,0,1,1-3,3A3,3,0,0,1,570,2021Z" fill="#222529"/>
      <path d="M576,2041H562v-3a5,5,0,0,1,5-5h4a1,1,0,0,0,0-2h-4a7,7,0,0,0-7,7v4a1,1,0,0,0,1,1h15a1,1,0,0,0,0-2Z" fill="#222529"/>
    </g>
  </g>
</svg>
