<svg xmlns="http://www.w3.org/2000/svg" width="32" height="32" viewBox="0 0 32 32">
  <g id="Icon_Form_조회" transform="translate(-6052 -2661)">
    <rect id="사각형_7909" data-name="사각형 7909" width="32" height="32" transform="translate(6052 2661)" fill="none"/>
    <g id="그룹_4940" data-name="그룹 4940" transform="translate(5495 314)">
      <path id="패스_9273" data-name="패스 9273" d="M583,2354H563a4,4,0,0,0-4,4v10a4,4,0,0,0,4,4h20a4,4,0,0,0,4-4v-10A4,4,0,0,0,583,2354Zm2,14a2.006,2.006,0,0,1-2,2H563a2.006,2.006,0,0,1-2-2v-10a2.006,2.006,0,0,1,2-2h20a2.006,2.006,0,0,1,2,2Z" fill="#222529"/>
      <path id="패스_9274" data-name="패스 9274" d="M575.439,2364.02A3.883,3.883,0,0,0,576,2362a4,4,0,1,0-4,4,3.881,3.881,0,0,0,2.02-.56l2.27,2.27a1,1,0,1,0,1.42-1.42ZM572,2364a2,2,0,1,1,2-2,1.7,1.7,0,0,1-.07.51,2,2,0,0,1-1.42,1.42A1.7,1.7,0,0,1,572,2364Z" fill="#222529"/>
    </g>
  </g>
</svg>
