<svg xmlns="http://www.w3.org/2000/svg" width="32" height="32" viewBox="0 0 32 32">
  <g transform="translate(-4685 -1128)">
    <rect fill="none" width="32" height="32" transform="translate(4685 1128)"/>
    <path fill="#222529" d="M583.62,845c-1.33-1.73-6.03-3-11.62-3s-10.29,1.27-11.62,3a1.626,1.626,0,0,0-.38,1v20c0,2.21,5.37,4,12,4s12-1.79,12-4V846A1.626,1.626,0,0,0,583.62,845ZM582,856.8V859c-.94.74-4.47,2-10,2s-9.06-1.26-10-2v-4.79c2.15,1.08,5.82,1.79,10,1.79s7.85-.71,10-1.79Zm0-4.8c-.94.74-4.47,2-10,2s-9.06-1.26-10-2v-3.8a5.408,5.408,0,0,0,.64.3,29.953,29.953,0,0,0,18.72,0,5.408,5.408,0,0,0,.64-.3V852Zm-10-8a26.072,26.072,0,0,1,7.61,1,7.456,7.456,0,0,1,2.19,1,5.8,5.8,0,0,1-1.21.65,9.907,9.907,0,0,1-.97.35,26.318,26.318,0,0,1-7.62,1,26.839,26.839,0,0,1-7.65-1c-.34-.11-.65-.22-.94-.34a5.384,5.384,0,0,1-1.21-.67,7.462,7.462,0,0,1,2.2-.99A25.942,25.942,0,0,1,572,844Zm10,21.83a.852.852,0,0,1-.2.17.609.609,0,0,1-.16.12c-.98.66-3.58,1.59-7.68,1.83-.62.03-1.27.05-1.96.05s-1.34-.02-1.96-.05c-4.1-.24-6.7-1.17-7.68-1.83a.609.609,0,0,1-.16-.12.852.852,0,0,1-.2-.17v-4.62c2.15,1.08,5.82,1.79,10,1.79s7.85-.71,10-1.79Z" transform="translate(4129 288)"/>
  </g>
</svg>
