<svg width="32" height="32" viewBox="0 0 32 32" fill="none" xmlns="http://www.w3.org/2000/svg">
<path d="M10.7219 0.95748C7.36502 3.02362 5.91206 6.50079 6.96421 10.0283C7.26482 11.0866 7.96625 12.3465 8.51737 12.8504C9.82003 14.0598 9.76993 14.3118 8.16666 15.0677C3.85787 17.0331 0 22.6772 0 27.0614V29.2283H8.31697C16.5838 29.2283 16.5838 29.2283 18.3875 30.589C19.9407 31.7984 20.6922 32 23.548 32C26.4039 32 27.1554 31.7984 28.6585 30.6394C31.1135 28.7244 32.2157 26.2047 31.9652 22.9291C31.5644 18.2425 28.0572 15.1181 23.1973 15.1181C19.6401 15.1181 19.0889 14.5638 20.6922 12.6488C24.9008 7.60945 21.1431 1.19209e-07 14.4294 1.19209e-07C13.227 1.19209e-07 11.6237 0.40315 10.7219 0.95748ZM16.684 2.72126C21.4938 4.73701 21.0429 11.7417 16.0327 13.1024C14.5296 13.5055 13.6779 13.4551 12.3752 12.9512C7.96625 11.0866 7.86605 4.63622 12.275 2.72126C14.1789 1.86457 14.73 1.86457 16.684 2.72126ZM17.636 16.126C18.5378 16.126 18.4877 16.3276 17.0849 17.8898C15.2311 20.0063 14.8804 21.3165 15.1309 24.6929L15.2812 27.2126H8.91819H2.50511V25.9528C2.50511 23.2819 5.66155 18.8976 8.76789 17.2346C10.7219 16.2268 13.4274 15.6724 15.2311 15.9244C16.0327 16.0252 17.0849 16.126 17.636 16.126ZM27.0552 18.5449C27.7566 19.0488 28.7086 20.3087 29.2597 21.3669C30.412 23.7858 29.8108 26.3055 27.5562 28.4724C26.2536 29.7323 25.5521 29.9843 23.548 29.9843C16.7341 29.9843 14.9806 20.7118 21.2934 17.8394C23.047 17.0331 25.3016 17.285 27.0552 18.5449Z" fill="black"/>
<path d="M22.546 20.9134C22.546 22.5764 22.4458 22.6772 20.7924 22.6772C19.3896 22.6772 19.0388 22.8787 19.0388 23.685C19.0388 24.4913 19.3896 24.6929 20.7924 24.6929C22.4458 24.6929 22.546 24.7937 22.546 26.4567C22.546 27.8677 22.7464 28.2205 23.548 28.2205C24.3497 28.2205 24.5501 27.8677 24.5501 26.4567C24.5501 24.7937 24.6503 24.6929 26.3037 24.6929C27.7065 24.6929 28.0572 24.4913 28.0572 23.685C28.0572 22.8787 27.7065 22.6772 26.3037 22.6772C24.6503 22.6772 24.5501 22.5764 24.5501 20.9134C24.5501 19.5023 24.3497 19.1496 23.548 19.1496C22.7464 19.1496 22.546 19.5023 22.546 20.9134Z" fill="black"/>
</svg>
