<svg xmlns="http://www.w3.org/2000/svg" width="20" height="20" viewBox="0 0 20 20">
  <g transform="translate(-3016 -1439)">
    <path d="M3035.5,1439h-15a.5.5,0,0,0-.5.5v3.5h-3.5a.5.5,0,0,0-.5.5v15a.5.5,0,0,0,.5.5h15a.5.5,0,0,0,.5-.5V1455h3.5a.5.5,0,0,0,.5-.5v-15A.5.5,0,0,0,3035.5,1439Zm-5.5,14v4h-12v-12h12Zm4,0h-2v-9.5a.5.5,0,0,0-.5-.5H3022v-2h12Z"/>
    <path d="M3020,1449a1,1,0,0,0,1,1h6a1,1,0,0,0,0-2h-6A1,1,0,0,0,3020,1449Z"/>
    <path d="M3027,1452h-6a1,1,0,0,0,0,2h6a1,1,0,0,0,0-2Z"/>
  </g>
</svg>
