<svg xmlns="http://www.w3.org/2000/svg" width="24" height="24" viewBox="0 0 24 24">
  <g transform="translate(-2924 -778)">
    <path d="M2946,782a1,1,0,0,1-1,1h-18a1,1,0,0,1-1-1h0a1,1,0,0,1,1-1h18a1,1,0,0,1,1,1Z"/>
    <path d="M2946,790a1,1,0,0,1-1,1h-18a1,1,0,0,1-1-1h0a1,1,0,0,1,1-1h18a1,1,0,0,1,1,1Z"/>
    <path d="M2946,798a1,1,0,0,1-1,1h-18a1,1,0,0,1-1-1h0a1,1,0,0,1,1-1h18a1,1,0,0,1,1,1Z"/>
    <path d="M2940,786a1,1,0,0,1-1,1h-12a1,1,0,0,1-1-1h0a1,1,0,0,1,1-1h12a1,1,0,0,1,1,1Z"/>
    <path d="M2940,794a1,1,0,0,1-1,1h-12a1,1,0,0,1-1-1h0a1,1,0,0,1,1-1h12a1,1,0,0,1,1,1Z"/>
  </g>
</svg>
