<svg xmlns="http://www.w3.org/2000/svg" width="24" height="24" viewBox="0 0 24 24">
  <g transform="translate(-4270 -1288)">
    <rect fill="none" width="24" height="24" transform="translate(4270 1288)"/>
    <g  transform="translate(4114 -1245)">
      <path fill="#222529" d="M161,2538h1v7a6,6,0,0,0,12,0v-7h1a1,1,0,0,0,0-2h-4a1,1,0,0,0,0,2h1v7a4,4,0,0,1-8,0v-7h1a1,1,0,0,0,0-2h-4a1,1,0,0,0,0,2Z"/>
      <path fill="#222529" d="M175,2552H161a1,1,0,0,0,0,2h14a1,1,0,0,0,0-2Z"/>
    </g>
  </g>
</svg>
