<svg xmlns="http://www.w3.org/2000/svg" width="100" height="100" viewBox="0 0 100 100">
  <defs>
    <style>
      .notification-icon-bg {
        fill: #0098ff;
      }

      .notification-icon-fill {
        fill: #fff;
      }
    </style>
  </defs>
  <g transform="translate(-1432 -617)">
    <rect class="notification-icon-bg" width="100" height="100" rx="1" transform="translate(1432 617)"/>
    <g transform="translate(840.221 29.117)">
      <g transform="translate(607.779 652.188)">
        <g>
          <g>
            <path class="notification-icon-fill" d="M608.192,681.235h6.643v1.512l-4.269,4.438h4.421v1.625h-7.209v-1.568L612,682.851h-3.811Z" transform="translate(-607.779 -681.235)"/>
            <path class="notification-icon-fill" d="M628.089,688.107h-4.222a1.342,1.342,0,0,0,.274.751,1,1,0,0,0,.8.354,1.207,1.207,0,0,0,.59-.153,1.4,1.4,0,0,0,.368-.345l2.073.194a2.959,2.959,0,0,1-1.149,1.182,4.207,4.207,0,0,1-1.933.357,3.969,3.969,0,0,1-1.72-.307,2.529,2.529,0,0,1-1.039-.977,2.937,2.937,0,0,1-.412-1.572,2.759,2.759,0,0,1,.826-2.081,3.156,3.156,0,0,1,2.282-.795,4.079,4.079,0,0,1,1.866.356,2.416,2.416,0,0,1,1.041,1.035,3.772,3.772,0,0,1,.357,1.763Zm-2.15-1.007a1.4,1.4,0,0,0-.327-.874,1.025,1.025,0,0,0-1.5.135,1.463,1.463,0,0,0-.243.739Z" transform="translate(-613.859 -682.754)"/>
            <path class="notification-icon-fill" d="M634.752,684.835h1.961v.9a2.91,2.91,0,0,1,.891-.781,2.364,2.364,0,0,1,1.1-.234,1.8,1.8,0,0,1,1.371.519,2.253,2.253,0,0,1,.5,1.605v3.489h-2.117v-3.02a1.093,1.093,0,0,0-.192-.731.69.69,0,0,0-.541-.215.769.769,0,0,0-.624.289,1.684,1.684,0,0,0-.239,1.04v2.637h-2.106Z" transform="translate(-619.545 -682.754)"/>
            <path class="notification-icon-fill" d="M647.438,681.235h2.106v1.431h-2.106Zm0,2.081h2.106v5.494h-2.106Z" transform="translate(-625.079 -681.235)"/>
            <path class="notification-icon-fill" d="M659.351,690.421h-1.967v-.893a2.9,2.9,0,0,1-.889.78,2.374,2.374,0,0,1-1.1.233,1.8,1.8,0,0,1-1.366-.519,2.249,2.249,0,0,1-.5-1.6v-3.494h2.117v3.016a1.109,1.109,0,0,0,.192.734.687.687,0,0,0,.541.216A.776.776,0,0,0,657,688.6a1.666,1.666,0,0,0,.241-1.039v-2.638h2.106Z" transform="translate(-627.737 -682.846)"/>
            <path class="notification-icon-fill" d="M665.469,688.8l2.095-.2a1.024,1.024,0,0,0,.361.533,1.06,1.06,0,0,0,.618.161,1.041,1.041,0,0,0,.654-.18.4.4,0,0,0,.18-.334.383.383,0,0,0-.237-.351,4.324,4.324,0,0,0-.905-.216,9.432,9.432,0,0,1-1.525-.354,1.609,1.609,0,0,1-.719-.55,1.427,1.427,0,0,1-.293-.884,1.442,1.442,0,0,1,.316-.934,1.885,1.885,0,0,1,.87-.586,4.617,4.617,0,0,1,1.486-.193,5.191,5.191,0,0,1,1.453.149,1.929,1.929,0,0,1,.782.467,2.446,2.446,0,0,1,.52.856l-2,.2a.687.687,0,0,0-.259-.387,1.055,1.055,0,0,0-.6-.166.855.855,0,0,0-.52.126.375.375,0,0,0-.163.307.325.325,0,0,0,.2.3,3.265,3.265,0,0,0,.9.186,6.171,6.171,0,0,1,1.563.33,1.73,1.73,0,0,1,.785.6,1.485,1.485,0,0,1,.272.861,1.687,1.687,0,0,1-.287.922,1.938,1.938,0,0,1-.906.713,4.347,4.347,0,0,1-1.684.266,4.011,4.011,0,0,1-2.144-.428A1.928,1.928,0,0,1,665.469,688.8Z" transform="translate(-632.944 -682.754)"/>
          </g>
        </g>
        <g transform="translate(40.788 0.003)">
          <path class="notification-icon-fill" d="M680.512,681.466h2.3v7.4h-2.3Z" transform="translate(-680.512 -681.339)"/>
          <path class="notification-icon-fill" d="M686.575,681.466h6.964v1.827H691.2v5.574h-2.291v-5.574h-2.336Z" transform="translate(-683.157 -681.339)"/>
          <path class="notification-icon-fill" d="M700.057,686.32l2.18-.136a1.658,1.658,0,0,0,.288.807,1.212,1.212,0,0,0,1.012.449,1.116,1.116,0,0,0,.755-.23.659.659,0,0,0,.013-1.047,2.933,2.933,0,0,0-1.173-.429,4.985,4.985,0,0,1-2.149-.9,1.8,1.8,0,0,1-.647-1.429,1.935,1.935,0,0,1,.331-1.077,2.193,2.193,0,0,1,1-.8,4.65,4.65,0,0,1,1.823-.291,3.736,3.736,0,0,1,2.167.528,2.277,2.277,0,0,1,.887,1.679l-2.159.126a1.007,1.007,0,0,0-1.123-.953.922.922,0,0,0-.6.168.52.52,0,0,0-.2.412.413.413,0,0,0,.167.318,1.881,1.881,0,0,0,.768.273,9.632,9.632,0,0,1,2.152.653,2.259,2.259,0,0,1,.945.82,2.077,2.077,0,0,1,.3,1.1,2.342,2.342,0,0,1-.395,1.312,2.473,2.473,0,0,1-1.1.912,4.465,4.465,0,0,1-1.785.31,3.681,3.681,0,0,1-2.619-.727A2.867,2.867,0,0,1,700.057,686.32Z" transform="translate(-689.038 -681.241)"/>
          <path class="notification-icon-fill" d="M713.987,681.466H717l1.162,4.5,1.153-4.5h3.011v7.4h-1.876v-5.644L719,688.867h-1.7l-1.443-5.644v5.644h-1.877Z" transform="translate(-695.114 -681.339)"/>
        </g>
      </g>
      <g transform="translate(626.364 614.883)">
        <g>
          <g>
            <path class="notification-icon-fill" d="M663.708,643.511a5.9,5.9,0,1,0,0-11.792v5.9H657.8A5.9,5.9,0,0,0,663.708,643.511Z" transform="translate(-648.293 -622.227)"/>
            <path class="notification-icon-fill" d="M656.352,614.883h0v3.74h0a11.649,11.649,0,1,1-11.668,11.65h-3.747a15.415,15.415,0,1,0,15.415-15.39Z" transform="translate(-640.937 -614.883)"/>
            <path class="notification-icon-fill" d="M647.583,633.166h5.761a5.9,5.9,0,0,1,5.907-5.9v-5.752A11.662,11.662,0,0,0,647.583,633.166Z" transform="translate(-643.836 -617.776)"/>
          </g>
        </g>
      </g>
    </g>
  </g>
</svg>
