<?xml version="1.0" encoding="utf-8"?>
<!-- Generator: Adobe Illustrator 15.1.0, SVG Export Plug-In  -->
<!DOCTYPE svg PUBLIC "-//W3C//DTD SVG 1.1//EN" "http://www.w3.org/Graphics/SVG/1.1/DTD/svg11.dtd" [
	<!ENTITY ns_flows "http://ns.adobe.com/Flows/1.0/">
]>
<svg version="1.1"
	 xmlns="http://www.w3.org/2000/svg" xmlns:xlink="http://www.w3.org/1999/xlink" xmlns:a="http://ns.adobe.com/AdobeSVGViewerExtensions/3.0/"
	 x="0px" y="0px" width="28px" height="28px" viewBox="-4.9995117 -5 28 28" style="enable-background:new -4.9995117 -5 28 28;"
	 xml:space="preserve">
<defs>
</defs>
<path style="fill:#5C6776;" d="M7.0888672,6.3603516c1.7597656,0,3.1791992-1.4199219,3.1791992-3.1801758
	C10.2680664,1.4204102,8.8486328,0,7.0888672,0S3.9101563,1.4204102,3.9101563,3.1801758
	C3.9101563,4.9404297,5.3291016,6.3603516,7.0888672,6.3603516z M7.0888672,1c1.2001953,0,2.1796875,0.9804688,2.1796875,2.1801758
	c0,1.2001953-0.9794922,2.1801758-2.1796875,2.1801758c-1.1992188,0-2.1796875-0.9799805-2.1796875-2.1801758
	C4.9091797,1.9804688,5.8896484,1,7.0888672,1z"/>
<path style="fill:#5C6776;" d="M17.7680664,5.75L15.527832,3.5102539c-0.1601563-0.1601563-0.359375-0.2402344-0.5585938-0.2402344
	c-0.2011719,0-0.4101563,0.0800781-0.5605469,0.2402344L9.2890625,8.6201172
	C8.5986328,8.3901367,7.8583984,8.2700195,7.0888672,8.2700195C3.1699219,8.2700195,0,11.4501953,0,15.3603516v2
	C0,17.7207031,0.2900391,18,0.640625,18h12.8969727c0.3613281,0,0.640625-0.2792969,0.640625-0.6396484v-2
	c0-1.3994141-0.4003906-2.7001953-1.109375-3.7998047l4.6992188-4.6904297
	C18.0786133,6.5600586,18.0786133,6.0600586,17.7680664,5.75z M13.1782227,15.3603516V17H1v-1.6396484
	C1,12,3.7304688,9.2700195,7.0888672,9.2700195c0.4804688,0,0.9404297,0.0600586,1.390625,0.1601563l-3.0292969,3.0307617
	c-0.1113281,0.1191406-0.1816406,0.2695313-0.1816406,0.4394531v2.4804688c0,0.3496094,0.28125,0.6289063,0.6210938,0.6289063
	h2.4794922c0.1796875,0,0.3300781-0.0693359,0.4404297-0.1894531l3.5288086-3.5302734
	C12.8774414,13.1904297,13.1782227,14.2402344,13.1782227,15.3603516z M12.4790039,10.75l-0.7109375,0.7109375l-3.5483398,3.5488281
	H6.2685547v-1.9492188l3.2705078-3.2705078l0.7504883-0.75l4.6796875-4.6796875l1.9394531,1.949707L12.4790039,10.75z"/>
</svg>
