<?xml version="1.0" encoding="utf-8"?>
<!-- Generator: Adobe Illustrator 15.1.0, SVG Export Plug-In . SVG Version: 6.00 Build 0)  -->
<!DOCTYPE svg PUBLIC "-//W3C//DTD SVG 1.1//EN" "http://www.w3.org/Graphics/SVG/1.1/DTD/svg11.dtd">
<svg version="1.1" id="레이어_1" xmlns="http://www.w3.org/2000/svg" xmlns:xlink="http://www.w3.org/1999/xlink" x="0px"
	 y="0px" width="28px" height="28px" viewBox="0 0 28 28" enable-background="new 0 0 28 28" xml:space="preserve">
<g>
	<path fill="#FFFFFF" d="M18.5,19h-9C9.22,19,9,19.22,9,19.5S9.22,20,9.5,20h9c0.28,0,0.5-0.22,0.5-0.5S18.78,19,18.5,19z"/>
	<path fill="#FFFFFF" d="M9.5,13C9.22,13,9,13.22,9,13.5S9.22,14,9.5,14h9c0.28,0,0.5-0.22,0.5-0.5S18.78,13,18.5,13H9.5z"/>
	<path fill="#FFFFFF" d="M18.5,16h-9C9.22,16,9,16.22,9,16.5S9.22,17,9.5,17h9c0.28,0,0.5-0.22,0.5-0.5S18.78,16,18.5,16z"/>
	<path fill="#FFFFFF" d="M22,10h-4.3l-2.74-3.74l-0.011-0.011C14.971,6.168,15,6.089,15,6c0-0.552-0.448-1-1-1s-1,0.448-1,1
		c0,0.089,0.029,0.168,0.051,0.249L13.04,6.26L10.3,10H6c-0.55,0-1,0.45-1,1v11c0,0.55,0.45,1,1,1h16c0.55,0,1-0.45,1-1V11
		C23,10.45,22.55,10,22,10z M13.751,6.949C13.832,6.971,13.911,7,14,7s0.168-0.029,0.249-0.051L16.3,10h-4.6L13.751,6.949z M22,22H6
		V11h3.3h1.4h6.6h1.4H22V22z"/>
</g>
</svg>
