<svg xmlns="http://www.w3.org/2000/svg" width="34" height="40" viewBox="0 0 34 40">
  <defs>
    <style>
      .cls-1 {
        fill: #0098ff;
        fill-rule: evenodd;
      }
    </style>
  </defs>
  <g transform="translate(-2051 -318)">
    <path class="cls-1" d="M2084.96,328.75a.371.371,0,0,0-.04-.14.983.983,0,0,0-.21-.32l-1.71-1.71-6.58-6.58-1.71-1.71a.986.986,0,0,0-.32-.21.369.369,0,0,0-.14-.04L2074,318h-22.5a.5.5,0,0,0-.5.5v39a.5.5,0,0,0,.5.5h33a.5.5,0,0,0,.5-.5V329A.69.69,0,0,0,2084.96,328.75ZM2083,356h-30V320h20.58l9.42,9.42Z"/>
    <path class="cls-1" d="M2069.491,336h-2.984l-3.063,9.049L2060.93,336H2057l4.314,14h3.826l2.765-8.112,2.639,8.112h3.835L2079,336h-3.921l-2.735,9.049Z"/>
  </g>
</svg>
