<?xml version="1.0" encoding="utf-8"?>
<!-- Generator: Adobe Illustrator 15.1.0, SVG Export Plug-In . SVG Version: 6.00 Build 0)  -->
<!DOCTYPE svg PUBLIC "-//W3C//DTD SVG 1.1//EN" "http://www.w3.org/Graphics/SVG/1.1/DTD/svg11.dtd">
<svg version="1.1" id="레이어_1" xmlns="http://www.w3.org/2000/svg" xmlns:xlink="http://www.w3.org/1999/xlink" x="0px"
	 y="0px" width="28px" height="28px" viewBox="0 0 28 28" enable-background="new 0 0 28 28" xml:space="preserve">
<path fill="#FFFFFF" d="M22.709,7.41l-2.13-2.119C20.389,5.1,20.129,5,19.879,5c-0.26,0-0.51,0.1-0.71,0.291L16.459,8H5.999
	c-0.55,0-1,0.451-1,1v13c0,0.551,0.45,1,1,1h13c0.55,0,1-0.449,1-1V11.541l2.71-2.711C23.099,8.441,23.099,7.801,22.709,7.41z
	 M18.999,22h-13V9h9.46l-6.19,6.191c-0.39,0.389-0.39,1.02,0,1.42l2.12,2.119c0.2,0.189,0.45,0.289,0.71,0.289
	c0.261,0,0.511-0.1,0.71-0.289l6.19-6.189V22z M19.999,10.121l-1,1l-6.9,6.898L9.979,15.9L16.879,9l1-1l2-2l2.12,2.121
	L19.999,10.121z"/>
</svg>
