<?xml version="1.0" encoding="utf-8"?>
<!-- Generator: Adobe Illustrator 15.1.0, SVG Export Plug-In . SVG Version: 6.00 Build 0)  -->
<!DOCTYPE svg PUBLIC "-//W3C//DTD SVG 1.1//EN" "http://www.w3.org/Graphics/SVG/1.1/DTD/svg11.dtd">
<svg version="1.1" id="레이어_1" xmlns="http://www.w3.org/2000/svg" xmlns:xlink="http://www.w3.org/1999/xlink" x="0px"
	 y="0px" width="28px" height="28px" viewBox="0 0 28 28" enable-background="new 0 0 28 28" xml:space="preserve">
<g>
	<path fill="#FFFFFF" d="M14,5c-1.93,0-3.5,1.57-3.5,3.5S12.07,12,14,12s3.5-1.57,3.5-3.5S15.93,5,14,5z M14,11
		c-1.38,0-2.5-1.12-2.5-2.5S12.62,6,14,6s2.5,1.12,2.5,2.5S15.38,11,14,11z"/>
	<path fill="#FFFFFF" d="M14,14c-3.87,0-7,3.13-7,7v1c0,0.55,0.45,1,1,1h12c0.55,0,1-0.45,1-1v-1C21,17.13,17.87,14,14,14z M20,22H8
		v-1c0-3.31,2.69-6,6-6s6,2.69,6,6V22z"/>
</g>
</svg>
