<svg xmlns="http://www.w3.org/2000/svg" width="20" height="20" viewBox="0 0 20 20">
  <defs>
    <style>
      .cls-1 {
        fill: #929aa6;
      }
    </style>
  </defs>
  <path id="패스_125" data-name="패스 125" class="cls-1" d="M39.5,638a.5.5,0,0,0,.5-.5v-7a.5.5,0,0,0-.5-.5h-7a.5.5,0,0,0-.5.5V633H28v-2.5a.5.5,0,0,0-.5-.5h-7a.5.5,0,0,0-.5.5v7a.5.5,0,0,0,.5.5H23v4H20.5a.5.5,0,0,0-.5.5v7a.5.5,0,0,0,.5.5h7a.5.5,0,0,0,.5-.5V647h4v2.5a.5.5,0,0,0,.5.5h7a.5.5,0,0,0,.5-.5v-7a.5.5,0,0,0-.5-.5H37v-4ZM34,632h4v4H34Zm-12,0h4v4H22Zm4,16H22v-4h4Zm12,0H34v-4h4Zm-3-6H32.5a.5.5,0,0,0-.5.5V645H28v-2.5a.5.5,0,0,0-.5-.5H25v-4h2.5a.5.5,0,0,0,.5-.5V635h4v2.5a.5.5,0,0,0,.5.5H35Z" transform="translate(-20 -630)"/>
</svg>
