<svg xmlns="http://www.w3.org/2000/svg" width="34" height="40" viewBox="0 0 34 40">
  <defs>
    <style>
      .cls-1 {
        fill: #00c462;
      }
    </style>
  </defs>
  <g transform="translate(-2051 -268)">
    <path class="cls-1" d="M2084.96,278.75a.371.371,0,0,0-.04-.14.983.983,0,0,0-.21-.32l-1.71-1.71-6.58-6.58-1.71-1.71a.986.986,0,0,0-.32-.21.369.369,0,0,0-.14-.04L2074,268h-22.5a.5.5,0,0,0-.5.5v39a.5.5,0,0,0,.5.5h33a.5.5,0,0,0,.5-.5V279A.69.69,0,0,0,2084.96,278.75ZM2083,306h-30V270h20.58l9.42,9.42Z"/>
    <path class="cls-1" d="M2070.783,282l-2.656,4.568L2065.636,282h-5.366l5.322,8.4L2059,300h5.313l3.793-5.911,3.6,5.911H2077l-6.337-9.6,5.581-8.4Z"/>
  </g>
</svg>
