<svg xmlns="http://www.w3.org/2000/svg" width="27.002" height="27" viewBox="0 0 27.002 27">
  <g transform="translate(-1846 -74)">
    <path d="M1868,97h-11V78.5a.5.5,0,0,0-.5-.5l-5-2H1868a1,1,0,0,0,0-2h-21a.973.973,0,0,0-.34.06,1.01,1.01,0,0,0-.66.94V96.5a.5.5,0,0,0,.5.5l.16.06L1851.5,99l5,2a.5.5,0,0,0,.5-.5V99h11a1,1,0,0,0,0-2Z"/>
    <path d="M1872.71,86.29l-5-5a.987.987,0,0,0-.32-.21.371.371,0,0,0-.14-.04L1867,81a.69.69,0,0,0-.25.04.371.371,0,0,0-.14.04.942.942,0,0,0-.53.53.372.372,0,0,0-.04.14.69.69,0,0,0-.04.25v2h-6a1,1,0,0,0-1,1v4a1,1,0,0,0,1,1h6v2a.726.726,0,0,0,.04.25.372.372,0,0,0,.04.14.942.942,0,0,0,.53.53.371.371,0,0,0,.14.04l.25.04a.727.727,0,0,0,.25-.04.371.371,0,0,0,.14-.04.987.987,0,0,0,.32-.21l5-5A1.008,1.008,0,0,0,1872.71,86.29Z"/>
  </g>
</svg>
