<?xml version="1.0" encoding="utf-8"?>
<!-- Generator: Adobe Illustrator 15.1.0, SVG Export Plug-In . SVG Version: 6.00 Build 0)  -->
<!DOCTYPE svg PUBLIC "-//W3C//DTD SVG 1.1//EN" "http://www.w3.org/Graphics/SVG/1.1/DTD/svg11.dtd">
<svg version="1.1" id="레이어_1" xmlns="http://www.w3.org/2000/svg" xmlns:xlink="http://www.w3.org/1999/xlink" x="0px"
	 y="0px" width="28px" height="28px" viewBox="0 0 28 28" enable-background="new 0 0 28 28" xml:space="preserve">
<path fill="#FFFFFF" d="M22,11c0.55,0,1-0.45,1-1V6c0-0.55-0.45-1-1-1h-4c-0.55,0-1,0.45-1,1v2h-6V6c0-0.55-0.45-1-1-1H6
	C5.45,5,5,5.45,5,6v4c0,0.55,0.45,1,1,1h2v6H6c-0.55,0-1,0.45-1,1v4c0,0.55,0.45,1,1,1h4c0.55,0,1-0.45,1-1v-2h6v2
	c0,0.55,0.45,1,1,1h4c0.55,0,1-0.45,1-1v-4c0-0.55-0.45-1-1-1h-2v-6H22z M18,6h4v4h-2h-1h-1V9V8V6z M6,10V6h4v2v1v1H9H8H6z M10,22H6
	v-4h2h1h1v1v1V22z M22,18v4h-4v-2v-1v-1h1h1H22z M19,17h-1c-0.55,0-1,0.45-1,1v1h-6v-1c0-0.55-0.45-1-1-1H9v-6h1c0.55,0,1-0.45,1-1
	V9h6v1c0,0.55,0.45,1,1,1h1V17z"/>
</svg>
