<?xml version="1.0" encoding="utf-8"?>
<!-- Generator: Adobe Illustrator 15.1.0, SVG Export Plug-In . SVG Version: 6.00 Build 0)  -->
<!DOCTYPE svg PUBLIC "-//W3C//DTD SVG 1.1//EN" "http://www.w3.org/Graphics/SVG/1.1/DTD/svg11.dtd">
<svg version="1.1" id="레이어_1" xmlns="http://www.w3.org/2000/svg" xmlns:xlink="http://www.w3.org/1999/xlink" x="0px"
	 y="0px" width="28px" height="28px" viewBox="0 0 28 28" enable-background="new 0 0 28 28" xml:space="preserve">
<g>
	<path fill="#FFFFFF" d="M22,5H6C5.45,5,5,5.45,5,6v16c0,0.55,0.45,1,1,1h1.08h13.84H22c0.55,0,1-0.45,1-1V6C23,5.45,22.55,5,22,5z
		 M8.349,22c0.828-2.345,3.083-4,5.651-4s4.823,1.655,5.651,4H8.349z M22,22h-1.304c-0.855-2.896-3.522-5-6.696-5
		s-5.841,2.104-6.696,5H6V6h16V22z"/>
	<path fill="#FFFFFF" d="M14,15c1.934,0,3.5-1.566,3.5-3.5S15.934,8,14,8s-3.5,1.566-3.5,3.5S12.066,15,14,15z M14,9
		c1.379,0,2.5,1.121,2.5,2.5S15.379,14,14,14s-2.5-1.121-2.5-2.5S12.621,9,14,9z"/>
</g>
</svg>
