<svg xmlns="http://www.w3.org/2000/svg" width="20" height="20" viewBox="0 0 20 20">
  <defs>
    <style>
      .cls-1 {
        fill: #929aa6;
      }
    </style>
  </defs>
  <path id="패스_123" data-name="패스 123" class="cls-1" d="M39.5,230l-16,1a.5.5,0,0,0-.5.5v.5H20.5a.5.5,0,0,0-.5.5v9a.5.5,0,0,0,.5.5H23v.5a.5.5,0,0,0,.5.5l1.5.09v6.41a.5.5,0,0,0,.5.5h4a.5.5,0,0,0,.5-.5v-6.09l9.5.59a.5.5,0,0,0,.5-.5v-13A.5.5,0,0,0,39.5,230ZM22,240v-6h1v6Zm6,8H27v-4.779l1,.058Zm10-6.1-8-.5-3-.19-2-.12v-8.18l2-.12,11-.69Z" transform="translate(-20 -230)"/>
</svg>
