<?xml version="1.0" encoding="utf-8"?>
<!-- Generator: Adobe Illustrator 15.1.0, SVG Export Plug-In . SVG Version: 6.00 Build 0)  -->
<!DOCTYPE svg PUBLIC "-//W3C//DTD SVG 1.1//EN" "http://www.w3.org/Graphics/SVG/1.1/DTD/svg11.dtd">
<svg version="1.1" id="레이어_1" xmlns="http://www.w3.org/2000/svg" xmlns:xlink="http://www.w3.org/1999/xlink" x="0px"
	 y="0px" width="28px" height="28px" viewBox="0 0 28 28" enable-background="new 0 0 28 28" xml:space="preserve">
<g>
	<path fill="#FFFFFF" d="M22.727,16.679l-1.184-1.026c0.129-0.53,0.198-1.083,0.198-1.652c0-0.565-0.069-1.118-0.198-1.649
		l1.184-1.025c0.263-0.145,0.351-0.461,0.201-0.707l-1.365-2.232c-0.101-0.167-0.283-0.26-0.471-0.26
		c-0.093,0-0.188,0.022-0.273,0.07l-1.537,0.457C18.43,7.9,17.401,7.331,16.26,7.001l-0.351-1.484C15.909,5.231,15.666,5,15.365,5
		h-2.73c-0.301,0-0.546,0.231-0.546,0.517L11.74,7.001c-1.14,0.33-2.171,0.899-3.021,1.652L7.184,8.196
		c-0.086-0.048-0.18-0.069-0.272-0.069c-0.189,0-0.372,0.094-0.473,0.259l-1.366,2.232c-0.149,0.246-0.06,0.563,0.2,0.707
		l1.187,1.025C6.327,12.882,6.256,13.435,6.256,14c0,0.569,0.071,1.122,0.203,1.652l-1.187,1.026c-0.26,0.145-0.35,0.461-0.2,0.707
		l1.366,2.232c0.101,0.165,0.283,0.259,0.473,0.259c0.093,0,0.187-0.021,0.272-0.069l1.535-0.457
		c0.851,0.752,1.882,1.322,3.021,1.652l0.349,1.484c0,0.284,0.245,0.513,0.546,0.513h2.73c0.301,0,0.544-0.229,0.544-0.513
		l0.351-1.484c1.142-0.33,2.17-0.9,3.021-1.652l1.537,0.457c0.085,0.048,0.179,0.069,0.271,0.069c0.188,0,0.373-0.094,0.474-0.259
		l1.365-2.232C23.077,17.136,22.989,16.823,22.727,16.679z M20.898,18.788l-1.332-0.396l-0.531-0.157l-0.416,0.366
		c-0.747,0.66-1.659,1.159-2.637,1.441l-0.562,0.162l-0.135,0.569L14.997,22h-1.995l-0.288-1.226l-0.134-0.569l-0.562-0.163
		c-0.98-0.283-1.893-0.782-2.638-1.44l-0.416-0.368l-0.531,0.159l-1.331,0.396l-0.948-1.55l0.959-0.83l0.464-0.401L7.43,15.411
		C7.314,14.948,7.256,14.473,7.256,14c0-0.471,0.059-0.944,0.174-1.408l0.147-0.597l-0.464-0.401l-0.959-0.828l0.948-1.55
		l1.331,0.396l0.532,0.159l0.416-0.368c0.743-0.658,1.655-1.156,2.637-1.44l0.562-0.163l0.134-0.569L13.003,6h1.993l0.29,1.23
		L15.421,7.8l0.562,0.162c0.979,0.283,1.891,0.781,2.637,1.44l0.415,0.367l0.532-0.157l1.332-0.396l0.947,1.55l-0.957,0.829
		l-0.461,0.399l0.144,0.592c0.112,0.466,0.17,0.941,0.17,1.414c0,0.476-0.058,0.952-0.17,1.416l-0.144,0.593l0.46,0.399l0.958,0.83
		L20.898,18.788z"/>
	<path fill="#FFFFFF" d="M14,10c-2.206,0-4,1.792-4,3.997C10,16.205,11.794,18,14,18c2.208,0,4-1.795,4-4.003
		C18,11.792,16.208,10,14,10z M14,17c-1.654,0-3-1.347-3-3.003C11,12.345,12.346,11,14,11s3,1.345,3,2.997
		C17,15.653,15.654,17,14,17z"/>
</g>
</svg>
