<?xml version="1.0" encoding="utf-8"?>
<!-- Generator: Adobe Illustrator 15.1.0, SVG Export Plug-In  -->
<!DOCTYPE svg PUBLIC "-//W3C//DTD SVG 1.1//EN" "http://www.w3.org/Graphics/SVG/1.1/DTD/svg11.dtd" [
	<!ENTITY ns_flows "http://ns.adobe.com/Flows/1.0/">
]>
<svg version="1.1"
	 xmlns="http://www.w3.org/2000/svg" xmlns:xlink="http://www.w3.org/1999/xlink" xmlns:a="http://ns.adobe.com/AdobeSVGViewerExtensions/3.0/"
	 x="0px" y="0px" width="118px" height="28px" viewBox="0 0 118 28" style="enable-background:new 0 0 118 28;"
	 xml:space="preserve">
<defs>
</defs>
<path style="fill:#FFFFFF;" d="M25.6484375,13.7851563c1.4238281-1.0351563,2.3574219-2.7167969,2.3574219-4.6015625V4.1484375
	C28.0058594,1.8671875,26.1386719,0,23.8554688,0H4.1503906C1.8671875,0,0,1.8671875,0,4.1484375v19.703125
	C0,26.1328125,1.8671875,28,4.1503906,28h19.7050781c2.2832031,0,4.1503906-1.8671875,4.1503906-4.1484375v-5.0292969
	c0-1.8808594-0.9296875-3.5566406-2.3496094-4.59375c-0.0742188-0.0458984-0.125-0.1289063-0.125-0.2246094
	C25.53125,13.9121094,25.578125,13.8339844,25.6484375,13.7851563 M23.8496094,23.4306641
	c0,0.2275391-0.1875,0.4150391-0.4140625,0.4150391H4.5644531c-0.2246094,0-0.4140625-0.1875-0.4140625-0.4150391V4.5605469
	c0-0.2265625,0.1894531-0.4140625,0.4140625-0.4140625h18.8710938c0.2265625,0,0.4140625,0.1875,0.4140625,0.4140625V23.4306641z"/>
<path style="fill:#FFFFFF;" d="M43.8867188,4.0390625h5.8789063l6.4628906,19.921875h-4.7070313L50.15625,19.53125h-7.2167969
	l-1.3652344,4.4296875h-4.234375L43.8867188,4.0390625z M43.9140625,16.3251953h5.265625l-2.6191406-8.6083984
	L43.9140625,16.3251953z"/>
<path style="fill:#FFFFFF;" d="M58.9550781,4.0390625H63.46875v16.3808594h8.1074219v3.5410156H58.9550781V4.0390625z"/>
<path style="fill:#FFFFFF;" d="M74.6640625,4.0390625h4.5410156v19.921875h-4.5410156V4.0390625z"/>
<path style="fill:#FFFFFF;" d="M82.5742188,14.125v-0.2226563c0-6.0458984,4.2363281-10.1699219,9.890625-10.1699219
	c4.7910156,0,8.359375,2.3398438,8.8320313,7.2441406h-4.625C96.3378906,8.5800781,95,7.2978516,92.4921875,7.2978516
	c-3.1484375,0-5.1542969,2.4521484-5.1542969,6.5771484v0.2226563c0,4.1230469,1.8945313,6.5195313,5.1835938,6.5195313
	c2.4785156,0,4.2070313-1.2539063,4.5683594-3.8164063h4.4316406c-0.5039063,4.9306641-4.0410156,7.4667969-8.9453125,7.4667969
	C86.0566406,24.2675781,82.5742188,20.2548828,82.5742188,14.125z"/>
<path style="fill:#FFFFFF;" d="M104.4394531,4.0390625h12.984375v3.5097656h-8.4980469v4.6542969h6.796875v3.2871094h-6.796875
	v4.9589844h8.9433594v3.5117188h-13.4296875V4.0390625z"/>
</svg>
