<svg xmlns="http://www.w3.org/2000/svg" width="20" height="20" viewBox="0 0 20 20">
  <defs>
    <style>
      .cls-1 {
        fill: #929aa6;
      }
    </style>
  </defs>
  <g id="그룹_38" data-name="그룹 38" transform="translate(-20 -330)">
    <path id="패스_23" data-name="패스 23" class="cls-1" d="M39.5,330h-19a.5.5,0,0,0-.5.5v19a.5.5,0,0,0,.5.5h19a.5.5,0,0,0,.5-.5v-19A.5.5,0,0,0,39.5,330ZM38,348H22V332H38Z"/>
    <path id="패스_24" data-name="패스 24" class="cls-1" d="M29.291,345.706h0a.938.938,0,0,0,.1.066.967.967,0,0,0,.225.149.984.984,0,0,0,.768,0,.967.967,0,0,0,.225-.149.938.938,0,0,0,.1-.066h0l4-4a1,1,0,0,0-1.414-1.414L31,342.586V335a1,1,0,0,0-2,0v7.586l-2.293-2.293a1,1,0,0,0-1.414,1.414Z"/>
  </g>
</svg>
