<svg xmlns="http://www.w3.org/2000/svg" width="20" height="20" viewBox="0 0 20 20">
  <defs>
    <style>
      .cls-1 {
        fill: #929aa6;
      }
    </style>
  </defs>
  <g id="그룹_51" data-name="그룹 51" transform="translate(-20 -80)">
    <path id="패스_14" data-name="패스 14" class="cls-1" d="M28.5,80h-8a.5.5,0,0,0-.5.5v19a.5.5,0,0,0,.5.5h8a.5.5,0,0,0,.5-.5v-19A.5.5,0,0,0,28.5,80ZM27,98H22V82h5Z"/>
    <path id="패스_15" data-name="패스 15" class="cls-1" d="M39.5,80h-8a.5.5,0,0,0-.5.5v8a.5.5,0,0,0,.5.5h8a.5.5,0,0,0,.5-.5v-8A.5.5,0,0,0,39.5,80ZM38,87H33V82h5Z"/>
    <path id="패스_16" data-name="패스 16" class="cls-1" d="M39.5,91h-8a.5.5,0,0,0-.5.5v8a.5.5,0,0,0,.5.5h8a.5.5,0,0,0,.5-.5v-8A.5.5,0,0,0,39.5,91ZM38,98H33V93h5Z"/>
  </g>
</svg>
