<?xml version="1.0" encoding="utf-8"?>
<!-- Generator: Adobe Illustrator 15.1.0, SVG Export Plug-In . SVG Version: 6.00 Build 0)  -->
<!DOCTYPE svg PUBLIC "-//W3C//DTD SVG 1.1//EN" "http://www.w3.org/Graphics/SVG/1.1/DTD/svg11.dtd">
<svg version="1.1" id="레이어_1" xmlns="http://www.w3.org/2000/svg" xmlns:xlink="http://www.w3.org/1999/xlink" x="0px"
	 y="0px" width="28px" height="28px" viewBox="0 0 28 28" enable-background="new 0 0 28 28" xml:space="preserve">
<g>
	<path fill="#FFFFFF" d="M18,5H6C5.45,5,5,5.45,5,6v12c0,0.55,0.45,1,1,1h3.5c0.28,0,0.5-0.22,0.5-0.5S9.78,18,9.5,18H6V6h12v3.5
		c0,0.28,0.22,0.5,0.5,0.5S19,9.78,19,9.5V6C19,5.45,18.55,5,18,5z"/>
	<path fill="#FFFFFF" d="M17.399,12l0.134,0.564l0.134,0.568l0.562,0.162c0.604,0.175,1.168,0.482,1.63,0.891l0.416,0.366
		l0.53-0.157l0.644-0.191l0.351,0.572l-0.426,0.369l-0.46,0.399l0.144,0.593c0.069,0.285,0.104,0.575,0.104,0.863
		c0,0.29-0.035,0.581-0.104,0.864l-0.145,0.593l0.461,0.4l0.427,0.369l-0.35,0.571l-0.646-0.191l-0.532-0.157l-0.415,0.368
		c-0.463,0.409-1.024,0.717-1.626,0.888l-0.563,0.161l-0.136,0.57L17.399,22h-0.801l-0.132-0.562l-0.134-0.572l-0.565-0.161
		c-0.601-0.171-1.162-0.479-1.625-0.888l-0.416-0.369l-0.532,0.159l-0.645,0.191l-0.35-0.573l0.426-0.367l0.465-0.402l-0.148-0.597
		c-0.07-0.279-0.105-0.568-0.105-0.859c0-0.289,0.035-0.577,0.105-0.858l0.148-0.596l-0.465-0.402l-0.425-0.366l0.351-0.575
		l0.643,0.191l0.531,0.158l0.416-0.366c0.462-0.408,1.025-0.716,1.629-0.891l0.563-0.163l0.134-0.569L16.599,12H17.399 M17.908,11
		h-1.819c-0.199,0-0.363,0.154-0.363,0.344l-0.232,0.99c-0.76,0.22-1.446,0.601-2.014,1.102l-1.023-0.305
		c-0.058-0.032-0.121-0.047-0.183-0.047c-0.126,0-0.249,0.063-0.316,0.173l-0.908,1.488c-0.101,0.164-0.041,0.375,0.132,0.472
		l0.791,0.684c-0.088,0.354-0.135,0.724-0.135,1.1c0,0.379,0.047,0.749,0.135,1.102l-0.791,0.684
		c-0.173,0.099-0.232,0.31-0.132,0.474l0.908,1.488c0.067,0.109,0.188,0.172,0.313,0.172c0.063,0,0.127-0.016,0.186-0.049
		l1.023-0.305c0.567,0.503,1.254,0.885,2.014,1.102l0.232,0.991c0,0.189,0.164,0.342,0.363,0.342h1.819
		c0.203,0,0.363-0.152,0.363-0.342l0.234-0.991c0.761-0.217,1.447-0.599,2.015-1.102l1.026,0.305
		c0.058,0.033,0.12,0.049,0.183,0.049c0.124,0,0.245-0.063,0.313-0.172l0.91-1.488c0.099-0.169,0.04-0.375-0.136-0.474l-0.788-0.684
		c0.086-0.353,0.133-0.723,0.133-1.102c0-0.376-0.047-0.746-0.133-1.1l0.788-0.684c0.176-0.097,0.234-0.308,0.136-0.472l-0.91-1.488
		c-0.067-0.111-0.188-0.174-0.313-0.174c-0.062,0-0.125,0.016-0.182,0.048l-1.026,0.305c-0.567-0.501-1.254-0.882-2.015-1.102
		l-0.234-0.99C18.271,11.154,18.111,11,17.908,11L17.908,11z"/>
	<path fill="#FFFFFF" d="M17,15.999c0.552,0,1,0.448,1,1s-0.448,1-1,1s-1-0.448-1-1S16.448,15.999,17,15.999 M17,14.999
		c-1.104,0-2,0.896-2,2c0,1.104,0.896,2,2,2c1.103,0,2-0.896,2-2C19,15.895,18.103,14.999,17,14.999L17,14.999z"/>
</g>
</svg>
