<svg xmlns="http://www.w3.org/2000/svg" width="20" height="20" viewBox="0 0 20 20">
  <defs>
    <style>
      .cls-1 {
        fill: #929aa6;
      }
    </style>
  </defs>
  <g id="그룹_11" data-name="그룹 11" transform="translate(-20 -380)">
    <path id="패스_25" data-name="패스 25" class="cls-1" d="M39,387l-1.185-.237.669-1.006a1,1,0,0,0,0-1.414l-2.828-2.829a1,1,0,0,0-1.414,0l-1.006.67L33,381a1,1,0,0,0-1-1H28a1,1,0,0,0-1,1l-.236,1.185-1.006-.67a1,1,0,0,0-1.414,0l-2.828,2.828a1,1,0,0,0,0,1.414l.669,1.006L21,387a1,1,0,0,0-1,1v4a1,1,0,0,0,1,1l1.185.236-.669,1.006a1,1,0,0,0,0,1.414l2.828,2.829a1.006,1.006,0,0,0,1.415,0l1.005-.67L27,399a1,1,0,0,0,1,1h4a1,1,0,0,0,1-1l.236-1.185,1.006.67a1,1,0,0,0,1.414,0l2.828-2.828a1,1,0,0,0,0-1.415l-.669-1.006L39,393a1,1,0,0,0,1-1v-4A1,1,0,0,0,39,387Zm-1,4.16-.578.115a2,2,0,0,0-1.272,3.071l.327.49-1.641,1.641-.49-.327a2,2,0,0,0-3.071,1.273L31.16,398H28.84l-.116-.578a2,2,0,0,0-3.071-1.272l-.489.327-1.641-1.641.327-.49a2,2,0,0,0-1.272-3.071L22,391.16v-2.321l.578-.115a2,2,0,0,0,1.272-3.071l-.327-.49,1.641-1.64.49.326a2,2,0,0,0,1.11.336,2,2,0,0,0,1.961-1.608L28.84,382h2.32l.115.577a2,2,0,0,0,3.071,1.272l.49-.326,1.641,1.64-.327.49a2,2,0,0,0,1.272,3.072l.578.115Z"/>
    <path id="패스_26" data-name="패스 26" class="cls-1" d="M30,386a4,4,0,1,0,4,4A4,4,0,0,0,30,386Zm0,6a2,2,0,1,1,2-2A2,2,0,0,1,30,392Z"/>
  </g>
</svg>
