<svg xmlns="http://www.w3.org/2000/svg" width="32" height="32" viewBox="0 0 32 32">
  <g transform="translate(-5986 -2297)">
    <rect fill="none" width="32" height="32" transform="translate(5986 2297)"/>
    <g transform="translate(5472 846)">
      <path fill="#222529" d="M521,1454h-3a1,1,0,0,0-1,1v3a1,1,0,0,0,2,0v-2h2a1,1,0,0,0,0-2Z"/>
      <path fill="#222529" d="M528,1454h-3a1,1,0,0,0,0,2h3a1,1,0,0,0,0-2Z"/>
      <path fill="#222529" d="M535,1454h-3a1,1,0,0,0,0,2h3a1,1,0,0,0,0-2Z"/>
      <path fill="#222529" d="M542,1454h-3a1,1,0,0,0,0,2h2v2a1,1,0,0,0,2,0v-3A1,1,0,0,0,542,1454Z"/>
      <path fill="#222529" d="M521,1478h-2v-2a1,1,0,0,0-2,0v3a1,1,0,0,0,1,1h3a1,1,0,0,0,0-2Z"/>
      <path fill="#222529" d="M528,1478h-3a1,1,0,0,0,0,2h3a1,1,0,0,0,0-2Z"/>
      <path fill="#222529" d="M535,1478h-3a1,1,0,0,0,0,2h3a1,1,0,0,0,0-2Z"/>
      <path fill="#222529" d="M542,1475a1,1,0,0,0-1,1v2h-2a1,1,0,0,0,0,2h3a1,1,0,0,0,1-1v-3A1,1,0,0,0,542,1475Z"/>
      <path fill="#222529" d="M542,1468a1,1,0,0,0-1,1v3a1,1,0,0,0,2,0v-3A1,1,0,0,0,542,1468Z"/>
      <path fill="#222529" d="M542,1461a1,1,0,0,0-1,1v3a1,1,0,0,0,2,0v-3A1,1,0,0,0,542,1461Z"/>
      <path fill="#222529" d="M518,1473a1,1,0,0,0,1-1v-3a1,1,0,0,0-2,0v3A1,1,0,0,0,518,1473Z"/>
      <path fill="#222529" d="M518,1466a1,1,0,0,0,1-1v-3a1,1,0,0,0-2,0v3A1,1,0,0,0,518,1466Z"/>
    </g>
  </g>
</svg>
