<svg xmlns="http://www.w3.org/2000/svg" width="32" height="32" viewBox="0 0 32 32">
  <g transform="translate(-5986 -2453)">
    <rect fill="none" width="32" height="32" transform="translate(5986 2453)"/>
    <g transform="translate(5388 955)">
      <path fill="#222529" d="M625,1501H603a2.006,2.006,0,0,0-2,2v22a2.006,2.006,0,0,0,2,2h22a2.006,2.006,0,0,0,2-2v-22A2.006,2.006,0,0,0,625,1501Zm0,24H603v-22h22Z"/>
      <path fill="#222529" d="M606,1517a1,1,0,0,0-1,1v4a.994.994,0,0,0,1,1h4a1,1,0,0,0,0-2h-1.586l5.586-5.586,5.586,5.586H618a1,1,0,0,0,0,2h4a.994.994,0,0,0,1-1v-4a1,1,0,0,0-2,0v1.586L615.414,1514l5.586-5.586V1510a1,1,0,0,0,2,0v-4a.994.994,0,0,0-1-1h-4a1,1,0,0,0,0,2h1.586L614,1512.586,608.414,1507H610a1,1,0,0,0,0-2h-4a.994.994,0,0,0-1,1v4a1,1,0,0,0,2,0v-1.586l5.586,5.586L607,1519.586V1518A1,1,0,0,0,606,1517Z"/>
    </g>
  </g>
</svg>
