<svg xmlns="http://www.w3.org/2000/svg" width="20" height="20" viewBox="0 0 20 20">
  <g transform="translate(-1368.24 -575.986)">
    <path fill="#3e82f1" fill-rule="evenodd" d="M1388.24,586.214a11.362,11.362,0,0,0-.185-2.048h-9.611v3.87h5.491a4.6,4.6,0,0,1-2.037,3.02v2.509h3.3a9.661,9.661,0,0,0,3.044-7.351"/>
    <path fill="#32a753" fill-rule="evenodd" d="M1378.444,595.986a9.864,9.864,0,0,0,6.752-2.421l-3.3-2.509a6.228,6.228,0,0,1-3.454.953,6.066,6.066,0,0,1-5.709-4.122h-3.41v2.59a10.223,10.223,0,0,0,9.119,5.509"/>
    <path fill="#f9bb00" fill-rule="evenodd" d="M1372.735,587.887a5.821,5.821,0,0,1,0-3.8v-2.592h-3.41a9.839,9.839,0,0,0,0,8.983Z"/>
    <path fill="#e74133" fill-rule="evenodd" d="M1378.444,579.964a5.581,5.581,0,0,1,3.9,1.493l2.929-2.865a9.915,9.915,0,0,0-6.828-2.606,10.226,10.226,0,0,0-9.119,5.508l3.41,2.592a6.066,6.066,0,0,1,5.709-4.122"/>
  </g>
</svg>
