<svg xmlns="http://www.w3.org/2000/svg" width="24" height="24" viewBox="0 0 24 24">
  <g transform="translate(-5445 -1400)">
    <rect fill="none" width="24" height="24" transform="translate(5445 1400)"/>
    <g transform="translate(5391 -1484)">
      <path fill="#3e82f1" fill-rule="evenodd" d="M76,2896.228a11.334,11.334,0,0,0-.185-2.046H66.2v3.868h5.491a4.6,4.6,0,0,1-2.035,3.018v2.51h3.3a9.656,9.656,0,0,0,3.043-7.35"/>
      <path fill="#32a753" fill-rule="evenodd" d="M66.2,2906a9.86,9.86,0,0,0,6.753-2.422l-3.3-2.51a6.231,6.231,0,0,1-3.456.954,6.069,6.069,0,0,1-5.71-4.123H57.085v2.591A10.224,10.224,0,0,0,66.2,2906"/>
      <path fill="#f9bb00" fill-rule="evenodd" d="M60.494,2897.9a5.794,5.794,0,0,1,0-3.8v-2.592H57.085a9.835,9.835,0,0,0,0,8.981Z"/>
      <path fill="#e74133" fill-rule="evenodd" d="M66.2,2889.978a5.562,5.562,0,0,1,3.9,1.495l2.927-2.869A9.915,9.915,0,0,0,66.2,2886a10.223,10.223,0,0,0-9.119,5.509l3.409,2.592a6.069,6.069,0,0,1,5.71-4.123"/>
    </g>
  </g>
</svg>
