<svg xmlns="http://www.w3.org/2000/svg" width="22" height="19.999" viewBox="0 0 22 19.999">
  <g transform="translate(-1345.748 -662.885)">
    <path fill="#391b1b" d="M1356.748,662.885c-6.074,0-11,3.85-11,8.6,0,3.093,2.085,5.8,5.218,7.321-.231.85-.834,3.08-.954,3.557-.149.591.22.584.461.423.189-.124,3.015-2.024,4.234-2.845a14.047,14.047,0,0,0,2.041.15c6.074,0,11-3.854,11-8.606s-4.926-8.6-11-8.6"/>
    <path fill="#fae300" d="M1352.322,668.955H1349.1a.542.542,0,1,0,0,1.083h1.046v3.815a.522.522,0,0,0,.159.372.53.53,0,0,0,.374.154h.118a.533.533,0,0,0,.374-.154.521.521,0,0,0,.158-.372v-3.815h.989a.542.542,0,1,0,0-1.083"/>
    <path fill="#fae300" d="M1360.053,673.36h-1.5v-3.894a.594.594,0,0,0-1.187,0v4.2a.407.407,0,0,0,.009.094.416.416,0,0,0-.009.1.492.492,0,0,0,.494.491h2.189a.492.492,0,1,0,0-.984"/>
    <path fill="#fae300" d="M1364.831,673.54l-1.665-2.167,1.505-1.491a.514.514,0,0,0,0-.732.525.525,0,0,0-.738,0L1362.067,671v-1.53a.593.593,0,0,0-1.185,0v4.327a.593.593,0,0,0,1.185,0v-1.336l.34-.333,1.576,2.048a.537.537,0,0,0,.745.1.521.521,0,0,0,.1-.735"/>
    <path fill="#fae300" d="M1356.924,673.68l-1.6-4.338,0-.007a.791.791,0,0,0-.753-.455.767.767,0,0,0-.78.544l-.031.071-1.575,4.185a.524.524,0,0,0,.324.671.534.534,0,0,0,.678-.322l.274-.769h2.194l.273.769a.534.534,0,0,0,.678.322.524.524,0,0,0,.324-.671m-3.12-1.4.736-2.081.016,0,.745,2.079Z"/>
  </g>
</svg>
