<svg xmlns="http://www.w3.org/2000/svg" width="24" height="24" viewBox="0 0 24 24">
  <g transform="translate(-5671 -452)">
    <rect fill="none" width="24" height="24" transform="translate(5671 452)"/>
    <g transform="translate(5549 -2432)">
      <path fill="#abb0b5" d="M131.769,2894.047l-.743,2.124h1.513l-.746-2.122Z"/>
      <path fill="#abb0b5" d="M134,2887c-6.076,0-11,3.854-11,8.6,0,3.095,2.085,5.806,5.218,7.323-.23.849-.834,3.078-.954,3.555-.149.592.218.584.461.424.187-.123,3.014-2.024,4.232-2.844a14.1,14.1,0,0,0,2.043.149c6.076,0,11-3.854,11-8.607S140.076,2887,134,2887Zm-5.469,10.78a.532.532,0,0,1-.159.382.538.538,0,0,1-.379.157h-.118a.541.541,0,0,1-.381-.157.549.549,0,0,1-.159-.382v-3.892h-1.056a.553.553,0,0,1,0-1.107h3.25a.553.553,0,0,1,0,1.107h-1Zm5.32.51a.538.538,0,0,1-.686-.328l-.274-.787h-2.218l-.275.787a.537.537,0,0,1-1.013-.357l1.592-4.27c.009-.026.021-.05.031-.072a.773.773,0,0,1,.788-.559.8.8,0,0,1,.759.467l.005,0,1.62,4.43A.539.539,0,0,1,133.851,2898.29Zm3.487-.006h-2.209a.5.5,0,0,1-.5-.5.61.61,0,0,1,.007-.1.748.748,0,0,1-.007-.1V2893.3a.6.6,0,1,1,1.2,0v3.974h1.512a.5.5,0,0,1,0,1Zm4.721-.072a.529.529,0,0,1-.749-.107l-1.593-2.089-.343.342v1.364a.6.6,0,0,1-1.2,0V2893.3a.6.6,0,1,1,1.2,0v1.561l1.883-1.884a.528.528,0,0,1,.746.747l-1.522,1.521,1.685,2.212A.533.533,0,0,1,142.059,2898.212Z"/>
    </g>
  </g>
</svg>
