<svg xmlns="http://www.w3.org/2000/svg" width="174.721" height="25" viewBox="0 0 174.721 25">
  <g id="그룹_276" data-name="그룹 276" transform="translate(-20 -17.5)">
    <g id="그룹_2" data-name="그룹 2">
      <g id="그룹_1" data-name="그룹 1">
        <path id="패스_1" data-name="패스 1" d="M52.93,22.117H66.515v3.1l-8.727,9.1h9.04v3.329H52.084V34.423l8.641-9H52.93Z" fill="#fff"/>
        <path id="패스_2" data-name="패스 2" d="M81.19,33.087H72.556a2.762,2.762,0,0,0,.56,1.54,2.044,2.044,0,0,0,1.628.725,2.483,2.483,0,0,0,1.209-.314,2.93,2.93,0,0,0,.755-.706l4.236.4a6.016,6.016,0,0,1-2.35,2.424,8.592,8.592,0,0,1-3.951.733,8.089,8.089,0,0,1-3.52-.63,5.163,5.163,0,0,1-2.123-2,6.043,6.043,0,0,1-.842-3.222,5.667,5.667,0,0,1,1.69-4.265,6.446,6.446,0,0,1,4.667-1.628,8.306,8.306,0,0,1,3.815.728,4.917,4.917,0,0,1,2.129,2.121A7.738,7.738,0,0,1,81.19,32.6Zm-4.4-2.065a2.869,2.869,0,0,0-.67-1.792,2.1,2.1,0,0,0-3.064.277,2.992,2.992,0,0,0-.495,1.515Z" fill="#fff"/>
        <path id="패스_3" data-name="패스 3" d="M83.188,26.383H87.2v1.833a5.962,5.962,0,0,1,1.821-1.6,4.847,4.847,0,0,1,2.249-.48,3.682,3.682,0,0,1,2.8,1.064,4.618,4.618,0,0,1,1.015,3.288v7.149H90.759V31.452a2.252,2.252,0,0,0-.392-1.5,1.409,1.409,0,0,0-1.106-.438,1.568,1.568,0,0,0-1.276.592,3.425,3.425,0,0,0-.488,2.129v5.4H83.188Z" fill="#fff"/>
        <path id="패스_4" data-name="패스 4" d="M97.817,22.117h4.31v2.93h-4.31Zm0,4.266h4.31V37.639h-4.31Z" fill="#fff"/>
        <path id="패스_5" data-name="패스 5" d="M116.749,37.639h-4.024V35.807a5.916,5.916,0,0,1-1.821,1.6,4.8,4.8,0,0,1-2.251.477,3.673,3.673,0,0,1-2.793-1.064,4.611,4.611,0,0,1-1.013-3.279V26.383h4.33v6.18a2.264,2.264,0,0,0,.393,1.5,1.41,1.41,0,0,0,1.106.442,1.579,1.579,0,0,0,1.269-.59,3.41,3.41,0,0,0,.5-2.13v-5.4h4.309Z" fill="#fff"/>
        <path id="패스_6" data-name="패스 6" d="M118.611,34.507l4.287-.4a2.091,2.091,0,0,0,.737,1.091,2.173,2.173,0,0,0,1.266.331,2.128,2.128,0,0,0,1.334-.37.837.837,0,0,0,.371-.689.789.789,0,0,0-.486-.717,8.921,8.921,0,0,0-1.851-.443,19.018,19.018,0,0,1-3.122-.724,3.277,3.277,0,0,1-1.469-1.125,2.913,2.913,0,0,1-.6-1.813,2.957,2.957,0,0,1,.648-1.917,3.831,3.831,0,0,1,1.779-1.2,9.438,9.438,0,0,1,3.038-.4,10.467,10.467,0,0,1,2.973.308,3.9,3.9,0,0,1,1.6.955,5.054,5.054,0,0,1,1.067,1.757l-4.085.4a1.412,1.412,0,0,0-.531-.794,2.154,2.154,0,0,0-1.225-.338,1.744,1.744,0,0,0-1.065.258.772.772,0,0,0-.335.63.675.675,0,0,0,.421.622,6.911,6.911,0,0,0,1.837.38,12.591,12.591,0,0,1,3.2.674,3.531,3.531,0,0,1,1.6,1.236,3.028,3.028,0,0,1,.555,1.764,3.48,3.48,0,0,1-.587,1.887,3.946,3.946,0,0,1-1.855,1.462,8.831,8.831,0,0,1-3.443.546A8.131,8.131,0,0,1,120.29,37,3.935,3.935,0,0,1,118.611,34.507Z" fill="#fff"/>
      </g>
    </g>
    <g id="그룹_3" data-name="그룹 3">
      <path id="패스_7" data-name="패스 7" d="M139.649,22.38h4.645v15h-4.645Z" fill="#fff"/>
      <path id="패스_8" data-name="패스 8" d="M146.566,22.38h14.093v3.7h-4.726v11.3H151.3v-11.3h-4.73Z" fill="#fff"/>
      <path id="패스_9" data-name="패스 9" d="M161.948,32.42l4.412-.275a3.38,3.38,0,0,0,.584,1.636,2.454,2.454,0,0,0,2.047.91,2.263,2.263,0,0,0,1.53-.465,1.338,1.338,0,0,0,.024-2.124,5.879,5.879,0,0,0-2.375-.869,10.084,10.084,0,0,1-4.348-1.822,3.657,3.657,0,0,1-1.31-2.894,3.922,3.922,0,0,1,.672-2.189,4.459,4.459,0,0,1,2.013-1.617,9.479,9.479,0,0,1,3.69-.586,7.553,7.553,0,0,1,4.385,1.067,4.62,4.62,0,0,1,1.8,3.4l-4.37.257a2.036,2.036,0,0,0-2.271-1.934,1.858,1.858,0,0,0-1.219.343,1.049,1.049,0,0,0-.409.834.839.839,0,0,0,.339.646,3.819,3.819,0,0,0,1.555.551,19.494,19.494,0,0,1,4.354,1.327,4.535,4.535,0,0,1,1.912,1.662,4.211,4.211,0,0,1,.6,2.222,4.759,4.759,0,0,1-.8,2.661,5,5,0,0,1-2.23,1.845,8.969,8.969,0,0,1-3.612.63q-3.829,0-5.3-1.474A5.793,5.793,0,0,1,161.948,32.42Z" fill="#fff"/>
      <path id="패스_10" data-name="패스 10" d="M177.844,22.38h6.1l2.351,9.13,2.336-9.13h6.094v15h-3.8V25.943L188,37.383H184.56l-2.919-11.44v11.44h-3.8Z" fill="#fff"/>
    </g>
    <g id="그룹_6" data-name="그룹 6">
      <g id="그룹_5" data-name="그룹 5">
        <g id="그룹_4" data-name="그룹 4">
          <path id="패스_11" data-name="패스 11" d="M32.5,34.79a4.789,4.789,0,1,0,0-9.578V30H27.71A4.788,4.788,0,0,0,32.5,34.79Z" fill="#fff"/>
          <path id="패스_12" data-name="패스 12" d="M32.5,17.5h0v3.039h0A9.463,9.463,0,1,1,23.037,30H20A12.5,12.5,0,1,0,32.5,17.5Z" fill="#fff"/>
          <path id="패스_13" data-name="패스 13" d="M23.037,30H27.71a4.788,4.788,0,0,1,4.79-4.79V20.539A9.465,9.465,0,0,0,23.037,30Z" fill="#fff"/>
        </g>
      </g>
    </g>
  </g>
</svg>
