<svg xmlns="http://www.w3.org/2000/svg" width="32" height="32" viewBox="0 0 32 32">
  <g transform="translate(-6966 -1621)">
    <rect width="32" height="32" transform="translate(6966 1621)" fill="none"/>
    <g transform="translate(6410 -253)">
      <path fill="#ABB0B5" d="M582,1894v-16a1,1,0,0,0-1-1H559a1,1,0,0,0-1,1v16a1,1,0,0,0,1,1h3v5a.727.727,0,0,0,.04.25.371.371,0,0,0,.04.14.942.942,0,0,0,.53.53.373.373,0,0,0,.14.04.851.851,0,0,0,.5,0,.373.373,0,0,0,.14-.04.988.988,0,0,0,.32-.21l5.71-5.71H581A1,1,0,0,0,582,1894Zm-2-1H569a1.007,1.007,0,0,0-.71.29l-1.71,1.71-2.58,2.58V1894a1,1,0,0,0-1-1h-3v-14h20Z"/>
      <path fill="#ABB0B5" d="M585,1881a1,1,0,0,0-1,1v15h-3a1,1,0,0,0-1,1v3.58l-4.29-4.29a1.008,1.008,0,0,0-.71-.29h-4a1,1,0,0,0,0,2h3.58l5.71,5.71a.988.988,0,0,0,.32.21.373.373,0,0,0,.14.04.851.851,0,0,0,.5,0,.373.373,0,0,0,.14-.04.942.942,0,0,0,.53-.53.371.371,0,0,0,.04-.14.727.727,0,0,0,.04-.25v-5h3a1,1,0,0,0,1-1v-16A1,1,0,0,0,585,1881Z"/>
      <path fill="#ABB0B5" d="M570.046,1882.545c.851,0,1.424.4,1.424,1.2,0,1.5-2.47,2.229-2.47,4.255h1.659c0-1.489,2.341-2.255,2.341-4.352a2.7,2.7,0,0,0-2.913-2.648,3.158,3.158,0,0,0-3.087,2.042l1.317.773A1.73,1.73,0,0,1,570.046,1882.545Z"/>
      <circle fill="#ABB0B5" cx="1" cy="1" r="1" transform="translate(569 1889)" />
    </g>
  </g>
</svg>
