<svg xmlns="http://www.w3.org/2000/svg" width="40" height="40" viewBox="0 0 40 40">
  <defs>
  </defs>
  <g transform="translate(-1450 -870)">
    <g fill="#fff" stroke="#ebebeb" class="icon-minimap-border" transform="translate(1450 870)">
      <rect stroke="none" width="40" height="40" rx="3"/>
      <rect fill="none" x="0.5" y="0.5" width="39" height="39" rx="2.5"/>
    </g>
    <path fill="#ccced1" class="icon-minimap" d="M3095,1439.99a.98.98,0,0,0-.075-.372,1.012,1.012,0,0,0-.21-.317l-.006-.008c-.008-.008-.018-.01-.027-.018a.957.957,0,0,0-.667-.273l-.013,0h0a.992.992,0,0,0-.383.077,1.023,1.023,0,0,0-.264.176c-.019.016-.043.022-.061.04l-4.292,4.292-4.292-4.292c-.024-.023-.056-.033-.081-.054A.887.887,0,0,0,3084,1439h0a.992.992,0,0,0-.383.077,1.023,1.023,0,0,0-.264.176c-.019.016-.043.022-.061.04l-5,5a.421.421,0,0,0-.025.038,1.024,1.024,0,0,0-.191.287,1,1,0,0,0-.077.383h0v13l0,.015a.987.987,0,0,0,.616.908.988.988,0,0,0,.37.075l.011,0h0a1.012,1.012,0,0,0,.708-.294l4.292-4.292,4.291,4.291a1.012,1.012,0,0,0,.709.3h0a1.012,1.012,0,0,0,.708-.294l5-5A1.012,1.012,0,0,0,3095,1453h0v-13Zm-2,12.595-3,3v-10.171l3-3Zm-13-7.171,3-3v10.171l-3,3Zm5-3,3,3v10.171l-3-3Z" transform="translate(-1616 -559)"/>
  </g>
</svg>
