<svg xmlns="http://www.w3.org/2000/svg" width="17" height="20" viewBox="0 0 17 20">
  <path d="M3095,1439.99a.98.98,0,0,0-.075-.372,1.012,1.012,0,0,0-.21-.317l-.006-.008c-.008-.008-.018-.01-.027-.018a.957.957,0,0,0-.667-.273l-.013,0h0a.992.992,0,0,0-.383.077,1.023,1.023,0,0,0-.264.176c-.019.016-.043.022-.061.04l-4.292,4.292-4.292-4.292c-.024-.023-.056-.033-.081-.054A.887.887,0,0,0,3084,1439h0a.992.992,0,0,0-.383.077,1.023,1.023,0,0,0-.264.176c-.019.016-.043.022-.061.04l-5,5a.421.421,0,0,0-.025.038,1.024,1.024,0,0,0-.191.287,1,1,0,0,0-.077.383h0v13l0,.015a.987.987,0,0,0,.616.908.988.988,0,0,0,.37.075l.011,0h0a1.012,1.012,0,0,0,.708-.294l4.292-4.292,4.291,4.291a1.012,1.012,0,0,0,.709.3h0a1.012,1.012,0,0,0,.708-.294l5-5A1.012,1.012,0,0,0,3095,1453h0v-13Zm-2,12.595-3,3v-10.171l3-3Zm-13-7.171,3-3v10.171l-3,3Zm5-3,3,3v10.171l-3-3Z" transform="translate(-3078 -1439)"/>
</svg>
