<svg xmlns="http://www.w3.org/2000/svg" width="45" height="45" viewBox="0 0 45 45">
  <defs>
    <style>
      .cls-1 {
        fill: #ccced1;
      }
    </style>
  </defs>
  <g transform="translate(-3181 -295)">
    <path class="cls-1" d="M3225.5,295h-44a.5.5,0,0,0-.5.5v44a.5.5,0,0,0,.5.5h44a.5.5,0,0,0,.5-.5v-44A.5.5,0,0,0,3225.5,295Zm-1.5,43h-41V297h41Z"/>
    <path class="cls-1" d="M3222,313.99V335a1,1,0,0,1-1,1h-35a1,1,0,0,1-1-1v-4.01a.985.985,0,0,1,.08-.37,1.149,1.149,0,0,1,.21-.33l13-13a1.008,1.008,0,0,1,1.42,0l4.29,4.3,12.29-12.3a1.008,1.008,0,0,1,1.42,0l4,4c.01.01.01.02.02.03a.952.952,0,0,1,.19.3A.985.985,0,0,1,3222,313.99Z"/>
    <circle class="cls-1" cx="7" cy="7" r="7" transform="translate(3186 301)"/>
  </g>
</svg>
