<svg xmlns="http://www.w3.org/2000/svg" width="18" height="20" viewBox="0 0 18 20">
  <defs>
    <style>
      .cls-1 {
        fill: #0098ff;
        fill-rule: evenodd;
      }
    </style>
  </defs>
  <g transform="translate(-3047 -1199)">
    <path class="cls-1" d="M3064.71,1204.29l-1.71-1.71-1.58-1.58-1.71-1.71a1.006,1.006,0,0,0-.71-.29h-11.5a.5.5,0,0,0-.5.5v19a.5.5,0,0,0,.5.5h17a.5.5,0,0,0,.5-.5V1205A1.007,1.007,0,0,0,3064.71,1204.29ZM3063,1217h-14v-16h9.58l4.42,4.42Z"/>
    <path class="cls-1" d="M3056.678,1207h-1.356l-1.393,3.878-1.143-3.878H3051l1.961,6h1.739l1.257-3.477,1.2,3.477h1.743l2.1-6h-1.782l-1.243,3.878Z"/>
  </g>
</svg>
