<svg xmlns="http://www.w3.org/2000/svg" width="34" height="40" viewBox="0 0 34 40">
  <defs>
    <style>
      .cls-1 {
        fill: #acb4bf;
        fill-rule: evenodd;
      }
    </style>
  </defs>
  <g transform="translate(-2051 -468)">
    <path class="cls-1" d="M2058,486a1,1,0,0,0,1,1h18a1,1,0,1,0,0-2h-18A1,1,0,0,0,2058,486Z"/>
    <path class="cls-1" d="M2077,491h-18a1,1,0,1,0,0,2h18a1,1,0,1,0,0-2Z"/>
    <path class="cls-1" d="M2077,497h-18a1,1,0,1,0,0,2h18a1,1,0,1,0,0-2Z"/>
    <path class="cls-1" d="M2084.96,478.75a.371.371,0,0,0-.04-.14.983.983,0,0,0-.21-.32l-1.71-1.71-6.58-6.58-1.71-1.71a.986.986,0,0,0-.32-.21.369.369,0,0,0-.14-.04L2074,468h-22.5a.5.5,0,0,0-.5.5v39a.5.5,0,0,0,.5.5h33a.5.5,0,0,0,.5-.5V479A.69.69,0,0,0,2084.96,478.75ZM2083,506h-30V470h20.58l9.42,9.42Z"/>
  </g>
</svg>
