<svg xmlns="http://www.w3.org/2000/svg" width="18" height="20" viewBox="0 0 18 20">
  <defs>
    <style>
      .cls-1 {
      fill: #acb4bf;
      }

      .cls-2 {
      fill: #5ec900;
      }

      .cls-3 {
      fill: #ff7821;
      }
    </style>
  </defs>
  <g transform="translate(-3107 -1199)">
    <path class="cls-1" d="M3124.71,1204.29l-5-5a1.006,1.006,0,0,0-.71-.29h-11.5a.5.5,0,0,0-.5.5v19a.5.5,0,0,0,.5.5h17a.5.5,0,0,0,.5-.5V1205A1.007,1.007,0,0,0,3124.71,1204.29ZM3123,1217h-14v-16h9.58l4.42,4.42Z"/>
    <path class="cls-2" d="M3121,1209v5a1,1,0,0,1-1,1h-8a1,1,0,0,1-1-1v-3a1,1,0,0,1,.08-.38,1.027,1.027,0,0,1,.21-.33l2-2a1.186,1.186,0,0,1,.33-.22.853.853,0,0,1,.22-.04.441.441,0,0,1,.32,0,.853.853,0,0,1,.22.04,1.186,1.186,0,0,1,.33.22l1.29,1.3,2.29-2.3a1.186,1.186,0,0,1,.33-.22.853.853,0,0,1,.22-.04.441.441,0,0,1,.32,0,.853.853,0,0,1,.22.04,1.186,1.186,0,0,1,.33.22l1,1a.929.929,0,0,1,.21.33A1,1,0,0,1,3121,1209Z"/>
    <circle class="cls-3" cx="2" cy="2" r="2" transform="translate(3111 1203)"/>
  </g>
</svg>
