<svg xmlns="http://www.w3.org/2000/svg" width="34" height="40" viewBox="0 0 34 40">
    <g transform="translate(-3937 -385)">
        <path fill="#7e848c" d="M3971,423.883V395c0-.009,0-.018,0-.027a1.165,1.165,0,0,0-.076-.4,1.12,1.12,0,0,0-.235-.364l-8.5-8.886c-.025-.026-.061-.037-.087-.06a1.046,1.046,0,0,0-.257-.178,1.019,1.019,0,0,0-.407-.087h-23.371a1.064,1.064,0,0,0-.981.679,1.192,1.192,0,0,0-.027.14,1.085,1.085,0,0,0-.057.293h0v37.777a1.086,1.086,0,0,0,1.062,1.111h31.875a1.086,1.086,0,0,0,1.063-1.111Zm-31.873-36.66H3961l7.875,8.235v27.318h-29.748Z" transform="translate(0)"/>
        <path fill="#7e848c" d="M3962.707,405.293l-4-4a1,1,0,0,0-1.414,1.414l3.293,3.293-3.293,3.293a1,1,0,0,0,1.414,1.414l4-4A1,1,0,0,0,3962.707,405.293Z" transform="translate(1.538 2.461)"/>
        <path fill="#7e848c" d="M3948.707,401.293a1,1,0,0,0-1.414,0l-4,4a1,1,0,0,0,0,1.414l4,4a1,1,0,0,0,1.414-1.414L3945.414,406l3.293-3.293A1,1,0,0,0,3948.707,401.293Z" transform="translate(0.461 2.461)"/>
        <path fill="#7e848c" d="M3954.422,399.094a1,1,0,0,0-1.328.483l-2,12a1,1,0,0,0,1.812.845l2-12A1,1,0,0,0,3954.422,399.094Z" transform="translate(0.999 2.545)"/>
    </g>
</svg>
