<svg xmlns="http://www.w3.org/2000/svg" width="34" height="40" viewBox="0 0 34 40">
  <defs>
    <style>
      .cls-1, .cls-2 {
        fill: #ff7319;
      }

      .cls-1 {
        fill-rule: evenodd;
      }
    </style>
  </defs>
  <g transform="translate(-2051 -518)">
    <path class="cls-1" d="M2084.96,528.75a.38.38,0,0,0-.04-.141.99.99,0,0,0-.21-.319l-1.71-1.71-6.58-6.58-1.71-1.71a.986.986,0,0,0-.32-.21.369.369,0,0,0-.14-.04L2074,518h-22.5a.5.5,0,0,0-.5.5v39a.5.5,0,0,0,.5.5h33a.5.5,0,0,0,.5-.5V529A.69.69,0,0,0,2084.96,528.75ZM2083,556h-30V520h20.58l9.42,9.42Z"/>
    <path class="cls-2" d="M2069.155,532H2061v19h3.233v-6.807h4.922c.05,0,.1,0,.151,0l.129,0,.121-.008.161-.014.129-.014a5.884,5.884,0,0,0,5.121-5.385c.022-.219.033-.443.033-.669A5.9,5.9,0,0,0,2069.155,532Zm0,8.71h-4.922v-5.226h4.922a2.615,2.615,0,0,1,0,5.226Z" transform="translate(0 -2)"/>
  </g>
</svg>
