<svg xmlns="http://www.w3.org/2000/svg" width="34" height="40" viewBox="0 0 34 40">
  <defs>
    <style>
      .cls-1, .cls-2 {
        fill: #06f;
      }

      .cls-1 {
        fill-rule: evenodd;
      }
    </style>
  </defs>
  <g transform="translate(-2051 -568)">
    <path class="cls-1" d="M2084.96,578.75a.38.38,0,0,0-.04-.141.99.99,0,0,0-.21-.319l-1.71-1.71-6.58-6.58-1.71-1.71a.986.986,0,0,0-.32-.21.369.369,0,0,0-.14-.04L2074,568h-22.5a.5.5,0,0,0-.5.5v39a.5.5,0,0,0,.5.5h33a.5.5,0,0,0,.5-.5V579A.69.69,0,0,0,2084.96,578.75ZM2083,606h-30V570h20.58l9.42,9.42Z"/>
    <g>
      <path class="cls-2" d="M2066.66,578.531a8.175,8.175,0,0,1,5.034,2.828s-1.205-4.2-4.062-4.359c-1.264,0-1.86.671-1.838,1.021C2065.815,578.3,2065.927,578.523,2066.66,578.531Z"/>
      <path class="cls-2" d="M2068.353,582.874s-5.781,1-5.8,5.285,5.281,5.083,7.912,3.134a6.33,6.33,0,0,0,2.537-6.148,2.308,2.308,0,0,1,1.951.774s.676-3.271-2.961-3.157a8.973,8.973,0,0,0-6.95-3.223c-1.9,0-3.29.815-3.077,3.04C2061.962,582.579,2066.519,581.761,2068.353,582.874Zm2.224,5.309c-.82,2.2-4.881,3.313-4.783,0s4.2-3.312,4.2-3.312C2070.813,585.323,2070.907,587.23,2070.577,588.183Z"/>
      <path class="cls-2" d="M2065.063,598.732c-1.878-.5-1.175-3.788-1.175-3.788H2061c.164,2.564.143,5.107,2.726,5.763s10.5,0,10.5,0l.776-2.473S2066.94,599.233,2065.063,598.732Z"/>
      <path class="cls-2" d="M2066.544,595.692a1.456,1.456,0,1,0,1.456-1.4A1.433,1.433,0,0,0,2066.544,595.692Z"/>
    </g>
  </g>
</svg>
