<svg xmlns="http://www.w3.org/2000/svg" width="18" height="20" viewBox="0 0 18 20">
  <defs>
    <style>
      .cls-1, .cls-2 {
        fill: #06f;
      }

      .cls-1 {
        fill-rule: evenodd;
      }
    </style>
  </defs>
  <g transform="translate(-1899 -308)">
    <g>
      <path class="cls-1" d="M1916.71,313.29l-1.71-1.71-1.58-1.58-1.71-1.71a1.007,1.007,0,0,0-.71-.29h-11.5a.5.5,0,0,0-.5.5v19a.5.5,0,0,0,.5.5h17a.5.5,0,0,0,.5-.5V314A1.007,1.007,0,0,0,1916.71,313.29ZM1915,326h-14V310h9.58l4.42,4.42Z"/>
    </g>
    <g>
      <path class="cls-2" d="M1906.831,312.766a4.086,4.086,0,0,1,2.518,1.413s-.6-2.1-2.033-2.179c-.631,0-.929.336-.918.51C1906.408,312.648,1906.464,312.762,1906.831,312.766Z"/>
      <path class="cls-2" d="M1907.677,314.936s-2.89.5-2.9,2.644,2.642,2.541,3.957,1.566a3.162,3.162,0,0,0,1.268-3.074,1.155,1.155,0,0,1,.976.387,1.283,1.283,0,0,0-1.48-1.579,4.488,4.488,0,0,0-3.475-1.611c-.952,0-1.645.408-1.539,1.521C1904.482,314.79,1906.76,314.381,1907.677,314.936Zm1.113,2.655c-.41,1.1-2.441,1.657-2.392,0s2.1-1.656,2.1-1.656C1908.907,316.162,1908.955,317.115,1908.79,317.591Z"/>
      <path class="cls-2" d="M1906.032,322.867c-.938-.25-.587-1.9-.587-1.9H1904c.082,1.282.072,2.553,1.363,2.882a27.017,27.017,0,0,0,5.248,0l.389-1.237A27.293,27.293,0,0,1,1906.032,322.867Z"/>
      <path class="cls-2" d="M1906.773,321.346a.728.728,0,1,0,.728-.7A.717.717,0,0,0,1906.773,321.346Z"/>
    </g>
  </g>
</svg>
