<svg xmlns="http://www.w3.org/2000/svg" width="20" height="20" viewBox="0 0 20 20">
  <defs>
    <style>
      .cls-1 {
        fill: #ccced1;
      }
    </style>
  </defs>
  <g transform="translate(-1668 -578)">
    <path class="cls-1" d="M1687,588a1,1,0,0,0-1,1v7h-16v-7a1,1,0,0,0-2,0v8a1,1,0,0,0,1,1h18a1,1,0,0,0,1-1v-8A1,1,0,0,0,1687,588Z"/>
    <path class="cls-1" d="M1677.291,593.706h0a1.016,1.016,0,0,0,.324.216A1,1,0,0,0,1678,594h0c.009,0,.017-.005.026-.005a.985.985,0,0,0,.681-.288h0l4-4a1,1,0,0,0-1.414-1.414L1679,590.586V579a1,1,0,0,0-2,0v11.587l-2.293-2.293a1,1,0,0,0-1.414,1.414Z"/>
  </g>
</svg>
