<svg xmlns="http://www.w3.org/2000/svg" width="18" height="20" viewBox="0 0 18 20">
  <defs>
    <style>
      .cls-1 {
        fill: #ff7319;
      }
    </style>
  </defs>
  <g transform="translate(-1869 -278)">
    <path class="cls-1" d="M1886.71,283.29l-1.71-1.71-1.58-1.58-1.71-1.71a1.007,1.007,0,0,0-.71-.29h-11.5a.5.5,0,0,0-.5.5v19a.5.5,0,0,0,.5.5h17a.5.5,0,0,0,.5-.5V284A1.007,1.007,0,0,0,1886.71,283.29ZM1885,296h-14V280h9.58l4.42,4.42Z"/>
    <path class="cls-1" d="M1878,284h-2a1,1,0,0,0-1,1v7a1,1,0,0,0,2,0v-2h1a3,3,0,0,0,2.71-1.71,3.014,3.014,0,0,0,0-2.58A3,3,0,0,0,1878,284Zm0,4h-1v-2h1a1,1,0,0,1,0,2Z"/>
  </g>
</svg>
