<svg xmlns="http://www.w3.org/2000/svg" width="18" height="20" viewBox="0 0 18 20">
  <defs>
    <style>
      .cls-1 {
        fill: #00c462;
      }
    </style>
  </defs>
  <g transform="translate(-3017 -1199)">
    <path class="cls-1" d="M3034.71,1204.29l-1.71-1.71-1.58-1.58-1.71-1.71a1.006,1.006,0,0,0-.71-.29h-11.5a.5.5,0,0,0-.5.5v19a.5.5,0,0,0,.5.5h17a.5.5,0,0,0,.5-.5V1205A1.007,1.007,0,0,0,3034.71,1204.29ZM3033,1217h-14v-16h9.58l4.42,4.42Z"/>
    <path class="cls-1" d="M3027.237,1206l-1.181,2.03-1.107-2.03h-2.385l2.365,3.732L3022,1214h2.361l1.686-2.627,1.6,2.627H3030l-2.816-4.268,2.48-3.732Z"/>
  </g>
</svg>
