<svg xmlns="http://www.w3.org/2000/svg" width="34" height="40" viewBox="0 0 34 40">
  <defs>
    <style>
      .cls-1 {
        fill: #5ec900;
      }

      .cls-1, .cls-2 {
        fill-rule: evenodd;
      }

      .cls-2 {
        fill: #acb4bf;
      }

      .cls-3 {
        fill: #ff7821;
      }
    </style>
  </defs>
  <g transform="translate(-1914 -368)">
    <path class="cls-1" d="M1935.29,384.29l-6.29,6.29-3.29-3.29a1.014,1.014,0,0,0-1.42,0l-5,5a.987.987,0,0,0-.21.32.373.373,0,0,0-.04.14.69.69,0,0,0-.04.25v8a1,1,0,0,0,1,1h22a1,1,0,0,0,1-1V391l-.04-.25a.373.373,0,0,0-.04-.14.987.987,0,0,0-.21-.32l-6-6a1.014,1.014,0,0,0-1.42,0Z"/>
    <path class="cls-2" d="M1947.96,378.75a.373.373,0,0,0-.04-.14.987.987,0,0,0-.21-.32l-10-10a.988.988,0,0,0-.32-.21.371.371,0,0,0-.14-.04L1937,368h-22.5a.5.5,0,0,0-.5.5v39a.5.5,0,0,0,.5.5h33a.5.5,0,0,0,.5-.5V379A.69.69,0,0,0,1947.96,378.75ZM1946,406h-30V370h20.58l9.42,9.42Z"/>
    <circle class="cls-3" cx="5" cy="5" r="5" transform="translate(1919 374)"/>
  </g>
</svg>
