<svg xmlns="http://www.w3.org/2000/svg" width="18" height="20" viewBox="0 0 18 20">
  <defs>
    <style>
      .cls-1 {
        fill: #acb4bf;
      }
    </style>
  </defs>
  <g transform="translate(-1929 -248)">
    <g>
      <path class="cls-1" d="M1946.71,253.29l-5-5a1.007,1.007,0,0,0-.71-.29h-11.5a.5.5,0,0,0-.5.5v19a.5.5,0,0,0,.5.5h17a.5.5,0,0,0,.5-.5V254A1.007,1.007,0,0,0,1946.71,253.29ZM1945,266h-14V250h9.58l4.42,4.42Z"/>
    </g>
    <path class="cls-1" d="M1934.5,263a.5.5,0,0,1-.5-.5h0a.5.5,0,0,1,.5-.5h7a.5.5,0,0,1,.5.5h0a.5.5,0,0,1-.5.5Z"/>
    <path class="cls-1" d="M1934.5,260a.5.5,0,0,1-.5-.5h0a.5.5,0,0,1,.5-.5h7a.5.5,0,0,1,.5.5h0a.5.5,0,0,1-.5.5Z"/>
    <path class="cls-1" d="M1934.5,257a.5.5,0,0,1-.5-.5h0a.5.5,0,0,1,.5-.5h7a.5.5,0,0,1,.5.5h0a.5.5,0,0,1-.5.5Z"/>
  </g>
</svg>
