<svg xmlns="http://www.w3.org/2000/svg" width="34" height="40" viewBox="0 0 34 40">
  <defs>
  </defs>
  <g transform="translate(-2051 -218)">
    <path fill="#ff405a" d="M2084.96,228.75a.371.371,0,0,0-.04-.14.983.983,0,0,0-.21-.32l-1.71-1.71-6.58-6.58-1.71-1.71a.985.985,0,0,0-.32-.21.369.369,0,0,0-.14-.04L2074,218h-22.5a.5.5,0,0,0-.5.5v39a.5.5,0,0,0,.5.5h33a.5.5,0,0,0,.5-.5V229A.69.69,0,0,0,2084.96,228.75ZM2083,256h-30V220h20.58l9.42,9.42Z"/>
    <path fill="#ff405a" d="M2068.176,236.718a17.4,17.4,0,0,0,1.009-5.16,3.9,3.9,0,0,0-.8-2.892,2.053,2.053,0,0,0-1.473-.666c-.7,0-1.874.365-1.874,2.813a13.349,13.349,0,0,0,1.227,4.947,49.907,49.907,0,0,1-3.219,7.653c-5.616,2.174-6.05,4.286-6.05,4.877,0,1.074.743,1.71,1.985,1.71,3.024,0,5.774-5.212,6.231-6.123a32.057,32.057,0,0,1,5.742-1.556,8.727,8.727,0,0,0,5.518,2.6c.758,0,2.524,0,2.524-1.873-.009-1.747-2.183-2.365-4.035-2.365a26.477,26.477,0,0,0-3.652.335A15.417,15.417,0,0,1,2068.176,236.718Zm-8.187,11.153c-.592.565-1.045.857-1.365.857-.1,0-.256-.038-.46-.284a.36.36,0,0,1-.017-.264c.063-.255.531-1.5,3.923-3.066A15.538,15.538,0,0,1,2059.989,247.871Zm6.492-18.47a.382.382,0,0,1,.355-.217.348.348,0,0,1,.326.163c.466.673.086,2.858-.372,4.568C2066.349,232.449,2066.015,230.193,2066.481,229.4Zm-.443,12.9c.594-1.229,1.257-3.021,1.609-4.033a19.443,19.443,0,0,0,2.252,3.021C2068.159,241.666,2066.836,242.049,2066.038,242.3Zm8.785-.383c1.623,0,2.057.555,2.057.845,0,.182-.071.784-.944.784a6.5,6.5,0,0,1-3.463-1.474A18.131,18.131,0,0,1,2074.823,241.913Z"/>
  </g>
</svg>
