<svg xmlns="http://www.w3.org/2000/svg" width="65" height="65" viewBox="0 0 65 65">
  <defs>
    <style>
      .cls-1 {
        fill: #ccced1;
      }
    </style>
  </defs>
  <g transform="translate(-3311 -275)">
    <path class="cls-1" d="M3375.28,275h-63.56a.717.717,0,0,0-.72.72v63.56a.717.717,0,0,0,.72.72h63.56a.717.717,0,0,0,.72-.72V275.72A.717.717,0,0,0,3375.28,275ZM3374,338h-61V277h61Z"/>
    <circle class="cls-1" cx="9" cy="9" r="9" transform="translate(3317 282)"/>
    <path class="cls-1" d="M3370,299.99V333a1,1,0,0,1-1,1h-51a1,1,0,0,1-1-1V322.99a.985.985,0,0,1,.08-.37,1.149,1.149,0,0,1,.21-.33l17-17a1.008,1.008,0,0,1,1.42,0l6.29,6.3,19.29-19.3a1.008,1.008,0,0,1,1.42,0l7,7c.01.01.01.02.02.03a.952.952,0,0,1,.19.3A.985.985,0,0,1,3370,299.99Z"/>
  </g>
</svg>
