<svg xmlns="http://www.w3.org/2000/svg" width="18" height="20" viewBox="0 0 18 20">
  <defs>
    <style>
      .cls-1 {
        fill: #ff405a;
      }
    </style>
  </defs>
  <g transform="translate(-2987 -1199)">
    <path class="cls-1" d="M3004.71,1204.29l-1.71-1.71-1.58-1.58-1.71-1.71a1.006,1.006,0,0,0-.71-.29h-11.5a.5.5,0,0,0-.5.5v19a.5.5,0,0,0,.5.5h17a.5.5,0,0,0,.5-.5V1205A1.007,1.007,0,0,0,3004.71,1204.29ZM2989,1217v-16h9.58l4.42,4.42V1217Z"/>
    <path class="cls-1" d="M2999.166,1209.766a12.1,12.1,0,0,0-1.66.152,7,7,0,0,1-1.426-1.955,7.908,7.908,0,0,0,.459-2.346,1.767,1.767,0,0,0-.362-1.314.936.936,0,0,0-.67-.3c-.318,0-.852.166-.852,1.278a6.076,6.076,0,0,0,.558,2.249,22.584,22.584,0,0,1-1.463,3.479c-2.553.988-2.75,1.948-2.75,2.217,0,.488.338.777.9.777,1.374,0,2.624-2.369,2.832-2.783a14.479,14.479,0,0,1,2.611-.707,3.965,3.965,0,0,0,2.508,1.182c.344,0,1.147,0,1.147-.851C3001,1210.047,3000.008,1209.766,2999.166,1209.766Zm-6.808,3.266c-.269.257-.474.39-.62.39-.048,0-.116-.018-.209-.129a.166.166,0,0,1-.007-.12c.028-.116.241-.683,1.783-1.394A7.061,7.061,0,0,1,2992.358,1213.032Zm2.952-8.4a.173.173,0,0,1,.161-.1.159.159,0,0,1,.148.074,3.754,3.754,0,0,1-.169,2.077A3.626,3.626,0,0,1,2995.31,1204.637Zm-.2,5.861a19.46,19.46,0,0,0,.731-1.833,8.822,8.822,0,0,0,1.024,1.373C2996.072,1210.212,2995.471,1210.386,2995.108,1210.5Zm4.5.567a2.965,2.965,0,0,1-1.574-.67,8.068,8.068,0,0,1,1.069-.071c.737,0,.934.252.934.384C3000.036,1210.791,3000,1211.065,2999.607,1211.065Z"/>
  </g>
</svg>
