<svg xmlns="http://www.w3.org/2000/svg" width="39" height="45" viewBox="0 0 39 45">
  <defs>
    <style>
      .cls-1 {
        fill: #ccced1;
      }
    </style>
  </defs>
  <g transform="translate(-2196 -218)">
    <path class="cls-1" d="M2234.71,229.29l-11-11a1.007,1.007,0,0,0-.71-.29h-26.5a.5.5,0,0,0-.5.5v44a.5.5,0,0,0,.5.5h38a.5.5,0,0,0,.5-.5V230A1.007,1.007,0,0,0,2234.71,229.29ZM2233,261h-35V220h24.58L2233,230.42Z"/>
    <path class="cls-1" d="M2204,238a1,1,0,0,1,1-1h21a1,1,0,0,1,1,1h0a1,1,0,0,1-1,1h-21a1,1,0,0,1-1-1Z"/>
    <path class="cls-1" d="M2204,245a1,1,0,0,1,1-1h21a1,1,0,0,1,1,1h0a1,1,0,0,1-1,1h-21a1,1,0,0,1-1-1Z"/>
    <path class="cls-1" d="M2204,252a1,1,0,0,1,1-1h21a1,1,0,0,1,1,1h0a1,1,0,0,1-1,1h-21a1,1,0,0,1-1-1Z"/>
  </g>
</svg>
