<svg xmlns="http://www.w3.org/2000/svg" width="24" height="24" viewBox="0 0 24 24">
  <g transform="translate(-897 -597)">
    <rect width="24" height="24" transform="translate(897 597)" fill="none"/>
    <path d="M367.5,583a1.5,1.5,0,0,0,1.5-1.5v-3a1.5,1.5,0,0,0-1.5-1.5h-3a1.5,1.5,0,0,0-1.5,1.5v.5h-6v-.5a1.5,1.5,0,0,0-1.5-1.5h-3a1.5,1.5,0,0,0-1.5,1.5v3a1.5,1.5,0,0,0,1.5,1.5h.5v6h-.5a1.5,1.5,0,0,0-1.5,1.5v3a1.5,1.5,0,0,0,1.5,1.5h3a1.5,1.5,0,0,0,1.5-1.5V593h6v.5a1.5,1.5,0,0,0,1.5,1.5h3a1.5,1.5,0,0,0,1.5-1.5v-3a1.5,1.5,0,0,0-1.5-1.5H367v-6Zm-2.5,6h-.5a1.5,1.5,0,0,0-1.5,1.5v.5h-6v-.5a1.5,1.5,0,0,0-1.5-1.5H355v-6h.5a1.5,1.5,0,0,0,1.5-1.5V581h6v.5a1.5,1.5,0,0,0,1.5,1.5h.5Z" transform="translate(549 23)" fill="#8b9094"/>
  </g>
</svg>
