<svg id="그룹_4169" data-name="그룹 4169" xmlns="http://www.w3.org/2000/svg" width="24" height="24" viewBox="0 0 24 24">
  <g id="그룹_1" data-name="그룹 1" transform="translate(-934 -617)">
    <rect id="사각형_2754" data-name="사각형 2754" width="24" height="24" transform="translate(934 617)" fill="none"/>
    <g id="그룹_4168" data-name="그룹 4168" transform="translate(291 -232)">
      <g id="그룹_4167" data-name="그룹 4167">
        <path id="패스_8911" data-name="패스 8911" d="M666.92,857.66l-1.86,1.93a.249.249,0,0,1-.37-.01l-4.41-5.16a.319.319,0,0,1,.01-.42l1.85-1.92a.251.251,0,0,1,.379.01l4.411,5.16A.319.319,0,0,1,666.92,857.66Z" fill="#8b9094"/>
        <path id="패스_8912" data-name="패스 8912" d="M649.61,854.94l-4.12,5.83a.253.253,0,0,1-.37.06l-2.02-1.73a.319.319,0,0,1-.04-.41l4.11-5.84a.245.245,0,0,1,.37-.05l2.02,1.73A.308.308,0,0,1,649.61,854.94Z" fill="#8b9094"/>
        <path id="패스_8913" data-name="패스 8913" d="M660.922,864.539l-4.525-3.892-.825.831a4.281,4.281,0,0,1-3.007,1.463,2.955,2.955,0,0,1-.555-.051,3.118,3.118,0,0,1-2.159-1.634,1.84,1.84,0,0,1,.29-2.206l3.249-3.255a1.988,1.988,0,0,0-1.284-.484,2.05,2.05,0,0,0-1.675.906l-3.171,4.518a1.868,1.868,0,0,0-.325,1.288l.206,1.835a1.779,1.779,0,0,0,.6,1.165L653.3,869.8a.8.8,0,0,0,.526.2.815.815,0,0,0,.629-.306l.25-.3a1.007,1.007,0,0,0-.083-1.356l.935.862a.8.8,0,0,0,.547.22.816.816,0,0,0,.594-.264l.288-.3a1,1,0,0,0-.047-1.4l.691.634a.793.793,0,0,0,1.142-.052l.255-.273a1,1,0,0,0-.038-1.381l.456.433a.8.8,0,0,0,.559.229.823.823,0,0,0,.655-.338l.394-.521a1.006,1.006,0,0,0-.129-1.344Zm2.211-4.658-3.822-4.3a1.02,1.02,0,0,0-.616-.34l-1.956-.281a.989.989,0,0,0-.846.291l-.46.462-4.4,4.408a.29.29,0,0,0-.058.36l.027.05a1.781,1.781,0,0,0,1.234.919,2.869,2.869,0,0,0,2.451-1.055l1.645-1.659,5.176,4.454,1.613-1.667a1.248,1.248,0,0,0,.014-1.646Z" fill="#8b9094"/>
      </g>
    </g>
  </g>
</svg>
