<svg xmlns="http://www.w3.org/2000/svg" width="24" height="24" viewBox="0 0 24 24">
    <rect width="24" height="24" fill="none"/>
    <g transform="translate(0 0)">
        <g>
            <path d="M20.025,3.025h-2v-1a1,1,0,1,0-2,0v1h-8v-1a1,1,0,1,0-2,0v1h-2a1,1,0,0,0-1,1v16a1,1,0,0,0,1,1h16a1,1,0,0,0,1-1v-16a1,1,0,0,0-1-1m-1,16h-14v-11h14Z"
                  fill="#323232"/>
            <path d="M14.025,18.025h3a1,1,0,0,0,1-1v-3a1,1,0,0,0-1-1h-3a1,1,0,0,0-1,1v3a1,1,0,0,0,1,1" fill="#323232"/>
        </g>
    </g>
</svg>
