<svg xmlns="http://www.w3.org/2000/svg" width="24" height="24" viewBox="0 0 24 24">
  <g transform="translate(-921 -340)">
    <rect width="24" height="24" transform="translate(921 340)" fill="none"/>
    <g transform="translate(573 79.002)">
      <path d="M368,271.24v8.26a1.5,1.5,0,0,1-1.5,1.5h-13a1.5,1.5,0,0,1-1.5-1.5v-13a1.5,1.5,0,0,1,1.5-1.5h10.26l-4.88,4.88a3.222,3.222,0,0,0-.63.93,3.729,3.729,0,0,0-.25,1.18V273a3.009,3.009,0,0,0,3,3h.99l.62-.06.13-.04a2.311,2.311,0,0,0,.47-.16,2.881,2.881,0,0,0,.91-.62Z" fill="#8b9094"/>
      <path d="M370.71,264.29l-1-1a1.008,1.008,0,0,0-1.42,0l-8,8a2.023,2.023,0,0,0-.215.335,2.736,2.736,0,0,0-.074.369v1a1,1,0,0,0,1,1h.985l.284-.038a.554.554,0,0,0,.121-.04.988.988,0,0,0,.32-.21l8-8A1.042,1.042,0,0,0,371,265,1.007,1.007,0,0,0,370.71,264.29Z" fill="#8b9094"/>
    </g>
  </g>
</svg>
