<svg xmlns="http://www.w3.org/2000/svg" width="24" height="24" viewBox="0 0 24 24">
  <g transform="translate(-908 -387)">
    <rect width="24" height="24" transform="translate(908 387)" fill="none"/>
    <g transform="translate(560 86)">
      <path d="M350,308.5v5a1.5,1.5,0,0,0,1.5,1.5h.5v-8h-.5A1.5,1.5,0,0,0,350,308.5Z" fill="#8b9094"/>
      <path d="M368.5,304l-13,2a1.5,1.5,0,0,0-1.5,1.5v7a1.5,1.5,0,0,0,1.5,1.5l.5.077V317.5a4.5,4.5,0,0,0,9,0v-.038l3.5.538a1.5,1.5,0,0,0,1.5-1.5v-11A1.5,1.5,0,0,0,368.5,304ZM363,317.5a2.5,2.5,0,0,1-5,0v-1.115l5,.769Z" fill="#8b9094"/>
    </g>
  </g>
</svg>
