<svg xmlns="http://www.w3.org/2000/svg" width="24" height="24" viewBox="0 0 24 24">
  <g transform="translate(-934 -617)">
    <rect width="24" height="24" transform="translate(934 617)" fill="none"/>
    <g transform="translate(586 82)">
      <path d="M360,543a16.961,16.961,0,0,1-8-1.7v2.2c0,.85,2.82,2.5,8,2.5s8-1.65,8-2.5v-2.2A16.961,16.961,0,0,1,360,543Z" fill="#8b9094"/>
      <path d="M352,546.3v2.2c0,.85,2.82,2.5,8,2.5s8-1.65,8-2.5v-2.2a19.673,19.673,0,0,1-16,0Z" fill="#8b9094"/>
      <path d="M352,551.3V554c0,1.66,3.58,3,8,3s8-1.34,8-3v-2.7a19.673,19.673,0,0,1-16,0Z" fill="#8b9094"/>
      <path d="M367.64,539.11c-1.01-1.23-4.05-2.11-7.64-2.11s-6.63.88-7.64,2.11c.909.85,3.53,1.89,7.64,1.89S366.73,539.96,367.64,539.11Z" fill="#8b9094"/>
    </g>
  </g>
</svg>
