<svg xmlns="http://www.w3.org/2000/svg" width="24" height="24" viewBox="0 0 24 24">
  <g transform="translate(-911 -594)">
    <rect width="24" height="24" transform="translate(911 594)" fill="none"/>
    <path d="M402.519,471.77l-.979-.97a7.819,7.819,0,0,0,0-3.6l.979-.97a1.01,1.01,0,0,0,.351-1.36l-.97-1.74a.949.949,0,0,0-1.32-.36l-1.3.38a7.8,7.8,0,0,0-3.02-1.8l-.32-1.35a.991.991,0,0,0-.97-1h-1.94a.991.991,0,0,0-.97,1l-.32,1.35a7.681,7.681,0,0,0-3.02,1.8l-1.3-.38a.949.949,0,0,0-1.32.36l-.97,1.74a1.01,1.01,0,0,0,.35,1.36l.98.97a7.819,7.819,0,0,0,0,3.6l-.98.97a1.01,1.01,0,0,0-.35,1.36l.97,1.74a.949.949,0,0,0,1.32.36l1.3-.38a7.8,7.8,0,0,0,3.02,1.8l.32,1.35a.991.991,0,0,0,.97,1h1.94a.991.991,0,0,0,.97-1l.32-1.35a7.681,7.681,0,0,0,3.02-1.8l1.3.38a.952.952,0,0,0,1.32-.36l.97-1.74A1.01,1.01,0,0,0,402.519,471.77ZM394,473a4,4,0,1,1,4-4A4,4,0,0,1,394,473Z" transform="translate(529.002 137)" fill="#8b9094"/>
  </g>
</svg>
