<svg xmlns="http://www.w3.org/2000/svg" width="24" height="24" viewBox="0 0 24 24">
  <g transform="translate(-925 -285)">
    <rect width="24" height="24" transform="translate(925 285)" fill="none"/>
    <g transform="translate(577 63)">
      <path d="M367.5,238h-15a1.5,1.5,0,0,0-1.5,1.5v3a1.5,1.5,0,0,0,1.5,1.5h15a1.5,1.5,0,0,0,1.5-1.5v-3A1.5,1.5,0,0,0,367.5,238Zm-7.5,4a1,1,0,1,1,1-1A1,1,0,0,1,360,242Z" fill="#8b9094"/>
      <path d="M368,225.5a1.5,1.5,0,0,0-1.5-1.5h-13a1.5,1.5,0,0,0-1.5,1.5V236h16Zm-4,7.5h-8a1,1,0,0,1,0-2h8a1,1,0,0,1,0,2Zm0-4h-8a1,1,0,0,1,0-2h8a1,1,0,0,1,0,2Z" fill="#8b9094"/>
    </g>
  </g>
</svg>
