<svg xmlns="http://www.w3.org/2000/svg" width="24" height="24" viewBox="0 0 24 24">
  <g transform="translate(-911 -462)">
    <rect width="24" height="24" transform="translate(911 462)" fill="none"/>
    <path d="M367.5,343h-15a1.5,1.5,0,0,0-1.5,1.5v15a1.5,1.5,0,0,0,1.5,1.5h15a1.5,1.5,0,0,0,1.5-1.5v-15A1.5,1.5,0,0,0,367.5,343Zm-3.79,10.71-3,3a1.014,1.014,0,0,1-1.42,0l-3-3a1,1,0,0,1,1.42-1.42l1.29,1.29V348a1,1,0,0,1,2,0v5.58l1.29-1.29a1,1,0,0,1,1.42,1.42Z" transform="translate(563 122)" fill="#8b9094"/>
  </g>
</svg>
