<svg xmlns="http://www.w3.org/2000/svg" width="20" height="20" viewBox="0 0 20 20">
  <g transform="translate(-3016 -1349)">
    <path d="M3035.5,1349h-19a.5.5,0,0,0-.5.5v19a.5.5,0,0,0,.5.5h19a.5.5,0,0,0,.5-.5v-19A.5.5,0,0,0,3035.5,1349Zm-1.5,18h-16v-16h16Z"/>
    <path d="M3023.293,1363.708a1,1,0,0,0,.33.22,1.024,1.024,0,0,0,.22.042,1.053,1.053,0,0,0,.157.03,507.609,507.609,0,0,1,.377-.072,1,1,0,0,0,.33-.22l7-7a1,1,0,0,0-1.414-1.414l-6.293,6.293-2.293-2.293a1,1,0,0,0-1.414,1.414Z"/>
  </g>
</svg>
