<svg xmlns="http://www.w3.org/2000/svg" xmlns:xlink="http://www.w3.org/1999/xlink" width="24" height="24" viewBox="0 0 24 24">
	<defs>
		<clipPath id="clip-line">
			<rect width="24" height="24" />
		</clipPath>
	</defs>
	<g clip-path="url(#clip-line)">
		<rect fill="#ffffff" width="24" height="24" />
		<g>
			<path fill="283238" d="M3131,1407c-.554,0-1,.224-1,.5v9c0,.276.446.5,1,.5s1-.224,1-.5v-9C3132,1407.224,3131.553,1407,3131,1407Z" transform="translate(3143 1424) rotate(180)" />
			<g>
				<g>
					<g transform="translate(-2924 -778)">
						<path fill="283238" d="M2946,798a1,1,0,0,1-1,1h-18a1,1,0,0,1-1-1h0a1,1,0,0,1,1-1h18a1,1,0,0,1,1,1Z" />
					</g>
				</g>
				<rect fill="none" width="24" height="24" />
				<g>
					<g>
						<path fill="283238" d="M2946,782a1,1,0,0,1-1,1h-18a1,1,0,0,1-1-1h0a1,1,0,0,1,1-1h18a1,1,0,0,1,1,1Z" transform="translate(-2924 -778)" />
						<path fill="283238" d="M1622.707,555.293a1,1,0,0,0-1.414,0L1618,558.586l-3.293-3.293a1,1,0,0,0-1.414,1.414l4,4h0a1,1,0,0,0,1.414,0h0l4-4A1,1,0,0,0,1622.707,555.293Z" transform="translate(-1606 -542)" />
						<path fill="283238" d="M1622.707,555.293a1,1,0,0,0-1.414,0L1618,558.586l-3.293-3.293a1,1,0,0,0-1.414,1.414l4,4h0a1,1,0,0,0,1.414,0h0l4-4A1,1,0,0,0,1622.707,555.293Z" transform="translate(1630 566) rotate(180)" />
					</g>
				</g>
			</g>
		</g>
	</g>
</svg>
