<svg xmlns="http://www.w3.org/2000/svg" width="20" height="20" viewBox="0 0 20 20">
  <g transform="translate(-2986 -660)">
    <path d="M3001,673.879V673a1,1,0,1,0-2,0v1a.969.969,0,0,0,.029.145.981.981,0,0,0,.264.857l.707.706a1,1,0,0,0,1.414-1.415Z"/>
    <path d="M3004,669.54V662.5a.5.5,0,0,0-.5-.5H3001v-1a1,1,0,1,0-2,0v1h-8v-1a1,1,0,1,0-2,0v1h-2.5a.5.5,0,0,0-.5.5v15a.5.5,0,0,0,.5.5h9.04a5.992,5.992,0,1,0,8.46-8.46ZM2988,676v-7h6a1,1,0,1,0,0-2h-6v-3h1v1a1,1,0,1,0,2,0v-1h8v1a1,1,0,1,0,2,0v-1h1v4.35a5.8,5.8,0,0,0-2-.35,6,6,0,0,0-6,6,5.8,5.8,0,0,0,.35,2Zm12,2a4,4,0,1,1,4-4A3.98,3.98,0,0,1,3000,678Z"/>
  </g>
</svg>
