<svg xmlns="http://www.w3.org/2000/svg" width="32" height="32" viewBox="0 0 32 32">
  <g transform="translate(-253 -282)">
    <path d="M281,284H257a2.006,2.006,0,0,0-2,2v24a2.006,2.006,0,0,0,2,2h24a2.006,2.006,0,0,0,2-2V286A2.006,2.006,0,0,0,281,284Zm0,26H257V286h24Z"/>
    <path d="M261,307h16a1,1,0,0,0,1-1v-8a.727.727,0,0,0-.04-.25.371.371,0,0,0-.04-.14.988.988,0,0,0-.21-.32l-3-3a1.008,1.008,0,0,0-1.42,0L267,300.58l-2.29-2.29a1.008,1.008,0,0,0-1.42,0l-3,3a.988.988,0,0,0-.21.32.371.371,0,0,0-.04.14.727.727,0,0,0-.04.25v4A1,1,0,0,0,261,307Z"/>
    <circle cx="3" cy="3" r="3" transform="translate(260 289)"/>
  </g>
</svg>
