<svg xmlns="http://www.w3.org/2000/svg" width="20" height="20" viewBox="0 0 20 20">
  <path d="M2890,468c-5.52,0-10,1.79-10,4v12c0,2.21,4.48,4,10,4s10-1.79,10-4V472C2900,469.79,2895.519,468,2890,468Zm0,2c4.7,0,7.441,1.35,7.95,2a1.541,1.541,0,0,1-.251.231c-.051.04-.113.082-.176.124s-.135.087-.21.132c-.091.054-.186.108-.294.163-.073.038-.159.076-.24.113-.119.056-.233.111-.369.167-.048.02-.1.039-.153.058-.168.066-.346.13-.537.194-.106.035-.215.069-.328.1-.272.082-.558.161-.87.234-.081.019-.171.035-.255.053q-.441.095-.931.173c-.091.014-.177.03-.27.044-.4.056-.819.1-1.262.137-.1.008-.205.014-.309.021-.476.031-.969.053-1.495.053s-1.019-.022-1.5-.053c-.1-.007-.208-.013-.309-.021-.443-.035-.865-.081-1.261-.137-.094-.014-.18-.03-.271-.044q-.491-.078-.931-.173c-.084-.018-.173-.034-.254-.053-.313-.073-.6-.152-.871-.234-.113-.034-.222-.068-.328-.1-.191-.064-.369-.128-.537-.194-.05-.019-.1-.038-.153-.058-.136-.056-.25-.111-.369-.167-.081-.037-.167-.075-.24-.113-.108-.055-.2-.109-.293-.163s-.148-.089-.211-.132-.125-.084-.176-.124a1.583,1.583,0,0,1-.251-.231C2882.559,471.35,2885.3,470,2890,470Zm0,16c-4.88,0-7.64-1.45-8-2.07v-1.537a20.716,20.716,0,0,0,16,0v1.537C2897.639,484.55,2894.879,486,2890,486Zm0-4c-4.7,0-7.49-1.35-8-2v-1.607a20.716,20.716,0,0,0,16,0V480C2897.489,480.65,2894.7,482,2890,482Zm0-4c-4.7,0-7.49-1.35-8-2v-1.6a10.407,10.407,0,0,0,1.6.67,22.486,22.486,0,0,0,12.8,0,10.407,10.407,0,0,0,1.6-.67V476C2897.489,476.65,2894.7,478,2890,478Z" transform="translate(-2879.999 -468)"/>
</svg>
