<svg xmlns="http://www.w3.org/2000/svg" width="20" height="20" viewBox="0 0 20 20">
  <g transform="translate(-2986 -930)">
    <path d="M3005.5,930h-19a.5.5,0,0,0-.5.5v19a.5.5,0,0,0,.5.5h19a.5.5,0,0,0,.5-.5v-19A.5.5,0,0,0,3005.5,930Zm-1.5,18h-14.586l4.586-4.586,1.293,1.293a1,1,0,0,0,1.414,0l4.293-4.293,3,3Zm0-7.415-2.292-2.292a1,1,0,0,0-1.416,0L2996,942.585l-1.292-1.292a1,1,0,0,0-1.416,0L2988,946.585V932h16Z"/>
    <path d="M2993,940a3,3,0,1,0-3-3A3,3,0,0,0,2993,940Zm0-4a1,1,0,1,1-1,1A1,1,0,0,1,2993,936Z"/>
  </g>
</svg>
