<svg xmlns="http://www.w3.org/2000/svg" width="32" height="32" viewBox="0 0 32 32">
  <g transform="translate(-394 -94)">
    <path d="M404,112h12a1,1,0,0,0,0-2H404a1,1,0,0,0,0,2Z"/>
    <path d="M404,116h12a1,1,0,0,0,0-2H404a1,1,0,0,0,0,2Z"/>
    <path d="M404,120h12a1,1,0,0,0,0-2H404a1,1,0,0,0,0,2Z"/>
    <path d="M416.292,103.707a1,1,0,0,0,.332.22,1.175,1.175,0,0,0,.169.033.569.569,0,0,0,.414,0,1.175,1.175,0,0,0,.169-.033,1,1,0,0,0,.332-.22l2-2a1,1,0,0,0-1.414-1.414L417,101.585l-1.293-1.292a1,1,0,0,0-1.414,1.414Z"/>
    <path d="M422,96H398a2.006,2.006,0,0,0-2,2v8a2.006,2.006,0,0,0,2,2v14a2.006,2.006,0,0,0,2,2h20a2.006,2.006,0,0,0,2-2V108a2.006,2.006,0,0,0,2-2V98A2.006,2.006,0,0,0,422,96Zm-2,26H400V108h20Zm2-16H398V98h24Z"/>
  </g>
</svg>
