<svg id="Form_Designer_-_Checkbox_Medium_" data-name="Form Designer - Checkbox (Medium)" xmlns="http://www.w3.org/2000/svg" width="32" height="32" viewBox="0 0 32 32">
  <rect id="사각형_3427" data-name="사각형 3427" width="32" height="32" fill="none"/>
  <g id="그룹_3696" data-name="그룹 3696" transform="translate(-253 -188)">
    <path id="패스_8855" data-name="패스 8855" d="M281,190H257a2.006,2.006,0,0,0-2,2v24a2.006,2.006,0,0,0,2,2h24a2.006,2.006,0,0,0,2-2V192A2.006,2.006,0,0,0,281,190Zm0,26H257V192h24Z" fill="#a0a4a6"/>
    <path id="패스_8856" data-name="패스 8856" d="M265.389,209.51a1.574,1.574,0,0,0,2.171,0l8.95-8.95a1.5,1.5,0,0,0-2.121-2.12l-7.914,7.913-2.915-2.913a1.5,1.5,0,1,0-2.121,2.12Z" fill="#a0a4a6"/>
  </g>
</svg>
