<svg xmlns="http://www.w3.org/2000/svg" width="32" height="32" viewBox="0 0 32 32">
  <g transform="translate(-535 -517)">
    <path d="M564,537a1,1,0,0,0-1,1v7H539v-7a1,1,0,0,0-2,0v8a1,1,0,0,0,1,1h26a1,1,0,0,0,1-1v-8A1,1,0,0,0,564,537Z"/>
    <path d="M546.707,525.707,550,522.414V540a1,1,0,0,0,2,0V522.414l3.293,3.293a1,1,0,0,0,1.414-1.414l-5-5c-.01-.01-.022-.012-.031-.021a1,1,0,0,0-.293-.195l-.006,0a1.1,1.1,0,0,0-.2-.04A1.033,1.033,0,0,0,551,519h0a1.033,1.033,0,0,0-.173.033,1.082,1.082,0,0,0-.2.04l-.006,0a1,1,0,0,0-.293.195c-.01.009-.021.011-.031.021l-5,5a1,1,0,0,0,1.414,1.414Z"/>
  </g>
</svg>
