<svg xmlns="http://www.w3.org/2000/svg" width="20" height="20" viewBox="0 0 20 20">
  <g transform="translate(-3016 -1289)">
    <path d="M3024.5,1289h-8a.5.5,0,0,0-.5.5v8a.5.5,0,0,0,.5.5h8a.5.5,0,0,0,.5-.5v-8A.5.5,0,0,0,3024.5,1289Zm-1.5,7h-5v-5h5Z"/>
    <path d="M3024.5,1300h-8a.5.5,0,0,0-.5.5v8a.5.5,0,0,0,.5.5h8a.5.5,0,0,0,.5-.5v-8A.5.5,0,0,0,3024.5,1300Zm-1.5,7h-5v-5h5Z"/>
    <path d="M3035.5,1289h-8a.5.5,0,0,0-.5.5v8a.5.5,0,0,0,.5.5h8a.5.5,0,0,0,.5-.5v-8A.5.5,0,0,0,3035.5,1289Zm-1.5,7h-5v-5h5Z"/>
    <path d="M3035,1304h-2v-2a1,1,0,0,0-2,0v2h-2a1,1,0,0,0,0,2h2v2a1,1,0,0,0,2,0v-2h2a1,1,0,0,0,0-2Z"/>
  </g>
</svg>
