<svg xmlns="http://www.w3.org/2000/svg" width="32" height="32" viewBox="0 0 32 32">
  <g transform="translate(-253 -329)">
    <path d="M259,341h20a2.006,2.006,0,0,0,2-2v-6a2.006,2.006,0,0,0-2-2H259a2.006,2.006,0,0,0-2,2v6A2.006,2.006,0,0,0,259,341Zm0-8h20v6H259Z"/>
    <path d="M279,349H259a2.006,2.006,0,0,0-2,2v6a2.006,2.006,0,0,0,2,2h20a2.006,2.006,0,0,0,2-2v-6A2.006,2.006,0,0,0,279,349Zm0,8H259v-6h20Z"/>
    <path d="M260,346a1,1,0,0,0,0-2h-3a1,1,0,0,0,0,2Z"/>
    <path d="M264,344a1,1,0,0,0,0,2h3a1,1,0,0,0,0-2Z"/>
    <path d="M271,344a1,1,0,0,0,0,2h3a1,1,0,0,0,0-2Z"/>
    <path d="M281,344h-3a1,1,0,0,0,0,2h3a1,1,0,0,0,0-2Z"/>
  </g>
</svg>
