<svg xmlns="http://www.w3.org/2000/svg" width="20" height="20" viewBox="0 0 20 20">
  <g transform="translate(-3076 -1319)">
    <path d="M3095.5,1319h-19a.5.5,0,0,0-.5.5v19a.5.5,0,0,0,.5.5h19a.5.5,0,0,0,.5-.5v-19A.5.5,0,0,0,3095.5,1319Zm-17.5,2h16v8h-16Zm16,16h-16v-6h16Z"/>
    <path d="M3091.293,1323.293l-1.293,1.293-1.293-1.293a1,1,0,0,0-1.414,1.414l2,2a.8.8,0,0,0,.55.262.945.945,0,0,0,.157.031.925.925,0,0,0,.157-.031.8.8,0,0,0,.55-.262l2-2a1,1,0,0,0-1.414-1.414Z"/>
    <path d="M3081,1335h10a1,1,0,0,0,0-2h-10a1,1,0,0,0,0,2Z"/>
  </g>
</svg>
