<svg xmlns="http://www.w3.org/2000/svg" width="32" height="32" viewBox="0 0 32 32">
  <g id="그룹_3702" data-name="그룹 3702" transform="translate(-440.998 -564)">
    <path d="M459.259,569.034a1,1,0,0,0-1.225.707l-4,20a1,1,0,1,0,1.932.518l4-20A1,1,0,0,0,459.259,569.034Z"/>
    <path d="M450.706,573.291a1,1,0,0,0-1.414,0l-6,6a1,1,0,0,0-.22.33,1.083,1.083,0,0,0-.04.2A1.053,1.053,0,0,0,443,580a.947.947,0,0,0,.034.173.764.764,0,0,0,.259.534l6,6a1,1,0,0,0,1.414-1.414L445.413,580l5.293-5.293A1,1,0,0,0,450.706,573.291Z"/>
    <path d="M471,580a1.056,1.056,0,0,0-.033-.173,1.083,1.083,0,0,0-.04-.2,1,1,0,0,0-.22-.33l-6-6a1,1,0,0,0-1.414,1.414L468.586,580l-5.293,5.293a1,1,0,0,0,1.414,1.414l6-6a1,1,0,0,0,.22-.33,1.083,1.083,0,0,0,.04-.2A1.038,1.038,0,0,0,471,580Z"/>
  </g>
</svg>
