<svg xmlns="http://www.w3.org/2000/svg" width="20" height="20" viewBox="0 0 20 20">
  <g transform="translate(-1438 -578)">
    <path d="M1443,590h2a1,1,0,0,0,0-2h-2a5,5,0,0,0-5,5v4.5a.5.5,0,0,0,.5.5h6.5a1,1,0,0,0,0-2h-5v-3A3.009,3.009,0,0,1,1443,590Z"/>
    <path d="M1450,582a4,4,0,1,0-4,4A4,4,0,0,0,1450,582Zm-4,2a2,2,0,1,1,2-2A2,2,0,0,1,1446,584Z"/>
    <path d="M1453,586l-5,3v6l5,3,5-3v-6Zm3,7.867-3,1.8-3-1.8v-3.734l3-1.8,3,1.8Z"/>
    <circle cx="1" cy="1" r="1" transform="translate(1452 591)"/>
  </g>
</svg>
