<svg xmlns="http://www.w3.org/2000/svg" width="32" height="32" viewBox="0 0 32 32">
  <g transform="translate(-441)">
    <path d="M470,6H454a1,1,0,0,0,0,2h15V24H454a1,1,0,0,0,0,2h16a1,1,0,0,0,1-1V7A1,1,0,0,0,470,6Z"/>
    <path d="M447,25a1,1,0,0,0-1-1h-1V8h1a1,1,0,0,0,0-2h-2a.97.97,0,0,0-.879.548c-.012.023-.032.039-.042.063A.987.987,0,0,0,443,7V25a1,1,0,0,0,1,1h2A1,1,0,0,0,447,25Z"/>
    <path d="M453,28h-2V4h2a1,1,0,0,0,0-2h-6a1,1,0,0,0,0,2h2V28h-2a1,1,0,0,0,0,2h6a1,1,0,0,0,0-2Z"/>
  </g>
</svg>
