<svg xmlns="http://www.w3.org/2000/svg" width="32" height="32" viewBox="0 0 32 32">
  <path d="M269,707c-6.627,0-12,2.238-12,5v18a2.229,2.229,0,0,0,.24,1c1.11,2.28,5.95,4,11.76,4s10.65-1.72,11.76-4a2.229,2.229,0,0,0,.24-1V712C281,709.238,275.627,707,269,707Zm10,20.23V730c0,.23-.32.6-.94,1-1.43.92-4.49,2-9.06,2s-7.63-1.08-9.06-2c-.62-.4-.94-.77-.94-1v-3.238c2.148,1.347,5.822,2.238,10,2.238s7.852-.891,10-2.238Zm0-3.23c0,.77-3.44,3-10,3s-10-2.23-10-3v-3.238c2.148,1.347,5.822,2.238,10,2.238s7.852-.891,10-2.238Zm0-6c0,.77-3.44,3-10,3s-10-2.23-10-3v-3.238c2.149,1.348,5.824,2.238,10,2.238s7.851-.89,10-2.238Zm-10-3c-6.562,0-10-2.228-10-3s3.438-3,10-3,10,2.228,10,3S275.561,715,269,715Z" transform="translate(-253 -705)"/>
</svg>
