<svg xmlns="http://www.w3.org/2000/svg" width="32" height="32" viewBox="0 0 32 32">
  <g transform="translate(-253 -47)">
    <path d="M259,64a1,1,0,0,0,1,1h18a1,1,0,0,0,0-2H260A1,1,0,0,0,259,64Z"/>
    <path d="M278,67H260a1,1,0,0,0,0,2h18a1,1,0,0,0,0-2Z"/>
    <path d="M278,71H260a1,1,0,0,0,0,2h18a1,1,0,0,0,0-2Z"/>
    <path d="M282,49H256a1,1,0,0,0-1,1V76a1,1,0,0,0,1,1h26a1,1,0,0,0,1-1V50A1,1,0,0,0,282,49Zm-1,26H257V51h24Z"/>
    <path d="M260.71,55.71l.71-.71H262v4h-1a1,1,0,0,0,0,2h4a1,1,0,0,0,0-2h-1V55h.58l.71.71a1,1,0,0,0,1.42-1.42l-1-1a.988.988,0,0,0-.32-.21.371.371,0,0,0-.14-.04c-.03-.01-.07-.02-.11-.03A.661.661,0,0,0,265,53h-4a.727.727,0,0,0-.25.04.371.371,0,0,0-.14.04.988.988,0,0,0-.32.21l-1,1a1,1,0,0,0,1.42,1.42Z"/>
  </g>
</svg>
