<svg id="Form_Designer_-_Date_Medium_" data-name="Form Designer - Date (Medium)" xmlns="http://www.w3.org/2000/svg" width="32" height="32" viewBox="0 0 32 32">
  <rect id="사각형_3427" data-name="사각형 3427" width="32" height="32" fill="none"/>
  <path id="패스_8866" data-name="패스 8866" d="M281,381h-3v-1a1,1,0,0,0-2,0v1H262v-1a1,1,0,0,0-2,0v1h-3a2.006,2.006,0,0,0-2,2v20a2.006,2.006,0,0,0,2,2h24a2.006,2.006,0,0,0,2-2V383A2.006,2.006,0,0,0,281,381Zm-21,2v1a1,1,0,0,0,2,0v-1h14v1a1,1,0,0,0,2,0v-1h3v4H257v-4Zm-3,20V389h24v14Z" transform="translate(-253 -376)" fill="#a0a4a6"/>
</svg>
