<svg xmlns="http://www.w3.org/2000/svg" width="32" height="32" viewBox="0 0 32 32">
  <g transform="translate(-253 -470)">
    <path d="M265,494h-9V481h22v1a1,1,0,0,0,2,0v-7a2.006,2.006,0,0,0-2-2h-3v-1a1,1,0,0,0-2,0v1H261v-1a1,1,0,0,0-2,0v1h-3a2.006,2.006,0,0,0-2,2v19a2.006,2.006,0,0,0,2,2h9a1,1,0,0,0,0-2Zm-9-19h3v1a1,1,0,0,0,2,0v-1h12v1a1,1,0,0,0,2,0v-1h3v4H256Z"/>
    <path d="M276,485a8,8,0,1,0,8,8A8,8,0,0,0,276,485Zm0,14a6,6,0,1,1,6-6A6,6,0,0,1,276,499Z"/>
    <path d="M278.42,493.08l-1.41-.7V490a1,1,0,0,0-2,0v3a1.01,1.01,0,0,0,.58.91l.03.01,1.96.97a1,1,0,1,0,.84-1.81Z"/>
  </g>
</svg>
