<svg xmlns="http://www.w3.org/2000/svg" width="20" height="20" viewBox="0 0 20 20">
  <path d="M3095.414,1351.586l-2-2c-.025-.025-.056-.044-.082-.067a2.014,2.014,0,0,0-.221-.18c-.058-.039-.121-.066-.181-.1s-.106-.061-.164-.086a2,2,0,0,0-.223-.069c-.051-.014-.1-.034-.15-.045a2.12,2.12,0,0,0-.4-.039H3080a2.12,2.12,0,0,0-.4.039c-.052.011-.1.031-.15.045a2,2,0,0,0-.223.069c-.058.025-.109.058-.164.086s-.123.06-.181.1a2.014,2.014,0,0,0-.221.18c-.026.023-.057.042-.082.067l-2,2a2,2,0,1,0,2.828,2.828l1.414-1.414H3084v12h-2a2,2,0,0,0,0,4h8a2,2,0,0,0,0-4h-2v-12h3.172l1.414,1.414a2,2,0,0,0,2.828-2.828Z" transform="translate(-3076 -1349)"/>
</svg>
