<svg xmlns="http://www.w3.org/2000/svg" width="20" height="20" viewBox="0 0 20 20">
  <g transform="translate(-3016 -1319)">
    <path d="M3035.5,1319h-19a.5.5,0,0,0-.5.5v19a.5.5,0,0,0,.5.5h19a.5.5,0,0,0,.5-.5v-19A.5.5,0,0,0,3035.5,1319Zm-1.5,18h-16v-16h16Z"/>
    <path d="M3021,1326h1v2a1,1,0,0,0,0,2h2a1,1,0,0,0,0-2v-2h1a1,1,0,0,0,0-2h-4a1,1,0,0,0,0,2Z"/>
    <path d="M3029,1326h2a1,1,0,0,0,0-2h-2a1,1,0,0,0,0,2Z"/>
    <path d="M3029,1330h2a1,1,0,0,0,0-2h-2a1,1,0,0,0,0,2Z"/>
    <path d="M3021,1334h10a1,1,0,0,0,0-2h-10a1,1,0,0,0,0,2Z"/>
  </g>
</svg>
