<svg xmlns="http://www.w3.org/2000/svg" width="24" height="24" viewBox="0 0 24 24">
  <g transform="translate(-3049 -1512)">
    <path d="M3072,1519a1,1,0,0,0-1,1v2a1,1,0,0,0,2,0v-2A1,1,0,0,0,3072,1519Z"/>
    <path d="M3072,1525a1,1,0,0,0-1,1v2a1,1,0,0,0,2,0v-2A1,1,0,0,0,3072,1525Z"/>
    <path d="M3072,1531a1,1,0,0,0-1,1v2h-2a1,1,0,0,0,0,2h3a1,1,0,0,0,1-1v-3A1,1,0,0,0,3072,1531Z"/>
    <path d="M3072,1512h-3a1,1,0,0,0,0,2h2v2a1,1,0,0,0,2,0v-3A1,1,0,0,0,3072,1512Z"/>
    <path d="M3053,1534h-2v-2a1,1,0,0,0-2,0v3a1,1,0,0,0,1,1h3a1,1,0,0,0,0-2Z"/>
    <path d="M3053,1512h-3a1,1,0,0,0-1,1v3a1,1,0,0,0,2,0v-2h2a1,1,0,0,0,0-2Z"/>
    <path d="M3050,1523a1,1,0,0,0,1-1v-2a1,1,0,0,0-2,0v2A1,1,0,0,0,3050,1523Z"/>
    <path d="M3050,1529a1,1,0,0,0,1-1v-2a1,1,0,0,0-2,0v2A1,1,0,0,0,3050,1529Z"/>
    <path d="M3059,1534h-2a1,1,0,0,0,0,2h2a1,1,0,0,0,0-2Z"/>
    <path d="M3065,1534h-2a1,1,0,0,0,0,2h2a1,1,0,0,0,0-2Z"/>
    <path d="M3059,1512h-2a1,1,0,0,0,0,2h2a1,1,0,0,0,0-2Z"/>
    <path d="M3065,1512h-2a1,1,0,0,0,0,2h2a1,1,0,0,0,0-2Z"/>
  </g>
</svg>
