<svg xmlns="http://www.w3.org/2000/svg" width="24" height="24" viewBox="0 0 24 24">
  <g transform="translate(-3049 -1552)">
    <path d="M3072.5,1552h-23a.5.5,0,0,0-.5.5v23a.5.5,0,0,0,.5.5h23a.5.5,0,0,0,.5-.5v-23A.5.5,0,0,0,3072.5,1552Zm-1.5,22h-20v-20h20Z"/>
    <path d="M3053,1571h0l0,.008a.969.969,0,0,0,.076.374,1.01,1.01,0,0,0,.541.541,1.025,1.025,0,0,0,.327.066c.019,0,.034.011.054.011h4a1,1,0,0,0,0-2h-1.586l4.586-4.586,4.586,4.586H3064a1,1,0,0,0,0,2h4c.02,0,.035-.01.054-.011a1.025,1.025,0,0,0,.327-.066,1.01,1.01,0,0,0,.541-.541.969.969,0,0,0,.076-.374l0-.008h0v-4a1,1,0,0,0-2,0v1.586l-4.586-4.586,4.586-4.586V1561a1,1,0,0,0,2,0v-4c0-.017-.009-.03-.01-.047a.77.77,0,0,0-.205-.543.9.9,0,0,0-.078-.117,54.009,54.009,0,0,1-.324-.215.991.991,0,0,0-.368-.075l-.015,0h-4a1,1,0,0,0,0,2h1.586l-4.586,4.586-4.586-4.586H3058a1,1,0,0,0,0-2h-4l-.01,0a1,1,0,0,0-.373.075.965.965,0,0,0-.2.135.934.934,0,0,0-.121.08.9.9,0,0,0-.078.117.77.77,0,0,0-.205.543c0,.017-.01.03-.01.047v4a1,1,0,0,0,2,0v-1.586l4.586,4.586-4.586,4.586V1567a1,1,0,0,0-2,0v4Z"/>
  </g>
</svg>
