<svg xmlns="http://www.w3.org/2000/svg" width="32" height="32" viewBox="0 0 32 32">
  <g transform="translate(-5986 -2245)">
    <rect fill="none" width="32" height="32" transform="translate(5986 2245)"/>
    <path fill="#323232" d="M614,1406.071,627.93,1420,614,1433.929,600.07,1420,614,1406.071m0-2.071a1.82,1.82,0,0,0-1.288.531l-14.181,14.18a1.83,1.83,0,0,0,0,2.578l14.181,14.18a1.829,1.829,0,0,0,2.577,0l14.18-14.18a1.83,1.83,0,0,0,0-2.578l-14.18-14.18A1.822,1.822,0,0,0,614,1404Z" transform="translate(5388 841)"/>
  </g>
</svg>
