<svg xmlns="http://www.w3.org/2000/svg" width="32" height="32" viewBox="0 0 32 32">
  <g transform="translate(-4685 -816)">
    <rect fill="none" width="32" height="32" transform="translate(4685 816)"/>
    <g transform="translate(4129 163)">
      <path fill="#222529" d="M570,680h-9V665h22v2a1,1,0,0,0,2,0v-8a2.006,2.006,0,0,0-2-2h-1v-1a1,1,0,0,0-2,0v1H564v-1a1,1,0,0,0-2,0v1h-1a2.006,2.006,0,0,0-2,2v21a2.006,2.006,0,0,0,2,2h9a1,1,0,0,0,0-2Zm-9-21h22v4H561Z"/>
      <path fill="#222529" d="M580,670a7,7,0,1,0,7,7A7,7,0,0,0,580,670Zm0,12a5,5,0,1,1,5-5A5.006,5.006,0,0,1,580,682Z"/>
      <path fill="#222529" d="M581,676.586V674a1,1,0,0,0-2,0v2.995a1,1,0,0,0,.078.388.938.938,0,0,0,.114.173,1.041,1.041,0,0,0,.1.149l2,2a1,1,0,0,0,1.414-1.414Z"/>
    </g>
  </g>
</svg>
