<svg xmlns="http://www.w3.org/2000/svg" width="32" height="32" viewBox="0 0 32 32">
  <g transform="translate(-4685 -920)">
    <rect fill="none" width="32" height="32" transform="translate(4685 920)"/>
    <g transform="translate(4129 455)">
      <path fill="#222529" d="M583,468H561a2.006,2.006,0,0,0-2,2v22a2.006,2.006,0,0,0,2,2h22a2.006,2.006,0,0,0,2-2V470A2.006,2.006,0,0,0,583,468Zm0,24H561V470h22Z"/>
      <circle fill="#222529" cx="3" cy="3" r="3" transform="translate(563 472)"/>
      <path fill="#222529" d="M564,490h16a1,1,0,0,0,1-1v-8a.727.727,0,0,0-.04-.25.371.371,0,0,0-.04-.14.988.988,0,0,0-.21-.32l-2-2a1.008,1.008,0,0,0-1.42,0L572,483.58l-3.29-3.29a1.008,1.008,0,0,0-1.42,0l-4,4a.988.988,0,0,0-.21.32.371.371,0,0,0-.04.14.727.727,0,0,0-.04.25v4A1,1,0,0,0,564,490Z"/>
    </g>
  </g>
</svg>
