<svg xmlns="http://www.w3.org/2000/svg" width="32" height="32" viewBox="0 0 32 32">
  <g transform="translate(-4685 -868)">
    <rect fill="none" width="32" height="32" transform="translate(4685 868)"/>
    <g transform="translate(4087 168)">
      <path fill="#222529" d="M626,716a1,1,0,0,0-1,1v10H603V717a1,1,0,0,0-2,0v10a2.006,2.006,0,0,0,2,2h22a2.006,2.006,0,0,0,2-2V717A1,1,0,0,0,626,716Z"/>
      <path fill="#222529" d="M614.717,703.3l-.008-.012a1.009,1.009,0,0,0-1.418,0l-.008.012-5.23,5.23a1,1,0,0,0,1.414,1.415L613,706.414V724a1,1,0,0,0,2,0V706.414l3.533,3.534a1,1,0,1,0,1.414-1.415Z"/>
    </g>
  </g>
</svg>
