<svg xmlns="http://www.w3.org/2000/svg" width="24" height="24" viewBox="0 0 24 24">
  <g  transform="translate(-8094 -740)">
    <g transform="translate(7938 -2105)">
      <path fill="#64BBF6" d="M167,2865h-6v-10h14v1a1,1,0,0,0,2,0v-6a1,1,0,0,0-1-1h-2v-1a1,1,0,0,0-2,0v1h-8v-1a1,1,0,0,0-2,0v1h-2a1,1,0,0,0-1,1v16a1,1,0,0,0,1,1h7a1,1,0,0,0,0-2Zm-6-14h14v2H161Z"/>
      <path fill="#64BBF6" d="M174.5,2859a4.5,4.5,0,1,0,4.5,4.5A4.5,4.5,0,0,0,174.5,2859Zm1.853,6.354a.5.5,0,0,1-.707,0l-1.5-1.5a.5.5,0,0,1-.109-.163.525.525,0,0,1-.038-.191v-2a.5.5,0,0,1,1,0v1.793l1.353,1.353A.5.5,0,0,1,176.353,2865.354Z"/>
    </g>
  </g>
</svg>
