<svg xmlns="http://www.w3.org/2000/svg" width="32" height="32" viewBox="0 0 32 32">
  <g transform="translate(-4685 -556)">
    <rect fill="none" width="32" height="32" transform="translate(4685 556)"/>
    <g transform="translate(4129 279)">
      <path fill="#222529" d="M582,279H562a2.006,2.006,0,0,0-2,2v24a2.006,2.006,0,0,0,2,2h12a2.006,2.006,0,0,0,2-2V291h6a2.006,2.006,0,0,0,2-2v-8A2.006,2.006,0,0,0,582,279Zm-8,26H562V291h12Zm8-16H562v-8h20Z"/>
      <path fill="#222529" d="M576.283,286.7l.008.012a1.009,1.009,0,0,0,1.418,0l.008-.012,1.992-1.992a1,1,0,0,0-1.414-1.414l-1.295,1.3-1.295-1.3a1,1,0,0,0-1.414,1.414Z"/>
      <path fill="#222529" d="M565,295h6a1,1,0,0,0,0-2h-6a1,1,0,0,0,0,2Z"/>
      <path fill="#222529" d="M565,299h6a1,1,0,0,0,0-2h-6a1,1,0,0,0,0,2Z"/>
      <path fill="#222529" d="M565,303h6a1,1,0,0,0,0-2h-6a1,1,0,0,0,0,2Z"/>
    </g>
  </g>
</svg>
