<svg xmlns="http://www.w3.org/2000/svg" width="32" height="32" viewBox="0 0 32 32">
  <g transform="translate(-4685 -660)">
    <rect fill="none" width="32" height="32" transform="translate(4685 660)"/>
    <g transform="translate(4129 289)">
      <path fill="#222529" d="M583,374H561a2.006,2.006,0,0,0-2,2v22a2.006,2.006,0,0,0,2,2h22a2.006,2.006,0,0,0,2-2V376A2.006,2.006,0,0,0,583,374Zm0,24H561V376h22Z"/>
      <path fill="#222529" d="M569.283,391.7l.008.012a1.009,1.009,0,0,0,1.418,0l.008-.012,6.992-6.992a1,1,0,0,0-1.414-1.414l-6.295,6.3-3.295-3.3a1,1,0,0,0-1.414,1.414Z"/>
    </g>
  </g>
</svg>
