<svg xmlns="http://www.w3.org/2000/svg" width="24" height="24" viewBox="0 0 24 24">
  <rect fill="none" width="24" height="24"/>
  <g>
    <path fill="#222529" d="M20,3H4A1,1,0,0,0,3,4V20a1,1,0,0,0,1,1H20a1,1,0,0,0,1-1V4A1,1,0,0,0,20,3ZM19,19H5V8H19Z"/>
    <path fill="#222529" d="M8.179,12.586,9.626,13.88a.544.544,0,0,1,.164.529l-.442,1.934a.515.515,0,0,0,.762.578l1.623-1.038a.5.5,0,0,1,.534,0l1.624,1.038a.515.515,0,0,0,.762-.578l-.443-1.934a.551.551,0,0,1,.164-.529l1.447-1.294a.537.537,0,0,0-.291-.935l-1.9-.159a.509.509,0,0,1-.43-.327l-.73-1.837a.5.5,0,0,0-.942,0l-.73,1.837a.512.512,0,0,1-.432.327l-1.9.159A.538.538,0,0,0,8.179,12.586Z"/>
  </g>
</svg>
