<svg xmlns="http://www.w3.org/2000/svg" width="32" height="32" viewBox="0 0 32 32">
  <defs>
    <style>
      .cls-1 {
        fill: none;
      }

      .cls-2 {
        fill: #222529;
      }
    </style>
  </defs>
  <g transform="translate(-4685 -1076)">
    <rect fill="none" width="32" height="32" transform="translate(4685 1076)"/>
    <g transform="translate(4129 282)">
      <path fill="#222529" d="M574.259,799.034a1.006,1.006,0,0,0-1.226.707l-3.964,20a1,1,0,1,0,1.931.518l3.966-20A1,1,0,0,0,574.259,799.034Z"/>
      <path fill="#222529" d="M560.414,810l5.533-5.533a1,1,0,0,0-1.414-1.415l-6.23,6.231-.012.008a1.009,1.009,0,0,0,0,1.418l.012.008,6.23,6.23a1,1,0,1,0,1.415-1.414Z"/>
      <path fill="#222529" d="M585.709,809.291l-.012-.008-6.23-6.231a1,1,0,0,0-1.414,1.415L583.586,810l-5.534,5.533a1,1,0,0,0,1.415,1.414l6.23-6.23.012-.008a1.009,1.009,0,0,0,0-1.418Z"/>
    </g>
  </g>
</svg>
