<svg xmlns="http://www.w3.org/2000/svg" width="40" height="40" viewBox="0 0 40 40">
  <g transform="translate(-100 -428)">
    <g fill="#6885F7" fill-opacity="0.1" stroke="#6885F7" transform="translate(100 428)">
      <path fill="#6885F7" d="M3,0H39a1,1,0,0,1,1,1V39a1,1,0,0,1-1,1H3a3,3,0,0,1-3-3V3A3,3,0,0,1,3,0Z"/>
      <path fill="#6885F7" d="M3,.5H39a.5.5,0,0,1,.5.5V39a.5.5,0,0,1-.5.5H3A2.5,2.5,0,0,1,.5,37V3A2.5,2.5,0,0,1,3,.5Z"/>
    </g>
    <path fill="#6885F7" d="M2975.737,1510.662a.987.987,0,0,0,.186-.278A1,1,0,0,0,2976,1510v-1h0a1,1,0,0,0-.295-.709l-.994-.994a1,1,0,0,0-.33-.22.982.982,0,0,0-.343-.069c-.013,0-.024-.008-.038-.008v-1h0a1,1,0,0,0-.295-.709l-.994-.994a1,1,0,0,0-.33-.22.982.982,0,0,0-.343-.069c-.013,0-.024-.008-.038-.008h-3.154l.861-1.292a1,1,0,0,0,0-1.415l-1-1a1,1,0,0,0-.328-.219.966.966,0,0,0-.344-.069c-.013,0-.023-.008-.037-.008h-2c-.021,0-.038.011-.059.012a1,1,0,0,0-.2.04.948.948,0,0,0-.185.062c-.019.009-.04.009-.059.02l-9,5a.789.789,0,0,0-.093.082,1,1,0,0,0-.154.136,1.313,1.313,0,0,0-.188.326,1.045,1.045,0,0,0-.041.2,1.2,1.2,0,0,0-.024.121v9a.984.984,0,0,0,.078.384,115.727,115.727,0,0,0,.215.324l2,2,.009.006a1.016,1.016,0,0,0,.315.21,1,1,0,0,0,.383.077h10c.014,0,.024-.007.037-.008a.966.966,0,0,0,.344-.069,1,1,0,0,0,.33-.22l.994-.994A1,1,0,0,0,2971,1516h0v-1h1c.014,0,.024-.007.037-.008a.966.966,0,0,0,.344-.069,1,1,0,0,0,.33-.22l.994-.994A1,1,0,0,0,2974,1513h0v-1h0a.987.987,0,0,0,.382-.077,1,1,0,0,0,.326-.217l1-1A.464.464,0,0,0,2975.737,1510.662ZM2967,1510a1,1,0,0,0,0,2h5v.586l-.415.414H2967a1,1,0,0,0,0,2h2v.586l-.415.414h-9.171l-1.414-1.413v-8l8.258-4.588h1.327l.143.143-1.435,2.15c-.008.009-.011.02-.02.028a.969.969,0,0,0-.273.679h0l0,.009a1,1,0,0,0,.075.374,1.02,1.02,0,0,0,.2.294c.009.008.012.021.021.03l.01.006a.976.976,0,0,0,.688.285l.009,0h4.585l.415.414V1507h-5a1,1,0,0,0,0,2h6.585l.415.414v.173l-.414.413Z" transform="translate(-2846 -1061)"/>
  </g>
</svg>
