<svg xmlns="http://www.w3.org/2000/svg" width="24" height="24" viewBox="0 0 24 24">
  <g transform="translate(-4270 -1068)">
    <rect fill="none" width="24" height="24" transform="translate(4270 1068)"/>
    <g transform="translate(4114 -691)">
      <path fill="#222529" d="M178,1770h-1.059a9,9,0,0,0-7.941-7.941V1761a1,1,0,0,0-2,0v1.059a9,9,0,0,0-7.941,7.941H158a1,1,0,0,0,0,2h1.059a9,9,0,0,0,7.941,7.941V1781a1,1,0,0,0,2,0v-1.059a9,9,0,0,0,7.941-7.941H178a1,1,0,0,0,0-2Zm-10,8a7,7,0,1,1,7-7A7.009,7.009,0,0,1,168,1778Z"/>
      <circle fill="#222529" cx="4" cy="4" r="4" transform="translate(164 1767)"/>
    </g>
  </g>
</svg>
