<svg xmlns="http://www.w3.org/2000/svg" width="32" height="32" viewBox="0 0 32 32">
  <g transform="translate(-6966 -1673)">
    <rect width="32" height="32" transform="translate(6966 1673)" fill="none"/>
    <g transform="translate(6409.625 -248)">
      <path fill="#ABB0B5" d="M586.123,1940.535l-3.17-2.609c.025-.306.047-.613.047-.926s-.022-.62-.047-.926l3.17-2.609a1,1,0,0,0,.368-1.366l-3-5.2a1,1,0,0,0-1.367-.366l-3.843,1.44a10.963,10.963,0,0,0-1.6-.921L576,1923a1,1,0,0,0-1-1h-6a1,1,0,0,0-1,1l-.676,4.055a10.871,10.871,0,0,0-1.6.922l-3.844-1.441a.985.985,0,0,0-.5-.134,1,1,0,0,0-.868.5l-3,5.2a1,1,0,0,0,.366,1.366l3.171,2.61c-.026.307-.047.614-.047.926s.021.619.047.925l-3.171,2.61a1,1,0,0,0-.367,1.366l3,5.2a1,1,0,0,0,1.367.366l3.844-1.441a10.871,10.871,0,0,0,1.6.922L568,1951a1,1,0,0,0,1,1h6a1,1,0,0,0,1-1l.676-4.054a10.963,10.963,0,0,0,1.6-.921l3.843,1.44a1,1,0,0,0,1.367-.365l3-5.2A1,1,0,0,0,586.123,1940.535Zm-3.935,4.818-3.207-1.2a2,2,0,0,0-1.843.232,9.248,9.248,0,0,1-1.315.754,1.994,1.994,0,0,0-1.12,1.479l-.564,3.384H569.86l-.563-3.383a2,2,0,0,0-1.12-1.48,9.177,9.177,0,0,1-1.312-.753,2,2,0,0,0-1.847-.234l-3.208,1.2-2.138-3.706,2.646-2.178a2,2,0,0,0,.722-1.71c-.024-.288-.04-.529-.04-.759s.016-.471.04-.761a2,2,0,0,0-.722-1.709l-2.646-2.178,2.138-3.705,3.208,1.2a2,2,0,0,0,1.847-.234,9.177,9.177,0,0,1,1.312-.753,2,2,0,0,0,1.12-1.479l.564-3.384h4.278l.564,3.384a1.994,1.994,0,0,0,1.12,1.479,9.248,9.248,0,0,1,1.315.754,2,2,0,0,0,1.843.232l3.207-1.2,2.14,3.705-2.646,2.178a2,2,0,0,0-.722,1.71c.02.25.04.515.04.76s-.02.51-.04.76a2,2,0,0,0,.722,1.71l2.646,2.177Z" />
      <path fill="#ABB0B5" d="M572,1931a6,6,0,1,0,6,6A6,6,0,0,0,572,1931Zm0,10a4,4,0,1,1,4-4A4,4,0,0,1,572,1941Z"/>
    </g>
  </g>
</svg>
