<svg xmlns="http://www.w3.org/2000/svg" width="32" height="32" viewBox="0 0 32 32">
  <g transform="translate(-6966 -1465)">
    <rect width="32" height="32" transform="translate(6966 1465)" fill="none"/>
    <g transform="translate(6410 -268)">
      <path fill="#339AF0" d="M568.705,1752.291a1,1,0,1,0-1.414,1.414l3,3,0,0a1,1,0,0,0,1.416,0l0,0,6-6a1,1,0,0,0-1.414-1.414L571,1754.585Z"/>
      <path fill="#339AF0" d="M575,1735H561a1,1,0,0,0-1,1v26a1,1,0,0,0,1,1h22a1,1,0,0,0,1-1v-18Zm7,26H562v-24h12v7a1,1,0,0,0,1,1h7Z" />
    </g>
  </g>
</svg>
