<svg xmlns="http://www.w3.org/2000/svg" width="20" height="20" viewBox="0 0 20 20">
  <g transform="translate(-2956 -1409)">
    <path d="M2975.707,1409.294a1,1,0,0,0-1.414,0l-18,18a1,1,0,0,0,1.414,1.414l18-18A1,1,0,0,0,2975.707,1409.294Z"/>
    <path d="M2974.02,1414.52l-1.41,1.41a7.692,7.692,0,0,1,1.36,3.07c-.25,1.28-1.61,6-7.97,6a10.055,10.055,0,0,1-2.23-.23l-1.64,1.64a11.976,11.976,0,0,0,3.87.59c9,0,10-8,10-8A10.005,10.005,0,0,0,2974.02,1414.52Z"/>
    <path d="M2959.39,1422.07a7.692,7.692,0,0,1-1.36-3.07c.25-1.28,1.61-6,7.97-6a10.055,10.055,0,0,1,2.23.23l1.64-1.64a11.976,11.976,0,0,0-3.87-.59c-9,0-10,8-10,8a10.005,10.005,0,0,0,1.98,4.48Z"/>
    <path d="M2966,1423a4,4,0,0,0,4-4c0-.15-.01-.29-.02-.44l-4.42,4.42C2965.71,1422.99,2965.85,1423,2966,1423Z"/>
    <path d="M2962,1419c0,.15.01.29.02.44l4.42-4.42c-.15-.01-.29-.02-.44-.02A4,4,0,0,0,2962,1419Z"/>
  </g>
</svg>
