<svg xmlns="http://www.w3.org/2000/svg" width="20" height="18" viewBox="0 0 20 18">
  <g transform="translate(-672 -228)">
    <path d="M2946,782a1,1,0,0,1-1,1h-18a1,1,0,0,1-1-1h0a1,1,0,0,1,1-1h18a1,1,0,0,1,1,1Z" transform="translate(-2254 -553)"/>
    <path d="M2946,790a1,1,0,0,1-1,1h-18a1,1,0,0,1-1-1h0a1,1,0,0,1,1-1h18a1,1,0,0,1,1,1Z" transform="translate(-2254 -553)"/>
    <path d="M2946,798a1,1,0,0,1-1,1h-18a1,1,0,0,1-1-1h0a1,1,0,0,1,1-1h18a1,1,0,0,1,1,1Z" transform="translate(-2254 -553)"/>
    <path d="M2940,786a1,1,0,0,1-1,1h-12a1,1,0,0,1-1-1h0a1,1,0,0,1,1-1h12a1,1,0,0,1,1,1Z" transform="translate(-2248 -553)"/>
    <path d="M2940,794a1,1,0,0,1-1,1h-12a1,1,0,0,1-1-1h0a1,1,0,0,1,1-1h12a1,1,0,0,1,1,1Z" transform="translate(-2248 -553)"/>
  </g>
</svg>
