<svg xmlns="http://www.w3.org/2000/svg" width="24" height="24" viewBox="0 0 24 24">
  <g transform="translate(30 -296)">
    <path d="M175,426v-1.58l-6.29,6.29a1.008,1.008,0,0,1-1.42,0L166,429.42l-5,5V437h2v-1a1,1,0,0,1,2,0v1h2v-3a1,1,0,0,1,2,0v3h2v-5a1,1,0,0,1,2,0v5h2v-7a1,1,0,0,1,2,0v8a1,1,0,0,1-1,1H160a1,1,0,0,1-1-1V422a1,1,0,0,1,2,0v9.58l4.29-4.29a1.008,1.008,0,0,1,1.42,0l1.29,1.29,5.58-5.58H172a1,1,0,0,1,0-2h4a.691.691,0,0,1,.25.04.371.371,0,0,1,.14.04.942.942,0,0,1,.53.53.371.371,0,0,1,.04.14.69.69,0,0,1,.04.25v4a1,1,0,0,1-2,0Z" transform="translate(-186 -122)" fill="#8b9094"/>
    <rect width="24" height="24" transform="translate(-30 296)" fill="none"/>
  </g>
</svg>
