<svg xmlns="http://www.w3.org/2000/svg" width="24" height="24" viewBox="0 0 24 24">
    <rect width="24" height="24" fill="none"/>
    <g transform="translate(-2877.999 -501)">
        <path d="M2900,508c0-.024-.012-.044-.014-.068a.991.991,0,0,0-.279-.639c-.01-.01-.023-.013-.033-.023a1,1,0,0,0-.285-.191,1.121,1.121,0,0,0-.18-.037A.971.971,0,0,0,2899,507h-4a1,1,0,0,0-1,1h0v3h-3a1,1,0,0,0-1,1h0v3h-3a1,1,0,0,0-1,1h0v5h-4V504a1,1,0,1,0-2,0v18h0a1,1,0,0,0,1,1h18a.972.972,0,0,0,.252-.051,1,1,0,0,0,.137-.028.984.984,0,0,0,.29-.2c.009-.008.02-.011.028-.019a.994.994,0,0,0,.279-.64c0-.024.014-.043.014-.067h0V508Zm-4,1h2v12h-2Zm-2,12h-2v-8h2Zm-6-4h2v4h-2Z"/>
        <path d="M2884.707,512.707l5.292-5.293V509a1,1,0,1,0,2,0v-4c0-.019-.01-.034-.01-.052a.994.994,0,0,0-.067-.33.993.993,0,0,0-.913-.616l-.007,0h-4a1,1,0,0,0,0,2h1.586l-5.293,5.292a1,1,0,1,0,1.415,1.415Z"/>
    </g>
</svg>
