<svg xmlns="http://www.w3.org/2000/svg" width="24" height="24" viewBox="0 0 24 24">
  <g transform="translate(-879 -499)">
    <rect width="24" height="24" transform="translate(879 499)" fill="none"/>
    <path d="M368.5,424h-4.086l-3.707-3.707a1,1,0,0,0-1.414,0L355.586,424H351.5a1.5,1.5,0,0,0-1.5,1.5v13a1.5,1.5,0,0,0,1.5,1.5h17a1.5,1.5,0,0,0,1.5-1.5v-13A1.5,1.5,0,0,0,368.5,424Zm-8.5-1.586L361.586,424h-3.172ZM365,435H355a1,1,0,0,1,0-2h10a1,1,0,0,1,0,2Zm0-4H355a1,1,0,0,1,0-2h10a1,1,0,0,1,0,2Z" transform="translate(531 81)" fill="#8b9094"/>
  </g>
</svg>
