<svg xmlns="http://www.w3.org/2000/svg" width="21.999" height="22" viewBox="0 0 21.999 22">
  <g fill="#84D1FA" transform="translate(-1540 -522)">
    <path fill="#84D1FA" d="M1561.87,532.69l-10.56-10.56a.435.435,0,0,0-.62,0l-10.559,10.56a.434.434,0,0,0,0,.62l10.559,10.559a.432.432,0,0,0,.62,0l10.56-10.559A.435.435,0,0,0,1561.87,532.69ZM1551,541.352,1542.648,533l8.352-8.353,8.353,8.353Z"/>
    <path fill="#84D1FA" d="M1547,533a4,4,0,1,0,4-4A4,4,0,0,0,1547,533Zm6,0a2,2,0,1,1-2-2A2,2,0,0,1,1553,533Z"/>
  </g>
</svg>
