<svg xmlns="http://www.w3.org/2000/svg" width="21.999" height="22" viewBox="0 0 21.999 22">
  <g fill="#84D1FA" transform="translate(-1540 -490)">
    <path fill="#84D1FA" d="M1561.87,500.69l-10.56-10.56a.435.435,0,0,0-.62,0l-10.559,10.56a.434.434,0,0,0,0,.62l10.559,10.559a.432.432,0,0,0,.62,0l10.56-10.559A.435.435,0,0,0,1561.87,500.69ZM1551,509.352,1542.648,501l8.352-8.352,8.353,8.352Z"/>
    <path fill="#84D1FA" d="M1550,498v2h-2a1,1,0,0,0,0,2h2v2a1,1,0,0,0,2,0v-2h2a1,1,0,0,0,0-2h-2v-2a1,1,0,0,0-2,0Z"/>
  </g>
</svg>
