<svg xmlns="http://www.w3.org/2000/svg" width="20" height="18" viewBox="0 0 20 18">
  <path fill="#0098ff" d="M3155.707,1418.292l-8-8c-.024-.023-.056-.033-.081-.054A.887.887,0,0,0,3147,1410h0l-.013,0a.979.979,0,0,0-.369.074,1.011,1.011,0,0,0-.319.212l-.006,0h0a1,1,0,0,0-.291.7l0,.01v3h-9a1,1,0,0,0-1,1v8a1,1,0,0,0,1,1h9v3l0,.011a.991.991,0,0,0,.617.912.989.989,0,0,0,.367.074l.014,0h0a1,1,0,0,0,.383-.077,1.007,1.007,0,0,0,.3-.2c.006-.007.016-.009.023-.016l8-8a1,1,0,0,0,0-1.416ZM3148,1423a.99.99,0,0,0-.078-.389,1.009,1.009,0,0,0-.47-.49.672.672,0,0,0-.063-.042A.986.986,0,0,0,3147,1422h-9v-6h9a1,1,0,0,0,1-1v-1.586l5.586,5.586-5.586,5.586Z" transform="translate(-3136 -1410)"/>
</svg>
