<svg xmlns="http://www.w3.org/2000/svg" width="40" height="40" viewBox="0 0 40 40">
  <g transform="translate(-100 -548)">
    <g fill="#cf87ff" fill-opacity="0.1" stroke="#cf87ff" transform="translate(100 548)">
      <path fill="#cf87ff" d="M3,0H39a1,1,0,0,1,1,1V39a1,1,0,0,1-1,1H3a3,3,0,0,1-3-3V3A3,3,0,0,1,3,0Z"/>
      <path fill="#cf87ff" d="M3,.5H39a.5.5,0,0,1,.5.5V39a.5.5,0,0,1-.5.5H3A2.5,2.5,0,0,1,.5,37V3A2.5,2.5,0,0,1,3,.5Z"/>
    </g>
    <g transform="translate(-2906 -941)">
      <path fill="#cf87ff" d="M3035.5,1499h-19a.5.5,0,0,0-.5.5v19a.5.5,0,0,0,.5.5h19a.5.5,0,0,0,.5-.5v-19A.5.5,0,0,0,3035.5,1499Zm-1.5,18h-16v-16h16Z"/>
      <path fill="#cf87ff" d="M3022,1510h3v3a1,1,0,0,0,2,0v-3h3a1,1,0,0,0,0-2h-3v-3a1,1,0,0,0-2,0v3h-3a1,1,0,0,0,0,2Z"/>
    </g>
  </g>
</svg>
