<svg xmlns="http://www.w3.org/2000/svg" width="20" height="15.993" viewBox="0 0 20 15.993">
  <path fill="#F763C1" d="M1600.826,758.531a1.017,1.017,0,0,0,.1-.168,1,1,0,0,0,.044-.219A.868.868,0,0,0,1601,758c0-.006,0-.012,0-.018a.974.974,0,0,0-.039-.2.959.959,0,0,0-.047-.193c0-.005,0-.011,0-.017l-9-14a18.7,18.7,0,0,1-.2-.278.948.948,0,0,0-.17-.125.756.756,0,0,0-.108-.08c-.014-.006-.027,0-.041-.01a.987.987,0,0,0-.208-.051.953.953,0,0,0-.174-.027.986.986,0,0,0-.177.027,1.156,1.156,0,0,0-.2.049c-.014.006-.029,0-.043.011a.829.829,0,0,0-.113.084.914.914,0,0,0-.164.121.947.947,0,0,0-.128.173.827.827,0,0,0-.078.106l-9,14a.119.119,0,0,0,0,.018,1,1,0,0,0-.047.19,1.016,1.016,0,0,0-.039.2c0,.007,0,.012,0,.018a1.154,1.154,0,0,0,.028.142,1.027,1.027,0,0,0,.045.221,1,1,0,0,0,.1.167,1.032,1.032,0,0,0,.1.155.977.977,0,0,0,.187.137.829.829,0,0,0,.113.084.128.128,0,0,0,.017,0,.96.96,0,0,0,.2.049,1.008,1.008,0,0,0,.185.037c.007,0,.012,0,.019,0h18c.007,0,.012,0,.019,0a.927.927,0,0,0,.177-.036.97.97,0,0,0,.211-.051c.005,0,.011,0,.016,0a.829.829,0,0,0,.107-.079,1,1,0,0,0,.192-.141A.954.954,0,0,0,1600.826,758.531Zm-9.826-12.7L1598.18,757h-14.36Z" transform="translate(-1581 -743.007)"/>
</svg>
