<svg xmlns="http://www.w3.org/2000/svg" width="40" height="40" viewBox="0 0 40 40">
  <g transform="translate(-100 -488)">
    <g fill="#93c431" fill-opacity="0.1" stroke="#93c431" transform="translate(100 488)">
      <path fill="#93c431" d="M3,0H39a1,1,0,0,1,1,1V39a1,1,0,0,1-1,1H3a3,3,0,0,1-3-3V3A3,3,0,0,1,3,0Z"/>
      <path fill="#93c431" d="M3,.5H39a.5.5,0,0,1,.5.5V39a.5.5,0,0,1-.5.5H3A2.5,2.5,0,0,1,.5,37V3A2.5,2.5,0,0,1,3,.5Z"/>
    </g>
    <g transform="translate(-3026.001 -881)">
      <path fill="#93c431" d="M3149,1386a1,1,0,0,0,0-2h-7a1,1,0,0,0,0,2Z"/>
      <path fill="#93c431" d="M3150,1388h-7a1,1,0,0,0,0,2h7a1,1,0,0,0,0-2Z"/>
      <path fill="#93c431" d="M3150,1392h-7a1,1,0,0,0,0,2h7a1,1,0,0,0,0-2Z"/>
      <path fill="#93c431" d="M3155.4,1388.7a12.449,12.449,0,0,1-.048-8.276,1,1,0,0,0-.906-1.425H3140.09a3.478,3.478,0,0,0-2.648,1.619c-1.56,2.125-1.875,5.369-.838,8.68a12.459,12.459,0,0,1,.048,8.276,1,1,0,0,0,.906,1.425h14.352a3.478,3.478,0,0,0,2.648-1.619C3156.119,1395.257,3156.433,1392.013,3155.4,1388.7Zm-2.451,7.495c-.433.59-.857.8-1.036.8h-12.979a15.469,15.469,0,0,0-.419-8.3c-1-3.185-.373-5.651.543-6.9.433-.59.856-.8,1.035-.8h12.98a15.459,15.459,0,0,0,.419,8.3C3154.485,1392.484,3153.861,1394.951,3152.946,1396.2Z"/>
    </g>
  </g>
</svg>
