<svg xmlns="http://www.w3.org/2000/svg" width="45" height="45" viewBox="0 0 45 45">
  <g transform="translate(-1739 -246)">
    <path fill="#fef2eb" d="M22.5,0A22.5,22.5,0,1,1,0,22.5,22.5,22.5,0,0,1,22.5,0Z" transform="translate(1739 246)"/>
    <path fill="#f52525" d="M3095.621,372.5l6.97-6.97a1.5,1.5,0,0,0-2.121-2.121l-6.97,6.97-6.97-6.97a1.5,1.5,0,0,0-2.121,2.121l6.97,6.97-6.97,6.97a1.5,1.5,0,0,0,2.122,2.121l6.969-6.969,6.969,6.969a1.5,1.5,0,0,0,2.122-2.121Z" transform="translate(-1331.97 -103.969)"/>
  </g>
</svg>
