<svg xmlns="http://www.w3.org/2000/svg" width="24" height="24" viewBox="0 0 24 24">
  <g transform="translate(-4270 -1112)">
    <rect fill="none" width="24" height="24" transform="translate(4270 1112)"/>
    <path fill="#323232" d="M175.98,1849a1.274,1.274,0,0,1-.01.19,1.057,1.057,0,0,1-.06.19c-.02.04-.02.08-.04.12-.01.02-.03.03-.04.04a1.07,1.07,0,0,1-.14.16c-.05.04-.09.09-.14.13a.163.163,0,0,0-.05.04l-12,7a.127.127,0,0,1-.06.01.615.615,0,0,1-.19.07,1.061,1.061,0,0,1-.19.04c-.02,0-.041.01-.06.01a.527.527,0,0,1-.12-.03.644.644,0,0,1-.2-.03l-.18-.09a1.3,1.3,0,0,1-.15-.1c-.05-.05-.09-.1-.14-.16-.02-.03-.06-.05-.08-.09a.127.127,0,0,1-.01-.06.619.619,0,0,1-.07-.19,1.171,1.171,0,0,1-.04-.19c0-.02-.01-.04-.01-.06v-14c0-.02.01-.04.01-.06a1.442,1.442,0,0,1,.04-.19.8.8,0,0,1,.07-.2.109.109,0,0,1,.01-.05c.03-.04.06-.06.08-.09.05-.06.09-.11.14-.16a.863.863,0,0,1,.16-.1c.05-.03.11-.06.17-.09a1.179,1.179,0,0,1,.2-.04c.04,0,.08-.02.12-.02.019,0,.04.01.06.01a1.285,1.285,0,0,1,.19.04.79.79,0,0,1,.2.07.109.109,0,0,1,.05.01l12,7c.019.01.03.03.05.04a1.639,1.639,0,0,1,.14.13,1.07,1.07,0,0,1,.14.16c.01.01.03.02.04.04s.02.07.03.11a.743.743,0,0,1,.07.21A1.03,1.03,0,0,1,175.98,1849Z" transform="translate(4114 -725)"/>
  </g>
</svg>
