<svg xmlns="http://www.w3.org/2000/svg" width="196.189" height="24.999" viewBox="0 0 196.189 24.999">
  <g transform="translate(-182 -306.389)">
    <g>
      <g transform="translate(211.594 310.279)">
        <path fill="#ffffff" d="M219.88,312.279h5.872c4.231,0,6.2,1.879,6.2,5.16v.087c0,3.238-2.181,4.987-6,4.987h-1.663v5.2h-4.4Zm5.678,7.211c1.425,0,2.181-.67,2.181-1.943v-.086c0-1.317-.777-1.857-2.159-1.857h-1.3v3.886Z" transform="translate(-219.88 -311.567)"/>
        <path fill="#ffffff" d="M236.434,317.543H240.3v2.245a3.558,3.558,0,0,1,3.649-2.4V321c-2.353-.064-3.649.67-3.649,2.484v5.354h-3.864Z" transform="translate(-223.501 -312.685)"/>
        <path fill="#ffffff" d="M246.328,323.286v-.173c0-3.627,2.7-5.916,6.2-5.916,3.477,0,6.153,2.224,6.153,5.808v.173c0,3.67-2.7,5.872-6.174,5.872S246.328,326.935,246.328,323.286Zm8.419-.065v-.173c0-1.9-.755-2.958-2.224-2.958-1.446,0-2.245,1.015-2.245,2.915v.173c0,1.943.755,3,2.245,3C253.97,326.18,254.747,325.1,254.747,323.222Z" transform="translate(-225.665 -312.643)"/>
        <path fill="#ffffff" d="M262.494,323.286v-.173a5.68,5.68,0,0,1,6.024-5.916c2.763,0,5.311,1.209,5.527,4.642h-3.627A1.669,1.669,0,0,0,268.6,320.2c-1.36,0-2.159.971-2.159,2.871v.173c0,1.964.756,2.979,2.224,2.979a1.881,1.881,0,0,0,1.965-1.878h3.476c-.108,2.85-2.03,4.706-5.678,4.706C265.063,329.051,262.494,327.086,262.494,323.286Z" transform="translate(-229.201 -312.643)"/>
        <path fill="#ffffff" d="M277.583,323.286v-.173a5.776,5.776,0,0,1,6.11-5.916c3.087,0,5.742,1.77,5.742,5.829v1.015h-7.945a2.254,2.254,0,0,0,2.353,2.353c1.274,0,1.813-.583,1.965-1.338h3.627c-.345,2.548-2.31,3.994-5.721,3.994C280.174,329.051,277.583,326.978,277.583,323.286Zm8.1-1.425c-.065-1.36-.734-2.116-1.986-2.116a2.148,2.148,0,0,0-2.159,2.116Z" transform="translate(-232.501 -312.643)"/>
        <path fill="#ffffff" d="M293.031,325.208h3.563c.129.82.5,1.274,1.6,1.274.95,0,1.381-.367,1.381-.928,0-.54-.54-.8-2.094-1.015-3.023-.389-4.3-1.274-4.3-3.627,0-2.5,2.224-3.713,4.836-3.713,2.784,0,4.728.95,4.987,3.649h-3.5a1.261,1.261,0,0,0-1.446-1.123c-.842,0-1.274.366-1.274.884,0,.54.518.756,1.9.928,3.131.389,4.642,1.209,4.642,3.627,0,2.677-1.986,3.886-5.117,3.886C295,329.051,293.118,327.712,293.031,325.208Z" transform="translate(-235.88 -312.643)"/>
        <path fill="#ffffff" d="M306.379,325.208h3.563c.129.82.5,1.274,1.6,1.274.95,0,1.381-.367,1.381-.928,0-.54-.539-.8-2.094-1.015-3.023-.389-4.3-1.274-4.3-3.627,0-2.5,2.224-3.713,4.836-3.713,2.784,0,4.728.95,4.987,3.649h-3.5a1.261,1.261,0,0,0-1.446-1.123c-.842,0-1.274.366-1.274.884,0,.54.519.756,1.9.928,3.131.389,4.642,1.209,4.642,3.627,0,2.677-1.987,3.886-5.117,3.886C308.344,329.051,306.466,327.712,306.379,325.208Z" transform="translate(-238.799 -312.643)"/>
        <path fill="#ffffff" d="M326.691,312.279h4.685c5.376,0,7.989,3.067,7.989,7.557v.195c0,4.491-2.613,7.686-8.032,7.686h-4.642Zm4.555,13.17c3.455,0,5.117-1.986,5.117-5.4v-.173c0-3.324-1.512-5.332-5.138-5.332h-1.663v10.9Z" transform="translate(-243.242 -311.567)"/>
        <path fill="#ffffff" d="M343.936,323.283v-.173a5.489,5.489,0,0,1,5.613-5.829c2.807,0,5.333,1.663,5.333,5.7v.755h-8.269c.087,2.138,1.166,3.347,3.109,3.347,1.576,0,2.4-.627,2.591-1.727h2.527c-.367,2.375-2.289,3.67-5.182,3.67A5.41,5.41,0,0,1,343.936,323.283Zm8.355-1.3c-.13-1.943-1.123-2.806-2.742-2.806a2.9,2.9,0,0,0-2.893,2.806Z" transform="translate(-247.014 -312.661)"/>
        <path fill="#ffffff" d="M358.72,325.291h2.462c.129,1.145.712,1.813,2.245,1.813,1.4,0,2.03-.5,2.03-1.446,0-.928-.756-1.273-2.418-1.554-2.979-.475-4.081-1.317-4.081-3.433,0-2.267,2.116-3.39,4.231-3.39,2.31,0,4.145.864,4.426,3.411H365.2a1.741,1.741,0,0,0-2.008-1.511c-1.123,0-1.791.54-1.791,1.338,0,.821.539,1.145,2.331,1.447,2.656.41,4.231,1.058,4.231,3.454,0,2.288-1.619,3.606-4.512,3.606C360.534,329.026,358.828,327.688,358.72,325.291Z" transform="translate(-250.247 -312.661)"/>
        <path fill="#ffffff" d="M371.958,312.879a1.556,1.556,0,1,1,1.554,1.489A1.512,1.512,0,0,1,371.958,312.879Zm.28,3.346h2.612v11.292h-2.612Z" transform="translate(-253.143 -311.368)"/>
        <path fill="#ffffff" d="M377.642,329.2h2.634c.216,1.123,1.08,1.77,2.785,1.77,2.029,0,3.152-1.015,3.152-3.044v-1.663a4.4,4.4,0,0,1-3.692,2.095c-2.828,0-5.009-2.116-5.009-5.376v-.152c0-3.174,2.159-5.549,5.074-5.549a3.893,3.893,0,0,1,3.627,1.965v-1.727h2.613v10.45c-.021,3.324-2.245,4.987-5.742,4.987C379.542,332.955,377.944,331.357,377.642,329.2Zm8.657-6.3v-.152c0-2.137-1.166-3.411-3.044-3.411-1.944,0-3.066,1.4-3.066,3.455v.173c0,2.094,1.3,3.389,2.979,3.389C384.982,326.349,386.3,325.053,386.3,322.895Z" transform="translate(-254.358 -312.661)"/>
        <path fill="#ffffff" d="M394.729,317.519h2.613v1.792a3.887,3.887,0,0,1,3.649-2.03c2.266,0,3.864,1.317,3.864,4.426v7.1h-2.613v-6.866c0-1.706-.691-2.483-2.245-2.483a2.5,2.5,0,0,0-2.656,2.7v6.65h-2.613Z" transform="translate(-258.123 -312.661)"/>
        <path fill="#ffffff" d="M409.32,323.283v-.173a5.49,5.49,0,0,1,5.613-5.829c2.807,0,5.333,1.663,5.333,5.7v.755H412c.086,2.138,1.166,3.347,3.109,3.347,1.576,0,2.4-.627,2.591-1.727h2.526c-.366,2.375-2.288,3.67-5.181,3.67A5.411,5.411,0,0,1,409.32,323.283Zm8.356-1.3c-.13-1.943-1.123-2.806-2.742-2.806a2.9,2.9,0,0,0-2.893,2.806Z" transform="translate(-261.315 -312.661)"/>
        <path fill="#ffffff" d="M425.073,317.537h2.613v2.116a3.762,3.762,0,0,1,3.67-2.288v2.44c-2.288.021-3.67.755-3.67,3.152v5.873h-2.613Z" transform="translate(-264.76 -312.679)"/>
      </g>
      <g transform="translate(182 306.389)">
        <g>
          <path fill="#ffffff" d="M196.66,325.839a4.789,4.789,0,1,0,0-9.578v4.788h-4.788A4.788,4.788,0,0,0,196.66,325.839Z" transform="translate(-184.159 -308.548)"/>
          <path fill="#ffffff" d="M194.5,306.389h0v3.037h0a9.464,9.464,0,1,1-9.462,9.464H182a12.5,12.5,0,1,0,12.5-12.5Z" transform="translate(-182 -306.389)"/>
          <path fill="#ffffff" d="M185.889,319.74h4.674a4.785,4.785,0,0,1,4.788-4.788v-4.676A9.465,9.465,0,0,0,185.889,319.74Z" transform="translate(-182.851 -307.239)"/>
        </g>
      </g>
    </g>
  </g>
</svg>
