<svg xmlns="http://www.w3.org/2000/svg" width="20" height="20" viewBox="0 0 20 20">
  <defs>
    <style>
      .cls-1 {
        fill: #fff;
      }
    </style>
  </defs>
  <path class="cls-1" d="M1768.5,368h19a.5.5,0,0,1,.5.5V374a1,1,0,0,1-2,0v-4h-16v16h16v-5h-7.59l1.3,1.29a1,1,0,0,1-1.42,1.42l-3-3a1.032,1.032,0,0,1-.21-.33,1,1,0,0,1,0-.76,1.032,1.032,0,0,1,.21-.33l3-3a1,1,0,0,1,1.42,1.42l-1.3,1.29H1787a1,1,0,0,1,1,1v7.5a.5.5,0,0,1-.5.5h-19a.5.5,0,0,1-.5-.5v-19A.5.5,0,0,1,1768.5,368Z" transform="translate(-1768 -368)"/>
</svg>
