<svg xmlns="http://www.w3.org/2000/svg" width="24" height="24" viewBox="0 0 24 24">
  <path fill="#ffffff" d="M3473.964,54.815a1.066,1.066,0,0,0-.039-.194,1,1,0,0,0-.224-.333l-4.992-4.993a1,1,0,0,0-.328-.218.989.989,0,0,0-.308-.062c-.025,0-.048-.015-.073-.015h-11a1,1,0,0,0-.707.293c-.015.015-.021.038-.036.054A.984.984,0,0,0,3456,50h0V66a1,1,0,0,0,1,1h16a.986.986,0,0,0,.664-.264c.013-.011.03-.016.042-.028A1,1,0,0,0,3474,66V55A.95.95,0,0,0,3473.964,54.815ZM3458,51h2v4a.991.991,0,0,0,.563.889.5.5,0,0,0,.048.032A.986.986,0,0,0,3461,56h7a1,1,0,0,0,1-1V52.415l3,3V65h-14Zm9,3h-5V51h5Z" transform="translate(-3453 -46)" />
</svg>
