<svg xmlns="http://www.w3.org/2000/svg" width="24" height="24" viewBox="0 0 24 24">
  <path fill="#ffffff" d="M3471.89,125a6.934,6.934,0,0,0-4.89-2h-7.585l2.292-2.292a1,1,0,0,0-1.415-1.415l-4,4a1.038,1.038,0,0,0-.1.147.941.941,0,0,0-.117.177l0,.008a.394.394,0,0,0-.008.047.98.98,0,0,0-.06.3c0,.009,0,.016,0,.025s0,.016,0,.025a.98.98,0,0,0,.06.3.394.394,0,0,0,.008.047l0,.008a.941.941,0,0,0,.117.177,1.038,1.038,0,0,0,.1.147l4,4a1,1,0,1,0,1.415-1.415L3459.415,125H3467a5,5,0,0,1,0,10h-7a1,1,0,0,0,0,2h7a6.994,6.994,0,0,0,4.89-12Z" transform="translate(-3453 -116)"/>
</svg>
