<svg xmlns="http://www.w3.org/2000/svg" width="24" height="20" viewBox="0 0 24 20">
  <g transform="translate(-1768 -489)">
    <path fill="#ffffff" d="M1772,496a3,3,0,1,0,3-3A3,3,0,0,0,1772,496Zm4,0a1,1,0,1,1-1-1A1,1,0,0,1,1776,496Z"/>
    <path fill="#ffffff" d="M1791.707,503.293a1,1,0,0,0-1.414,0L1788,505.586V489.5a.5.5,0,0,0-.5-.5h-19a.5.5,0,0,0-.5.5v19a.5.5,0,0,0,.5.5H1782a1,1,0,0,0,0-2h-10.586l4.586-4.586,1.293,1.293a1,1,0,0,0,1.414,0l5-5a1,1,0,0,0-1.415-1.414L1778,501.585l-1.292-1.292a1,1,0,0,0-1.416,0L1770,505.585V491h16v14.586l-2.293-2.293a1,1,0,0,0-1.414,1.414l4,4a1.068,1.068,0,0,0,.133.089.81.81,0,0,0,.574.2h0l.008,0a.989.989,0,0,0,.375-.076.947.947,0,0,0,.2-.135.979.979,0,0,0,.121-.08l4-4A1,1,0,0,0,1791.707,503.293Z"/>
  </g>
</svg>
