<svg xmlns="http://www.w3.org/2000/svg" width="24" height="24" viewBox="0 0 24 24">
  <g transform="translate(-3453 -186)">
    <path fill="#ffffff" d="M3474.5,188h-19a.5.5,0,0,0-.5.5v19a.5.5,0,0,0,.5.5h19a.5.5,0,0,0,.5-.5v-19A.5.5,0,0,0,3474.5,188Zm-1.5,18h-16V190h16Z"/>
    <path fill="#ffffff" d="M3469,198a1.025,1.025,0,0,1-.29.71l-4,4a1.03,1.03,0,0,1-.33.21.874.874,0,0,1-.27.06c-.04,0-.07.02-.11.02a.493.493,0,0,1-.13-.03.7.7,0,0,1-.25-.05.956.956,0,0,1-.54-.54.828.828,0,0,1-.07-.34c0-.01-.01-.03-.01-.04v-8.01a.946.946,0,0,1,.08-.37.983.983,0,0,1,.21-.32v-.01c.01-.01.02-.01.03-.02a1.049,1.049,0,0,1,.67-.27h.01a1,1,0,0,1,.38.08.7.7,0,0,1,.23.15.537.537,0,0,1,.1.06l4,4A1.025,1.025,0,0,1,3469,198Z"/>
  </g>
</svg>
