<svg xmlns="http://www.w3.org/2000/svg" width="24" height="24" viewBox="0 0 24 24">
  <path fill="#ffffff" d="M111,314c0-.007,0-.013,0-.019a.949.949,0,0,0-.273-.665c-.007-.007-.009-.017-.016-.024l-3-3c-.023-.022-.053-.031-.077-.051a.979.979,0,0,0-.247-.165A1,1,0,0,0,107,310H94a1,1,0,0,0-1,1v16a1,1,0,0,0,1,1h16a.991.991,0,0,0,.389-.079.687.687,0,0,0,.063-.042A.965.965,0,0,0,111,327Zm-16-2h2v4a.987.987,0,0,0,.079.389c.007.018.024.031.032.049A.992.992,0,0,0,98,317h7a1,1,0,0,0,1-1v-4h.587L109,314.414V326H95Zm9,3H99v-3h5Z" transform="translate(-90 -307)"/>
</svg>
