<svg xmlns="http://www.w3.org/2000/svg" width="85" height="85" viewBox="0 0 85 85">
  <g transform="translate(-3481 -255)">
    <path fill="#acb4bf" d="M3565.05,255h-83.1a.941.941,0,0,0-.95.94v83.12a.941.941,0,0,0,.95.94h83.1a.941.941,0,0,0,.95-.94V255.94A.941.941,0,0,0,3565.05,255ZM3564,338h-81V257h81Z"/>
    <circle fill="#acb4bf" cx="12" cy="12" r="12" transform="translate(3489 263)"/>
    <path fill="#acb4bf" d="M3558,285.99V331a1,1,0,0,1-1,1h-67a.982.982,0,0,1-.73-.33.963.963,0,0,1-.27-.67V316.99a.985.985,0,0,1,.08-.37,1.149,1.149,0,0,1,.21-.33l23-23a1.008,1.008,0,0,1,1.42,0l8.29,8.3,25.29-25.3a1.008,1.008,0,0,1,1.42,0l9,9c.01.01.01.02.02.03a.952.952,0,0,1,.19.3A.985.985,0,0,1,3558,285.99Z"/>
  </g>
</svg>
