<svg xmlns="http://www.w3.org/2000/svg" width="18" height="20" viewBox="0 0 18 20">
  <g id="그룹_2566" data-name="그룹 2566" transform="translate(-2987 -750)">
    <path id="패스_270" data-name="패스 270" d="M3004,754h-16a1,1,0,0,0,0,2h1v13.5a.5.5,0,0,0,.5.5h13a.5.5,0,0,0,.5-.5V756h1a1,1,0,0,0,0-2Zm-3,14h-10V756h10Z" fill="#ccced1"/>
    <path id="패스_271" data-name="패스 271" d="M2993,752h6a1,1,0,0,0,0-2h-6a1,1,0,0,0,0,2Z" fill="#ccced1"/>
    <path id="패스_272" data-name="패스 272" d="M2994,766a1,1,0,0,0,1-1v-6a1,1,0,0,0-2,0v6A1,1,0,0,0,2994,766Z" fill="#ccced1"/>
    <path id="패스_273" data-name="패스 273" d="M2998,766a1,1,0,0,0,1-1v-6a1,1,0,0,0-2,0v6A1,1,0,0,0,2998,766Z" fill="#ccced1"/>
  </g>
</svg>
