<?xml version="1.0" encoding="utf-8"?>
<!-- Generator: Adobe Illustrator 15.1.0, SVG Export Plug-In  -->
<!DOCTYPE svg PUBLIC "-//W3C//DTD SVG 1.1//EN" "http://www.w3.org/Graphics/SVG/1.1/DTD/svg11.dtd" [
	<!ENTITY ns_flows "http://ns.adobe.com/Flows/1.0/">
]>
<svg version="1.1"
	 xmlns="http://www.w3.org/2000/svg" xmlns:xlink="http://www.w3.org/1999/xlink" xmlns:a="http://ns.adobe.com/AdobeSVGViewerExtensions/3.0/"
	 x="0px" y="0px" width="36px" height="36px" viewBox="-2 0 36 36" style="enable-background:new -2 0 36 36;" xml:space="preserve"
	>
<defs>
</defs>
<path style="fill:#FFFFFF;" d="M10,26v-9c0-0.5,0.5-1,1-1h16V9h-7.5C19.2,9,19,8.8,19,8.5V1H1v34h26v-8H11C10.5,27,10,26.5,10,26z"
	/>
<polygon style="fill:#0050FF;" points="22,22.3 22,20.7 21.3,20 20,20 20,23 21.3,23 "/>
<rect x="15" y="20" style="fill:#0050FF;" width="2" height="1"/>
<polygon style="opacity:0.15;fill:#0050FF;" points="20,1.7 20,8 26.3,8 "/>
<path style="fill:#FFFFFF;" d="M14.5,24c0.3,0,0.5-0.2,0.5-0.5V22h2.5c0.3,0,0.5-0.2,0.5-0.5v-2c0-0.3-0.2-0.5-0.5-0.5h-3
	c-0.3,0-0.5,0.2-0.5,0.5v4C14,23.8,14.2,24,14.5,24z M15,20h2v1h-2V20z"/>
<path style="fill:#FFFFFF;" d="M24.5,24c0.3,0,0.5-0.2,0.5-0.5V22h2.5c0.3,0,0.5-0.2,0.5-0.5S27.8,21,27.5,21H25v-1h2.5
	c0.3,0,0.5-0.2,0.5-0.5S27.8,19,27.5,19h-3c-0.3,0-0.5,0.2-0.5,0.5v4C24,23.8,24.2,24,24.5,24z"/>
<path style="fill:#FFFFFF;" d="M19.5,24h2c0.1,0,0.1,0,0.2,0c0.1,0,0.1-0.1,0.2-0.1l1-1c0.1,0,0.1-0.1,0.1-0.2c0-0.1,0-0.1,0-0.2v-2
	c0-0.1,0-0.1,0-0.2c0-0.1-0.1-0.1-0.1-0.2l-1-1c-0.1-0.1-0.1-0.1-0.3-0.1c0,0-0.1,0-0.1,0h-2c-0.3,0-0.5,0.2-0.5,0.5v4
	C19,23.8,19.2,24,19.5,24z M20,20h1.3l0.7,0.7v1.6L21.3,23H20V20z"/>
<path style="fill:#0050FF;" d="M31,16h-3V8.5c0-0.1,0-0.1,0-0.2v0c0-0.1-0.1-0.1-0.1-0.2l-0.1-0.1L27,7.3L20.7,1l-0.8-0.8l-0.1-0.1
	c0-0.1-0.1-0.1-0.2-0.1h0c-0.1,0-0.1,0-0.2,0H1C0.5,0,0,0.5,0,1v34c0,0.5,0.5,1,1,1h26c0.5,0,1-0.5,1-1v-8h3c0.5,0,1-0.5,1-1v-9
	C32,16.5,31.5,16,31,16z M14,23.5v-4c0-0.3,0.2-0.5,0.5-0.5h3c0.3,0,0.5,0.2,0.5,0.5v2c0,0.3-0.2,0.5-0.5,0.5H15v1.5
	c0,0.3-0.2,0.5-0.5,0.5S14,23.8,14,23.5z M19,23.5v-4c0-0.3,0.2-0.5,0.5-0.5h2c0,0,0.1,0,0.1,0c0.1,0,0.2,0.1,0.3,0.1l1,1
	c0.1,0.1,0.1,0.1,0.1,0.2c0,0.1,0,0.1,0,0.2v2c0,0.1,0,0.1,0,0.2c0,0.1-0.1,0.1-0.1,0.2l-1,1c0,0.1-0.1,0.1-0.2,0.1
	c-0.1,0-0.1,0-0.2,0h-2C19.2,24,19,23.8,19,23.5z M27.5,21c0.3,0,0.5,0.2,0.5,0.5S27.8,22,27.5,22H25v1.5c0,0.3-0.2,0.5-0.5,0.5
	S24,23.8,24,23.5v-4c0-0.3,0.2-0.5,0.5-0.5h3c0.3,0,0.5,0.2,0.5,0.5S27.8,20,27.5,20H25v1H27.5z M20,1.7L26.3,8H20V1.7z M27,35H1V1
	h18v7.5C19,8.8,19.2,9,19.5,9H27v7H11c-0.5,0-1,0.5-1,1v9c0,0.5,0.5,1,1,1h16V35z"/>
</svg>
