<svg xmlns="http://www.w3.org/2000/svg" width="274" height="40" viewBox="0 0 274 40">
  <defs>
    <style>
      .logo-path {
        fill: rgba(255, 255, 255, 1);
      }
    </style>
  </defs>
  <g transform="translate(-80 -80)">
    <g transform="translate(-5166.262 -1624.5)">
      <g transform="translate(5297.718 1711.888)">
        <g>
          <path class="logo-path" d="M5298.949,1711.888h21.741v4.956l-13.968,14.551h14.468v5.327H5297.6v-5.144l13.824-14.4h-12.472Z" transform="translate(-5297.597 -1711.888)"/>
          <path class="logo-path" d="M5344.169,1729.44H5330.35a4.43,4.43,0,0,0,.9,2.463,3.273,3.273,0,0,0,2.608,1.16,3.956,3.956,0,0,0,1.932-.5,4.586,4.586,0,0,0,1.205-1.13l6.783.635a9.655,9.655,0,0,1-3.762,3.875,13.721,13.721,0,0,1-6.324,1.174,12.981,12.981,0,0,1-5.629-1.007,8.276,8.276,0,0,1-3.4-3.2,9.654,9.654,0,0,1-1.346-5.154,9.047,9.047,0,0,1,2.7-6.823,10.307,10.307,0,0,1,7.468-2.607,13.319,13.319,0,0,1,6.108,1.167,7.886,7.886,0,0,1,3.4,3.391,12.384,12.384,0,0,1,1.17,5.781Zm-7.035-3.3a4.592,4.592,0,0,0-1.073-2.866,3.353,3.353,0,0,0-4.9.442,4.781,4.781,0,0,0-.792,2.424Z" transform="translate(-5297.597 -1711.888)"/>
          <path class="logo-path" d="M5347.365,1718.711h6.418v2.935a9.57,9.57,0,0,1,2.918-2.557,7.729,7.729,0,0,1,3.6-.769,5.9,5.9,0,0,1,4.488,1.7q1.62,1.7,1.62,5.262v11.438h-6.927v-9.9a3.609,3.609,0,0,0-.628-2.4,2.262,2.262,0,0,0-1.774-.7,2.517,2.517,0,0,0-2.039.947,5.508,5.508,0,0,0-.781,3.405v8.649h-6.893Z" transform="translate(-5297.597 -1711.888)"/>
          <path class="logo-path" d="M5370.773,1711.888h6.893v4.689h-6.893Zm0,6.823h6.893v18.011h-6.893Z" transform="translate(-5297.597 -1711.888)"/>
          <path class="logo-path" d="M5401.061,1736.722h-6.437v-2.93a9.5,9.5,0,0,1-2.91,2.559,7.725,7.725,0,0,1-3.6.763,5.873,5.873,0,0,1-4.47-1.7q-1.619-1.7-1.62-5.245v-11.455h6.926v9.888a3.626,3.626,0,0,0,.63,2.4,2.245,2.245,0,0,0,1.771.708,2.534,2.534,0,0,0,2.033-.943,5.485,5.485,0,0,0,.789-3.409v-8.648h6.893Z" transform="translate(-5297.597 -1711.888)"/>
          <path class="logo-path" d="M5404.043,1731.711l6.856-.637a3.352,3.352,0,0,0,1.179,1.746,3.488,3.488,0,0,0,2.026.529,3.423,3.423,0,0,0,2.14-.591,1.328,1.328,0,0,0,.588-1.1,1.261,1.261,0,0,0-.777-1.148,14.173,14.173,0,0,0-2.963-.708,30.473,30.473,0,0,1-4.991-1.159,5.282,5.282,0,0,1-2.354-1.8,4.684,4.684,0,0,1-.958-2.9,4.739,4.739,0,0,1,1.034-3.066,6.153,6.153,0,0,1,2.847-1.922,15.124,15.124,0,0,1,4.864-.633,16.693,16.693,0,0,1,4.755.493,6.27,6.27,0,0,1,2.561,1.529,8.052,8.052,0,0,1,1.7,2.809l-6.535.638a2.24,2.24,0,0,0-.849-1.269,3.448,3.448,0,0,0-1.962-.54,2.788,2.788,0,0,0-1.7.413,1.23,1.23,0,0,0-.534,1.005,1.077,1.077,0,0,0,.671,1,10.981,10.981,0,0,0,2.94.607,20.1,20.1,0,0,1,5.116,1.081,5.647,5.647,0,0,1,2.57,1.977,4.852,4.852,0,0,1,.89,2.822,5.55,5.55,0,0,1-.939,3.02,6.319,6.319,0,0,1-2.965,2.34,14.191,14.191,0,0,1-5.511.872q-4.925,0-7.015-1.408A6.306,6.306,0,0,1,5404.043,1731.711Z" transform="translate(-5297.597 -1711.888)"/>
        </g>
      </g>
      <g transform="translate(5432.147 1711.9)">
        <path class="logo-path" d="M5431.8,1712.308h7.433v24.007H5431.8Z" transform="translate(-5431.799 -1711.9)"/>
        <path class="logo-path" d="M5442.868,1712.308h22.551v5.926h-7.567v18.081h-7.418v-18.081h-7.566Z" transform="translate(-5431.799 -1711.9)"/>
        <path class="logo-path" d="M5467.481,1728.373l7.058-.443a5.369,5.369,0,0,0,.933,2.619,3.923,3.923,0,0,0,3.274,1.458,3.637,3.637,0,0,0,2.449-.744,2.23,2.23,0,0,0,.86-1.73,2.2,2.2,0,0,0-.821-1.668,9.387,9.387,0,0,0-3.8-1.391q-4.879-1.1-6.959-2.917a5.856,5.856,0,0,1-2.094-4.631,6.292,6.292,0,0,1,1.071-3.5,7.113,7.113,0,0,1,3.226-2.586,15.084,15.084,0,0,1,5.9-.939q4.6,0,7.016,1.709a7.376,7.376,0,0,1,2.875,5.444l-6.992.411a3.264,3.264,0,0,0-3.635-3.1,2.982,2.982,0,0,0-1.95.55,1.679,1.679,0,0,0-.654,1.336,1.341,1.341,0,0,0,.541,1.031,6.087,6.087,0,0,0,2.488.883,31.228,31.228,0,0,1,6.969,2.122,7.316,7.316,0,0,1,3.063,2.661,6.762,6.762,0,0,1,.957,3.555,7.611,7.611,0,0,1-1.279,4.258,8,8,0,0,1-3.571,2.953,14.349,14.349,0,0,1-5.777,1.006q-6.126,0-8.485-2.358A9.3,9.3,0,0,1,5467.481,1728.373Z" transform="translate(-5431.799 -1711.9)"/>
        <path class="logo-path" d="M5492.914,1712.308h9.753l3.763,14.606,3.736-14.606h9.748v24.007h-6.076v-18.307l-4.68,18.307h-5.5l-4.673-18.307v18.307h-6.073Z" transform="translate(-5431.799 -1711.9)"/>
      </g>
      <g transform="translate(5246.262 1704.5)">
        <g>
          <g>
            <path class="logo-path" d="M5266.262,1732.164a7.663,7.663,0,1,0,0-15.326v7.665H5258.6A7.66,7.66,0,0,0,5266.262,1732.164Z" transform="translate(-5246.262 -1704.5)"/>
            <path class="logo-path" d="M5266.262,1704.5h0v4.862h0a15.141,15.141,0,1,1-15.139,15.141h-4.861a20,20,0,1,0,20-20Z" transform="translate(-5246.262 -1704.5)"/>
            <path class="logo-path" d="M5251.123,1724.5h7.474a7.661,7.661,0,0,1,7.665-7.665v-7.476A15.143,15.143,0,0,0,5251.123,1724.5Z" transform="translate(-5246.262 -1704.5)"/>
          </g>
        </g>
      </g>
    </g>
  </g>
</svg>
