<svg xmlns="http://www.w3.org/2000/svg" width="20" height="20" viewBox="0 0 20 20">
  <g transform="translate(-20 -130)">
    <path d="M39.5,142H38V130.5a.5.5,0,0,0-.5-.5h-15a.5.5,0,0,0-.5.5V142H20.5a.5.5,0,0,0-.5.5v7a.5.5,0,0,0,.5.5h19a.5.5,0,0,0,.5-.5v-7A.5.5,0,0,0,39.5,142ZM24,132H36v10H24Zm14,16H22v-4H38Z"/>
    <path d="M33,134H27a1,1,0,0,0,0,2h6a1,1,0,0,0,0-2Z"/>
    <path d="M33,138H27a1,1,0,0,0,0,2h6a1,1,0,0,0,0-2Z"/>
    <circle cx="1" cy="1" r="1" transform="translate(29 145)"/>
  </g>
</svg>
