<?xml version="1.0" encoding="utf-8"?>
<!-- Generator: Adobe Illustrator 15.1.0, SVG Export Plug-In  -->
<!DOCTYPE svg PUBLIC "-//W3C//DTD SVG 1.1//EN" "http://www.w3.org/Graphics/SVG/1.1/DTD/svg11.dtd" [
	<!ENTITY ns_flows "http://ns.adobe.com/Flows/1.0/">
]>
<svg version="1.1"
	 xmlns="http://www.w3.org/2000/svg" xmlns:xlink="http://www.w3.org/1999/xlink" xmlns:a="http://ns.adobe.com/AdobeSVGViewerExtensions/3.0/"
	 x="0px" y="0px" width="24px" height="24px" viewBox="-4 -4 24 24" style="enable-background:new -4 -4 24 24;"
	 xml:space="preserve">
<defs>
</defs>
<path style="opacity:0.7;fill:#5C6776;" d="M15.5,8H13V4.5c0-0.0600586-0.0097656-0.1298828-0.0400391-0.1899414V4.2998047
	c-0.0302734-0.0595703-0.0595703-0.1098633-0.1103516-0.1499023l-0.0693359-0.0698242L9.7001953,1L8.9199219,0.2202148
	L8.8603516,0.1499023C8.8095703,0.1000977,8.7597656,0.0698242,8.7001953,0.0400391H8.6904297
	C8.6298828,0.0097656,8.5595703,0,8.5,0H1C0.4501953,0,0,0.4501953,0,1v14c0,0.5498047,0.4501953,1,1,1h11
	c0.5498047,0,1-0.4501953,1-1v-2h2.5c0.2802734,0,0.5-0.2207031,0.5-0.5v-4C16,8.2202148,15.7802734,8,15.5,8z M9,1.7099609
	L11.2900391,4H9V1.7099609z M12,15H1V1h7v3.5C8,4.7797852,8.2197266,5,8.5,5H12v3h-1V7.5C11,7.2202148,10.7802734,7,10.5,7
	c-0.0595703,0-0.1298828,0.0097656-0.1904297,0.0400391c-0.0693359,0.0200195-0.1191406,0.0600586-0.1699219,0.1098633
	L7.1503906,10.140625C7.0498047,10.2402344,7,10.3701172,7,10.5s0.0498047,0.2597656,0.1503906,0.359375l2.9892578,2.9902344
	c0.0507813,0.0507813,0.1005859,0.0898438,0.1699219,0.1103516C10.3701172,13.9902344,10.4404297,14,10.5,14
	c0.2802734,0,0.5-0.2207031,0.5-0.5V13h1V15z M15,12h-2h-1h-1.5c-0.2197266,0-0.4003906,0.140625-0.4697266,0.3300781
	L8.2099609,10.5l1.8203125-1.8300781C10.0996094,8.8598633,10.2802734,9,10.5,9H12h1h2V12z"/>
</svg>
