<svg xmlns="http://www.w3.org/2000/svg" width="24" height="24" viewBox="0 0 24 24">
  <g transform="translate(-4062 -980)">
    <rect fill="none" width="24" height="24" transform="translate(4062 980)"/>
    <g transform="translate(3906 328)">
      <path fill="#222529" d="M161,672a2.006,2.006,0,0,0,2,2h10a2.006,2.006,0,0,0,2-2V658H161Zm2-12h10v12H163Z"/>
      <path fill="#222529" d="M166,662a1,1,0,0,0-1,1v6a1,1,0,0,0,2,0v-6A1,1,0,0,0,166,662Z"/>
      <path fill="#222529" d="M170,662a1,1,0,0,0-1,1v6a1,1,0,0,0,2,0v-6A1,1,0,0,0,170,662Z"/>
      <path fill="#222529" d="M175,655h-6v-1a1,1,0,0,0-2,0v1h-6a1,1,0,0,0,0,2h14a1,1,0,0,0,0-2Z"/>
    </g>
  </g>
</svg>
