<?xml version="1.0" encoding="utf-8"?>
<!-- Generator: Adobe Illustrator 15.1.0, SVG Export Plug-In  -->
<!DOCTYPE svg PUBLIC "-//W3C//DTD SVG 1.1//EN" "http://www.w3.org/Graphics/SVG/1.1/DTD/svg11.dtd" [
	<!ENTITY ns_flows "http://ns.adobe.com/Flows/1.0/">
]>
<svg version="1.1"
	 xmlns="http://www.w3.org/2000/svg" xmlns:xlink="http://www.w3.org/1999/xlink" xmlns:a="http://ns.adobe.com/AdobeSVGViewerExtensions/3.0/"
	 x="0px" y="0px" width="18px" height="18px" viewBox="-1 0 18 18" style="enable-background:new -1 0 18 18;" xml:space="preserve"
	>
<defs>
</defs>
<path style="fill:#5C6776;" d="M6.5,6C6.2197266,6,6,6.2197266,6,6.5v8C6,14.7802734,6.2197266,15,6.5,15S7,14.7802734,7,14.5v-8
	C7,6.2197266,6.7802734,6,6.5,6z"/>
<path style="fill:#5C6776;" d="M9.5,6C9.2197266,6,9,6.2197266,9,6.5v8C9,14.7802734,9.2197266,15,9.5,15s0.5-0.2197266,0.5-0.5v-8
	C10,6.2197266,9.7802734,6,9.5,6z"/>
<path style="fill:#5C6776;" d="M15.5,3h-2.7001953h-0.8408203C11.9716797,2.9326172,12,2.8710938,12,2.7998047V1.2001953
	C12,0.5400391,11.4599609,0,10.7998047,0H5.2001953C4.5371094,0,4,0.5361328,4,1.2001953v1.5996094
	C4,2.8710938,4.0283203,2.9326172,4.0410156,3H3.2001953H0.5C0.2197266,3,0,3.2197266,0,3.5S0.2197266,4,0.5,4h1.5400391
	C2.0283203,4.0673828,2,4.1289063,2,4.2001953v12.5996094C2,17.4599609,2.5400391,18,3.2001953,18h9.5996094
	C13.4599609,18,14,17.4599609,14,16.7998047V4.2001953C14,4.1289063,13.9716797,4.0673828,13.9589844,4H15.5
	C15.7802734,4,16,3.7802734,16,3.5S15.7802734,3,15.5,3z M5,2.7998047V1.2001953C5,1.0898438,5.0898438,1,5.2001953,1h5.5996094
	C10.9082031,1,11,1.0917969,11,1.2001953v1.5996094C11,2.9082031,10.9082031,3,10.7998047,3H5.2001953
	C5.0917969,3,5,2.9082031,5,2.7998047z M13,4.2001953v12.5996094C13,16.9082031,12.9082031,17,12.7998047,17H3.2001953
	C3.0917969,17,3,16.9082031,3,16.7998047V4.2001953C3,4.0898438,3.0898438,4,3.2001953,4h2h5.5996094h2
	C12.9082031,4,13,4.0917969,13,4.2001953z"/>
</svg>
