<svg xmlns="http://www.w3.org/2000/svg" width="155" height="26" viewBox="0 0 155 26">
  <g transform="translate(-14 -15)">
    <g transform="translate(-887.799 -509)">
      <g>
        <path d="M914.8,541.984a4.981,4.981,0,1,0,0-9.962V537h-4.98A4.981,4.981,0,0,0,914.8,541.984Z" fill="#339af0"/>
        <path d="M914.8,524h0v3.159h0A9.844,9.844,0,1,1,904.959,537H901.8a13,13,0,1,0,13-13Z" fill="#339af0"/>
        <path d="M904.959,537h4.861a4.977,4.977,0,0,1,4.98-4.98v-4.863A9.843,9.843,0,0,0,904.959,537Z" fill="#339af0"/>
      </g>
    </g>
    <g transform="translate(-3 -2)">
      <g transform="translate(-881.799 -507)">
        <path d="M932.8,544.487l6.826-12.013h-5.949v-3.525H946.16v.494l-6.736,12.013h6.4V545H932.8Z" fill="#fff"/>
        <path d="M946.05,539.278V539.1a6.007,6.007,0,0,1,6.354-6.154c3.21,0,5.971,1.842,5.971,6.063v1.056h-8.263a2.347,2.347,0,0,0,2.449,2.448c1.324,0,1.886-.607,2.043-1.394h3.771c-.358,2.651-2.4,4.156-5.948,4.156C948.743,545.274,946.05,543.118,946.05,539.278Zm8.419-1.483c-.066-1.413-.763-2.2-2.065-2.2a2.235,2.235,0,0,0-2.245,2.2Z" fill="#fff"/>
        <path d="M959.275,533.26h4.019v1.886a4.147,4.147,0,0,1,3.863-2.2c2.268,0,3.84,1.415,3.84,4.424V545h-4.02v-6.826c0-1.325-.517-1.977-1.685-1.977-1.19,0-2,.719-2,2.224V545h-4.019Z" fill="#fff"/>
        <path d="M972.368,530.071a2.217,2.217,0,1,1,2.2,2.067A2.1,2.1,0,0,1,972.368,530.071Zm.2,3.189h4.02V545h-4.02Z" fill="#fff"/>
        <path d="M978.16,540.917V533.26h4.021v7.007c0,1.324.515,1.975,1.662,1.975,1.212,0,2-.719,2-2.223V533.26h4.02V545h-4.02v-1.819a3.861,3.861,0,0,1-3.727,2.089C979.846,545.274,978.16,543.881,978.16,540.917Z" fill="#fff"/>
        <path d="M990.624,541.276h3.706c.134.854.515,1.325,1.66,1.325.987,0,1.438-.381,1.438-.965,0-.562-.562-.832-2.178-1.055-3.145-.4-4.47-1.326-4.47-3.773,0-2.6,2.314-3.863,5.031-3.863,2.9,0,4.917.989,5.187,3.795H997.36a1.313,1.313,0,0,0-1.5-1.167c-.876,0-1.326.382-1.326.92,0,.562.54.787,1.977.966,3.257.4,4.827,1.258,4.827,3.772,0,2.786-2.065,4.043-5.321,4.043C992.668,545.274,990.714,543.881,990.624,541.276Z" fill="#fff"/>
      </g>
      <g transform="translate(-881.799 -507)">
        <path d="M1006.642,528.786h3.01v16.056h-3.01Z" fill="#fff"/>
        <path d="M1015.647,531.144h-4.468v-2.358h11.945v2.358h-4.468v13.7h-3.009Z" fill="#fff"/>
        <path d="M1023.26,539.856h2.875c.2,1.617.852,2.963,3.569,2.963,1.774,0,3.031-.987,3.031-2.469s-.741-2.043-3.345-2.47c-3.839-.517-5.658-1.684-5.658-4.693,0-2.627,2.245-4.6,5.591-4.6,3.457,0,5.523,1.572,5.837,4.648h-2.739c-.292-1.685-1.257-2.4-3.1-2.4-1.818,0-2.763.875-2.763,2.11,0,1.3.54,1.954,3.324,2.358,3.771.516,5.725,1.594,5.725,4.805,0,2.785-2.357,4.962-5.905,4.962C1025.325,545.065,1023.484,542.888,1023.26,539.856Z" fill="#fff"/>
        <path d="M1037.5,528.786h4l4.222,10.958,4.132-10.958h3.951v16.056h-2.985V532.715l-4.784,12.127h-.965l-4.874-12.127v12.127H1037.5Z" fill="#fff"/>
      </g>
    </g>
  </g>
</svg>
