<svg xmlns="http://www.w3.org/2000/svg" width="24" height="24" viewBox="0 0 24 24">
  <g transform="translate(-4062 -1024)">
    <rect fill="none" width="24" height="24" transform="translate(4062 1024)"/>
    <g transform="translate(3906 333)">
      <path fill="#222529" d="M178.71,712.29l-2.53-2.53A5.087,5.087,0,0,0,177,707a5,5,0,1,0-5,5,5.089,5.089,0,0,0,2.76-.82l2.53,2.53a1,1,0,1,0,1.42-1.42Zm-4.01-4.01a2.886,2.886,0,0,1-1.42,1.42,2.773,2.773,0,0,1-1.28.3,3,3,0,1,1,3-3A2.774,2.774,0,0,1,174.7,708.28Z"/>
      <path fill="#222529" d="M177,694H159a1,1,0,0,0-1,1v14a1,1,0,0,0,1,1h5a1,1,0,0,0,0-2h-4v-8h16v1a1,1,0,0,0,2,0v-6A1,1,0,0,0,177,694Zm-17,4v-2h16v2Z"/>
    </g>
  </g>
</svg>
