<svg xmlns="http://www.w3.org/2000/svg" width="20" height="20" viewBox="0 0 20 20">
  <g id="그룹_2929" data-name="그룹 2929" transform="translate(-1768 -398)">
    <path id="패스_4560" data-name="패스 4560" d="M1787,416h-18a1,1,0,0,0,0,2h18a1,1,0,0,0,0-2Z" fill="#ccced1"/>
    <path id="패스_4561" data-name="패스 4561" d="M1772,414h5a.991.991,0,0,0,.382-.077,1.009,1.009,0,0,0,.325-.216l9-9a1,1,0,0,0,0-1.414l-5-5a1,1,0,0,0-1.414,0l-9,9a1.011,1.011,0,0,0-.216.325A.99.99,0,0,0,1771,408v5A1,1,0,0,0,1772,414Zm9-13.586,3.586,3.586-8,8H1773v-3.586Z" fill="#ccced1"/>
  </g>
</svg>
