<svg xmlns="http://www.w3.org/2000/svg" width="24" height="24" viewBox="0 0 24 24">
  <g transform="translate(-4270 -1376)">
    <rect fill="none" width="24" height="24" transform="translate(4270 1376)"/>
    <g transform="translate(4114 -573)">
      <path fill="#222529" d="M176,1952H160a1,1,0,0,0-1,1v16a1,1,0,0,0,1,1h16a1,1,0,0,0,1-1v-16A1,1,0,0,0,176,1952Zm-1,16H161v-14h14Z"/>
      <path fill="#222529" d="M162.34,1965.75l.02.02a.947.947,0,0,0,.44.21,1.23,1.23,0,0,0,.2.02h10a1.23,1.23,0,0,0,.2-.02.947.947,0,0,0,.44-.21,1,1,0,0,0,.36-.77,1.229,1.229,0,0,0-.02-.2.939.939,0,0,0-.211-.44l-.059-.07-2.87-3.82-.08-.11a1.066,1.066,0,0,0-.15-.15.909.909,0,0,0-.41-.19,1.009,1.009,0,0,0-.4,0,1.1,1.1,0,0,0-.17.05.406.406,0,0,0-.09.05.6.6,0,0,0-.15.09,1.066,1.066,0,0,0-.15.15l-.08.11-.01.02-.06.09-2.05,2.7-1.13-1.69v-.01l-.15-.22a1.066,1.066,0,0,0-.15-.15.909.909,0,0,0-.41-.19,1.009,1.009,0,0,0-.4,0,.909.909,0,0,0-.41.19,1.066,1.066,0,0,0-.15.15l-.15.22v.01l-1.86,2.77a.958.958,0,0,0-.211.44,1.357,1.357,0,0,0-.019.2.981.981,0,0,0,.21.61A.863.863,0,0,0,162.34,1965.75Z"/>
      <circle fill="#222529" cx="2" cy="2" r="2" transform="translate(163 1956)"/>
    </g>
  </g>
</svg>
