<svg xmlns="http://www.w3.org/2000/svg" width="130" height="130" viewBox="0 0 130 130">
  <defs>
    <style>
      .doc-empty {
        fill: rgba(204,206,209,0.6);
      }
    </style>
  </defs>
  <g transform="translate(-2498 -1887)">
    <path class="doc-empty" d="M2620.5,1959h-.5v-7.5a7.478,7.478,0,0,0-7-7.47v-5.53a7.478,7.478,0,0,0-7-7.47V1923h-4v8h-78v-8h-4v8.03a7.478,7.478,0,0,0-7,7.47v5.53a7.478,7.478,0,0,0-7,7.47v7.5h-.5a7.5,7.5,0,0,0-7.5,7.5v43a7.5,7.5,0,0,0,7.5,7.5h115a7.5,7.5,0,0,0,7.5-7.5v-43A7.5,7.5,0,0,0,2620.5,1959ZM2517,1938.5a3.5,3.5,0,0,1,3-3.46,2.734,2.734,0,0,1,.5-.04h85a2.734,2.734,0,0,1,.5.04,3.5,3.5,0,0,1,3,3.46v5.5h-92Zm-7,13a3.5,3.5,0,0,1,3-3.46,2.734,2.734,0,0,1,.5-.04h99a2.734,2.734,0,0,1,.5.04,3.5,3.5,0,0,1,3,3.46v7.5h-23.5a7.5,7.5,0,0,0-7.5,7.5v4.5a5,5,0,0,1-5,5h-34a5,5,0,0,1-5-5v-4.5a7.5,7.5,0,0,0-7.5-7.5H2510Zm114,58a3.5,3.5,0,0,1-3.5,3.5h-115a3.5,3.5,0,0,1-3.5-3.5v-43a3.5,3.5,0,0,1,3.5-3.5h28a3.5,3.5,0,0,1,3.5,3.5v4.5a9.014,9.014,0,0,0,9,9h34a9.014,9.014,0,0,0,9-9v-4.5a3.5,3.5,0,0,1,3.5-3.5h28a3.5,3.5,0,0,1,3.5,3.5Z"/>
    <rect class="doc-empty" width="14" height="4" transform="translate(2556 1887)"/>
    <rect class="doc-empty" width="14" height="4" transform="translate(2574 1887)"/>
    <rect class="doc-empty" width="4" height="14" transform="translate(2602 1905)"/>
    <path class="doc-empty" d="M2602,1894.5v6.5h4v-6.5a7.5,7.5,0,0,0-7.5-7.5H2592v4h6.5A3.5,3.5,0,0,1,2602,1894.5Z"/>
    <rect class="doc-empty" width="4" height="14" transform="translate(2520 1905)"/>
    <path class="doc-empty" d="M2524,1894.5a3.5,3.5,0,0,1,3.5-3.5h6.5v-4h-6.5a7.5,7.5,0,0,0-7.5,7.5v6.5h4Z"/>
    <rect class="doc-empty" width="14" height="4" transform="translate(2538 1887)"/>
    <path class="doc-empty" d="M2554.6,1920.389a2,2,0,0,0,2.828,0l6.573-6.574,6.573,6.574a2,2,0,0,0,2.828-2.829l-6.573-6.573,6.573-6.573a2,2,0,0,0-2.828-2.828l-6.573,6.573-6.573-6.573a2,2,0,0,0-2.828,2.828l6.573,6.573-6.573,6.573A2,2,0,0,0,2554.6,1920.389Z"/>
    <path class="doc-empty" d="M2587,1989a2.006,2.006,0,0,0-2,2v5h-44v-5a2.015,2.015,0,0,0-2-2,2.006,2.006,0,0,0-2,2v7a2.006,2.006,0,0,0,2,2h48a2.006,2.006,0,0,0,2-2v-7a2.015,2.015,0,0,0-2-2Z"/>
  </g>
</svg>
