<svg xmlns="http://www.w3.org/2000/svg" width="24" height="24" viewBox="0 0 24 24">
  <g transform="translate(-4270 -980)">
    <rect fill="none" width="24" height="24" transform="translate(4270 980)"/>
    <g transform="translate(4114 -700)">
      <path fill="#222529" d="M178.707,1683.293l-1-1a1,1,0,0,0-1.414,0l-8,8A1.012,1.012,0,0,0,168,1691v1a1,1,0,0,0,1,1h1a1.013,1.013,0,0,0,.708-.294l8-8A1,1,0,0,0,178.707,1683.293Z"/>
      <path fill="#222529" d="M176,1691a1,1,0,0,0-1,1v8H161v-14h8a1,1,0,0,0,0-2h-9a1,1,0,0,0-1,1v16a1,1,0,0,0,1,1h16a1,1,0,0,0,1-1v-9A1,1,0,0,0,176,1691Z"/>
    </g>
  </g>
</svg>
