<svg xmlns="http://www.w3.org/2000/svg" width="20" height="20" viewBox="0 0 20 20">
  <path d="M40,185a1.024,1.024,0,0,0-.29-.71l-4-4a1.014,1.014,0,0,0-1.42,0L31.58,183H20.5a.5.5,0,0,0-.5.5v16a.5.5,0,0,0,.5.5h16a.5.5,0,0,0,.5-.5V188.42l2.71-2.71A1.024,1.024,0,0,0,40,185Zm-5,13H22V185h7.58l-3.29,3.29a.261.261,0,0,1-.03.05.9.9,0,0,0-.18.28.912.912,0,0,0-.07.33c0,.021-.01.03-.01.05v4a1,1,0,0,0,1,1h4c.02,0,.029-.01.05-.01a.912.912,0,0,0,.33-.07.953.953,0,0,0,.3-.19c.01-.009.02-.009.03-.02L35,190.42Zm2-12.41-2,2L30.59,192H28v-2.59L32.41,185l2-2,.59-.59L37.59,185Z" transform="translate(-20 -180)"/>
</svg>
