<svg xmlns="http://www.w3.org/2000/svg" width="15" height="15" viewBox="0 0 15 15">
  <path d="M1136.23,291.23a5.349,5.349,0,0,0,0-1.46l1.63-1.24a.382.382,0,0,0,.09-.48l-1.54-2.6a.4.4,0,0,0-.47-.16l-1.92.75a5.818,5.818,0,0,0-1.31-.74l-.28-1.99a.4.4,0,0,0-.39-.31h-3.08a.372.372,0,0,0-.38.31l-.29,1.99a6.158,6.158,0,0,0-1.3.74l-1.92-.75a.379.379,0,0,0-.47.16l-1.55,2.6a.362.362,0,0,0,.1.48l1.62,1.24a5.349,5.349,0,0,0,0,1.46l-1.62,1.24a.373.373,0,0,0-.1.48l1.55,2.6a.4.4,0,0,0,.47.16l1.92-.75a5.75,5.75,0,0,0,1.3.74l.29,1.99a.378.378,0,0,0,.38.31h3.08a.378.378,0,0,0,.38-.31l.29-1.99a6.418,6.418,0,0,0,1.3-.74l1.92.75a.379.379,0,0,0,.47-.16l1.54-2.6a.36.36,0,0,0-.09-.48ZM1130.5,293a2.5,2.5,0,1,1,2.5-2.5A2.5,2.5,0,0,1,1130.5,293Z" transform="translate(-1122.998 -283)"/>
</svg>
