<svg xmlns="http://www.w3.org/2000/svg" width="20" height="20" viewBox="0 0 20 20">
    <g transform="translate(-1520 -137)">
        <g transform="translate(1520 157) rotate(-90)">
            <rect width="20" height="20" fill="none"/>
        </g>
        <g transform="translate(1420 -163)">
            <path d="M103.312,309.275l2.534,2.265a.953.953,0,0,1,.287.926l-.775,3.384a.9.9,0,0,0,1.335,1.011l2.838-1.816a.877.877,0,0,1,.935,0l2.842,1.816a.9.9,0,0,0,1.335-1.011l-.778-3.384a.966.966,0,0,1,.287-.926l2.534-2.265a.939.939,0,0,0-.51-1.635l-3.323-.279a.9.9,0,0,1-.751-.572l-1.279-3.215a.876.876,0,0,0-1.645,0l-1.279,3.215a.9.9,0,0,1-.755.572l-3.319.279a.941.941,0,0,0-.513,1.635"
                  class="document-storage-star" fill="#cfd5d9" stroke="#abb0b5" stroke-width="1"/>
        </g>
    </g>
</svg>
