<svg xmlns="http://www.w3.org/2000/svg" width="32" height="32" viewBox="0 0 32 32">
  <g transform="translate(-886 -252)">
    <rect fill="none" width="32" height="32" transform="translate(886 252)"/>
    <g transform="translate(-56 -1944)">
      <path fill="#3373c4" d="M969,2218a1,1,0,0,0-1,1v3a2.006,2.006,0,0,1-2,2H950a2.006,2.006,0,0,1-2-2v-19a2.006,2.006,0,0,1,2-2h1a1,1,0,0,0,1,1h12a1,1,0,0,0,1-1h1a2.006,2.006,0,0,1,2,2v2a1,1,0,0,0,2,0v-2a4,4,0,0,0-4-4h-1a1,1,0,0,0-1-1h-3.18a2.988,2.988,0,0,0-5.64,0H952a1,1,0,0,0-1,1h-1a4,4,0,0,0-4,4v19a4,4,0,0,0,4,4h16a4,4,0,0,0,4-4v-3A1,1,0,0,0,969,2218Zm-11-20a1,1,0,1,1-1,1A1,1,0,0,1,958,2198Z"/>
      <path fill="#3373c4" d="M973.709,2208.291l-.012-.008-.98-.98-.008-.012a1.009,1.009,0,0,0-1.418,0l-.008.012-8.992,8.992a1.068,1.068,0,0,0-.1.15,1.014,1.014,0,0,0-.113.172A1,1,0,0,0,962,2217v1a1,1,0,0,0,1,1h.995a.722.722,0,0,0,.524-.168.943.943,0,0,0,.186-.123l8.992-8.992.012-.008a1.009,1.009,0,0,0,0-1.418Z"/>
      <path fill="#3373c4" d="M963,2206H953a1,1,0,0,0,0,2h10a1,1,0,0,0,0-2Z"/>
      <path fill="#3373c4" d="M964,2211a1,1,0,0,0-1-1H953a1,1,0,0,0,0,2h10A1,1,0,0,0,964,2211Z"/>
      <path fill="#3373c4" d="M959,2214h-6a1,1,0,0,0,0,2h6a1,1,0,0,0,0-2Z"/>
      <path fill="#3373c4" d="M959,2218h-6a1,1,0,0,0,0,2h6a1,1,0,0,0,0-2Z"/>
    </g>
  </g>
</svg>
