<svg xmlns="http://www.w3.org/2000/svg" width="32" height="32" viewBox="0 0 32 32">
  <g transform="translate(-886 -252)">
    <rect fill="none" width="32" height="32" transform="translate(886 252)"/>
    <g transform="translate(86 -1986)">
      <path fill="#3373c4" d="M828.661,2250.078c-.005-.019-.006-.039-.011-.058a13,13,0,0,0-25.3,0c-.005.019-.006.039-.011.058A2.992,2.992,0,0,0,801,2253v2a3,3,0,0,0,3,3h1v-5a11,11,0,1,1,13.68,10.67,2.985,2.985,0,0,0-5.36,0A2.84,2.84,0,0,0,813,2265a3,3,0,0,0,5.92.67A12.982,12.982,0,0,0,828,2258a3,3,0,0,0,3-3v-2A2.992,2.992,0,0,0,828.661,2250.078Z"/>
      <path fill="#3373c4" d="M821.5,2254a1,1,0,0,0-2,0,3.542,3.542,0,0,1-7,0,1,1,0,0,0-2,0,5.525,5.525,0,0,0,11,0Z"/>
      <circle fill="#3373c4" cx="1.5" cy="1.5" r="1.5" transform="translate(810 2248)"/>
      <circle fill="#3373c4" cx="1.5" cy="1.5" r="1.5" transform="translate(819 2248)"/>
    </g>
  </g>
</svg>
