<svg xmlns="http://www.w3.org/2000/svg" width="32" height="32" viewBox="0 0 32 32">
  <g transform="translate(-886 -252)">
    <rect fill="none" width="32" height="32" transform="translate(886 252)"/>
    <g transform="translate(86 -2112)">
      <path fill="#3373c4" d="M829,2368H803a1,1,0,0,0-1,1v22a1,1,0,0,0,1,1h26a1,1,0,0,0,1-1v-22A1,1,0,0,0,829,2368Zm-5,2a1,1,0,1,1-1,1A1,1,0,0,1,824,2370Zm-3,0a1,1,0,1,1-1,1A1,1,0,0,1,821,2370Zm7,20H804v-16h24Zm-1-18a1,1,0,1,1,1-1A1,1,0,0,1,827,2372Z"/>
      <path fill="#3373c4" d="M814.775,2387.966a1,1,0,0,0,1.225-.706l1.966-9a1,1,0,0,0-1.932-.519l-1.966,9A1,1,0,0,0,814.775,2387.966Z"/>
      <path fill="#3373c4" d="M806.292,2382.709l.012.008,3.992,3.992a1,1,0,1,0,1.414-1.414l-3.3-3.295,3.3-3.295a1,1,0,1,0-1.414-1.414l-3.992,3.992-.012.008a1.009,1.009,0,0,0,0,1.418Z"/>
      <path fill="#3373c4" d="M820.291,2386.71a1,1,0,0,0,1.414,0l3.992-3.992.012-.008a1.009,1.009,0,0,0,0-1.418l-.012-.008-3.992-3.992a1,1,0,0,0-1.414,1.414l3.295,3.295-3.295,3.295A1,1,0,0,0,820.291,2386.71Z"/>
    </g>
  </g>
</svg>
