<svg xmlns="http://www.w3.org/2000/svg" width="32" height="32" viewBox="0 0 32 32">
  <g id="Icon_Form_부서_검색" data-name="Icon_Form_부서 검색" transform="translate(-6052 -2609)">
    <rect id="사각형_7909" data-name="사각형 7909" width="32" height="32" transform="translate(6052 2609)" fill="none"/>
    <g id="그룹_4938" data-name="그룹 4938" transform="translate(5496 453)">
      <path id="패스_9267" data-name="패스 9267" d="M575.64,2172.31a7.482,7.482,0,0,0-2.14-.31h-3a7.49,7.49,0,0,0-7.5,7.5v3.5a1,1,0,0,0,.87.99.57.57,0,0,0,.13.01h16a.57.57,0,0,0,.13-.01,1,1,0,0,0,.87-.99v-3.5A7.491,7.491,0,0,0,575.64,2172.31ZM579,2182H565v-2.5a5.506,5.506,0,0,1,5.5-5.5h3a5.493,5.493,0,0,1,5.5,5.5Z" fill="#8B9094"/>
      <path id="패스_9268" data-name="패스 9268" d="M572,2170a5,5,0,1,0-5-5A5,5,0,0,0,572,2170Zm0-8a3,3,0,1,1-3,3A3,3,0,0,1,572,2162Z" fill="#8B9094"/>
      <path id="패스_9269" data-name="패스 9269" d="M582,2174h-.74a9.444,9.444,0,0,1,1.74,5.5v3.5a3,3,0,0,1-.17,1H587a1,1,0,0,0,1-1v-3A5.992,5.992,0,0,0,582,2174Z" fill="#8B9094"/>
      <path id="패스_9270" data-name="패스 9270" d="M584,2169a3,3,0,0,0-5.34-1.88,2.934,2.934,0,0,0-.61,1.38,2.072,2.072,0,0,0-.05.5,3,3,0,0,0,6,0Z" fill="#8B9094"/>
      <path id="패스_9271" data-name="패스 9271" d="M562.76,2174H562a5.992,5.992,0,0,0-6,6v3a1,1,0,0,0,1,1h4.17a3,3,0,0,1-.17-1v-3.5A9.414,9.414,0,0,1,562.76,2174Z" fill="#8B9094"/>
      <path id="패스_9272" data-name="패스 9272" d="M563,2172a3,3,0,0,0,3-3,2.072,2.072,0,0,0-.05-.5,2.934,2.934,0,0,0-.61-1.38A3,3,0,1,0,563,2172Z" fill="#8B9094"/>
    </g>
  </g>
</svg>
