<svg xmlns="http://www.w3.org/2000/svg" width="20" height="20" viewBox="0 0 20 20">
  <defs>
    <style>
      .cls-1 {
        fill: #fff;
      }
    </style>
  </defs>
  <g transform="translate(-3025 -1080)">
    <path class="cls-1" d="M3044.5,1080h-19a.5.5,0,0,0-.5.5v19a.5.5,0,0,0,.5.5h19a.5.5,0,0,0,.5-.5v-19A.5.5,0,0,0,3044.5,1080Zm-1.5,18h-16v-16h16Z"/>
    <path class="cls-1" d="M3033.076,1094.381a1,1,0,0,0,.544.543.979.979,0,0,0,.246.05,1.03,1.03,0,0,0,.134.027.789.789,0,0,0,.108-.023.955.955,0,0,0,.274-.054,1,1,0,0,0,.325-.217h0l4-4a1,1,0,0,0,0-1.416l-4-4a1.092,1.092,0,0,0-.1-.064.964.964,0,0,0-.228-.151A1,1,0,0,0,3034,1085h0l-.012,0a.965.965,0,0,0-.666.271c-.009.009-.02.011-.029.02l0,.008a1,1,0,0,0-.211.317.98.98,0,0,0-.075.372l0,.01v8c0,.013.007.024.008.037A.987.987,0,0,0,3033.076,1094.381Zm1.924-2.795v-3.172l1.586,1.586Z"/>
  </g>
</svg>
