<svg xmlns="http://www.w3.org/2000/svg" width="20" height="20" viewBox="0 0 20 20">
  <defs>
    <style>
      .cls-1 {
        fill: #fff;
        fill-rule: evenodd;
      }
    </style>
  </defs>
  <path class="cls-1" d="M2975.71,1264.29l-1.71-1.71-1.58-1.58-1.71-1.71a1.006,1.006,0,0,0-.71-.29h-13.5a.5.5,0,0,0-.5.5v19a.5.5,0,0,0,.5.5h19a.5.5,0,0,0,.5-.5V1265A1.007,1.007,0,0,0,2975.71,1264.29ZM2963,1272h6v5h-6Zm11,5h-3v-6a.99.99,0,0,0-.078-.389,1.009,1.009,0,0,0-.47-.49.672.672,0,0,0-.063-.042A.986.986,0,0,0,2970,1270h-8a1,1,0,0,0-1,1v6h-3v-16h11.58l4.42,4.42Z" transform="translate(-2956 -1259)"/>
</svg>
