<svg xmlns="http://www.w3.org/2000/svg" width="20" height="20" viewBox="0 0 20 20">
  <defs>
    <style>
      .cls-1 {
        fill: #fff;
      }
    </style>
  </defs>
  <g transform="translate(-1768 -398)">
    <path class="cls-1" d="M1787,416h-18a1,1,0,0,0,0,2h18a1,1,0,0,0,0-2Z"/>
    <path class="cls-1" d="M1772,414h5a.991.991,0,0,0,.382-.077,1.009,1.009,0,0,0,.325-.216l9-9a1,1,0,0,0,0-1.414l-5-5a1,1,0,0,0-1.414,0l-9,9a1.011,1.011,0,0,0-.216.325A.99.99,0,0,0,1771,408v5A1,1,0,0,0,1772,414Zm9-13.586,3.586,3.586-8,8H1773v-3.586Z"/>
  </g>
</svg>
