<svg xmlns="http://www.w3.org/2000/svg" width="20" height="21" viewBox="0 0 20 21">
  <defs>
    <style>
      .cls-1 {
        fill: #fff;
      }
    </style>
  </defs>
  <path class="cls-1" d="M1783.293,441.707a1,1,0,0,0,1.414,0l2.986-2.986c0-.005.012-.006.017-.011a.987.987,0,0,0,.21-.32l0-.006c.005-.013.006-.027.011-.039a.266.266,0,0,0,.027-.1.807.807,0,0,0,.028-.19.82.82,0,0,0,0-.12.807.807,0,0,0-.028-.19.266.266,0,0,0-.027-.1c-.005-.012-.006-.026-.011-.039l0-.006a.987.987,0,0,0-.21-.32c-.005-.005-.013-.006-.017-.011l-2.986-2.986a1,1,0,0,0-1.414,1.414l1.293,1.293H1777v-5.5a.5.5,0,0,0-.5-.5l-2.67-1H1787a1,1,0,0,0,0-2h-18a.958.958,0,0,0-.318.065l-.012-.005-.17-.06a.5.5,0,0,0-.5.5v17a.537.537,0,0,0,.05.21.477.477,0,0,0,.45.29l2.67,1,5.33,2a.5.5,0,0,0,.5-.5V447h10a1,1,0,0,0,0-2h-10v-6h7.586l-1.293,1.293A1,1,0,0,0,1783.293,441.707ZM1775,445v1.3l-3.48-1.3-1.52-.57V430.7l5,1.87V445Z" transform="translate(-1768 -428)"/>
</svg>
