<svg xmlns="http://www.w3.org/2000/svg" width="20" height="20" viewBox="0 0 20 20">
  <defs>
    <style>
      .cls-1 {
        fill: #fff;
      }
    </style>
  </defs>
  <path class="cls-1" d="M1757.5,368h-19a.5.5,0,0,0-.5.5V374a1,1,0,0,0,2,0v-4h16v16h-16v-5h7.59l-1.3,1.29a1,1,0,0,0,1.42,1.42l3-3a1.032,1.032,0,0,0,.21-.33,1,1,0,0,0,0-.76,1.032,1.032,0,0,0-.21-.33l-3-3a1,1,0,0,0-1.42,1.42l1.3,1.29H1739a1,1,0,0,0-1,1v7.5a.5.5,0,0,0,.5.5h19a.5.5,0,0,0,.5-.5v-19A.5.5,0,0,0,1757.5,368Z" transform="translate(-1738 -368)"/>
</svg>
