<svg xmlns="http://www.w3.org/2000/svg" width="24" height="24" viewBox="0 0 24 24">
  <g transform="translate(-90 -346)">
    <path fill="#ffffff" d="M97,365H94V350h9v2a.987.987,0,0,0,.079.389c.007.018.023.031.032.049A.992.992,0,0,0,104,353h2v2a1,1,0,0,0,2,0v-3c0-.007,0-.013,0-.02a.988.988,0,0,0-.073-.363,1,1,0,0,0-.216-.325h0l-3-3c-.008-.008-.018-.01-.025-.017a.982.982,0,0,0-.3-.2A.992.992,0,0,0,104,348H93a1,1,0,0,0-1,1v17a1,1,0,0,0,1,1h4a1,1,0,0,0,0-2Z"/>
    <path fill="#ffffff" d="M106,358a6.087,6.087,0,0,0-2,.31c-3.28,1.09-4,4.69-4,4.69a7.411,7.411,0,0,0,.8,2,5.774,5.774,0,0,0,5.2,3c5,0,6-5,6-5S111,358,106,358Zm0,8a3.794,3.794,0,0,1-2.68-1,4.8,4.8,0,0,1-1.25-2,4.425,4.425,0,0,1,1.93-2.51,3.967,3.967,0,0,1,2-.49,3.11,3.11,0,1,1,0,6Z"/>
    <circle fill="#ffffff" cx="2" cy="2" r="2" transform="translate(104 361)"/>
  </g>
</svg>
