<svg xmlns="http://www.w3.org/2000/svg" width="24" height="24" viewBox="0 0 24 24">
  <g transform="translate(-3453 -81)">
    <path fill="#ffffff" d="M3474.71,91.292l-2-2a1.008,1.008,0,0,0-1.42,0l-6,6a.994.994,0,0,0-.21.32.563.563,0,0,0-.04.12v.02c-.01.03-.02.07-.03.11a.619.619,0,0,0-.01.14v2a1,1,0,0,0,1,1h2a.679.679,0,0,0,.14-.009c.04-.011.08-.02.11-.031h.02a.508.508,0,0,0,.12-.04.969.969,0,0,0,.32-.21l6-6a1.014,1.014,0,0,0,0-1.42Z"/>
    <path fill="#ffffff" d="M3472,97a1,1,0,0,0-1,1v2h-14V86h2v4a.991.991,0,0,0,.563.889.5.5,0,0,0,.048.032A.986.986,0,0,0,3460,91h7a1,1,0,0,0,1-1V87.415l1.292,1.292a1,1,0,1,0,1.414-1.415l-3-3a1,1,0,0,0-.328-.218.989.989,0,0,0-.308-.062c-.025,0-.048-.015-.073-.015h-11a1,1,0,0,0-.707.293c-.015.015-.021.038-.036.054A.984.984,0,0,0,3455,85h0v16a1,1,0,0,0,1,1h16a1,1,0,0,0,1-1V98A1,1,0,0,0,3472,97Zm-11-11h5v3h-5Z"/>
  </g>
</svg>
