<svg xmlns="http://www.w3.org/2000/svg" width="22" height="22" viewBox="0 0 22 22">
  <g transform="translate(-1537 -397)">
    <g>
      <path fill="#84D1FA" d="M1548,398a10,10,0,1,0,10,10A10,10,0,0,0,1548,398Zm0,18a8,8,0,1,1,8-8A8.009,8.009,0,0,1,1548,416Z"/>
      <path fill="#84D1FA" d="M1552.968,411.16A.941.941,0,0,0,1553,411c0-.007,0-.013,0-.02a.96.96,0,0,0-.038-.188.992.992,0,0,0-.048-.2.12.12,0,0,0,0-.018l-3.988-7a.979.979,0,0,0-.491-.472c-.006,0-.009-.008-.015-.011h-.006a.98.98,0,0,0-.283-.07c-.042,0-.082-.018-.123-.018s-.081.014-.123.018a.98.98,0,0,0-.283.07h-.006c-.006,0-.009.008-.015.011a.979.979,0,0,0-.491.472l-3.988,7,0,.018a.952.952,0,0,0-.049.2.993.993,0,0,0-.037.184c0,.007,0,.013,0,.02a.9.9,0,0,0,.033.164,1.153,1.153,0,0,0,.039.2,1.073,1.073,0,0,0,.113.188,1.031,1.031,0,0,0,.091.136,1.017,1.017,0,0,0,.2.147.724.724,0,0,0,.1.075l.016,0a4.659,4.659,0,0,0,.388.086c.006,0,.012,0,.018,0h8c.006,0,.012,0,.018,0a.988.988,0,0,0,.184-.037.958.958,0,0,0,.2-.049l.017,0a.776.776,0,0,0,.109-.081,1.076,1.076,0,0,0,.192-.14.925.925,0,0,0,.095-.144.608.608,0,0,0,.15-.381ZM1548,405.994l2.282,4.006h-4.564Z"/>
    </g>
  </g>
</svg>
