<svg xmlns="http://www.w3.org/2000/svg" width="24" height="24" viewBox="0 0 24 24">
  <g transform="translate(-643 -781)">
    <rect fill="none" width="24" height="24" transform="translate(643 781)"/>
    <g >
      <path fill="#323232" d="M663,784h-3.667L659,783a1,1,0,0,0-1-1h-6a1,1,0,0,0-1,1l-.333,1H647a1,1,0,0,0,0,2v15a2.006,2.006,0,0,0,2,2h12a2.006,2.006,0,0,0,2-2V786a1,1,0,0,0,0-2Zm-2,17H649V786h12Z"/>
      <path fill="#323232" d="M652,788a1,1,0,0,0-1,1v9a1,1,0,0,0,2,0v-9A1,1,0,0,0,652,788Z"/>
      <path fill="#323232" d="M655,788a1,1,0,0,0-1,1v9a1,1,0,0,0,2,0v-9A1,1,0,0,0,655,788Z"/>
      <path fill="#323232" d="M658,788a1,1,0,0,0-1,1v9a1,1,0,0,0,2,0v-9A1,1,0,0,0,658,788Z"/>
    </g>
  </g>
</svg>
