<svg xmlns="http://www.w3.org/2000/svg" width="24" height="24" viewBox="0 0 24 24">
  <g transform="translate(-5811 -1353)">
    <rect fill="none" width="24" height="24" transform="translate(5811 1353)"/>
    <g transform="translate(5655 -1648)">
      <path fill="#ffffff" d="M175,3020H161v-14h2v4a1,1,0,0,0,1,1h7a1,1,0,0,0,1-1v-4h.58l1.21,1.21s1.351-1.359,1.42-1.42l-1.5-1.5a1.009,1.009,0,0,0-.71-.29H160a1,1,0,0,0-1,1v16a1,1,0,0,0,1,1h16a1,1,0,0,0,1-1v-7l-2,2Zm-10-14h5v3h-5Z"/>
      <path fill="#ffffff" d="M178.707,3008.293l-1-1a1,1,0,0,0-1.414,0l-8,8A1.012,1.012,0,0,0,168,3016v1a1,1,0,0,0,1,1h1a1.011,1.011,0,0,0,.708-.294l8-8A1,1,0,0,0,178.707,3008.293Z"/>
    </g>
  </g>
</svg>
