<svg xmlns="http://www.w3.org/2000/svg" width="20" height="20" viewBox="0 0 20 20">
    <g>
        `
        <path d="M18.62074955703334,-0.03227192682970781 H1.4225687578645712 a1.433181733264064,1.433181733264064 0 0 0 -1.433181733264064,1.433181733264064 v17.198180799168767 a1.433181733264064,1.433181733264064 0 0 0 1.433181733264064,1.433181733264064 h17.198180799168767 a1.433181733264064,1.433181733264064 0 0 0 1.433181733264064,-1.433181733264064 V1.4009098064343561 A1.433181733264064,1.433181733264064 0 0 0 18.62074955703334,-0.03227192682970781 zm-1.433181733264064,17.198180799168767 H2.855750491128635 v-11.465453866112512 h14.33181733264064 z"/>
        <path d="M5.914160309914168,10.98889560197094 l1.5564353623247735,1.3901862812661419 a0.589037692371531,0.589037692371531 0 0 1 0.17628135319147992,0.5732726933056256 l-0.47581633544366986,2.0781135132328927 a0.5532081490399289,0.5532081490399289 0 0 0 0.8197799514270452,0.6205676905033404 l1.744182169382366,-1.1150153884794418 a0.5374431499740242,0.5374431499740242 0 0 1 0.5732726933056256,0 l1.74561535111563,1.1150153884794418 a0.5532081490399289,0.5532081490399289 0 0 0 0.8197799514270452,-0.6205676905033404 l-0.47724951717693387,-2.0781135132328927 a0.5947704193045869,0.5947704193045869 0 0 1 0.17628135319147992,-0.5732726933056256 l1.5564353623247735,-1.3901862812661419 a0.5732726933056256,0.5732726933056256 0 0 0 -0.31386679958483005,-1.0032272132848454 l-2.039417606434763,-0.17054862625842382 a0.5517749673066653,0.5517749673066653 0 0 1 -0.4629176998442931,-0.35112952464969605 l-0.7853835898287079,-1.9749244284378804 a0.5388763317072884,0.5388763317072884 0 0 0 -1.0118263036844295,0 l-0.7839504080954435,1.9749244284378804 a0.5546413307731933,0.5546413307731933 0 0 1 -0.4643508815775571,0.35112952464969605 l-2.039417606434763,0.17054862625842382 A0.5732726933056256,0.5732726933056256 0 0 0 5.914160309914168,10.98889560197094 z"/>
    </g>
</svg>